<svg width="167" height="203" viewBox="0 0 167 203" fill="none" xmlns="http://www.w3.org/2000/svg">
<g style="mix-blend-mode:color-dodge" opacity="0.2">
<path d="M-45.793 18.6763C-42.7091 20.6954 -39.546 22.4771 -36.3039 24.1003C-35.1573 24.6942 -34.6038 26.9114 -34.9992 29.0889C-35.6318 32.2958 -36.2249 35.4632 -36.8575 38.6701C-37.2924 40.8477 -38.6762 42.273 -39.981 41.7583C-43.658 40.333 -47.2955 38.6701 -50.8934 36.8093C-52.1586 36.1362 -52.6331 33.7607 -51.9609 31.4644C-50.9725 28.1387 -49.9841 24.8526 -48.9956 21.5269C-48.2839 19.2305 -46.8606 17.9636 -45.793 18.6763ZM-55.5984 43.7379C-56.5869 47.0636 -57.5753 50.3497 -58.5638 53.6754C-59.2359 55.9717 -58.6033 58.3472 -57.1009 58.9015C-52.9099 60.5644 -48.6793 62.0293 -44.4487 63.2566C-42.9463 63.6921 -41.3648 62.2272 -40.9694 60.0497C-40.3368 56.8428 -39.7437 53.6754 -39.1111 50.4685C-38.6762 48.2909 -39.4274 46.1134 -40.7717 45.6383C-44.5674 44.2526 -48.2839 42.6293 -52.0005 40.8081C-53.3052 40.135 -54.9263 41.4415 -55.5984 43.7379ZM-62.2013 65.9489C-63.1897 69.2746 -64.1782 72.5607 -65.1666 75.8864C-65.8387 78.1828 -65.048 80.4791 -63.3083 81.0334C-58.5242 82.5379 -53.7006 83.7652 -48.9165 84.7946C-47.2164 85.1509 -45.4767 83.6068 -45.0814 81.4293C-44.4487 78.2224 -43.8557 75.055 -43.2231 71.8481C-42.7882 69.6705 -43.6975 67.5721 -45.2395 67.1366C-49.5887 65.9489 -53.8983 64.5236 -58.2079 62.9003C-59.7499 62.3064 -61.5291 63.6526 -62.2013 65.9489ZM-68.8041 88.1599C-69.7925 91.4856 -70.781 94.7717 -71.7694 98.0974C-72.4416 100.394 -71.4531 102.65 -69.5553 103.126C-64.1386 104.432 -58.7615 105.501 -53.3843 106.293C-51.4865 106.57 -49.5887 104.986 -49.1933 102.769C-48.5607 99.5623 -47.9676 96.395 -47.335 93.188C-46.9001 91.0105 -47.9676 88.9517 -49.7073 88.635C-54.61 87.6848 -59.5127 86.4574 -64.4154 84.9926C-66.1551 84.4779 -68.1319 85.8636 -68.8041 88.1599ZM-75.4465 110.371C-76.4349 113.697 -77.4234 116.983 -78.4118 120.308C-79.0839 122.605 -77.9373 124.822 -75.8023 125.218C-69.7925 126.366 -63.8223 127.197 -57.8916 127.791C-55.7961 127.989 -53.7402 126.326 -53.3448 124.149C-52.7122 120.942 -52.1191 117.775 -51.4865 114.568C-51.0516 112.39 -52.2773 110.41 -54.2146 110.133C-59.6708 109.381 -65.1666 108.352 -70.7019 107.085C-72.5997 106.649 -74.7348 108.075 -75.4465 110.371ZM-82.0493 132.582C-83.0377 135.908 -84.0262 139.194 -85.0146 142.519C-85.6868 144.816 -84.3425 146.993 -82.0098 147.31C-75.4069 148.26 -68.8436 148.933 -62.3594 149.29C-60.0662 149.408 -57.8521 147.706 -57.4567 145.489C-56.8241 142.282 -56.231 139.115 -55.5984 135.908C-55.1635 133.73 -56.5473 131.83 -58.6824 131.632C-64.6922 131.117 -70.781 130.286 -76.9094 129.177C-79.0444 128.781 -81.3376 130.286 -82.0493 132.582ZM-88.6521 154.793C-89.6406 158.119 -90.629 161.405 -91.6175 164.73C-92.2896 167.027 -90.7872 169.125 -88.2172 169.402C-81.0213 170.194 -73.8649 170.63 -66.8272 170.788C-64.3363 170.828 -61.964 169.046 -61.5687 166.868C-60.936 163.661 -60.343 160.494 -59.7104 157.287C-59.2755 155.11 -60.8174 153.249 -63.1502 153.13C-69.753 152.813 -76.3954 152.18 -83.1168 151.269C-85.4891 150.952 -87.98 152.497 -88.6521 154.793ZM-95.255 177.004C-96.2434 180.33 -97.2318 183.616 -98.2203 186.941C-98.8924 189.238 -97.1923 191.297 -94.4247 191.534C-86.5962 192.128 -78.8863 192.405 -71.2554 192.326C-68.5669 192.286 -66.0364 190.426 -65.6411 188.248C-65.0085 185.041 -64.4154 181.874 -63.7828 178.667C-63.3479 176.489 -65.048 174.708 -67.5784 174.668C-74.7348 174.589 -81.9702 174.153 -89.2847 173.401C-91.9338 173.124 -94.5828 174.708 -95.255 177.004ZM-101.897 199.215C-102.886 202.541 -103.874 205.827 -104.863 209.152C-105.535 211.449 -103.677 213.468 -100.672 213.626C-92.2501 214.062 -83.9471 214.101 -75.7628 213.824C-72.8765 213.706 -70.1879 211.805 -69.7925 209.588C-69.1599 206.381 -68.5669 203.214 -67.9343 200.007C-67.4993 197.829 -69.3576 196.127 -72.0857 196.166C-79.7956 196.285 -87.6241 196.048 -95.5317 195.493C-98.3389 195.295 -101.186 196.919 -101.897 199.215ZM-32.0734 30.3559C-32.6269 33.5232 -33.1409 36.6509 -33.6944 39.8183C-34.0898 41.9958 -33.299 44.1338 -31.9943 44.5297C-28.2777 45.6779 -24.5216 46.6281 -20.7655 47.3803C-19.4212 47.6575 -18.2351 46.153 -18.077 44.0942C-17.8793 41.0852 -17.642 38.1158 -17.4444 35.1069C-17.2862 33.0481 -18.156 31.1081 -19.3422 30.7518C-22.7029 29.762 -26.0241 28.6138 -29.3057 27.2677C-30.4523 26.8322 -31.678 28.1783 -32.0734 30.3559ZM-35.7109 51.5375C-36.2644 54.7048 -36.7784 57.8326 -37.3319 60.9999C-37.7273 63.1775 -36.7784 65.2362 -35.2759 65.553C-31.0059 66.4636 -26.7753 67.1366 -22.5052 67.6117C-21.0028 67.7701 -19.6585 66.226 -19.5003 64.1673C-19.3026 61.1583 -19.0654 58.1889 -18.8677 55.1799C-18.7096 53.1211 -19.698 51.2603 -21.0818 51.0228C-24.917 50.3101 -28.7917 49.4391 -32.5874 48.3305C-33.9317 47.9346 -35.3155 49.3599 -35.7109 51.5375ZM-39.3484 72.6795C-39.9019 75.8468 -40.4159 78.9746 -40.9694 82.1419C-41.3648 84.3195 -40.2973 86.2991 -38.5971 86.5366C-33.813 87.2097 -29.029 87.6056 -24.2844 87.8036C-22.5843 87.8827 -21.1214 86.2199 -20.9632 84.1611C-20.7655 81.1521 -20.5283 78.1828 -20.3306 75.1738C-20.1725 73.115 -21.3191 71.3334 -22.861 71.2146C-27.2102 70.7791 -31.5594 70.1456 -35.9086 69.2746C-37.411 69.037 -38.953 70.5019 -39.3484 72.6795ZM-42.9858 93.8611C-43.5394 97.0285 -44.0534 100.156 -44.6069 103.324C-45.0023 105.501 -43.7766 107.441 -41.8788 107.56C-36.5807 107.995 -31.2826 108.154 -26.0241 108.075C-24.1658 108.035 -22.5447 106.333 -22.4261 104.274C-22.2284 101.265 -21.9912 98.2954 -21.7935 95.2864C-21.6354 93.2276 -22.9006 91.5648 -24.6007 91.4856C-29.4243 91.3272 -34.2875 90.9709 -39.1902 90.3374C-40.8903 90.1395 -42.5905 91.6836 -42.9858 93.8611ZM-46.6233 115.043C-47.1769 118.21 -47.6909 121.338 -48.2444 124.505C-48.6398 126.683 -47.2559 128.544 -45.1604 128.583C-39.3088 128.741 -33.5363 128.662 -27.8033 128.306C-25.7869 128.187 -24.0076 126.366 -23.889 124.307C-23.6913 121.298 -23.4541 118.329 -23.2564 115.32C-23.0983 113.261 -24.5216 111.677 -26.3799 111.717C-31.7175 111.836 -37.0947 111.717 -42.5114 111.361C-44.3697 111.242 -46.2279 112.826 -46.6233 115.043ZM-50.2608 136.185C-50.8144 139.352 -51.3283 142.48 -51.8819 145.647C-52.2772 147.825 -50.7353 149.606 -48.4421 149.567C-42.0765 149.488 -35.7504 149.131 -29.543 148.498C-27.3288 148.26 -25.431 146.36 -25.3124 144.301C-25.1147 141.292 -24.8775 138.323 -24.6798 135.314C-24.5216 133.255 -26.0636 131.75 -28.1196 131.869C-33.9317 132.265 -39.8228 132.424 -45.7535 132.305C-47.849 132.305 -49.8654 134.007 -50.2608 136.185ZM-53.8983 157.366C-54.4518 160.534 -54.9658 163.661 -55.5194 166.829C-55.9147 169.006 -54.2146 170.709 -51.7633 170.63C-44.8441 170.313 -38.0436 169.679 -31.3222 168.769C-28.9499 168.452 -26.9334 166.472 -26.7753 164.414C-26.5776 161.405 -26.3404 158.435 -26.1427 155.426C-25.9845 153.368 -27.6847 151.942 -29.8988 152.18C-36.1853 152.853 -42.5905 153.288 -49.0747 153.368C-51.3283 153.407 -53.5029 155.189 -53.8983 157.366ZM-57.5358 178.508C-58.0893 181.676 -58.6033 184.803 -59.1568 187.971C-59.5522 190.148 -57.6939 191.811 -55.0449 191.613C-47.6118 191.059 -40.2577 190.188 -33.0618 189C-30.4919 188.565 -28.3568 186.506 -28.1987 184.447C-28.001 181.438 -27.7637 178.469 -27.5661 175.46C-27.4079 173.401 -29.2267 172.055 -31.6385 172.372C-38.439 173.322 -45.3581 173.995 -52.3563 174.351C-54.8077 174.51 -57.1404 176.331 -57.5358 178.508ZM-61.1733 199.69C-61.7268 202.857 -62.2408 205.985 -62.7943 209.152C-63.1897 211.33 -61.1733 212.914 -58.3265 212.637C-50.3399 211.845 -42.5114 210.697 -34.841 209.232C-32.1129 208.717 -29.8197 206.579 -29.6616 204.52C-29.4639 201.511 -29.2266 198.542 -29.029 195.533C-28.8708 193.474 -30.8477 192.207 -33.4177 192.643C-40.6926 193.87 -48.1258 194.82 -55.6775 195.414C-58.287 195.612 -60.7779 197.512 -61.1733 199.69ZM-14.3604 35.8195C-14.5185 38.7889 -14.6767 41.7187 -14.8349 44.6881C-14.9535 46.7469 -13.965 48.5285 -12.6207 48.6869C-8.82509 49.162 -5.02945 49.4391 -1.27335 49.5183C0.0709381 49.5579 1.09893 48.0138 0.980316 46.1134C0.861702 43.342 0.743088 40.6101 0.584938 37.8387C0.505859 35.9383 -0.561661 34.315 -1.78734 34.1962C-5.22713 33.8399 -8.66694 33.2856 -12.0672 32.573C-13.2138 32.375 -14.2813 33.8003 -14.3604 35.8195ZM-15.4279 55.6154C-15.5861 58.5848 -15.7442 61.5146 -15.9024 64.484C-16.021 66.5428 -14.8744 68.2452 -13.3719 68.3244C-9.1414 68.4828 -4.91084 68.4432 -0.680283 68.2452C0.822159 68.166 1.92923 66.5428 1.85016 64.6423C1.73154 61.8709 1.61293 59.1391 1.45477 56.3677C1.3757 54.4673 0.18956 52.9628 -1.19427 52.9232C-5.06898 52.8836 -8.9437 52.646 -12.7789 52.2501C-14.1232 52.0918 -15.3093 53.5962 -15.4279 55.6154ZM-16.4559 75.4113C-16.6141 78.3807 -16.7722 81.3105 -16.9304 84.2799C-17.049 86.3387 -15.7838 87.9619 -14.1232 87.9223C-9.41816 87.8036 -4.75268 87.4472 -0.12674 86.8929C1.49432 86.695 2.75951 84.9529 2.68044 83.0525C2.56183 80.2811 2.44321 77.5493 2.28506 74.7778C2.20599 72.8774 0.901237 71.4521 -0.601196 71.5709C-4.87129 71.8481 -9.18093 71.9668 -13.5301 71.8481C-14.993 71.8085 -16.3373 73.3921 -16.4559 75.4113ZM-17.4839 95.2072C-17.642 98.1766 -17.8002 101.106 -17.9583 104.076C-18.077 106.135 -16.6536 107.679 -14.8349 107.52C-9.65539 107.085 -4.55499 106.412 0.466331 105.541C2.24554 105.224 3.62936 103.403 3.51074 101.502C3.39213 98.7309 3.27351 95.9991 3.11536 93.2276C3.03629 91.3272 1.61292 90.0207 -0.0476685 90.2187C-4.75269 90.8521 -9.49724 91.248 -14.2813 91.4064C-15.9024 91.5252 -17.3653 93.188 -17.4839 95.2072ZM-18.5119 115.003C-18.67 117.973 -18.8282 120.902 -18.9863 123.872C-19.1049 125.93 -17.563 127.395 -15.5861 127.118C-9.97169 126.406 -4.43637 125.416 1.05939 124.188C2.99676 123.753 4.45966 121.853 4.38058 119.952C4.26196 117.181 4.14335 114.449 3.9852 111.677C3.90612 109.777 2.36414 108.55 0.545395 108.866C-4.55499 109.817 -9.77399 110.529 -14.993 111.004C-16.8117 111.202 -18.3933 112.984 -18.5119 115.003ZM-19.5399 134.799C-19.698 137.768 -19.8562 140.698 -20.0143 143.668C-20.1329 145.726 -18.4723 147.112 -16.2978 146.716C-10.2089 145.687 -4.23869 144.38 1.65247 142.836C3.74798 142.282 5.32948 140.263 5.2504 138.362C5.13179 135.591 5.01318 132.859 4.85503 130.088C4.77595 128.187 3.11536 127.039 1.17801 127.514C-4.3573 128.781 -9.97169 129.81 -15.7047 130.602C-17.6816 130.919 -19.4212 132.78 -19.5399 134.799ZM-20.5678 154.595C-20.726 157.564 -20.8841 160.494 -21.0423 163.464C-21.1609 165.522 -19.3422 166.829 -17.0094 166.354C-10.4857 165.047 -4.04099 163.424 2.24554 161.563C4.45966 160.89 6.19932 158.792 6.0807 156.891C5.96209 154.12 5.84348 151.388 5.68533 148.617C5.60625 146.716 3.82704 145.687 1.73154 146.241C-4.19915 147.864 -10.288 149.21 -16.4559 150.279C-18.591 150.636 -20.4492 152.576 -20.5678 154.595ZM-21.5958 174.391C-21.754 177.36 -21.9121 180.29 -22.0703 183.259C-22.1889 185.318 -20.2515 186.506 -17.7607 185.952C-10.7624 184.328 -3.88284 182.388 2.79906 180.211C5.17133 179.419 6.99008 177.202 6.911 175.341C6.79239 172.57 6.67377 169.838 6.51562 167.066C6.43655 165.166 4.53872 164.216 2.28506 164.889C-4.08054 166.829 -10.5648 168.492 -17.2071 169.877C-19.5003 170.352 -21.4772 172.372 -21.5958 174.391ZM-22.6238 194.187C-22.782 197.156 -22.9401 200.086 -23.0983 203.055C-23.2169 205.114 -21.1214 206.223 -18.4723 205.55C-10.9997 203.61 -3.72469 201.392 3.43167 198.859C5.9621 197.948 7.89944 195.652 7.82037 193.751C7.70176 190.98 7.58315 188.248 7.42499 185.477C7.34592 183.576 5.32948 182.745 2.95721 183.537C-3.84331 185.793 -10.7625 187.773 -17.8397 189.436C-20.3702 190.069 -22.5052 192.168 -22.6238 194.187ZM3.74797 38.0367C3.94566 40.7289 4.10381 43.4607 4.3015 46.153C4.42011 48.0138 5.60625 49.5183 6.95055 49.4391C10.7462 49.2807 14.5023 48.9244 18.2584 48.3701C19.6027 48.1722 20.433 46.6281 20.1562 44.9256C19.7608 42.4314 19.3259 39.9767 18.9305 37.4824C18.6538 35.7799 17.4281 34.4734 16.2024 34.5526C12.7231 34.7901 9.28328 34.8297 5.80395 34.7505C4.49919 34.7109 3.62936 36.1758 3.74797 38.0367ZM4.9341 56.2093C5.1318 58.9015 5.28995 61.6334 5.48763 64.3256C5.60625 66.1864 6.91101 67.5721 8.37391 67.4138C12.5254 66.8991 16.6769 66.1864 20.7493 65.2758C22.2122 64.9591 23.1215 63.2962 22.8448 61.5938C22.4494 59.0995 22.0145 56.6448 21.6191 54.1505C21.3423 52.4481 19.9981 51.2603 18.6538 51.4583C14.8581 52.0522 11.0229 52.4877 7.14823 52.7252C5.84348 52.7648 4.81549 54.3485 4.9341 56.2093ZM6.12025 74.3423C6.31793 77.0346 6.47608 79.7664 6.67377 82.4587C6.79239 84.3195 8.21575 85.626 9.83681 85.3093C14.3837 84.4383 18.891 83.3693 23.3192 82.1023C24.9008 81.6668 25.9287 79.8852 25.652 78.1828C25.2566 75.6885 24.8217 73.2338 24.4263 70.7395C24.1495 69.037 22.7262 67.9681 21.2633 68.2848C17.1118 69.235 12.9208 70.0268 8.69021 70.6207C7.14823 70.8187 6.00163 72.4815 6.12025 74.3423ZM7.34592 92.515C7.54361 95.2072 7.70176 97.9391 7.89945 100.631C8.01807 102.492 9.56004 103.719 11.2997 103.284C16.242 102.057 21.1051 100.631 25.8892 99.008C27.5893 98.4142 28.6964 96.5534 28.4196 94.8509C28.0242 92.3566 27.5893 89.9019 27.1939 87.4076C26.9172 85.7052 25.4147 84.7154 23.7937 85.1905C19.2864 86.5366 14.7395 87.6452 10.1136 88.5954C8.45298 88.9121 7.22731 90.6542 7.34592 92.515ZM8.53206 110.688C8.72975 113.38 8.8879 116.112 9.08559 118.804C9.2042 120.665 10.8253 121.773 12.7231 121.219C18.0607 119.675 23.2797 117.893 28.3801 115.874C30.1988 115.161 31.4245 113.182 31.1477 111.479C30.7523 108.985 30.3174 106.53 29.9221 104.036C29.6453 102.334 28.0242 101.463 26.3241 102.057C21.5005 103.759 16.5583 105.264 11.5369 106.53C9.75774 106.966 8.41344 108.787 8.53206 110.688ZM9.71819 128.821C9.91589 131.513 10.074 134.245 10.2717 136.937C10.3903 138.798 12.13 139.827 14.186 139.154C19.8794 137.254 25.4938 135.116 30.95 132.74C32.8874 131.909 34.1922 129.81 33.9154 128.108C33.52 125.614 33.0851 123.159 32.6897 120.665C32.413 118.962 30.7128 118.21 28.8545 118.923C23.6751 120.982 18.377 122.842 12.9998 124.466C11.0625 125.02 9.59958 126.96 9.71819 128.821ZM10.9439 146.993C11.1416 149.686 11.2997 152.417 11.4974 155.11C11.616 156.97 13.4743 157.881 15.6489 157.089C21.7377 154.832 27.7079 152.338 33.52 149.606C35.576 148.617 36.9993 146.439 36.7226 144.737C36.3272 142.242 35.8923 139.788 35.4969 137.293C35.2201 135.591 33.4014 134.918 31.4641 135.789C25.9287 138.244 20.2748 140.421 14.5023 142.401C12.3672 143.074 10.8253 145.132 10.9439 146.993ZM12.13 165.126C12.3277 167.819 12.4858 170.55 12.6835 173.243C12.8022 175.103 14.7791 175.935 17.0723 174.985C23.5565 172.411 29.8825 169.521 36.0504 166.433C38.225 165.324 39.7275 163.028 39.4507 161.326C39.0553 158.831 38.6204 156.377 38.225 153.882C37.9483 152.18 36.0504 151.626 33.9549 152.615C28.1033 155.426 22.054 158 15.8861 160.296C13.672 161.128 12.0114 163.266 12.13 165.126ZM13.3161 183.299C13.5138 185.991 13.672 188.723 13.8697 191.415C13.9883 193.276 16.0838 193.989 18.5351 192.959C25.4147 190.03 32.0966 186.823 38.5809 183.339C40.8741 182.111 42.4951 179.696 42.2184 177.994C41.823 175.499 41.3881 173.045 40.9927 170.55C40.7159 168.848 38.6995 168.412 36.5249 169.521C30.3174 172.688 23.9123 175.618 17.3885 178.271C15.0163 179.181 13.1975 181.438 13.3161 183.299ZM21.9354 37.126C22.3703 39.5411 22.8448 41.9958 23.2797 44.4109C23.596 46.0738 24.9007 47.2616 26.245 46.9844C29.9616 46.1926 33.6386 45.2424 37.2761 44.0942C38.5809 43.6983 39.253 42.1146 38.8181 40.6101C38.1855 38.4326 37.5529 36.255 36.8807 34.0775C36.4458 32.573 35.1015 31.6228 33.9154 31.8999C30.5151 32.6918 27.0753 33.3252 23.596 33.8003C22.3703 33.9983 21.6586 35.4632 21.9354 37.126ZM24.9798 53.4379C25.4147 55.853 25.8892 58.3077 26.3241 60.7228C26.6404 62.3856 28.0638 63.4546 29.4872 63.0191C33.52 61.8709 37.4738 60.4852 41.3881 58.9807C42.7719 58.4264 43.5231 56.7636 43.0882 55.2591C42.4556 53.0815 41.823 50.904 41.1508 48.7264C40.7159 47.222 39.2926 46.3905 37.9878 46.7865C34.3108 47.9742 30.5942 49.0036 26.7986 49.8746C25.5334 50.1913 24.7031 51.775 24.9798 53.4379ZM28.0638 69.7497C28.4987 72.1648 28.9731 74.6195 29.4081 77.0346C29.7244 78.6974 31.2268 79.6476 32.7688 79.0934C37.118 77.5493 41.3485 75.8073 45.5395 73.8672C47.0024 73.1942 47.8327 71.373 47.3978 69.8685C46.7652 67.6909 46.1326 65.5134 45.4605 63.3358C45.0255 61.8313 43.5231 61.0791 42.1393 61.673C38.1855 63.2566 34.1526 64.6819 30.0802 65.9093C28.6569 66.3844 27.7475 68.0473 28.0638 69.7497ZM31.1082 86.0219C31.5431 88.437 32.0176 90.8917 32.4525 93.3068C32.7688 94.9697 34.3503 95.8407 36.0109 95.128C40.6368 93.188 45.2232 91.0501 49.6515 88.7538C51.233 87.9223 52.1424 86.0219 51.6679 84.5174C51.0353 82.3399 50.4027 80.1623 49.7305 77.9848C49.2956 76.4803 47.7141 75.8468 46.2512 76.5595C42.0207 78.5391 37.711 80.3603 33.3223 81.9836C31.7803 82.5774 30.7919 84.3591 31.1082 86.0219ZM34.1526 102.334C34.5875 104.749 35.062 107.204 35.4969 109.619C35.8132 111.282 37.5133 112.034 39.253 111.202C44.1952 108.906 49.0584 106.372 53.7634 103.64C55.424 102.69 56.4125 100.631 55.9776 99.1664C55.3449 96.9889 54.7123 94.8113 54.0402 92.6338C53.6053 91.1293 51.9842 90.6146 50.3632 91.4856C45.8558 93.8611 41.2694 96.0782 36.5644 98.0974C34.9434 98.7705 33.8363 100.671 34.1526 102.334ZM37.197 118.646C37.632 121.061 38.1064 123.515 38.5413 125.93C38.8576 127.593 40.6368 128.227 42.4951 127.277C47.7537 124.584 52.8936 121.655 57.8754 118.566C59.6546 117.458 60.6826 115.32 60.2476 113.815C59.615 111.638 58.9824 109.46 58.3103 107.283C57.8754 105.778 56.1752 105.382 54.4751 106.372C49.7305 109.183 44.8279 111.757 39.8065 114.132C38.0669 114.924 36.8807 116.943 37.197 118.646ZM40.2415 134.918C40.6764 137.333 41.1508 139.788 41.5858 142.203C41.9021 143.866 43.7603 144.38 45.7372 143.311C51.3121 140.223 56.7288 136.937 61.9873 133.413C63.8456 132.146 64.9527 129.89 64.5177 128.425C63.8851 126.247 63.2525 124.07 62.5804 121.892C62.1454 120.388 60.3663 120.11 58.5871 121.219C53.5657 124.426 48.3863 127.395 43.0486 130.167C41.2299 131.117 39.9252 133.255 40.2415 134.918ZM43.2859 151.23C43.7208 153.645 44.1953 156.099 44.6302 158.515C44.9465 160.177 46.9234 160.613 48.9793 159.386C54.8705 155.941 60.6035 152.219 66.0993 148.3C68.0366 146.914 69.2623 144.539 68.8274 143.034C68.1948 140.857 67.5621 138.679 66.89 136.501C66.4551 134.997 64.5968 134.839 62.7385 136.106C57.4404 139.708 51.9842 143.074 46.3303 146.201C44.3534 147.31 42.9696 149.567 43.2859 151.23ZM46.3303 167.541C46.7652 169.957 47.2397 172.411 47.6746 174.826C47.9909 176.489 50.0469 176.806 52.261 175.42C58.4684 171.58 64.4782 167.502 70.2507 163.186C72.3067 161.642 73.5719 159.188 73.137 157.683C72.5044 155.506 71.8718 153.328 71.1996 151.15C70.7647 149.646 68.8274 149.606 66.8505 150.992C61.3152 154.991 55.5426 158.752 49.6119 162.276C47.4769 163.503 46.014 165.839 46.3303 167.541ZM39.8856 33.246C40.5578 35.384 41.2299 37.522 41.9021 39.6203C42.3765 41.0852 43.7603 41.9167 45.0255 41.4416C48.584 40.0558 52.1028 38.5513 55.5822 36.8489C56.8078 36.255 57.3218 34.7109 56.7683 33.4044C55.938 31.5436 55.1472 29.6828 54.317 27.822C53.7634 26.555 52.3796 25.9216 51.1935 26.3571C47.9118 27.7032 44.5511 28.891 41.1904 29.9203C40.0438 30.2767 39.4507 31.7416 39.8856 33.246ZM44.4325 47.4991C45.1046 49.6371 45.7768 51.775 46.4489 53.8734C46.9234 55.3383 48.3863 56.0509 49.7305 55.4175C53.5262 53.6358 57.2823 51.6958 60.9198 49.5975C62.2245 48.8452 62.7781 47.1824 62.2245 45.8758C61.3942 44.015 60.6035 42.1542 59.7732 40.2934C59.2197 39.0264 57.7567 38.5117 56.5311 39.1056C53.0517 40.8873 49.4933 42.4709 45.8558 43.9358C44.6302 44.4505 43.958 46.0342 44.4325 47.4991ZM48.9398 61.7917C49.6119 63.9297 50.2841 66.0677 50.9562 68.166C51.4307 69.6309 52.9727 70.2248 54.396 69.433C58.4289 67.2554 62.3827 64.8799 66.2179 62.346C67.5621 61.4354 68.1948 59.6538 67.6412 58.3868C66.8109 56.526 66.0202 54.6652 65.1899 52.8044C64.6363 51.5375 63.1339 51.1415 61.8291 51.8938C58.1521 54.0713 54.3565 56.0905 50.5213 57.9513C49.2166 58.6244 48.4653 60.3268 48.9398 61.7917ZM53.4471 76.0448C54.1193 78.1828 54.7914 80.3207 55.4635 82.4191C55.938 83.884 57.5591 84.3591 59.0615 83.4485C63.3316 80.875 67.5226 78.1036 71.5555 75.1342C72.9789 74.1048 73.6905 72.1648 73.0975 70.8979C72.2672 69.037 71.4764 67.1762 70.6461 65.3154C70.0926 64.0485 68.5506 63.7713 67.1668 64.6819C63.2921 67.295 59.2987 69.7101 55.2263 71.9668C53.803 72.7587 52.9727 74.5799 53.4471 76.0448ZM57.9544 90.3374C58.6266 92.4754 59.2987 94.6133 59.9709 96.7117C60.4453 98.1766 62.1059 98.5329 63.727 97.464C68.2343 94.455 72.623 91.2876 76.8536 87.9223C78.356 86.7346 79.1072 84.6758 78.5142 83.4089C77.6839 81.5481 76.8931 79.6872 76.0628 77.8264C75.5093 76.5595 73.8882 76.4011 72.4648 77.4701C68.3924 80.4791 64.2014 83.3297 59.8523 86.0219C58.3894 86.9325 57.48 88.8725 57.9544 90.3374ZM62.4618 104.63C63.1339 106.768 63.806 108.906 64.4782 111.004C64.9527 112.469 66.6923 112.707 68.3924 111.519C73.137 108.114 77.7629 104.511 82.1912 100.71C83.7727 99.3644 84.5634 97.2264 84.0099 95.9199C83.1796 94.0591 82.3889 92.1983 81.5586 90.3374C81.005 89.0705 79.3445 89.0309 77.842 90.2187C73.5719 93.6631 69.1437 96.9097 64.5968 99.9978C62.9758 101.106 62.0268 103.126 62.4618 104.63ZM66.9691 118.883C67.6412 121.021 68.3134 123.159 68.9855 125.257C69.46 126.722 71.2787 126.841 73.0579 125.495C78.0397 121.694 82.8633 117.656 87.4893 113.459C89.1103 111.955 89.9801 109.698 89.4266 108.431C88.5963 106.57 87.8056 104.709 86.9753 102.848C86.4217 101.582 84.7216 101.661 83.1401 103.007C78.6723 106.847 74.0464 110.529 69.2227 114.013C67.5621 115.241 66.5342 117.418 66.9691 118.883ZM71.5159 133.176C72.1881 135.314 72.8602 137.452 73.5324 139.55C74.0068 141.015 75.9046 141.015 77.7629 139.55C82.9819 135.314 88.0428 130.879 92.8269 126.287C94.527 124.664 95.4364 122.248 94.8828 120.981C94.0526 119.121 93.2618 117.26 92.4315 115.399C91.878 114.132 90.0988 114.33 88.4777 115.835C83.8122 120.11 78.9491 124.188 73.9277 128.108C72.1485 129.415 71.0415 131.671 71.5159 133.176ZM76.0233 147.429C76.6954 149.567 77.3676 151.705 78.0397 153.803C78.5141 155.268 80.491 155.189 82.4284 153.526C87.8846 148.894 93.1432 144.064 98.1645 138.996C99.9437 137.214 100.893 134.68 100.339 133.413C99.5088 131.553 98.718 129.692 97.8877 127.831C97.3342 126.564 95.5154 126.881 93.8153 128.544C88.9521 133.255 83.8913 137.729 78.6328 142.044C76.7349 143.588 75.5488 145.964 76.0233 147.429ZM57.2428 26.4758C58.073 28.2971 58.9034 30.0787 59.7336 31.8999C60.2872 33.1669 61.7501 33.642 62.9362 32.9689C66.2969 31.0685 69.5786 28.9701 72.8207 26.753C73.9673 25.9612 74.3627 24.4567 73.7301 23.3877C72.8207 21.8436 71.8718 20.2995 70.9624 18.7554C70.3298 17.6865 68.9064 17.4093 67.8389 18.0428C64.7154 19.9036 61.5524 21.6456 58.3103 23.1897C57.1241 23.7836 56.6892 25.2089 57.2428 26.4758ZM62.8571 38.5909C63.6874 40.4122 64.5177 42.1938 65.348 44.015C65.9016 45.282 67.404 45.6383 68.6692 44.8069C72.1881 42.4709 75.6279 39.9767 78.9491 37.324C80.1352 36.3738 80.5701 34.7505 79.898 33.6816C78.9886 32.1375 78.0397 30.5934 77.1303 29.0493C76.4977 27.9803 75.0744 27.822 73.9277 28.6138C70.6856 30.9101 67.3645 33.0481 64.0037 35.0673C62.7781 35.7799 62.2641 37.3636 62.8571 38.5909ZM68.432 50.7456C69.2623 52.5668 70.0926 54.3485 70.9229 56.1697C71.4764 57.4366 73.0184 57.6742 74.3231 56.6844C78.0002 53.913 81.5981 50.9832 85.0379 47.895C86.2636 46.7864 86.6985 45.0444 86.0659 43.9754C85.1565 42.4314 84.2076 40.8873 83.2982 39.3432C82.6656 38.2742 81.2027 38.2346 80.0166 39.1848C76.6559 41.9167 73.2161 44.4901 69.6577 46.9052C68.432 47.8158 67.8785 49.4787 68.432 50.7456ZM74.0464 62.8607C74.8767 64.6819 75.707 66.4636 76.5373 68.2848C77.0908 69.5517 78.7118 69.6705 80.0561 68.5224C83.8913 65.3154 87.6079 61.9897 91.2058 58.466C92.471 57.2387 92.9455 55.3383 92.3129 54.2693C91.4035 52.7252 90.4546 51.1811 89.5452 49.6371C88.9126 48.5681 87.4102 48.6473 86.1845 49.7558C82.7052 52.9232 79.1072 55.9321 75.3907 58.7432C74.0859 59.8121 73.4533 61.6334 74.0464 62.8607ZM79.6212 75.0154C80.4515 76.8366 81.2818 78.6183 82.1121 80.4395C82.6656 81.7064 84.3262 81.7064 85.7496 80.3999C89.7429 76.797 93.6176 72.9962 97.2947 69.0766C98.5994 67.6909 99.1134 65.6717 98.4808 64.6028C97.5714 63.0587 96.6225 61.5146 95.7132 59.9705C95.0805 58.9015 93.5386 59.0995 92.2733 60.3664C88.6754 63.9693 84.9588 67.3742 81.0841 70.6603C79.7398 71.8481 79.0677 73.7485 79.6212 75.0154ZM85.2356 87.1305C86.0659 88.9517 86.8962 90.7334 87.7265 92.5546C88.28 93.8215 89.9801 93.7027 91.4826 92.2378C95.6736 88.1995 99.6669 84.0027 103.463 79.6081C104.807 78.064 105.36 75.926 104.728 74.857C103.818 73.313 102.87 71.7689 101.96 70.2248C101.328 69.1558 99.7855 69.4725 98.4413 70.8979C94.7247 74.8966 90.85 78.7766 86.8171 82.4587C85.3542 83.8444 84.6425 85.9032 85.2356 87.1305ZM90.8104 99.2852C91.6407 101.106 92.471 102.888 93.3013 104.709C93.8549 105.976 95.5945 105.739 97.1365 104.155C101.486 99.6811 105.598 95.0489 109.551 90.2583C110.935 88.5558 111.528 86.2991 110.896 85.2301C109.986 83.686 109.037 82.1419 108.128 80.5979C107.495 79.5289 105.914 79.9644 104.57 81.548C100.734 85.9823 96.7411 90.2583 92.5106 94.3758C91.0081 95.8803 90.2569 98.0182 90.8104 99.2852ZM96.4248 111.4C97.2551 113.222 98.0854 115.003 98.9157 116.824C99.4693 118.091 101.288 117.695 102.87 115.993C107.377 111.123 111.647 106.055 115.68 100.829C117.103 98.9685 117.736 96.5929 117.064 95.524C116.154 93.9799 115.205 92.4358 114.296 90.8917C113.663 89.8227 112.042 90.377 110.658 92.1191C106.705 96.9889 102.553 101.7 98.204 106.253C96.6621 107.877 95.8318 110.173 96.4248 111.4ZM102 123.555C102.83 125.376 103.66 127.158 104.491 128.979C105.044 130.246 106.902 129.731 108.563 127.87C113.228 122.565 117.657 117.062 121.808 111.4C123.271 109.381 123.904 106.887 123.271 105.818C122.362 104.274 121.413 102.73 120.503 101.186C119.871 100.117 118.21 100.829 116.787 102.69C112.714 107.995 108.405 113.142 103.897 118.091C102.316 119.873 101.446 122.288 102 123.555ZM73.651 16.9738C74.5999 18.4387 75.5093 19.9432 76.4582 21.4081C77.0908 22.4375 78.5141 22.5958 79.6212 21.7248C82.7052 19.3097 85.7101 16.6967 88.5963 14.0044C89.6243 13.0542 89.9011 11.5497 89.2289 10.7183C88.2405 9.53056 87.252 8.30321 86.3031 7.11545C85.631 6.28402 84.2867 6.32362 83.2587 7.15504C80.412 9.53056 77.4466 11.7477 74.4417 13.8461C73.3742 14.5191 73.0184 15.9444 73.651 16.9738ZM79.9375 26.9114C80.8864 28.3763 81.7958 29.8808 82.7447 31.3456C83.3773 32.375 84.8402 32.4146 85.9473 31.3852C89.1103 28.5346 92.1943 25.5256 95.1201 22.3583C96.1481 21.2497 96.4248 19.6265 95.7527 18.795C94.7642 17.6073 93.7758 16.3799 92.8269 15.1922C92.1547 14.3607 90.7709 14.5191 89.7429 15.5089C86.8171 18.3199 83.8122 20.9726 80.7283 23.4669C79.6608 24.3379 79.3049 25.882 79.9375 26.9114ZM86.224 36.8093C87.173 38.2742 88.0823 39.7787 89.0312 41.2436C89.6638 42.273 91.1663 42.1938 92.3129 41.006C95.5945 37.7199 98.718 34.2754 101.683 30.6726C102.751 29.4056 103.028 27.6636 102.356 26.8718C101.367 25.684 100.379 24.4567 99.4297 23.2689C98.7576 22.4375 97.3737 22.7146 96.3457 23.8628C93.3804 27.1093 90.336 30.1975 87.1334 33.1273C85.9868 34.1567 85.5914 35.7799 86.224 36.8093ZM92.5106 46.7469C93.4595 48.2117 94.3689 49.7162 95.3178 51.1811C95.9504 52.2105 97.4528 51.973 98.6389 50.6664C102 46.9448 105.163 43.0648 108.207 39.066C109.275 37.6407 109.591 35.7799 108.919 34.9881C107.93 33.8003 106.942 32.573 105.993 31.3852C105.321 30.5538 103.937 30.9497 102.87 32.2563C99.8646 35.8987 96.7411 39.4224 93.4595 42.7877C92.3129 43.9754 91.878 45.7175 92.5106 46.7469ZM98.7971 56.6844C99.746 58.1493 100.655 59.6538 101.604 61.1187C102.237 62.1481 103.779 61.7917 105.005 60.3268C108.444 56.1697 111.686 51.8542 114.77 47.4199C115.838 45.8362 116.154 43.8962 115.482 43.0648C114.494 41.8771 113.505 40.6497 112.556 39.462C111.884 38.6305 110.5 39.1452 109.433 40.6101C106.388 44.6881 103.186 48.6473 99.8251 52.4481C98.5994 53.7546 98.1645 55.655 98.7971 56.6844ZM105.084 66.6219C106.033 68.0868 106.942 69.5913 107.891 71.0562C108.523 72.0856 110.105 71.6105 111.331 69.9872C114.849 65.3946 118.171 60.6832 121.294 55.8134C122.401 54.0713 122.718 52.0126 122.045 51.1811C121.057 49.9934 120.068 48.766 119.12 47.5783C118.447 46.7469 117.024 47.3803 115.957 48.964C112.873 53.4775 109.63 57.8721 106.151 62.1085C104.925 63.5734 104.451 65.5925 105.084 66.6219ZM111.37 76.5595C112.319 78.0244 113.228 79.5289 114.177 80.9938C114.81 82.0232 116.431 81.4293 117.696 79.6477C121.294 74.6195 124.694 69.4725 127.857 64.1673C128.965 62.3064 129.281 60.0893 128.609 59.2579C127.62 58.0701 126.632 56.8428 125.683 55.655C125.011 54.8236 123.587 55.5758 122.48 57.3179C119.357 62.2668 116.036 67.0574 112.477 71.7293C111.252 73.3922 110.738 75.5301 111.37 76.5595ZM117.657 86.497C118.606 87.9619 119.515 89.4664 120.464 90.9313C121.096 91.9607 122.718 91.248 124.022 89.308C127.699 83.8444 131.179 78.2619 134.342 72.5211C135.488 70.5019 135.805 68.166 135.132 67.3346C134.144 66.1468 133.156 64.9195 132.207 63.7317C131.535 62.9003 130.111 63.7713 129.004 65.6717C125.841 71.0562 122.441 76.2823 118.843 81.3897C117.578 83.2109 117.024 85.4676 117.657 86.497ZM123.943 96.4346C124.892 97.8995 125.801 99.404 126.75 100.869C127.383 101.898 129.044 101.067 130.388 98.9684C134.184 93.1089 137.702 87.0513 140.905 80.9146C142.052 78.737 142.407 76.2823 141.735 75.4509C140.747 74.2632 139.758 73.0358 138.809 71.8481C138.137 71.0166 136.714 72.046 135.567 74.0652C132.365 79.8852 128.925 85.5468 125.208 91.0501C123.864 92.9901 123.311 95.4052 123.943 96.4346ZM88.7545 4.85871C89.7429 6.00687 90.7314 7.15504 91.7198 8.30321C92.392 9.09504 93.7363 8.93668 94.7247 7.90729C97.4924 4.97749 100.102 1.92892 102.632 -1.27801C103.542 -2.42617 103.7 -3.85148 103.028 -4.44536C102.039 -5.31638 101.09 -6.18739 100.102 -7.09801C99.4297 -7.69189 98.1645 -7.37515 97.2551 -6.34576C94.7247 -3.49516 92.0757 -0.80291 89.308 1.77055C88.3195 2.68117 88.0823 4.06688 88.7545 4.85871ZM95.3573 12.5791C96.3457 13.7273 97.3342 14.8754 98.3226 16.0236C98.9948 16.8154 100.339 16.5383 101.328 15.3505C104.095 11.9852 106.705 8.50116 109.196 4.89831C110.065 3.63137 110.224 2.08729 109.551 1.45382C108.563 0.582802 107.614 -0.288216 106.626 -1.19883C105.953 -1.79271 104.688 -1.35719 103.818 -0.20903C101.288 3.0375 98.6785 6.20484 95.9108 9.17423C94.9224 10.2828 94.6852 11.7873 95.3573 12.5791ZM101.921 20.2995C102.909 21.4477 103.897 22.5958 104.886 23.744C105.558 24.5359 106.942 24.1399 107.891 22.7938C110.658 19.0326 113.268 15.113 115.719 11.0746C116.589 9.64933 116.708 7.98647 116.036 7.3926C115.047 6.52158 114.098 5.65055 113.11 4.73994C112.438 4.14606 111.212 4.70036 110.342 6.00688C107.851 9.68893 105.242 13.2522 102.474 16.6571C101.525 17.8844 101.248 19.4681 101.921 20.2995ZM108.523 28.0199C109.512 29.1681 110.5 30.3163 111.489 31.4644C112.161 32.2563 113.545 31.702 114.533 30.2371C117.301 26.0403 119.91 21.7248 122.322 17.251C123.192 15.6673 123.311 13.8857 122.638 13.2918C121.65 12.4208 120.701 11.5497 119.713 10.6391C119.04 10.0452 117.815 10.7579 116.945 12.1832C114.494 16.3007 111.884 20.2599 109.116 24.1399C108.089 25.4861 107.851 27.1885 108.523 28.0199ZM115.087 35.7007C116.075 36.8489 117.064 37.9971 118.052 39.1452C118.724 39.9371 120.108 39.264 121.096 37.6407C123.864 33.0085 126.474 28.2575 128.846 23.3877C129.676 21.6456 129.795 19.7452 129.123 19.1514C128.134 18.2803 127.185 17.4093 126.197 16.4987C125.525 15.9048 124.299 16.7363 123.469 18.3199C121.057 22.8334 118.447 27.2677 115.68 31.5436C114.691 33.0877 114.415 34.9089 115.087 35.7007ZM121.69 43.4211C122.678 44.5693 123.666 45.7175 124.655 46.8656C125.327 47.6575 126.711 46.8656 127.699 45.084C130.507 40.0162 133.076 34.8693 135.409 29.564C136.24 27.7032 136.319 25.6444 135.646 25.0505C134.658 24.1795 133.709 23.3085 132.721 22.3979C132.048 21.804 130.862 22.7542 130.032 24.4963C127.66 29.4452 125.09 34.2754 122.283 38.9869C121.294 40.6497 121.017 42.6293 121.69 43.4211ZM128.253 51.1416C129.241 52.2897 130.23 53.4379 131.218 54.586C131.89 55.3779 133.274 54.4673 134.263 52.5273C137.07 47.0636 139.64 41.4415 141.933 35.7403C142.763 33.7211 142.842 31.5832 142.17 30.9893C141.182 30.1183 140.233 29.2473 139.244 28.3367C138.572 27.7428 137.386 28.8118 136.556 30.6726C134.223 36.0571 131.653 41.2832 128.846 46.4301C127.857 48.2513 127.581 50.3497 128.253 51.1416ZM134.856 58.862C135.844 60.0101 136.833 61.1583 137.821 62.3064C138.493 63.0983 139.877 62.0689 140.905 59.9705C143.712 54.0713 146.282 48.0534 148.536 41.9167C149.327 39.7391 149.406 37.4824 148.733 36.8885C147.745 36.0175 146.796 35.1465 145.808 34.2358C145.136 33.642 143.949 34.8297 143.159 36.8489C140.865 42.6293 138.295 48.3305 135.488 53.8734C134.46 55.853 134.184 58.0701 134.856 58.862ZM141.419 66.5824C142.407 67.7305 143.396 68.8787 144.384 70.0268C145.056 70.8187 146.48 69.6705 147.468 67.4138C150.275 61.0791 152.845 54.6256 155.06 48.093C155.85 45.7571 155.89 43.3815 155.218 42.7877C154.229 41.9167 153.28 41.0456 152.292 40.135C151.62 39.5411 150.473 40.8477 149.682 43.0252C147.429 49.2411 144.859 55.3383 142.052 61.3166C141.063 63.4546 140.747 65.7905 141.419 66.5824ZM102.237 -9.71107C103.186 -8.87964 104.174 -8.04821 105.123 -7.21678C105.795 -6.6229 107.021 -7.1376 107.851 -8.32536C110.184 -11.6907 112.398 -15.2143 114.494 -18.8172C115.245 -20.1237 115.284 -21.4698 114.652 -21.8658C113.742 -22.42 112.833 -23.0139 111.924 -23.5682C111.291 -23.9641 110.184 -23.2911 109.433 -22.1429C107.258 -18.8568 104.965 -15.6894 102.593 -12.6409C101.723 -11.6115 101.565 -10.3049 102.237 -9.71107ZM108.721 -4.20781C109.67 -3.37638 110.658 -2.54495 111.607 -1.71352C112.28 -1.11964 113.505 -1.75311 114.296 -3.09924C116.55 -6.90005 118.685 -10.78 120.662 -14.8184C121.334 -16.2437 121.373 -17.7482 120.741 -18.1045C119.831 -18.6588 118.922 -19.2527 118.013 -19.807C117.38 -20.2029 116.312 -19.4507 115.601 -18.1441C113.545 -14.4621 111.37 -10.8592 109.037 -7.41474C108.207 -6.18739 108.049 -4.76209 108.721 -4.20781ZM115.205 1.33504C116.154 2.16647 117.143 2.99791 118.092 3.82934C118.764 4.42321 119.95 3.67097 120.741 2.16647C122.955 -2.03026 124.971 -6.34576 126.829 -10.78C127.462 -12.3637 127.462 -13.9474 126.869 -14.3433C125.96 -14.8976 125.05 -15.4915 124.141 -16.0458C123.508 -16.4417 122.48 -15.5707 121.769 -14.1058C119.831 -9.98821 117.736 -6.02903 115.482 -2.14903C114.652 -0.763313 114.533 0.780762 115.205 1.33504ZM121.69 6.8779C122.638 7.70933 123.627 8.54076 124.576 9.37219C125.248 9.96606 126.434 9.09504 127.185 7.47178C129.32 2.83953 131.258 -1.87189 132.997 -6.70209C133.59 -8.40453 133.551 -10.1466 132.958 -10.5029C132.048 -11.0572 131.139 -11.6511 130.23 -12.2054C129.597 -12.6013 128.609 -11.6115 127.937 -10.0278C126.118 -5.51434 124.101 -1.11964 121.887 3.15627C121.136 4.66076 121.017 6.32362 121.69 6.8779ZM128.174 12.4208C129.123 13.2522 130.111 14.0836 131.06 14.915C131.732 15.5089 132.879 14.5191 133.63 12.7375C135.686 7.70934 137.544 2.56239 139.165 -2.66373C139.719 -4.52454 139.679 -6.34576 139.047 -6.74168C138.137 -7.29597 137.228 -7.88985 136.319 -8.44413C135.686 -8.84005 134.737 -7.73148 134.104 -5.98944C132.404 -1.08006 130.467 3.71056 128.332 8.38239C127.62 10.0452 127.502 11.8665 128.174 12.4208ZM134.658 17.9636C135.607 18.795 136.595 19.6265 137.544 20.4579C138.216 21.0518 139.363 19.9432 140.075 18.0032C142.091 12.5791 143.831 7.03627 145.333 1.37464C145.847 -0.60495 145.768 -2.54494 145.136 -2.94086C144.226 -3.49515 143.317 -4.08903 142.407 -4.64332C141.775 -5.03923 140.865 -3.81189 140.272 -1.95107C138.691 3.35423 136.833 8.54076 134.777 13.6481C134.065 15.4693 133.986 17.4093 134.658 17.9636ZM141.142 23.5065C142.091 24.3379 143.08 25.1693 144.028 26.0007C144.701 26.5946 145.847 25.3673 146.519 23.3085C148.457 17.4489 150.117 11.5101 151.501 5.49219C151.976 3.35423 151.857 1.29546 151.224 0.899536C150.315 0.345253 149.406 -0.248627 148.496 -0.80291C147.864 -1.19883 146.954 0.147293 146.44 2.16647C144.938 7.8677 143.198 13.4897 141.221 18.993C140.549 20.8934 140.47 22.9126 141.142 23.5065ZM147.626 29.0493C148.575 29.8807 149.564 30.7122 150.513 31.5436C151.185 32.1375 152.292 30.7914 152.964 28.5742C154.822 22.3187 156.404 15.9444 157.709 9.53056C158.143 7.23423 157.985 5.09627 157.353 4.70035C156.443 4.14606 155.534 3.55219 154.625 2.9979C153.992 2.60199 153.122 4.06689 152.648 6.20484C151.264 12.302 149.603 18.3199 147.705 24.2587C146.994 26.3175 146.954 28.4554 147.626 29.0493ZM154.111 34.5922C155.06 35.4236 156.048 36.255 156.997 37.0865C157.669 37.6803 158.776 36.2154 159.409 33.8399C161.188 27.1489 162.69 20.3787 163.876 13.5689C164.272 11.1538 164.074 8.85749 163.442 8.46157C162.532 7.90729 161.623 7.31342 160.713 6.75912C160.081 6.36321 159.251 7.94688 158.816 10.2432C157.55 16.7363 156.008 23.1897 154.15 29.5244C153.478 31.7416 153.438 33.9983 154.111 34.5922ZM113.742 -26.6564C114.652 -26.1417 115.522 -25.627 116.431 -25.1123C117.064 -24.756 118.092 -25.5478 118.764 -26.8939C120.622 -30.6947 122.362 -34.6143 123.904 -38.6527C124.457 -40.078 124.457 -41.4241 123.904 -41.5825C123.113 -41.8596 122.322 -42.1368 121.531 -42.4139C120.978 -42.6119 120.068 -41.6617 119.475 -40.3551C117.775 -36.6335 115.917 -33.0306 113.901 -29.5466C113.189 -28.2796 113.11 -27.0127 113.742 -26.6564ZM119.713 -23.2119C120.622 -22.6972 121.492 -22.1825 122.401 -21.6678C123.034 -21.3115 124.022 -22.2221 124.655 -23.687C126.355 -27.8837 127.937 -32.1596 129.281 -36.5939C129.755 -38.138 129.676 -39.6029 129.162 -39.7612C128.371 -40.0384 127.581 -40.3155 126.79 -40.5927C126.236 -40.7906 125.406 -39.7217 124.853 -38.2964C123.311 -34.1788 121.65 -30.2196 119.792 -26.3396C119.159 -24.9539 119.08 -23.5682 119.713 -23.2119ZM125.683 -19.7674C126.592 -19.2527 127.462 -18.738 128.371 -18.2233C129.004 -17.867 129.953 -18.8568 130.506 -20.48C132.088 -25.0727 133.472 -29.7445 134.618 -34.4955C135.014 -36.198 134.895 -37.7025 134.381 -37.9004C133.59 -38.1776 132.8 -38.4547 132.009 -38.7319C131.455 -38.9298 130.665 -37.7817 130.19 -36.198C128.846 -31.7241 127.343 -27.369 125.643 -23.0931C125.09 -21.5886 125.09 -20.1237 125.683 -19.7674ZM131.693 -16.2833C132.602 -15.7686 133.472 -15.2539 134.381 -14.7392C135.014 -14.3829 135.923 -15.4915 136.437 -17.2731C137.861 -22.2221 139.086 -27.2898 140.075 -32.4368C140.431 -34.258 140.233 -35.8813 139.679 -36.0792C138.889 -36.3564 138.098 -36.6335 137.307 -36.9106C136.753 -37.1086 136.042 -35.8417 135.607 -34.1392C134.46 -29.309 133.116 -24.558 131.574 -19.8862C131.02 -18.2629 131.06 -16.6396 131.693 -16.2833ZM137.663 -12.8388C138.572 -12.3241 139.442 -11.8094 140.351 -11.2947C140.984 -10.9384 141.854 -12.1658 142.328 -14.0662C143.594 -19.4111 144.661 -24.8747 145.452 -30.378C145.729 -32.318 145.491 -34.06 144.938 -34.258C144.147 -34.5351 143.356 -34.8123 142.566 -35.0894C142.012 -35.2874 141.34 -33.9017 141.024 -32.0804C140.075 -26.8543 138.889 -21.747 137.505 -16.7188C136.991 -14.9372 137.03 -13.1951 137.663 -12.8388ZM143.633 -9.39433C144.542 -8.87964 145.412 -8.36494 146.322 -7.85026C146.954 -7.49393 147.785 -8.84004 148.18 -10.8592C149.327 -16.6 150.196 -22.42 150.789 -28.3192C150.987 -30.4176 150.71 -32.2388 150.157 -32.4368C149.366 -32.7139 148.575 -32.9911 147.785 -33.2682C147.231 -33.4662 146.638 -32.0013 146.361 -30.0217C145.61 -24.4392 144.582 -18.936 143.356 -13.5119C142.921 -11.5719 143.04 -9.75066 143.633 -9.39433ZM149.643 -5.94984C150.552 -5.43515 151.422 -4.92046 152.331 -4.40577C152.964 -4.04944 153.755 -5.51434 154.111 -7.69189C155.099 -13.8286 155.811 -20.0445 156.206 -26.3C156.364 -28.5172 155.969 -30.4572 155.455 -30.6551C154.664 -30.9323 153.873 -31.2094 153.083 -31.4866C152.529 -31.6845 151.976 -30.1008 151.778 -28.0025C151.224 -22.0637 150.355 -16.1645 149.247 -10.3445C148.852 -8.24617 149.01 -6.30618 149.643 -5.94984ZM155.613 -2.50536C156.522 -1.99067 157.392 -1.47597 158.302 -0.961273C158.934 -0.60495 159.685 -2.18862 160.002 -4.48495C160.832 -11.0176 161.386 -17.5898 161.583 -24.2413C161.662 -26.5772 161.227 -28.636 160.713 -28.8339C159.923 -29.1111 159.132 -29.3882 158.341 -29.6653C157.788 -29.8633 157.313 -28.1609 157.155 -25.9437C156.799 -19.609 156.127 -13.3535 155.139 -7.1376C154.822 -4.92046 154.98 -2.86169 155.613 -2.50536ZM161.583 0.939125C162.493 1.45382 163.362 1.96851 164.272 2.48321C164.904 2.83953 165.616 1.13709 165.893 -1.27801C166.605 -8.20658 166.96 -15.1747 167 -22.1429C167 -24.6372 166.526 -26.7751 165.972 -26.9731C165.181 -27.2502 164.39 -27.5274 163.6 -27.8045C163.046 -28.0025 162.611 -26.2208 162.532 -23.8453C162.335 -17.1543 161.86 -10.5029 161.03 -3.89108C160.753 -1.59475 160.99 0.582802 161.583 0.939125ZM122.915 -45.7792C123.666 -45.5417 124.418 -45.3437 125.169 -45.1061C125.683 -44.9478 126.513 -46.0168 126.988 -47.4817C128.292 -51.6784 129.479 -55.9939 130.427 -60.3886C130.783 -61.9327 130.704 -63.2392 130.269 -63.2392C129.676 -63.2392 129.083 -63.2392 128.49 -63.2392C128.095 -63.2392 127.423 -62.0514 126.988 -60.5865C125.801 -56.469 124.418 -52.4306 122.915 -48.5506C122.401 -47.1649 122.362 -45.9376 122.915 -45.7792ZM127.976 -44.2747C128.727 -44.0372 129.479 -43.8392 130.23 -43.6017C130.744 -43.4433 131.534 -44.5914 131.89 -46.2147C132.997 -50.7678 133.907 -55.4 134.618 -60.151C134.856 -61.8139 134.698 -63.1996 134.302 -63.1996C133.709 -63.1996 133.116 -63.1996 132.523 -63.1996C132.128 -63.1996 131.535 -61.8931 131.218 -60.349C130.309 -55.8751 129.162 -51.52 127.897 -47.2837C127.423 -45.7792 127.462 -44.4331 127.976 -44.2747ZM133.037 -42.7702C133.788 -42.5327 134.539 -42.3347 135.291 -42.0972C135.805 -41.9388 136.516 -43.2057 136.833 -44.9478C137.702 -49.8572 138.375 -54.8457 138.809 -59.9135C138.968 -61.6951 138.73 -63.16 138.295 -63.16C137.702 -63.16 137.109 -63.16 136.516 -63.16C136.121 -63.16 135.607 -61.7743 135.37 -60.0718C134.698 -55.2812 133.867 -50.5698 132.8 -45.9376C132.444 -44.3539 132.523 -42.9286 133.037 -42.7702ZM138.137 -41.2657C138.889 -41.0282 139.64 -40.8302 140.391 -40.5927C140.905 -40.4343 141.577 -41.82 141.775 -43.6808C142.407 -48.9466 142.842 -54.2914 143 -59.6759C143.04 -61.5763 142.724 -63.16 142.328 -63.16C141.735 -63.16 141.142 -63.16 140.549 -63.16C140.154 -63.16 139.719 -61.6951 139.6 -59.8739C139.205 -54.727 138.612 -49.6988 137.781 -44.7102C137.465 -42.9682 137.623 -41.4241 138.137 -41.2657ZM143.198 -39.7612C143.949 -39.5237 144.701 -39.3257 145.452 -39.0882C145.966 -38.9298 146.559 -40.3947 146.717 -42.4139C147.152 -48.0359 147.31 -53.6976 147.191 -59.4384C147.152 -61.4576 146.757 -63.1204 146.322 -63.1204C145.729 -63.1204 145.136 -63.1204 144.542 -63.1204C144.147 -63.1204 143.791 -61.5367 143.752 -59.6363C143.633 -54.1727 143.277 -48.7882 142.645 -43.4433C142.486 -41.5825 142.684 -39.9196 143.198 -39.7612ZM148.299 -38.2568C149.05 -38.0192 149.801 -37.8213 150.552 -37.5837C151.066 -37.4253 151.58 -39.009 151.659 -41.1074C151.857 -47.0857 151.778 -53.1037 151.383 -59.1612C151.264 -61.2992 150.75 -63.0412 150.355 -63.0412C149.761 -63.0412 149.168 -63.0412 148.575 -63.0412C148.18 -63.0412 147.903 -61.3784 147.982 -59.3196C148.14 -53.5392 148.022 -47.7984 147.626 -42.0972C147.508 -40.1572 147.785 -38.4151 148.299 -38.2568ZM153.359 -36.7523C154.111 -36.5147 154.862 -36.3168 155.613 -36.0792C156.127 -35.9208 156.602 -37.5837 156.602 -39.8404C156.562 -46.1751 156.246 -52.5494 155.613 -58.9237C155.376 -61.1804 154.822 -63.0412 154.387 -63.0412C153.794 -63.0412 153.201 -63.0412 152.608 -63.0412C152.213 -63.0412 152.015 -61.2992 152.173 -59.1216C152.608 -52.9849 152.727 -46.9274 152.569 -40.8698C152.49 -38.7715 152.845 -36.9106 153.359 -36.7523ZM158.46 -35.2478C159.211 -35.0102 159.962 -34.8123 160.713 -34.5747C161.227 -34.4164 161.623 -36.198 161.544 -38.5735C161.307 -45.2645 160.713 -51.9555 159.804 -58.6861C159.488 -61.0616 158.816 -63.0016 158.42 -63.0016C157.827 -63.0016 157.234 -63.0016 156.641 -63.0016C156.246 -63.0016 156.127 -61.1408 156.404 -58.8841C157.116 -52.4306 157.471 -46.0168 157.55 -39.6029C157.511 -37.3857 157.906 -35.4062 158.46 -35.2478ZM163.521 -33.7433C164.272 -33.5057 165.023 -33.3078 165.774 -33.0702C166.288 -32.9119 166.644 -34.8123 166.446 -37.3066C165.972 -44.3539 165.142 -51.4012 163.956 -58.4486C163.521 -60.9429 162.809 -62.9621 162.414 -62.9621C161.821 -62.9621 161.227 -62.9621 160.634 -62.9621C160.239 -62.9621 160.199 -61.0221 160.555 -58.607C161.544 -51.8368 162.137 -45.027 162.453 -38.2964C162.532 -35.9604 163.007 -33.9017 163.521 -33.7433ZM129.399 -67.0004C129.953 -67.04 130.506 -67.0796 131.1 -67.1192C131.495 -67.1588 132.048 -68.4653 132.286 -70.049C132.997 -74.602 133.511 -79.2343 133.867 -83.9853C133.986 -85.6482 133.867 -86.9151 133.59 -86.7567C133.235 -86.5192 132.879 -86.3212 132.523 -86.0837C132.286 -85.9253 131.93 -84.5 131.732 -82.8767C131.1 -78.3633 130.309 -73.9686 129.36 -69.6531C129.004 -68.1882 129.004 -67.0004 129.399 -67.0004ZM133.156 -67.238C133.709 -67.2776 134.263 -67.3172 134.856 -67.3567C135.251 -67.3963 135.725 -68.782 135.844 -70.5241C136.239 -75.3939 136.437 -80.3429 136.437 -85.371C136.437 -87.1526 136.2 -88.4988 135.963 -88.3008C135.607 -88.0633 135.251 -87.8653 134.895 -87.6277C134.658 -87.4694 134.421 -85.9649 134.302 -84.2624C134.025 -79.4718 133.551 -74.7604 132.918 -70.1678C132.681 -68.5049 132.76 -67.238 133.156 -67.238ZM136.912 -67.5151C137.465 -67.5547 138.019 -67.5943 138.612 -67.6339C139.007 -67.6735 139.363 -69.1384 139.403 -70.9992C139.521 -76.1857 139.363 -81.4118 139.007 -86.7171C138.889 -88.6175 138.533 -90.0033 138.295 -89.8449C137.94 -89.6073 137.584 -89.4094 137.228 -89.1718C136.991 -89.0135 136.833 -87.4298 136.872 -85.6086C136.951 -80.5408 136.833 -75.5127 136.477 -70.6033C136.358 -68.8612 136.516 -67.4755 136.912 -67.5151ZM140.707 -67.7527C141.261 -67.7923 141.814 -67.8318 142.407 -67.8714C142.803 -67.911 143.08 -69.4947 143 -71.4347C142.803 -76.938 142.328 -82.4808 141.617 -88.0633C141.34 -90.0428 140.905 -91.5473 140.668 -91.3494C140.312 -91.1118 139.956 -90.9139 139.6 -90.6763C139.363 -90.518 139.323 -88.8551 139.482 -86.9547C139.917 -81.6098 140.114 -76.3045 140.075 -71.0388C140.035 -69.2176 140.312 -67.7527 140.707 -67.7527ZM144.463 -67.9902C145.017 -68.0298 145.57 -68.0694 146.164 -68.109C146.559 -68.1486 146.757 -69.8114 146.598 -71.8702C146.084 -77.6902 145.294 -83.5102 144.226 -89.4094C143.831 -91.5077 143.277 -93.0518 143.04 -92.8935C142.684 -92.6559 142.328 -92.458 141.972 -92.2204C141.735 -92.062 141.814 -90.32 142.091 -88.3008C142.882 -82.6392 143.396 -77.0567 143.633 -71.5139C143.712 -69.5343 144.068 -67.9902 144.463 -67.9902ZM148.219 -68.2674C148.773 -68.3069 149.327 -68.3465 149.92 -68.3861C150.315 -68.4257 150.434 -70.1678 150.157 -72.3453C149.366 -78.4424 148.219 -84.6188 146.796 -90.7555C146.282 -92.9331 145.65 -94.5959 145.412 -94.4375C145.056 -94.2 144.701 -94.002 144.345 -93.7645C144.108 -93.6061 144.266 -91.7849 144.661 -89.6865C145.808 -83.7478 146.638 -77.8486 147.191 -71.989C147.389 -69.8906 147.824 -68.2278 148.219 -68.2674ZM151.976 -68.5049C152.529 -68.5445 153.083 -68.5841 153.676 -68.6237C154.071 -68.6633 154.111 -70.5241 153.715 -72.7808C152.608 -79.1947 151.145 -85.6482 149.366 -92.1016C148.733 -94.3979 147.982 -96.1004 147.745 -95.942C147.389 -95.7045 147.033 -95.5065 146.678 -95.269C146.44 -95.1106 146.717 -93.2102 147.231 -90.9931C148.733 -84.7771 149.88 -78.6008 150.75 -72.4245C151.066 -70.2469 151.58 -68.5049 151.976 -68.5049ZM155.771 -68.7425C156.325 -68.782 156.878 -68.8216 157.471 -68.8612C157.867 -68.9008 157.827 -70.8408 157.313 -73.2163C155.89 -79.9469 154.111 -86.6775 152.015 -93.4082C151.264 -95.7837 150.394 -97.6049 150.157 -97.4465C149.801 -97.209 149.445 -97.011 149.089 -96.7735C148.852 -96.6151 149.247 -94.6355 149.88 -92.3392C151.738 -85.8461 153.201 -79.3531 154.387 -72.86C154.743 -70.5637 155.376 -68.7425 155.771 -68.7425ZM159.527 -69.0196C160.081 -69.0592 160.634 -69.0988 161.227 -69.1384C161.623 -69.178 161.504 -71.1971 160.872 -73.6914C159.132 -80.7388 157.036 -87.7861 154.585 -94.7939C153.715 -97.2882 152.727 -99.149 152.49 -98.9906C152.134 -98.753 151.778 -98.5551 151.422 -98.3175C151.185 -98.1592 151.659 -96.1004 152.45 -93.6853C154.625 -86.9151 156.483 -80.1053 157.946 -73.3351C158.46 -70.92 159.132 -68.98 159.527 -69.0196Z" fill="url(#paint0_linear_426_4164)"/>
</g>
<defs>
<linearGradient id="paint0_linear_426_4164" x1="182.394" y1="-66.7905" x2="-110.876" y2="204.907" gradientUnits="userSpaceOnUse">
<stop offset="5e-07" stop-color="#323232"/>
<stop offset="1" stop-color="#969696"/>
</linearGradient>
</defs>
</svg>
