<svg width="219" height="191" viewBox="0 0 219 191" fill="none" xmlns="http://www.w3.org/2000/svg">
<g style="mix-blend-mode:color-dodge" opacity="0.2">
<path d="M194.727 214.355C192.585 211.355 190.678 208.266 188.925 205.092C188.286 203.97 186.048 203.506 183.888 203.989C180.709 204.75 177.568 205.47 174.389 206.231C172.231 206.753 170.863 208.193 171.429 209.476C173.001 213.093 174.809 216.66 176.813 220.181C177.537 221.418 179.929 221.796 182.197 221.032C185.48 219.911 188.724 218.791 192.007 217.67C194.273 216.866 195.482 215.393 194.727 214.355ZM170.08 225.161C166.796 226.282 163.553 227.402 160.27 228.523C158.002 229.287 155.603 228.751 154.989 227.272C153.159 223.151 151.525 218.983 150.128 214.805C149.633 213.321 151.033 211.682 153.193 211.2C156.371 210.438 159.512 209.718 162.691 208.957C164.85 208.435 167.056 209.098 167.584 210.422C169.122 214.159 170.893 217.807 172.862 221.448C173.587 222.724 172.347 224.397 170.08 225.161ZM148.152 232.652C144.869 233.773 141.625 234.893 138.342 236.014C136.075 236.778 133.748 236.081 133.125 234.365C131.429 229.645 130.008 224.875 128.787 220.136C128.363 218.451 129.836 216.651 131.996 216.168C135.175 215.407 138.316 214.687 141.494 213.926C143.653 213.404 145.786 214.228 146.283 215.751C147.645 220.049 149.242 224.298 151.038 228.539C151.693 230.056 150.42 231.888 148.152 232.652ZM126.225 240.143C122.942 241.264 119.698 242.384 116.415 243.505C114.147 244.269 111.853 243.372 111.302 241.495C109.778 236.136 108.494 230.806 107.486 225.465C107.133 223.58 108.639 221.62 110.838 221.135C114.017 220.374 117.158 219.654 120.337 218.893C122.495 218.371 124.595 219.355 124.982 221.08C126.129 225.941 127.552 230.79 129.213 235.63C129.797 237.348 128.492 239.379 126.225 240.143ZM104.299 247.673C101.016 248.795 97.7722 249.914 94.4889 251.036C92.2215 251.8 89.96 250.743 89.4785 248.626C88.0895 242.667 87.0186 236.735 86.1866 230.833C85.9045 228.747 87.4833 226.626 89.6432 226.144C92.8221 225.383 95.963 224.663 99.1419 223.901C101.3 223.379 103.327 224.524 103.682 226.449C104.653 231.87 105.903 237.32 107.392 242.8C107.903 244.679 106.565 246.87 104.299 247.673ZM82.3717 255.164C79.0885 256.286 75.8448 257.405 72.5615 258.527C70.2941 259.291 68.0642 258.035 67.6539 255.717C66.4389 249.158 65.5023 242.627 64.8854 236.162C64.6745 233.876 66.2865 231.595 68.4859 231.111C71.6648 230.35 74.8057 229.63 77.9846 228.869C80.1429 228.346 82.0974 229.653 82.3811 231.778C83.1372 237.762 84.2129 243.813 85.5671 249.891C86.0486 252.009 84.6376 254.361 82.3717 255.164ZM60.4443 262.655C57.1611 263.777 53.9174 264.896 50.6341 266.018C48.3667 266.782 46.2096 265.365 45.8293 262.808C44.7486 255.65 44.0255 248.517 43.5842 241.491C43.4444 239.004 45.1292 236.562 47.289 236.079C50.4679 235.318 53.6089 234.598 56.7878 233.837C58.946 233.315 60.8674 234.781 61.0799 237.107C61.662 243.692 62.5622 250.303 63.7425 256.983C64.1544 259.34 62.7118 261.891 60.4443 262.655ZM38.5169 270.146C35.2337 271.268 31.99 272.388 28.7067 273.509C26.4393 274.273 24.3138 272.657 23.9651 269.901C23.0568 262.103 22.4697 254.41 22.2418 246.783C22.1732 244.095 23.9307 241.491 26.0906 241.009C29.2695 240.248 32.4104 239.528 35.5893 238.766C37.7476 238.244 39.5962 239.871 39.7375 242.398C40.1046 249.546 40.8308 256.758 41.8767 264.036C42.2602 266.672 40.7844 269.382 38.5169 270.146ZM16.5911 277.677C13.3079 278.798 10.0642 279.918 6.78093 281.039C4.5135 281.803 2.42121 280.028 2.1421 277.032C1.36814 268.635 0.99456 260.34 0.942211 252.151C0.944775 249.262 2.73547 246.5 4.9349 246.015C8.11379 245.254 11.2547 244.534 14.4336 243.773C16.5919 243.251 18.3677 245.039 18.4379 247.767C18.6294 255.475 19.1817 263.288 20.0537 271.167C20.3644 273.964 18.857 276.873 16.5911 277.677ZM182.504 201.116C179.362 201.797 176.257 202.436 173.115 203.117C170.955 203.599 168.787 202.895 168.339 201.607C167.042 197.94 165.942 194.225 165.039 190.502C164.708 189.17 166.163 187.925 168.214 187.684C171.213 187.365 174.17 187.009 177.169 186.69C179.22 186.449 181.193 187.24 181.597 188.411C182.721 191.729 184.002 195.002 185.479 198.227C185.96 199.355 184.664 200.634 182.504 201.116ZM161.486 205.603C158.344 206.283 155.239 206.923 152.097 207.603C149.937 208.086 147.842 207.221 147.465 205.732C146.383 201.502 145.54 197.302 144.894 193.055C144.675 191.56 146.164 190.154 148.215 189.914C151.213 189.595 154.171 189.238 157.169 188.92C159.22 188.679 161.119 189.592 161.412 190.965C162.278 194.768 163.305 198.605 164.565 202.353C165.015 203.68 163.646 205.12 161.486 205.603ZM140.508 210.088C137.365 210.768 134.261 211.408 131.118 212.088C128.958 212.571 126.937 211.584 126.632 209.895C125.767 205.142 125.179 200.377 124.79 195.645C124.642 193.949 126.245 192.42 128.296 192.18C131.294 191.861 134.252 191.505 137.25 191.186C139.301 190.945 141.128 192.019 141.308 193.555C141.918 197.883 142.726 202.203 143.772 206.514C144.069 208.006 142.668 209.605 140.508 210.088ZM119.49 214.575C116.347 215.255 113.243 215.895 110.1 216.575C107.94 217.058 105.952 215.911 105.757 214.02C105.109 208.743 104.738 203.456 104.605 198.198C104.57 196.34 106.206 194.652 108.258 194.45C111.257 194.132 114.214 193.775 117.213 193.457C119.264 193.216 120.976 194.413 121.124 196.109C121.476 200.922 122.028 205.767 122.858 210.64C123.124 212.331 121.65 214.092 119.49 214.575ZM98.4715 219.061C95.329 219.742 92.2245 220.381 89.0819 221.062C86.9221 221.544 85.0071 220.237 84.8832 218.144C84.4896 212.304 84.3365 206.533 84.4619 200.79C84.4994 198.77 86.2476 196.919 88.2999 196.718C91.2985 196.4 94.256 196.043 97.2546 195.724C99.3053 195.484 100.945 196.842 100.98 198.7C101.076 204.039 101.411 209.407 101.985 214.805C102.179 216.657 100.671 218.577 98.4715 219.061ZM77.4929 223.546C74.3504 224.227 71.2459 224.866 68.1034 225.547C65.9435 226.029 64.1013 224.56 64.0486 222.267C63.8716 215.904 63.9732 209.569 64.3564 203.341C64.5047 201.119 66.3272 199.146 68.3795 198.945C71.3781 198.626 74.3356 198.27 77.3342 197.951C79.3849 197.71 80.9502 199.19 80.9142 201.249C80.7525 207.073 80.8312 212.965 81.1885 218.887C81.2728 220.98 79.6528 223.064 77.4929 223.546ZM56.4748 228.033C53.3323 228.714 50.2278 229.353 47.0852 230.033C44.9253 230.516 43.1559 228.886 43.1364 226.433C43.1745 219.507 43.5339 212.687 44.1734 205.934C44.3944 203.551 46.2913 201.456 48.342 201.216C51.3406 200.897 54.2981 200.54 57.2966 200.222C59.3474 199.981 60.8399 201.622 60.6916 203.844C60.272 210.153 60.0945 216.57 60.2763 223.052C60.3274 225.306 58.6347 227.55 56.4748 228.033ZM35.4962 232.518C32.3537 233.199 29.2492 233.838 26.1067 234.519C23.9468 235.001 22.2105 233.211 22.3018 230.556C22.5566 223.107 23.131 215.724 24.0283 208.486C24.3601 205.901 26.3313 203.685 28.382 203.444C31.3806 203.125 34.3381 202.769 37.3366 202.45C39.3874 202.209 40.8056 203.972 40.5861 206.395C39.9103 213.228 39.5161 220.169 39.4416 227.176C39.382 229.631 37.6561 232.035 35.4962 232.518ZM14.4781 237.005C11.3356 237.685 8.23105 238.325 5.08852 239.005C2.92864 239.488 1.26515 237.537 1.42754 234.681C1.89743 226.669 2.72973 218.801 3.88487 211.078C4.28938 208.331 6.33336 205.954 8.38411 205.713C11.3827 205.394 14.3401 205.038 17.3387 204.719C19.3894 204.478 20.7349 206.403 20.4031 208.988C19.4695 216.307 18.8191 223.772 18.5295 231.341C18.4366 233.957 16.638 236.522 14.4781 237.005ZM176.333 183.637C173.372 183.915 170.451 184.191 167.49 184.468C165.438 184.67 163.618 183.754 163.406 182.417C162.778 178.643 162.349 174.862 162.118 171.112C162.025 169.77 163.526 168.681 165.43 168.723C168.204 168.73 170.938 168.739 173.714 168.785C175.616 168.788 177.281 169.789 177.449 171.009C177.943 174.432 178.635 177.847 179.484 181.215C179.728 182.353 178.347 183.477 176.333 183.637ZM156.596 185.5C153.635 185.778 150.714 186.054 147.753 186.331C145.701 186.533 143.954 185.455 143.814 183.957C143.486 179.737 143.355 175.508 143.383 171.273C143.402 169.768 144.979 168.597 146.881 168.599C149.655 168.606 152.389 168.615 155.165 168.662C157.067 168.664 158.618 169.789 158.713 171.17C158.909 175.04 159.302 178.902 159.852 182.718C160.064 184.055 158.609 185.301 156.596 185.5ZM136.857 187.324C133.897 187.601 130.976 187.877 128.015 188.155C125.963 188.356 124.29 187.157 124.262 185.496C124.192 180.79 124.36 176.114 124.728 171.47C124.861 169.842 126.55 168.508 128.452 168.51C131.226 168.517 133.961 168.526 136.736 168.573C138.638 168.575 140.115 169.822 140.057 171.328C139.952 175.605 140.006 179.916 140.3 184.257C140.398 185.717 138.87 187.124 136.857 187.324ZM117.119 189.147C114.158 189.425 111.237 189.701 108.276 189.978C106.224 190.18 104.624 188.82 104.709 186.996C104.936 181.803 105.403 176.68 106.071 171.627C106.316 169.837 108.08 168.381 109.984 168.423C112.758 168.43 115.492 168.439 118.268 168.485C120.17 168.488 121.533 169.857 121.402 171.525C120.958 176.251 120.753 181.008 120.788 185.795C120.734 187.419 119.131 188.948 117.119 189.147ZM97.3802 190.971C94.4195 191.248 91.4985 191.524 88.5379 191.802C86.4855 192.003 84.9598 190.521 85.1572 188.535C85.6434 182.896 86.4097 177.326 87.4149 171.785C87.7722 169.832 89.6122 168.294 91.5142 168.296C94.2882 168.303 97.0226 168.312 99.7981 168.358C101.7 168.361 102.989 169.852 102.745 171.682C102.001 176.817 101.499 182.06 101.234 187.294C101.109 189.119 99.3929 190.771 97.3802 190.971ZM77.6416 192.795C74.681 193.072 71.76 193.348 68.7993 193.625C66.747 193.827 65.2956 192.223 65.6037 190.034C66.3873 183.909 67.4526 177.891 68.7585 171.943C69.228 169.827 71.1819 168.165 73.0839 168.168C75.8579 168.175 78.5923 168.183 81.3679 168.23C83.2699 168.232 84.4839 169.845 84.0872 171.8C83.0439 177.382 82.2412 183.033 81.6807 188.794C81.4437 190.782 79.6544 192.595 77.6416 192.795ZM57.9031 194.618C54.9425 194.896 52.0214 195.171 49.0608 195.449C47.0085 195.65 45.6298 193.886 46.0107 191.536C47.0537 184.965 48.4164 178.46 50.0228 172.103C50.6063 169.864 52.633 168.041 54.5366 168.083C57.3105 168.09 60.0449 168.099 62.8205 168.146C64.7225 168.148 65.8226 169.885 65.3531 172.001C63.9697 177.992 62.8697 184.13 62.0497 190.336C61.7796 192.484 59.9159 194.418 57.9031 194.618ZM38.1646 196.442C35.204 196.719 32.2829 196.995 29.3223 197.272C27.2699 197.474 26.0052 195.586 26.4589 193.075C27.7993 186.017 29.4609 179.065 31.3679 172.301C32.0637 169.898 34.2058 167.992 36.0683 167.996C38.8423 168.003 41.5767 168.012 44.3522 168.058C46.2543 168.061 47.2801 169.919 46.6982 172.198C45.0159 178.636 43.6152 185.182 42.4978 191.875C42.1154 194.185 40.1774 196.242 38.1646 196.442ZM18.4261 198.265C15.4655 198.543 12.5444 198.819 9.58376 199.096C7.53142 199.297 6.33947 197.248 6.90538 194.574C8.54319 187.029 10.4659 179.671 12.7098 172.419C13.5179 169.854 15.7344 167.826 17.6365 167.828C20.4104 167.835 23.1448 167.844 25.9203 167.89C27.8224 167.893 28.7343 169.874 28.0385 172.276C26.0572 179.162 24.3576 186.155 22.9808 193.294C22.4496 195.848 20.4388 198.065 18.4261 198.265ZM173.389 165.633C170.691 165.544 167.955 165.495 165.257 165.406C163.393 165.363 161.842 164.238 161.867 162.892C161.872 159.093 162.077 155.325 162.48 151.55C162.624 150.199 164.133 149.307 165.845 149.515C168.353 149.81 170.824 150.146 173.332 150.44C175.044 150.648 176.399 151.82 176.369 153.048C176.272 156.534 176.37 159.973 176.59 163.446C176.682 164.748 175.253 165.676 173.389 165.633ZM155.183 165.179C152.485 165.089 149.749 165.041 147.051 164.952C145.187 164.909 143.75 163.661 143.849 162.192C144.197 158.024 144.742 153.847 145.488 149.741C145.745 148.267 147.37 147.291 149.083 147.499C151.591 147.794 154.061 148.13 156.569 148.424C158.281 148.632 159.522 149.928 159.378 151.279C158.938 155.095 158.657 158.945 158.575 162.826C158.588 164.132 157.047 165.222 155.183 165.179ZM137.017 164.723C134.319 164.634 131.583 164.586 128.885 164.496C127.021 164.453 125.658 163.083 125.91 161.451C126.597 156.872 127.484 152.326 128.571 147.85C128.943 146.252 130.682 145.154 132.394 145.362C134.902 145.656 137.372 145.992 139.881 146.287C141.593 146.495 142.718 147.874 142.461 149.349C141.678 153.535 141.056 157.754 140.632 162.005C140.497 163.554 138.881 164.767 137.017 164.723ZM118.81 164.229C116.112 164.14 113.376 164.092 110.678 164.003C108.814 163.959 107.525 162.468 107.891 160.712C108.918 155.724 110.147 150.808 111.576 145.962C112.101 144.24 113.916 143.059 115.628 143.267C118.136 143.561 120.606 143.897 123.115 144.192C124.827 144.4 125.876 145.861 125.467 147.5C124.303 152.058 123.378 156.646 122.615 161.306C122.365 162.978 120.674 164.273 118.81 164.229ZM100.604 163.775C97.9062 163.686 95.1702 163.638 92.4722 163.549C90.6081 163.505 89.4352 161.93 89.9127 160.011C91.2408 154.616 92.811 149.33 94.6234 144.152C95.2623 142.306 97.191 141.002 98.9032 141.21C101.411 141.505 103.882 141.84 106.39 142.135C108.102 142.343 109.037 143.928 108.512 145.65C107.005 150.539 105.701 155.537 104.637 160.606C104.274 162.401 102.508 163.817 100.604 163.775ZM82.4381 163.32C79.7401 163.23 77.0041 163.182 74.3061 163.093C72.442 163.049 71.3435 161.353 71.9333 159.271C73.6031 153.506 75.5135 147.81 77.6675 142.263C78.4204 140.293 80.4646 138.905 82.1767 139.113C84.6849 139.408 87.1551 139.744 89.6633 140.039C91.3755 140.247 92.1955 141.915 91.5582 143.801C89.7095 149.059 88.0633 154.427 86.6577 159.865C86.1818 161.824 84.3022 163.363 82.4381 163.32ZM64.2309 162.826C61.5329 162.737 58.7969 162.689 56.0989 162.599C54.2348 162.556 53.2501 160.736 53.9539 158.531C55.9638 152.356 58.2159 146.291 60.7117 140.373C61.618 138.279 63.7365 136.769 65.4487 136.977C67.9569 137.272 70.4271 137.608 72.9353 137.903C74.6475 138.111 75.3931 139.901 74.6008 141.872C72.3707 147.501 70.4224 153.238 68.6767 159.086C68.09 161.246 66.095 162.87 64.2309 162.826ZM46.0648 162.37C43.3668 162.281 40.6308 162.233 37.9328 162.144C36.0687 162.1 35.1584 160.158 36.0156 157.829C38.3261 151.246 40.9595 144.809 43.797 138.522C44.8172 136.304 47.0512 134.711 48.7634 134.919C51.2716 135.214 53.7418 135.549 56.25 135.844C57.9622 136.052 58.5923 137.926 57.6877 140.06C55.1143 146.02 52.7863 152.168 50.74 158.423C49.9983 160.669 47.9289 162.414 46.0648 162.37ZM27.8591 161.916C25.1611 161.827 22.4251 161.779 19.7271 161.69C17.863 161.646 17.0667 159.581 17.9966 157.09C20.6472 150.098 23.5828 143.293 26.8032 136.674C27.9373 134.333 30.2852 132.616 31.9974 132.824C34.5056 133.119 36.9758 133.455 39.484 133.749C41.1962 133.957 41.7125 135.955 40.6923 138.172C37.7772 144.502 35.1075 151.02 32.7194 157.645C31.905 160.052 29.7232 161.96 27.8591 161.916ZM173.567 147.423C171.136 147.086 168.665 146.711 166.234 146.373C164.56 146.124 163.32 144.868 163.543 143.514C164.185 139.769 164.986 136.056 165.987 132.376C166.33 131.056 167.886 130.321 169.407 130.695C171.608 131.239 173.809 131.784 176.012 132.368C177.533 132.742 178.536 134.047 178.307 135.243C177.653 138.672 177.158 142.135 176.823 145.63C176.675 146.863 175.24 147.633 173.567 147.423ZM157.146 145.038C154.715 144.7 152.243 144.325 149.813 143.988C148.139 143.738 147.013 142.359 147.391 140.92C148.376 136.844 149.602 132.837 150.947 128.866C151.446 127.461 153.077 126.643 154.598 127.017C156.799 127.562 159 128.106 161.203 128.69C162.724 129.064 163.612 130.453 163.269 131.773C162.23 135.495 161.351 139.25 160.633 143.077C160.368 144.354 158.819 145.247 157.146 145.038ZM140.723 142.613C138.293 142.275 135.821 141.9 133.39 141.562C131.716 141.313 130.706 139.85 131.198 138.287C132.566 133.879 134.136 129.582 135.906 125.317C136.52 123.828 138.306 122.925 139.827 123.299C142.028 123.843 144.229 124.388 146.432 124.972C147.953 125.346 148.765 126.817 148.227 128.223C146.804 132.238 145.542 136.325 144.479 140.443C144.062 141.885 142.437 142.86 140.723 142.613ZM124.342 140.225C121.911 139.888 119.439 139.512 117.009 139.175C115.334 138.926 114.4 137.381 115.046 135.693C116.798 130.993 118.75 126.324 120.866 121.807C121.633 120.193 123.495 119.208 125.018 119.622C127.219 120.166 129.42 120.711 131.623 121.295C133.144 121.669 133.841 123.223 133.187 124.714C131.379 129.021 129.733 133.4 128.288 137.85C127.756 139.415 126.016 140.474 124.342 140.225ZM107.921 137.839C105.49 137.502 103.018 137.127 100.588 136.789C98.9133 136.54 98.0933 134.872 98.854 133.1C100.95 128.069 103.286 123.108 105.826 118.297C106.709 116.6 108.726 115.529 110.207 115.905C112.409 116.449 114.61 116.994 116.813 117.578C118.333 117.952 118.913 119.551 118.108 121.206C115.916 125.805 113.885 130.477 112.056 135.259C111.449 136.906 109.595 138.089 107.921 137.839ZM91.4995 135.454C89.0689 135.116 86.5971 134.741 84.1664 134.404C82.4922 134.154 81.7877 132.402 82.6623 130.507C85.1408 125.145 87.8615 119.891 90.7467 114.789C91.7828 112.967 93.8777 111.853 95.3985 112.227C97.5997 112.772 99.8009 113.316 102.004 113.9C103.525 114.274 103.989 115.957 103.068 117.696C100.45 122.55 98.0759 127.552 95.9043 132.665C95.1831 134.435 93.2133 135.701 91.4995 135.454ZM75.118 133.066C72.6873 132.729 70.2155 132.354 67.7849 132.016C66.1106 131.767 65.5216 129.931 66.5102 127.913C69.3716 122.218 72.4371 116.674 75.7464 111.278C76.9376 109.37 79.1479 108.173 80.6291 108.549C82.8304 109.093 85.0316 109.638 87.2344 110.222C88.7552 110.596 89.1037 112.362 88.0676 114.185C85.0653 119.331 82.3067 124.626 79.7522 130.07C78.8759 131.926 76.7922 133.316 75.118 133.066ZM58.6969 130.681C56.2662 130.343 53.7944 129.968 51.3638 129.631C49.6895 129.381 49.1749 127.424 50.3185 125.32C53.5232 119.295 57.0112 113.417 60.7065 107.768C62.0132 105.776 64.3374 104.456 65.8582 104.83C68.0594 105.375 70.2607 105.919 72.4635 106.503C73.9843 106.877 74.2173 108.728 73.0261 110.635C69.6393 116.074 66.4963 121.661 63.5985 127.436C62.5703 129.456 60.3711 130.93 58.6969 130.681ZM42.2758 128.295C39.8451 127.958 37.3733 127.582 34.9427 127.245C33.2685 126.996 32.8693 124.954 34.1648 122.686C37.7524 116.329 41.5852 110.16 45.665 104.219C47.1251 102.102 49.527 100.739 51.0477 101.113C53.249 101.658 55.4502 102.202 57.653 102.786C59.1738 103.16 59.2913 105.095 57.9862 107.126C54.2134 112.817 50.6874 118.736 47.4052 124.804C46.2647 126.987 43.9896 128.542 42.2758 128.295ZM176.722 129.332C174.558 128.746 172.395 128.161 170.271 127.573C168.789 127.158 167.902 125.809 168.326 124.526C169.568 120.914 170.929 117.338 172.49 113.793C173.034 112.544 174.557 111.969 175.884 112.469C177.777 113.224 179.668 113.939 181.561 114.694C182.849 115.196 183.538 116.553 183.15 117.756C181.937 121.089 180.886 124.495 179.992 127.894C179.682 129.054 178.243 129.706 176.722 129.332ZM162.297 125.362C160.134 124.776 157.971 124.191 155.847 123.604C154.364 123.188 153.593 121.755 154.172 120.387C155.8 116.522 157.587 112.691 159.537 108.972C160.237 107.638 161.876 107.018 163.203 107.519C165.096 108.274 166.987 108.989 168.88 109.744C170.168 110.246 170.741 111.687 170.197 112.935C168.557 116.484 167.118 120.103 165.8 123.796C165.335 125.042 163.78 125.777 162.297 125.362ZM147.835 121.433C145.672 120.848 143.508 120.262 141.385 119.675C139.902 119.26 139.246 117.743 139.98 116.289C141.994 112.172 144.208 108.125 146.586 104.191C147.442 102.812 149.197 102.108 150.485 102.61C152.377 103.365 154.269 104.08 156.161 104.835C157.449 105.337 157.905 106.822 157.206 108.156C155.178 111.918 153.314 115.792 151.609 119.699C150.989 121.029 149.318 121.848 147.835 121.433ZM133.412 117.503C131.249 116.917 129.086 116.332 126.962 115.745C125.479 115.329 124.939 113.729 125.789 112.191C128.188 107.821 130.789 103.522 133.593 99.3726C134.565 97.909 136.475 97.1199 137.764 97.6615C139.657 98.4162 141.548 99.1315 143.441 99.8862C144.729 100.388 145.068 101.918 144.214 103.337C141.759 107.314 139.506 111.401 137.415 115.561C136.681 117.015 134.895 117.918 133.412 117.503ZM118.95 113.574C116.786 112.989 114.623 112.403 112.499 111.816C111.017 111.401 110.594 109.756 111.597 108.093C114.422 103.468 117.41 98.9558 120.603 94.5933C121.729 93.0443 123.756 92.2109 125.046 92.7525C126.938 93.5072 128.829 94.2225 130.722 94.9773C132.01 95.4794 132.234 97.0928 131.223 98.558C128.38 102.748 125.7 107.05 123.185 111.504C122.334 113.003 120.432 113.989 118.95 113.574ZM104.487 109.646C102.324 109.06 100.161 108.474 98.037 107.887C96.5542 107.472 96.2469 105.743 97.3653 103.997C100.577 99.1192 103.99 94.352 107.61 89.7745C108.891 88.1401 110.996 87.264 112.324 87.7645C114.216 88.5192 116.107 89.2345 118 89.9893C119.288 90.4914 119.395 92.149 118.268 93.698C114.998 98.1032 111.933 102.659 109.03 107.326C107.987 108.99 106.008 110.02 104.487 109.646ZM90.0644 105.715C87.9012 105.13 85.7379 104.544 83.6142 103.957C82.1314 103.542 81.9395 101.729 83.213 99.8974C86.8103 94.7668 90.6514 89.7846 94.6586 84.9936C96.0966 83.3133 98.3165 82.3534 99.6047 82.8555C101.497 83.6102 103.389 84.3255 105.281 85.0803C106.569 85.5824 106.559 87.2843 105.277 88.9187C101.62 93.5374 98.1268 98.3077 94.8396 103.268C93.6801 104.976 91.5456 106.091 90.0644 105.715ZM75.6004 101.747C73.4372 101.162 71.2739 100.576 69.1502 99.9888C67.6674 99.5736 67.591 97.6774 68.98 95.7616C73.0029 90.3764 77.23 85.1413 81.6265 80.1763C83.1801 78.4123 85.5566 77.4065 86.8448 77.9086C88.7375 78.6633 90.6286 79.3786 92.5213 80.1334C93.8095 80.6355 93.6833 82.4212 92.2452 84.1015C88.1605 88.9352 84.2815 93.9585 80.5671 99.1334C79.3332 100.964 77.1228 102.161 75.6004 101.747ZM61.1776 97.8169C59.0143 97.2313 56.851 96.6457 54.7274 96.0585C53.2445 95.6434 53.2441 93.6649 54.8277 91.6622C59.2367 86.024 63.8514 80.5754 68.7131 75.3543C70.4217 73.5049 72.9153 72.4548 74.2035 72.9569C76.0962 73.7117 77.9873 74.4269 79.8801 75.1817C81.1682 75.6838 80.9249 77.5138 79.3318 79.2795C74.8199 84.3282 70.5532 89.565 66.4527 94.9929C64.9863 96.9513 62.6604 98.232 61.1776 97.8169ZM182.788 111.716C180.935 110.96 179.121 110.202 177.268 109.446C175.98 108.943 175.447 107.501 176.071 106.289C177.835 102.854 179.8 99.4908 181.885 96.1621C182.63 94.9845 184.117 94.529 185.211 95.118C186.79 95.9646 188.371 96.8506 189.95 97.6971C191.044 98.2862 191.378 99.6973 190.788 100.789C189.054 103.985 187.441 107.216 186.029 110.517C185.483 111.726 184.076 112.218 182.788 111.716ZM170.457 106.594C168.604 105.837 166.79 105.079 164.937 104.323C163.649 103.821 163.232 102.334 164.012 101.036C166.205 97.4265 168.559 93.8891 171.076 90.4639C171.977 89.2405 173.582 88.7406 174.677 89.3692C176.256 90.2158 177.837 91.1018 179.417 91.9483C180.51 92.5374 180.726 93.9532 179.981 95.1308C177.817 98.4626 175.814 101.867 173.932 105.306C173.269 106.56 171.707 107.137 170.457 106.594ZM158.088 101.512C156.235 100.756 154.421 99.9981 152.568 99.2418C151.28 98.7397 150.98 97.2085 151.917 95.865C154.538 92.0794 157.321 88.3665 160.268 84.8053C161.327 83.536 163.05 83.0314 164.143 83.6204C165.723 84.467 167.304 85.353 168.883 86.1995C169.977 86.7886 170.075 88.2487 169.173 89.4721C166.579 92.94 164.146 96.4806 161.876 100.133C161.015 101.395 159.376 102.015 158.088 101.512ZM145.757 96.39C143.904 95.6336 142.09 94.8757 140.237 94.1193C138.949 93.6172 138.765 92.0023 139.858 90.6129C142.908 86.6518 146.081 82.8044 149.458 79.0676C150.633 77.7541 152.513 77.2036 153.606 77.7926C155.186 78.6392 156.767 79.5252 158.346 80.3717C159.44 80.9608 159.421 82.4652 158.363 83.7345C155.338 87.3384 152.476 91.0545 149.817 94.8811C148.801 96.2278 147.007 96.9332 145.757 96.39ZM133.388 91.3086C131.534 90.5523 129.721 89.7943 127.868 89.038C126.58 88.5359 126.513 86.8766 127.761 85.4018C131.2 81.2668 134.842 77.2423 138.611 73.4106C139.943 72.0511 141.94 71.4564 143.033 72.0454C144.613 72.892 146.194 73.778 147.773 74.6245C148.867 75.2136 148.731 76.7623 147.516 78.0774C144.061 81.8174 140.808 85.6679 137.68 89.6717C136.548 91.0627 134.676 91.8108 133.388 91.3086ZM121.056 86.1862C119.203 85.4298 117.39 84.6719 115.537 83.9155C114.248 83.4134 114.299 81.7099 115.702 80.1497C119.568 75.7996 123.601 71.6407 127.84 67.6714C129.328 66.266 131.442 65.6269 132.536 66.216C134.115 67.0625 135.696 67.9486 137.276 68.7951C138.369 69.3842 138.115 70.9377 136.745 72.3382C132.899 76.2126 129.178 80.2403 125.661 84.418C124.335 85.9355 122.307 86.7294 121.056 86.1862ZM108.687 81.1048C106.834 80.3485 105.021 79.5905 103.167 78.8342C101.879 78.3321 102.047 76.5843 103.567 74.9798C107.862 70.4542 112.325 66.1592 116.953 62.0159C118.598 60.5647 120.829 59.8813 121.923 60.4704C123.502 61.3169 125.083 62.203 126.663 63.0495C127.756 63.6386 127.385 65.2363 125.857 66.6432C121.58 70.6537 117.468 74.8158 113.524 79.2086C112.082 80.7703 109.976 81.607 108.687 81.1048ZM96.3562 75.9824C94.5031 75.226 92.6895 74.4681 90.8363 73.7117C89.5482 73.2096 89.8706 71.3764 91.508 69.7277C96.1925 65.0281 101.084 60.5576 106.144 56.3178C107.946 54.8207 110.294 54.093 111.389 54.7216C112.969 55.5681 114.55 56.4542 116.129 57.3007C117.223 57.8898 116.734 59.5318 115.049 60.9846C110.342 65.1311 105.802 69.4687 101.427 73.9976C99.8675 75.6036 97.6064 76.5256 96.3562 75.9824ZM83.9871 70.9011C82.134 70.1447 80.3203 69.3868 78.4672 68.6304C77.179 68.1283 77.6185 66.2508 79.411 64.5167C84.5244 59.6416 89.845 54.9955 95.335 50.6196C97.2937 49.0767 99.7606 48.3442 100.854 48.9333C102.434 49.7798 104.015 50.6659 105.594 51.5124C106.688 52.1015 106.042 53.7894 104.24 55.2864C99.103 59.569 94.1336 64.0822 89.37 68.785C87.6534 70.4369 85.2753 71.4032 83.9871 70.9011ZM191.622 94.939C190.121 94.0498 188.581 93.2017 187.079 92.3125C186.025 91.7218 185.809 90.306 186.635 89.1648C188.924 85.9862 191.414 82.8786 193.988 79.8863C194.896 78.821 196.388 78.4839 197.246 79.122C198.473 80.0619 199.739 81.0002 200.964 81.9005C201.822 82.5387 201.836 83.8835 201.047 84.9441C198.788 87.8841 196.692 90.9362 194.716 94.0231C194.086 95.1168 192.676 95.5297 191.622 94.939ZM181.44 89.0574C179.938 88.1682 178.398 87.3201 176.896 86.4309C175.842 85.8402 175.744 84.3801 176.728 83.2325C179.449 79.9573 182.332 76.7548 185.379 73.7039C186.445 72.6322 188.056 72.2903 188.914 72.9285C190.14 73.8684 191.406 74.8066 192.631 75.707C193.489 76.3452 193.386 77.7342 192.439 78.8012C189.748 81.8377 187.218 84.9469 184.85 88.1287C184.023 89.2304 182.494 89.6481 181.44 89.0574ZM171.297 83.1741C169.795 82.2849 168.255 81.4368 166.754 80.5476C165.7 79.9569 165.718 78.4525 166.859 77.2591C170.01 73.8479 173.326 70.5883 176.807 67.4804C178.03 66.3628 179.759 66.0162 180.578 66.6559C181.804 67.5958 183.07 68.5341 184.295 69.4344C185.153 70.0726 184.932 71.4664 183.826 72.5398C180.701 75.6333 177.738 78.7995 174.94 82.1174C173.957 83.3045 172.351 83.7648 171.297 83.1741ZM161.115 77.2925C159.613 76.4033 158.073 75.5552 156.571 74.666C155.517 74.0753 155.694 72.5645 156.952 71.3268C160.535 67.819 164.285 64.5025 168.158 61.2996C169.539 60.1756 171.386 59.7847 172.204 60.4245C173.43 61.3643 174.697 62.3026 175.922 63.203C176.779 63.8411 176.439 65.2398 175.177 66.359C171.658 69.508 168.263 72.7707 165.033 76.1851C163.892 77.3785 162.169 77.8832 161.115 77.2925ZM150.932 71.4108C149.43 70.5216 147.891 69.6735 146.389 68.7843C145.335 68.1936 145.629 66.6386 147.043 65.355C151.059 61.7507 155.24 58.3376 159.547 55.0778C161.086 53.9474 163.012 53.5533 163.87 54.1914C165.096 55.1313 166.362 56.0696 167.587 56.9699C168.445 57.6081 167.987 59.0115 166.566 60.1371C162.614 63.3431 158.786 66.7023 155.124 70.2132C153.868 71.4905 151.986 72.0015 150.932 71.4108ZM140.75 65.5292C139.248 64.64 137.708 63.7919 136.206 62.9026C135.152 62.312 135.563 60.7126 137.136 59.4227C141.583 55.7219 146.157 52.2138 150.898 48.8969C152.594 47.7207 154.638 47.3218 155.496 47.96C156.722 48.8998 157.989 49.8381 159.214 50.7385C160.071 51.3766 159.496 52.8243 157.956 53.9547C153.57 57.2177 149.31 60.634 145.217 64.2809C143.802 65.5646 141.804 66.1199 140.75 65.5292ZM130.568 59.6475C129.066 58.7583 127.526 57.9102 126.024 57.021C124.97 56.4303 125.498 54.7867 127.227 53.4508C132.107 49.6535 137.113 46.0489 142.286 42.675C144.101 41.494 146.304 41.0888 147.162 41.7269C148.388 42.6668 149.654 43.605 150.879 44.5054C151.737 45.1435 151.043 46.596 149.347 47.7723C144.527 51.0923 139.874 54.6036 135.349 58.347C133.737 59.6386 131.622 60.2382 130.568 59.6475ZM120.385 53.7659C118.883 52.8767 117.343 52.0285 115.842 51.1393C114.788 50.5487 115.434 48.9003 117.32 47.5185C122.632 43.6247 128.07 39.9236 133.678 36.5321C135.65 35.3052 137.971 34.8952 138.829 35.5334C140.056 36.4732 141.322 37.4115 142.547 38.3119C143.404 38.95 142.591 40.4073 140.737 41.5899C135.484 44.967 130.399 48.5747 125.441 52.3752C123.672 53.7127 121.439 54.3566 120.385 53.7659ZM110.203 47.8842C108.701 46.995 107.161 46.1469 105.659 45.2577C104.605 44.667 105.369 42.9743 107.412 41.5467C113.114 37.5184 119.025 33.7587 125.028 30.3118C127.157 29.0785 129.596 28.6242 130.454 29.2624C131.68 30.2023 132.946 31.1405 134.171 32.0409C135.029 32.6791 134.058 34.1427 132.086 35.3696C126.4 38.8037 120.881 42.4685 115.532 46.4034C113.648 47.8247 111.257 48.4749 110.203 47.8842ZM203.12 79.3604C201.933 78.4189 200.746 77.4775 199.559 76.536C198.741 75.8963 198.845 74.5467 199.834 73.5176C202.65 70.6344 205.591 67.9043 208.694 65.247C209.804 64.2921 211.222 64.0768 211.842 64.7245C212.753 65.6771 213.661 66.5902 214.611 67.5412C215.231 68.1889 214.966 69.4658 213.974 70.4159C211.227 73.0589 208.644 75.8141 206.183 78.6831C205.313 79.7074 203.938 80.0001 203.12 79.3604ZM195.14 73.0735C193.953 72.132 192.766 71.1906 191.579 70.2491C190.761 69.6094 190.984 68.255 192.131 67.2196C195.382 64.3188 198.758 61.5712 202.258 58.9374C203.489 58.0173 205.026 57.7972 205.686 58.4433C206.596 59.3959 207.504 60.309 208.454 61.26C209.074 61.9077 208.69 63.1895 207.578 64.1048C204.436 66.7638 201.376 69.4986 198.52 72.3834C197.452 73.4157 195.959 73.7132 195.14 73.0735ZM187.162 66.8261C185.975 65.8846 184.788 64.9432 183.601 64.0017C182.783 63.362 183.123 61.9634 184.43 60.9611C188.077 58.0443 191.888 55.2793 195.824 52.6674C197.214 51.741 198.87 51.5556 199.491 52.2033C200.401 53.1559 201.309 54.069 202.259 55.02C202.879 55.6677 202.375 56.9147 201.104 57.8364C197.526 60.4734 194.07 63.2241 190.779 66.1265C189.591 67.124 188.02 67.4643 187.162 66.8261ZM179.182 60.5392C177.995 59.5978 176.808 58.6563 175.621 57.7148C174.803 57.0751 175.301 55.6701 176.725 54.6235C180.807 51.6893 185.014 48.9082 189.387 46.3184C190.935 45.3856 192.71 45.1954 193.331 45.8431C194.241 46.7957 195.149 47.7088 196.099 48.6598C196.719 49.3075 196.057 50.5609 194.667 51.4874C190.652 54.1024 186.801 56.869 183.035 59.7905C181.732 60.8718 180.04 61.1774 179.182 60.5392ZM171.244 54.2902C170.057 53.3488 168.87 52.4073 167.683 51.4659C166.864 50.8261 167.481 49.4163 169.064 48.3634C173.581 45.4116 178.223 42.6131 182.993 40.0468C184.7 39.1471 186.595 38.9522 187.215 39.5999C188.125 40.5525 189.034 41.4656 189.983 42.4166C190.604 43.0643 189.822 44.3224 188.273 45.2158C183.86 47.8072 179.535 50.593 175.374 53.5304C173.871 54.5802 172.062 54.93 171.244 54.2902ZM163.264 48.0033C162.077 47.0619 160.89 46.1204 159.703 45.179C158.885 44.5392 159.62 43.1247 161.361 42.0653C166.311 39.0565 171.351 36.2816 176.558 33.7373C178.384 32.8328 180.438 32.671 181.058 33.3187C181.968 34.2713 182.877 35.1844 183.826 36.1354C184.447 36.7831 183.545 38.0065 181.838 38.9062C176.988 41.4757 172.265 44.2379 167.671 47.2324C166.049 48.2869 164.082 48.6431 163.264 48.0033ZM155.286 41.7559C154.099 40.8145 152.912 39.873 151.725 38.9316C150.906 38.2918 151.761 36.8725 153.659 35.8068C159.006 32.7821 164.52 29.988 170.124 27.4673C172.108 26.5565 174.241 26.3915 174.862 27.0392C175.772 27.9918 176.68 28.9048 177.63 29.8559C178.25 30.5036 177.23 31.7317 175.404 32.6362C170.118 35.1837 164.999 37.9618 159.969 40.9738C158.189 42.0347 156.104 42.3957 155.286 41.7559ZM147.306 35.4691C146.119 34.5276 144.932 33.5862 143.745 32.6447C142.927 32.0049 143.9 30.5808 145.955 29.4692C151.736 26.427 157.646 23.617 163.687 21.1183C165.831 20.2406 168.083 20.0708 168.703 20.7185C169.613 21.6711 170.522 22.5842 171.472 23.5352C172.092 24.1829 170.953 25.4159 168.967 26.2872C163.284 28.8111 157.69 31.6084 152.265 34.6363C150.328 35.7431 148.124 36.1088 147.306 35.4691ZM139.328 29.2217C138.141 28.2802 136.954 27.3387 135.767 26.3973C134.949 25.7575 136.039 24.2891 138.254 23.2107C144.47 20.1509 150.815 17.3234 157.253 14.8483C159.556 13.9642 161.928 13.8291 162.548 14.4769C163.458 15.4295 164.367 16.3426 165.316 17.2936C165.937 17.9413 164.677 19.1395 162.533 20.0172C156.413 22.5191 150.424 25.3323 144.564 28.3777C142.467 29.4514 140.146 29.8614 139.328 29.2217ZM217.136 65.3027C216.267 64.3881 215.396 63.4338 214.527 62.5191C213.907 61.8714 214.372 60.6261 215.525 59.7487C218.794 57.2824 222.226 54.9283 225.741 52.6896C227.017 51.8864 228.36 51.7927 228.781 52.4089C229.372 53.2952 230.001 54.18 230.592 55.0663C231.013 55.6825 230.385 56.8157 229.268 57.6125C226.072 59.9176 222.999 62.3363 220.049 64.8293C219.055 65.7399 217.756 65.9505 217.136 65.3027ZM211.376 59.0452C210.507 58.1305 209.637 57.1763 208.768 56.2616C208.147 55.6139 208.731 54.3637 210.044 53.5194C213.751 51.1147 217.542 48.8253 221.498 46.6875C222.895 45.9586 224.396 45.8585 224.778 46.4763C225.368 47.3626 225.998 48.2474 226.589 49.1337C227.01 49.7499 226.301 50.8468 225.024 51.6105C221.428 53.8129 217.915 56.1307 214.568 58.6001C213.375 59.4791 211.957 59.6945 211.376 59.0452ZM205.577 52.7892C204.708 51.8745 203.837 50.9203 202.968 50.0056C202.348 49.3579 203.052 48.1424 204.523 47.2918C208.628 44.9106 212.859 42.7222 217.214 40.6871C218.771 39.9913 220.354 39.9275 220.773 40.5042C221.364 41.3905 221.994 42.2753 222.584 43.1616C223.005 43.7778 222.176 44.84 220.741 45.61C216.705 47.7115 212.833 49.9646 209.047 52.3725C207.696 53.2579 206.158 53.4385 205.577 52.7892ZM199.778 46.5332C198.909 45.6185 198.038 44.6643 197.169 43.7496C196.549 43.1019 197.371 41.8817 198.963 41.0658C203.506 38.7461 208.135 36.6208 212.892 34.6882C214.569 34.0271 216.311 33.9965 216.691 34.5748C217.281 35.4611 217.911 36.3459 218.502 37.2322C218.923 37.8484 217.974 38.8759 216.418 39.6112C211.982 41.61 207.672 43.8016 203.488 46.186C202.015 46.9971 200.358 47.1825 199.778 46.5332ZM193.978 40.2772C193.109 39.3625 192.239 38.4083 191.37 37.4936C190.75 36.8459 191.692 35.6604 193.442 34.8382C198.384 32.5816 203.452 30.5177 208.608 28.6877C210.445 28.0598 212.267 28.026 212.688 28.6422C213.278 29.5285 213.908 30.4133 214.499 31.2996C214.92 31.9158 213.85 32.9085 212.135 33.6107C207.298 35.507 202.589 37.6355 198.007 39.9567C196.374 40.7348 194.559 40.9265 193.978 40.2772ZM188.179 34.0213C187.31 33.1066 186.44 32.1523 185.571 31.2377C184.95 30.5899 186.012 29.3997 187.922 28.6105C193.26 26.3775 198.729 24.4163 204.325 22.6873C206.283 22.0941 208.224 22.095 208.645 22.7112C209.236 23.5976 209.866 24.4823 210.456 25.3686C210.877 25.9848 209.687 26.9428 207.852 27.6103C202.614 29.4039 197.507 31.4693 192.486 33.7291C190.695 34.5135 188.76 34.6706 188.179 34.0213ZM182.38 27.7653C181.511 26.8506 180.64 25.8964 179.772 24.9817C179.151 24.334 180.331 23.1389 182.361 22.3845C188.138 20.213 194.005 18.3148 199.963 16.69C202.08 16.1299 204.142 16.1656 204.563 16.7818C205.153 17.6681 205.783 18.5529 206.374 19.4392C206.795 20.0554 205.486 21.0182 203.489 21.613C197.853 23.3435 192.306 25.308 186.887 27.5047C185.015 28.2527 183 28.413 182.38 27.7653ZM176.581 21.5093C175.712 20.5946 174.841 19.6404 173.972 18.7257C173.352 18.078 174.652 16.9177 176.841 16.1569C183.016 14.0484 189.322 12.2118 195.678 10.65C197.955 10.1231 200.098 10.1951 200.519 10.8113C201.109 11.6976 201.739 12.5824 202.329 13.4687C202.751 14.0849 201.322 15.013 199.205 15.573C193.168 17.201 187.222 19.1024 181.364 21.2376C179.336 22.0315 177.201 22.157 176.581 21.5093ZM170.781 15.2533C169.913 14.3386 169.042 13.3844 168.173 12.4697C167.553 11.822 168.972 10.6569 171.32 9.92925C177.934 7.8823 184.638 6.10871 191.395 4.64959C193.792 4.15736 196.094 4.26252 196.516 4.87868C197.106 5.765 197.736 6.64977 198.326 7.5361C198.747 8.15229 197.198 9.04562 194.921 9.57255C188.485 11.0979 182.098 12.8983 175.844 15.0099C173.655 15.7707 171.402 15.901 170.781 15.2533ZM233.604 53.1248C233.054 52.2369 232.504 51.3885 231.953 50.5005C231.572 49.8828 232.322 48.8238 233.64 48.098C237.363 46.0883 241.209 44.1924 245.182 42.4892C246.584 41.8788 247.929 41.8246 248.11 42.3713C248.418 43.1503 248.727 43.9293 249.036 44.7082C249.256 45.2533 248.343 46.2002 247.061 46.8454C243.411 48.6938 239.886 50.6956 236.486 52.8505C235.249 53.6126 233.986 53.7426 233.604 53.1248ZM229.923 47.298C229.372 46.4101 228.822 45.5616 228.272 44.6737C227.89 44.056 228.76 43.0317 230.198 42.3407C234.323 40.4731 238.532 38.7208 242.909 37.1992C244.433 36.663 245.899 36.6831 246.078 37.1903C246.387 37.9693 246.696 38.7482 247.005 39.5272C247.225 40.0723 246.19 40.945 244.788 41.5554C240.736 43.2618 236.847 45.0803 233.045 47.0931C231.685 47.781 230.304 47.9158 229.923 47.298ZM226.241 41.4712C225.69 40.5832 225.141 39.7348 224.59 38.8469C224.208 38.2291 225.159 37.2412 226.759 36.6228C231.284 34.8578 235.896 33.2871 240.597 31.9503C242.283 31.4868 243.791 31.5448 244.009 32.0504C244.318 32.8293 244.627 33.6083 244.935 34.3873C245.155 34.9324 244.04 35.7687 242.477 36.3065C238.06 37.8297 233.769 39.5061 229.565 41.3769C228.084 41.9905 226.621 42.0494 226.241 41.4712ZM222.518 35.6065C221.967 34.7185 221.417 33.8701 220.867 32.9821C220.485 32.3644 221.556 31.4112 223.316 30.8259C228.203 29.2046 233.218 27.7761 238.321 26.5814C240.126 26.1525 241.756 26.2848 241.976 26.8299C242.285 27.6088 242.594 28.3878 242.902 29.1668C243.122 29.7119 241.885 30.474 240.202 30.977C235.421 32.317 230.728 33.8513 226.122 35.58C224.523 36.1984 222.899 36.2242 222.518 35.6065ZM218.836 29.7796C218.285 28.8917 217.736 28.0433 217.185 27.1553C216.803 26.5376 217.995 25.6191 219.874 25.0685C225.164 23.5893 230.58 22.3029 236.047 21.2913C237.975 20.9368 239.725 21.1037 239.945 21.6489C240.254 22.4278 240.562 23.2068 240.871 23.9858C241.091 24.5309 239.734 25.2582 237.927 25.6475C232.743 26.8059 227.687 28.1966 222.719 29.7816C220.959 30.3668 219.217 30.3974 218.836 29.7796ZM215.154 23.9528C214.603 23.0649 214.054 22.2165 213.503 21.3285C213.121 20.7108 214.433 19.827 216.435 19.3507C222.125 17.9741 227.905 16.8708 233.776 16.0409C235.864 15.7589 237.695 15.9622 237.915 16.5073C238.224 17.2863 238.533 18.0653 238.841 18.8442C239.061 19.3894 237.622 20.0409 235.655 20.3971C230.107 21.3722 224.65 22.6208 219.279 24.0637C217.358 24.5763 215.534 24.5311 215.154 23.9528ZM211.47 18.0865C210.92 17.1986 210.37 16.3501 209.819 15.4622C209.438 14.8444 210.87 13.9954 213.031 13.5522C219.123 12.3177 225.306 11.3565 231.54 10.7098C233.749 10.4626 235.703 10.7796 235.922 11.2852C236.231 12.0642 236.539 12.8431 236.848 13.6221C237.068 14.1672 235.508 14.784 233.419 15.066C227.508 15.858 221.648 16.9644 215.877 18.3047C213.797 18.7842 211.852 18.7042 211.47 18.0865ZM207.789 12.2597C207.238 11.3717 206.688 10.5233 206.138 9.63536C205.756 9.01761 207.308 8.20328 209.59 7.79487C216.084 6.70242 222.629 5.88494 229.267 5.41982C231.597 5.24684 233.672 5.5986 233.891 6.10419C234.199 6.88318 234.508 7.66213 234.817 8.44111C235.037 8.98623 233.355 9.52879 231.146 9.776C224.831 10.3864 218.607 11.3097 212.436 12.5474C210.233 12.9526 208.17 12.8774 207.789 12.2597ZM204.107 6.43282C203.556 5.5449 203.006 4.6965 202.456 3.80855C202.074 3.1908 203.747 2.41121 206.149 2.03751C213.043 1.04768 219.991 0.411779 226.952 0.0919328C229.444 -0.00841197 231.6 0.379681 231.82 0.924797C232.128 1.70375 232.437 2.48273 232.746 3.26168C232.966 3.8068 231.203 4.31306 228.833 4.48763C222.155 4.95434 215.528 5.696 208.955 6.79161C206.672 7.16053 204.487 7.01108 204.107 6.43282ZM252.343 43.1901C252.075 42.4491 251.847 41.7064 251.58 40.9654C251.401 40.4582 252.435 39.5855 253.88 39.0525C258.021 37.58 262.285 36.2212 266.638 35.0963C268.167 34.6786 269.475 34.7051 269.493 35.1396C269.517 35.7322 269.54 36.3248 269.564 36.9174C269.58 37.3125 268.42 38.0318 266.974 38.5253C262.908 39.8761 258.928 41.4213 255.112 43.0786C253.748 43.648 252.523 43.7368 252.343 43.1901ZM250.636 38.1939C250.368 37.4529 250.14 36.7102 249.873 35.9691C249.694 35.4619 250.809 34.6256 252.417 34.2048C256.922 32.9155 261.514 31.8205 266.232 30.9182C267.884 30.6143 269.275 30.7166 269.291 31.1116C269.315 31.7042 269.339 32.2968 269.363 32.8894C269.378 33.2844 268.097 33.9296 266.567 34.3078C262.133 35.3964 257.828 36.7172 253.646 38.1519C252.161 38.6865 250.815 38.7011 250.636 38.1939ZM248.929 33.1977C248.661 32.4566 248.433 31.714 248.166 30.9729C247.987 30.4657 249.224 29.7036 250.952 29.3175C255.823 28.2509 260.78 27.3786 265.826 26.7402C267.6 26.5105 269.073 26.6886 269.091 27.1231C269.115 27.7157 269.138 28.3083 269.162 28.9009C269.178 29.2959 267.814 29.8652 266.123 30.1708C261.363 31.0351 256.689 32.0543 252.103 33.3073C250.535 33.7265 249.108 33.7049 248.929 33.1977ZM247.221 28.1619C246.953 27.4209 246.725 26.6783 246.457 25.9372C246.278 25.43 247.636 24.7026 249.487 24.4302C254.723 23.5863 260.046 22.9367 265.42 22.5621C267.317 22.4461 268.913 22.6985 268.928 23.0935C268.952 23.6861 268.976 24.2787 269 24.8713C269.016 25.2663 267.57 25.7598 265.755 25.9516C260.628 26.5537 255.628 27.3486 250.677 28.3789C248.949 28.7651 247.399 28.6691 247.221 28.1619ZM245.514 23.1657C245.246 22.4247 245.018 21.682 244.751 20.9409C244.572 20.4337 246.011 19.7822 248.023 19.543C253.623 18.8822 259.273 18.4964 265.014 18.384C267.033 18.3423 268.711 18.6705 268.728 19.105C268.752 19.6976 268.776 20.2902 268.8 20.8828C268.816 21.2778 267.248 21.6971 265.35 21.8131C259.896 22.1514 254.53 22.7236 249.215 23.5707C247.362 23.8036 245.693 23.6729 245.514 23.1657ZM243.805 18.13C243.538 17.3889 243.31 16.6463 243.042 15.9052C242.863 15.398 244.425 14.8207 246.518 14.6573C252.484 14.2193 258.5 14.0562 264.569 14.2075C266.71 14.24 268.471 14.6835 268.487 15.0786C268.511 15.6712 268.535 16.2638 268.559 16.8564C268.574 17.2514 266.924 17.5949 264.864 17.5987C259.082 17.6732 253.35 18.0226 247.67 18.6471C245.736 18.8436 243.984 18.6372 243.805 18.13ZM242.098 13.1338C241.831 12.3927 241.603 11.65 241.335 10.909C241.156 10.4018 242.799 9.86083 245.054 9.77004C251.385 9.55469 257.767 9.61431 264.161 9.98996C266.426 10.1362 268.307 10.6144 268.325 11.049C268.349 11.6416 268.372 12.2342 268.396 12.8268C268.412 13.2218 266.679 13.4894 264.497 13.419C258.348 13.2313 252.291 13.3565 246.244 13.7582C244.151 13.9216 242.277 13.6409 242.098 13.1338ZM240.39 8.098C240.122 7.35695 239.894 6.6143 239.627 5.87324C239.448 5.36605 241.212 4.89931 243.589 4.88278C250.284 4.85063 256.993 5.17402 263.755 5.8119C266.142 6.03236 268.107 6.62592 268.123 7.02099C268.147 7.61356 268.171 8.20615 268.194 8.79875C268.21 9.19382 266.356 9.3872 264.09 9.20145C257.613 8.74995 251.19 8.65243 244.778 8.83145C242.564 8.96014 240.57 8.64474 240.39 8.098ZM238.683 3.1018C238.415 2.36075 238.187 1.6181 237.92 0.877043C237.741 0.369823 239.625 -0.0621771 242.126 0.035011C249.186 0.22554 256.261 0.771646 263.351 1.67333C265.861 2.00754 267.907 2.63743 267.923 3.0325C267.947 3.62506 267.97 4.21766 267.994 4.81026C268.01 5.2053 266.073 5.32286 263.646 5.06447C256.841 4.3492 250.013 4.03053 243.275 3.98528C240.938 4.00021 238.862 3.60899 238.683 3.1018ZM273.286 35.8575C273.303 35.3028 273.321 34.7481 273.336 34.1539C273.36 33.7573 274.643 33.1516 276.216 32.8509C280.737 31.9566 285.344 31.2567 290.077 30.71C291.734 30.5246 293.005 30.5921 292.858 30.875C292.635 31.2401 292.451 31.6036 292.228 31.9688C292.079 32.2122 290.67 32.6251 289.056 32.8879C284.571 33.7016 280.212 34.6685 275.938 35.7902C274.489 36.2047 273.302 36.2525 273.286 35.8575ZM273.372 32.0948C273.389 31.5402 273.407 30.9855 273.422 30.3913C273.446 29.9947 274.812 29.4648 276.547 29.2762C281.397 28.6853 286.334 28.2886 291.359 28.0864C293.139 28.0147 294.493 28.1975 294.305 28.4425C294.082 28.8076 293.899 29.1712 293.675 29.5363C293.527 29.7797 292.033 30.0772 290.337 30.2643C285.561 30.7335 280.873 31.3971 276.309 32.214C274.657 32.5179 273.388 32.4899 273.372 32.0948ZM273.498 28.3306C273.515 27.7759 273.533 27.2213 273.548 26.6271C273.572 26.2304 275.021 25.816 276.879 25.7016C282.057 25.3744 287.285 25.3222 292.6 25.4643C294.504 25.5064 295.903 25.8062 295.754 26.0496C295.531 26.4147 295.347 26.7782 295.124 27.1433C294.976 27.3867 293.4 27.6085 291.578 27.6422C286.512 27.7671 281.492 28.0879 276.601 28.6409C274.865 28.8295 273.474 28.7273 273.498 28.3306ZM273.583 24.5285C273.6 23.9738 273.617 23.4191 273.633 22.825C273.657 22.4283 275.228 22.0881 277.169 22.089C282.676 22.0652 288.234 22.3162 293.84 22.8028C295.829 22.9997 297.35 23.3737 297.162 23.6187C296.939 23.9838 296.755 24.3473 296.532 24.7125C296.384 24.9559 294.724 25.0623 292.818 24.9807C287.46 24.7611 282.151 24.777 276.892 25.0284C275.073 25.1412 273.599 24.9235 273.583 24.5285ZM273.669 20.7659C273.686 20.2112 273.703 19.6565 273.719 19.0623C273.743 18.6657 275.396 18.4013 277.46 18.4765C283.296 18.7559 289.143 19.3119 295.08 20.1412C297.193 20.4519 298.758 20.9428 298.609 21.1862C298.386 21.5513 298.203 21.9149 297.98 22.28C297.831 22.5234 296.087 22.5144 294.058 22.3191C288.37 21.7568 282.771 21.4678 277.223 21.4538C275.242 21.4544 273.685 21.1609 273.669 20.7659ZM273.795 17.0017C273.812 16.447 273.829 15.8923 273.845 15.2981C273.869 14.9015 275.605 14.7129 277.791 14.9018C283.915 15.4467 290.133 16.3439 296.322 17.5192C298.518 17.9452 300.205 18.5104 300.057 18.7538C299.834 19.1189 299.65 19.4824 299.427 19.8475C299.278 20.0909 297.452 20.0061 295.34 19.6955C289.36 18.7887 283.432 18.1965 277.555 17.8791C275.45 17.766 273.771 17.3983 273.795 17.0017ZM273.881 13.239C273.898 12.6844 273.916 12.1297 273.931 11.5355C273.955 11.1389 275.813 11.0245 278.083 11.3288C284.537 12.1769 291.044 13.379 297.564 14.8972C299.883 15.4369 301.615 16.119 301.466 16.3624C301.243 16.7275 301.06 17.091 300.836 17.4561C300.688 17.6995 298.778 17.4994 296.542 17.075C290.27 15.8239 284.053 14.9267 277.847 14.306C275.658 14.0776 273.897 13.6341 273.881 13.239ZM273.966 9.43694C273.983 8.88227 274 8.32759 274.016 7.7334C274.04 7.33674 275.98 7.29819 278.374 7.71621C285.156 8.86766 291.953 10.3747 298.762 12.1977C301.166 12.8528 303.021 13.6486 302.872 13.892C302.649 14.2571 302.466 14.6206 302.243 14.9857C302.094 15.2292 300.1 14.9137 297.78 14.374C291.218 12.7785 284.671 11.5779 278.136 10.654C275.827 10.3908 273.982 9.83197 273.966 9.43694ZM274.091 5.67273C274.109 5.11805 274.126 4.56338 274.142 3.96919C274.165 3.57253 276.188 3.6098 278.705 4.14157C285.817 5.5963 292.943 7.40661 300.044 9.57406C302.571 10.3429 304.47 11.2556 304.321 11.499C304.098 11.8642 303.915 12.2277 303.692 12.5928C303.543 12.8362 301.467 12.4449 299.022 11.752C292.17 9.85153 285.291 8.26869 278.467 7.07935C276.033 6.66291 274.068 6.06935 274.091 5.67273Z" fill="url(#paint0_linear_426_4165)"/>
</g>
<defs>
<linearGradient id="paint0_linear_426_4165" x1="270.944" y1="-17.086" x2="11.2645" y2="286.877" gradientUnits="userSpaceOnUse">
<stop offset="5e-07" stop-color="#323232"/>
<stop offset="1" stop-color="#969696"/>
</linearGradient>
</defs>
</svg>
