<svg width="25" height="23" viewBox="0 0 25 23" id="leaf" fill="none" xmlns="http://www.w3.org/2000/svg">
    <path
        d="M10.235 7.21419C8.43136 5.63924 6.78107 4.3717 5.09256 3.33454C4.86222 3.18084 4.55532 3.25769 4.44024 3.48824C4.28668 3.7188 4.36346 4.02598 4.5938 4.14117C6.20556 5.13981 7.8558 6.40756 9.62117 7.90547C11.7319 9.74931 13.0365 11.4394 13.8809 13.4754C14.8786 15.8953 15.4927 18.5843 15.7613 21.9258C15.7996 22.1947 15.9917 22.3484 16.2218 22.3484H16.2601C16.5287 22.3101 16.7206 22.0795 16.6823 21.849C16.4137 18.4304 15.7613 15.6644 14.7251 13.1297C13.8423 10.9786 12.4223 9.13449 10.235 7.21419Z"
        fill="#0DA487" />
    <path
        d="M23.7441 3.25763C23.5523 3.25763 23.3219 3.29595 23.1301 3.29595L22.8615 3.33448C21.7869 3.44966 20.6739 3.60336 19.5995 4.02592C18.4482 4.4485 17.5655 5.17827 16.9515 6.21548C16.0305 7.75191 15.5315 9.442 15.4165 11.209V11.5547V11.8619C15.3397 12.1308 15.4932 12.3996 15.7234 12.4765C15.992 12.5534 16.2606 12.3997 16.3374 12.1693C16.4142 11.9388 16.4142 11.7084 16.3757 11.5164V11.2858C16.4525 9.67257 16.9513 8.13614 17.7956 6.75326C18.2946 5.90811 18.9852 5.33202 19.9447 4.9863C20.8656 4.64057 21.8251 4.48687 22.9381 4.37168L23.2067 4.33336C23.3603 4.33336 23.4753 4.29503 23.6289 4.29503C23.5906 4.60224 23.5906 4.90965 23.5521 5.21685C23.4753 6.02348 23.3986 6.83011 23.3218 7.63674C23.1682 8.9811 22.8996 10.0183 22.4774 10.9018C22.0937 11.7469 21.5565 12.2847 20.8657 12.5535C20.4052 12.7456 19.9062 12.8607 19.369 12.8993C19.0621 12.9376 18.7167 12.9376 18.3713 12.8993C18.0259 12.861 17.7189 12.8224 17.4118 12.7841C17.1432 12.7458 16.9129 12.8993 16.8363 13.1682C16.798 13.437 16.9513 13.6676 17.22 13.7442C17.5654 13.8211 17.9108 13.8594 18.333 13.8979H18.8702C19.1005 13.8979 19.2924 13.8979 19.4842 13.8596C20.0983 13.7828 20.7123 13.6676 21.2496 13.437C22.1705 13.053 22.8613 12.3615 23.3986 11.3244C23.8976 10.3257 24.1662 9.17332 24.3196 7.75213C24.3963 6.9455 24.4731 6.13887 24.5499 5.33224C24.5882 4.98651 24.6267 4.60244 24.665 4.25672C24.7033 3.98784 24.6267 3.75729 24.4731 3.60379C24.2432 3.33451 24.0129 3.25766 23.7442 3.25766L23.7441 3.25763Z"
        fill="#0DA487" />
    <path
        d="M4.05713 10.5172C4.32576 10.8244 4.63269 11.1318 4.93982 11.4007C5.40029 11.7848 5.89926 12.0922 6.39801 12.3611C7.77966 13.0525 9.27613 13.1677 10.6578 13.2062H11.3869H11.6555C11.9242 13.2062 12.116 12.9756 12.116 12.7068C12.116 12.4379 11.8857 12.2459 11.617 12.2459H10.6576C9.35275 12.2075 8.00959 12.0922 6.78155 11.4775C6.32108 11.247 5.89887 10.9781 5.51519 10.6324C5.24657 10.4019 4.97796 10.133 4.74759 9.86408C3.74988 8.71173 2.98227 7.40568 2.40671 5.90756C1.90774 4.64002 1.56235 3.25709 1.33219 1.64383C1.40897 1.64383 1.52403 1.64383 1.6391 1.68216H1.75418C3.02116 1.79774 4.47935 1.95124 5.93755 2.25862C6.16789 2.29694 6.39802 2.37379 6.62834 2.41232L7.12731 2.56581C8.50896 2.94987 9.96715 3.33413 11.2335 4.02537C12.2312 4.5631 13.0371 5.2929 13.5361 6.13805C13.8815 6.71415 14.0733 7.36728 14.0733 8.05872C14.0733 8.3276 14.0733 8.71164 14.035 9.09588C13.9967 9.36476 14.1886 9.59531 14.4572 9.63361C14.7258 9.67194 14.9562 9.47991 14.9944 9.21104C15.0327 8.78846 15.0327 8.32753 15.0327 8.05869C15.0327 7.17518 14.8024 6.36855 14.3419 5.6388C13.7279 4.64016 12.8069 3.79496 11.6556 3.1804C10.3125 2.4506 8.8158 2.06636 7.35761 1.64397L6.85864 1.49027C6.6283 1.41341 6.35967 1.37509 6.12952 1.29824C4.63284 0.990836 3.13611 0.837338 1.83127 0.760506L1.75449 0.721979C1.60093 0.721979 1.44757 0.683655 1.29402 0.683655C0.9871 0.721979 0.756782 0.837355 0.564894 1.02939C0.411337 1.22141 0.373047 1.49029 0.373047 1.72083C0.603385 3.41096 0.987089 4.90903 1.52432 6.25339C2.17664 7.86665 2.98252 9.24938 4.05704 10.5171L4.05713 10.5172Z"
        fill="#0DA487" />
</svg>