<svg width="12" height="12" viewBox="0 0 12 12" fill="none" xmlns="http://www.w3.org/2000/svg">
<path d="M6.49131 9.67334C6.35365 9.59622 6.1858 9.59622 6.04814 9.67334L3.44237 11.1333C3.10485 11.3224 2.7008 11.0291 2.77612 10.6496L3.35826 7.71654C3.38894 7.562 3.33717 7.40261 3.22153 7.29559L1.02753 5.26494C0.743712 5.00225 0.897992 4.52765 1.28202 4.48206L4.2486 4.1299C4.40519 4.11131 4.54087 4.01269 4.60687 3.86948L5.85801 1.15479C6.01999 0.803347 6.51946 0.803347 6.68144 1.15479L7.93258 3.86948C7.99858 4.01269 8.13426 4.11131 8.29085 4.1299L11.2574 4.48206C11.6415 4.52765 11.7957 5.00225 11.5119 5.26494L9.31792 7.29559C9.20228 7.40261 9.15051 7.562 9.18119 7.71654L9.76333 10.6496C9.83865 11.0291 9.4346 11.3224 9.09708 11.1333L6.49131 9.67334Z" fill="#FFBC5D"/>
</svg>
