<svg width="236" height="230" viewBox="0 0 236 230" fill="none" xmlns="http://www.w3.org/2000/svg">
<path fill-rule="evenodd" clip-rule="evenodd" d="M60.6606 199.527C69.0645 199.527 75.903 206.354 75.903 214.758C75.903 223.162 69.0645 230 60.6606 230C52.2566 230 45.4299 223.162 45.4299 214.758C45.4299 206.354 52.2566 199.527 60.6606 199.527ZM193.432 199.527C201.848 199.527 208.686 206.354 208.686 214.758C208.686 223.162 201.848 230 193.432 230C185.028 230 178.201 223.162 178.201 214.758C178.201 206.354 185.028 199.527 193.432 199.527ZM10.3336 0.111664L34.8156 4.34893C38.7586 5.04337 41.76 8.31549 42.1013 12.3174L44.8673 45.2857L55.1527 45.2901C56.8311 45.2908 58.4917 45.2916 60.1347 45.2923L79.0176 45.3013C80.5228 45.3021 82.0112 45.3028 83.4829 45.3036L104.332 45.315C105.642 45.3158 106.936 45.3165 108.215 45.3173L122.826 45.3266C123.983 45.3274 125.126 45.3282 126.254 45.329L139.105 45.3384C140.12 45.3392 141.12 45.34 142.108 45.3408L153.312 45.3505C154.194 45.3513 155.062 45.3521 155.918 45.3529L163.282 45.3602C164.063 45.361 164.833 45.3618 165.59 45.3627L174.118 45.3726C174.783 45.3734 175.437 45.3742 176.08 45.3751L183.281 45.3851C183.839 45.386 184.387 45.3868 184.925 45.3876L189.501 45.3953C189.981 45.3961 190.451 45.397 190.912 45.3979L196.01 45.4082C196.4 45.409 196.781 45.4099 197.154 45.4108L200.291 45.4186C200.616 45.4195 200.933 45.4204 201.243 45.4213L204.606 45.4319C204.858 45.4328 205.103 45.4336 205.342 45.4345L207.317 45.4426C207.518 45.4435 207.712 45.4444 207.901 45.4453L209.899 45.4562C210.044 45.4571 210.184 45.458 210.319 45.4589L211.408 45.4672C211.515 45.4681 211.618 45.469 211.717 45.47L212.501 45.4783C212.577 45.4792 212.649 45.4802 212.718 45.4811L213.251 45.4896C213.302 45.4905 213.349 45.4914 213.394 45.4924L213.731 45.5009C213.762 45.5019 213.791 45.5028 213.818 45.5038L214.062 45.5153C214.077 45.5163 214.091 45.5173 214.104 45.5182C214.218 45.5289 214.235 45.5309 214.252 45.5328C220.808 46.4862 226.576 49.9113 230.507 55.1844C234.438 60.4457 236.086 66.931 235.144 73.4282L223.974 150.617C221.867 165.306 209.109 176.382 194.278 176.382H65.7359C50.2345 176.382 37.1108 164.282 35.8514 148.804L25.0699 20.58L7.33218 17.5198C2.51817 16.6723 -0.695088 12.1173 0.128825 7.30325C0.976279 2.48924 5.6255 -0.641628 10.3336 0.111664ZM52.7914 62.945L46.3504 62.941L53.4478 147.357C53.9657 153.854 59.274 158.727 65.7594 158.727H194.255C200.387 158.727 205.625 154.16 206.496 148.098L217.677 70.8976C217.936 69.0615 217.477 67.2253 216.359 65.7423C215.253 64.2474 213.628 63.2823 211.792 63.0233C211.707 63.0266 211.504 63.0296 211.188 63.0323L209.908 63.0396C209.64 63.0407 209.346 63.0417 209.025 63.0427L202.357 63.0528C201.795 63.0532 201.21 63.0535 200.603 63.0538L184.925 63.0532C184.051 63.0529 183.159 63.0525 182.252 63.0521L164.36 63.0412C163.288 63.0405 162.205 63.0396 161.11 63.0388L150.986 63.0307C149.833 63.0297 148.671 63.0288 147.501 63.0278L136.778 63.0183C135.567 63.0172 134.35 63.0161 133.128 63.015L125.741 63.0082C124.502 63.0071 123.259 63.0059 122.013 63.0048L110.74 62.9942C109.483 62.9931 108.226 62.9919 106.968 62.9907L99.4276 62.9837C98.1728 62.9825 96.9193 62.9814 95.668 62.9802L88.1915 62.9735C86.9516 62.9723 85.7153 62.9712 84.4833 62.9701L73.531 62.9607C72.3313 62.9597 71.1381 62.9587 69.9521 62.9578L56.1113 62.9472C54.9943 62.9465 53.8875 62.9457 52.7914 62.945ZM175.35 88.7918C180.223 88.7918 184.178 92.7466 184.178 97.6195C184.178 102.492 180.223 106.447 175.35 106.447H142.724C137.839 106.447 133.896 102.492 133.896 97.6195C133.896 92.7466 137.839 88.7918 142.724 88.7918H175.35Z" fill="#0DA487"/>
</svg>
