<svg width="31" height="27" viewBox="0 0 31 27" fill="none" xmlns="http://www.w3.org/2000/svg">
<path d="M19.8953 12.1549C20.7505 12.1561 21.4467 11.4607 21.4467 10.6069C21.4467 9.75351 20.7511 9.05787 19.8977 9.05787C14.1928 9.05787 9.88347 10.7032 6.69324 12.8055C6.71872 12.6287 6.74941 12.4513 6.78582 12.2733C7.51891 8.6918 10.387 5.78641 13.9516 4.9573C15.5022 4.59816 16.9939 4.62898 18.3692 4.95619C21.8506 5.78428 25.7595 4.50208 27.7216 1.10608L27.7219 1.10549C27.765 1.03073 27.8347 0.998023 27.9055 1.00009C27.9728 1.00206 28.0231 1.03303 28.0523 1.0978L28.0526 1.09865C28.9772 3.15168 29.5015 5.68618 29.5015 8.13234C29.5015 15.3466 25.5577 21.3113 19.7439 23.2336L19.7268 23.2392L19.7102 23.2458C18.6145 23.6798 17.4259 23.926 16.1806 23.926C12.6426 23.926 9.35009 21.9344 7.68468 18.7696L7.3091 18.0558L6.71626 18.6026C3.48841 21.5801 2.57971 24.9791 2.52798 25.1935C2.44354 25.5469 2.1264 25.7872 1.77543 25.7872C1.71776 25.7872 1.65629 25.7804 1.59281 25.7657C1.17813 25.6649 0.922285 25.2464 1.02128 24.8318C1.27532 23.7875 2.53537 20.6044 5.46995 17.6901C8.38552 14.7947 12.9618 12.155 19.8953 12.1549ZM19.8953 12.1549C19.8951 12.1549 19.8949 12.1549 19.8947 12.1549L19.8958 11.5353V12.1549C19.8957 12.1549 19.8954 12.1549 19.8953 12.1549Z" stroke="#0da487"/>
</svg>
