<svg width="42" height="42" viewBox="0 0 42 42" fill="none" xmlns="http://www.w3.org/2000/svg">
    <path d="M34.7844 16.9649C35.4988 18.0299 36.2781 18.7205 37.1291 18.9507C37.9665 19.1774 38.9475 18.9713 40.1028 18.2601C40.5676 17.9715 41.176 18.1193 41.4597 18.5865C41.5554 18.7445 41.6033 18.9163 41.6067 19.0915C41.6511 19.5725 41.6785 20.0604 41.6887 20.5551C41.699 21.0567 41.6956 21.5548 41.6716 22.0496C41.6716 22.0942 41.6682 22.1389 41.6614 22.1801C41.3503 27.9244 38.7664 33.0056 34.8254 36.5855C30.8777 40.1723 25.5764 42.2508 19.8479 41.9759V41.9794C19.8035 41.9794 19.759 41.9759 19.718 41.9691C14.0032 41.6564 8.94799 39.0591 5.38646 35.0979C1.81468 31.1298 -0.249771 25.8012 0.0236662 20.0432C0.0236662 19.9985 0.0270842 19.9539 0.0339201 19.9126C0.341537 14.1615 3.01097 9.05275 7.0305 5.45226C11.0535 1.8449 16.4368 -0.250807 22.1653 0.0240392C22.7121 0.0240392 23.1531 0.467229 23.1531 1.01692C23.1531 1.15435 23.1257 1.2849 23.0745 1.40171C22.6746 2.71067 22.6472 3.92343 22.9822 4.88539C23.2864 5.75803 23.905 6.43484 24.8313 6.78183C25.3235 6.96735 25.5832 7.5033 25.426 8.00146H25.4294C24.8039 10.025 24.7903 11.8081 25.2517 13.2442C25.532 14.1134 25.9831 14.8555 26.5779 15.4429C27.1726 16.0339 27.9109 16.4736 28.762 16.7416C30.1428 17.1745 31.8176 17.147 33.6531 16.5526C34.0872 16.4152 34.5486 16.5939 34.7844 16.9649ZM20.2615 19.8783C21.2082 19.8783 21.9739 20.6478 21.9739 21.5995C21.9739 22.5512 21.2082 23.3207 20.2615 23.3207C19.3147 23.3207 18.5491 22.5512 18.5491 21.5995C18.5491 20.6478 19.3181 19.8783 20.2615 19.8783ZM12.8376 26.9659C13.9895 26.9659 14.926 27.9038 14.926 29.065C14.926 30.2263 13.9929 31.1642 12.8376 31.1642C11.6824 31.1642 10.7493 30.2263 10.7493 29.065C10.7493 27.9038 11.6824 26.9659 12.8376 26.9659ZM17.3357 10.908C18.2414 10.908 18.9729 11.6432 18.9729 12.5536C18.9729 13.464 18.2414 14.1993 17.3357 14.1993C16.4299 14.1993 15.6985 13.464 15.6985 12.5536C15.6985 11.6432 16.4333 10.908 17.3357 10.908ZM40.7761 11.1313C41.4529 11.1313 41.9998 11.681 41.9998 12.3612C41.9998 13.0415 41.4529 13.5912 40.7761 13.5912C40.0994 13.5912 39.5525 13.0415 39.5525 12.3612C39.5491 11.6844 40.0994 11.1313 40.7761 11.1313ZM31.9988 7.87091C33.0173 7.87091 33.8411 8.69889 33.8411 9.72269C33.8411 10.7465 33.0173 11.5745 31.9988 11.5745C30.9802 11.5745 30.1565 10.7465 30.1565 9.72269C30.1565 8.70232 30.9802 7.87091 31.9988 7.87091ZM33.4241 0.20269C34.5144 0.20269 35.3997 1.09251 35.3997 2.18846C35.3997 3.28441 34.5144 4.17422 33.4241 4.17422C32.3337 4.17422 31.4485 3.28441 31.4485 2.18846C31.4519 1.08907 32.3337 0.20269 33.4241 0.20269ZM26.2258 27.7011C27.74 27.7011 28.9705 28.9345 28.9705 30.4599C28.9705 31.9818 27.7434 33.2186 26.2258 33.2186C24.7082 33.2186 23.4812 31.9853 23.4812 30.4599C23.4812 28.9345 24.7082 27.7011 26.2258 27.7011ZM10.9065 16.0716C12.5471 16.0716 13.8767 17.4081 13.8767 19.0572C13.8767 20.7063 12.5471 22.0427 10.9065 22.0427C9.26586 22.0427 7.93627 20.7063 7.93627 19.0572C7.93627 17.4115 9.26586 16.0716 10.9065 16.0716ZM36.6164 20.8677C35.4578 20.5551 34.446 19.7889 33.5574 18.6415C31.5818 19.1637 29.7429 19.1259 28.1706 18.6346C27.0188 18.2739 26.0105 17.6692 25.1936 16.855C24.3767 16.0407 23.7546 15.0272 23.3752 13.8488C22.8591 12.2478 22.7976 10.3445 23.3137 8.24195C22.2541 7.62355 21.5193 6.68564 21.1194 5.53472C20.7571 4.48686 20.6819 3.27067 20.9109 1.97889C16.1565 2.04416 11.7234 3.90281 8.343 6.933C4.69603 10.2002 2.27611 14.8245 1.99583 20.026V20.0432L1.99242 20.0878C1.73265 25.3271 3.6057 30.1713 6.84252 33.7718C10.0691 37.3585 14.6492 39.7119 19.8308 39.9902H19.8479L19.8923 39.9936C25.1013 40.2582 29.9241 38.3755 33.5061 35.1185C37.0745 31.8753 39.4158 27.2716 39.6926 22.0633V22.0461L39.696 22.0015C39.72 21.5411 39.7268 21.0945 39.7165 20.6582C38.616 21.0739 37.5837 21.1323 36.6164 20.8677Z" fill="#222222" />
</svg>