<svg width="51" height="47" viewBox="0 0 51 47" fill="none" xmlns="http://www.w3.org/2000/svg">
    <path d="M14.2973 47C13.5261 47 12.7668 46.8043 12.0919 46.4304C11.0872 45.8653 10.3225 44.953 9.94162 43.8653C9.5601 42.7771 9.58854 41.5872 10.0214 40.5186C10.1275 40.2912 10.0477 40.0201 9.83504 39.8868C8.93427 39.2822 8.26914 38.3863 7.95039 37.3501C7.63009 36.3126 7.68147 35.1959 8.09524 34.192C8.19363 33.9651 8.10945 33.7 7.89848 33.571C7.00153 32.9632 6.34013 32.0668 6.02376 31.0306C5.70729 29.9948 5.75484 28.8814 6.15932 27.8762C6.26863 27.6467 6.18282 27.3712 5.96255 27.2444C5.06069 26.6437 4.39763 25.7462 4.08826 24.7077C3.77889 23.6872 3.8259 22.5919 4.22271 21.6015C4.3293 21.3741 4.24895 21.1035 4.03633 20.9702C3.11917 20.3651 2.44245 19.4588 2.12272 18.4073C1.80352 17.3562 1.86145 16.2264 2.2867 15.2131C2.38508 14.9863 2.30091 14.7212 2.08994 14.5922C1.20173 14.0002 0.540965 13.1241 0.215639 12.1068C-0.154393 10.9371 -0.0450829 9.66794 0.519543 8.57919C1.08471 7.48984 2.05928 6.66949 3.22891 6.29826C4.35433 5.95338 5.57042 6.06487 6.6144 6.60928C6.81062 6.7093 7.05112 6.64699 7.17355 6.46388C7.75731 5.39641 8.734 4.59784 9.89664 4.23823C10.9761 3.91357 12.136 3.98298 13.1685 4.435C13.4002 4.55688 13.6872 4.46889 13.8107 4.23823C14.4327 3.24619 15.4046 2.52359 16.5338 2.2131C17.6625 1.90263 18.8672 2.02672 19.9089 2.56073C20.1068 2.6531 20.3424 2.57603 20.4473 2.38473C21.0191 1.32819 21.9876 0.542197 23.1398 0.20008C24.2914 -0.141533 25.5317 -0.0114446 26.5877 0.562458C27.5923 1.12763 28.357 2.03993 28.7379 3.12756C29.1194 4.2158 29.091 5.40569 28.6581 6.47429C28.5521 6.70167 28.6319 6.97278 28.8445 7.10614C29.7458 7.71011 30.4109 8.60599 30.728 9.64396C31.045 10.6814 30.9942 11.7964 30.5843 12.8009C30.481 13.0278 30.5657 13.2956 30.781 13.4219C31.6774 14.0297 32.3394 14.9261 32.6557 15.9623C32.9722 16.9981 32.9247 18.1115 32.5202 19.1167C32.4141 19.3441 32.4939 19.6152 32.7066 19.7485C33.6073 20.3503 34.272 21.245 34.589 22.2809C34.906 23.3167 34.8557 24.43 34.4463 25.4324C34.3463 25.6631 34.4299 25.9314 34.6431 26.0643C35.5406 26.6693 36.2026 27.5652 36.5168 28.601C36.83 29.5979 36.7934 30.672 36.4135 31.6449C36.337 31.8357 36.4015 32.0543 36.5688 32.1729C37.5182 32.8599 38.1926 33.8618 38.4715 34.9998C38.7502 36.1378 38.6152 37.3375 38.091 38.3853C37.5133 39.526 36.4966 40.382 35.2745 40.7563C34.195 41.081 33.0357 41.0116 32.0026 40.5595C31.7703 40.4437 31.4877 40.53 31.3609 40.7563C30.7706 41.7052 29.8605 42.4108 28.7953 42.747C27.73 43.0832 26.5794 43.0274 25.5518 42.5891C25.3201 42.4732 25.0375 42.5595 24.9101 42.7858C24.2876 43.7779 23.3162 44.5005 22.187 44.811C21.0578 45.1215 19.8536 44.9973 18.8113 44.4633C18.6102 44.3748 18.3752 44.4508 18.2626 44.6393C17.8734 45.3493 17.3017 45.9429 16.6064 46.3577C15.9112 46.7726 15.1175 46.9945 14.3074 47H14.2973ZM4.5338 8.14139C4.29549 8.14521 4.05882 8.18019 3.82925 8.24524C3.18756 8.4584 2.65574 8.9159 2.34968 9.51878C2.04362 10.1217 1.9873 10.8213 2.19335 11.4651C2.35952 12.0456 2.72682 12.5485 3.22912 12.8836C3.72159 13.2121 4.08671 13.7001 4.26216 14.2659C4.43707 14.8316 4.41247 15.4405 4.19165 15.9897C3.96646 16.5527 3.94022 17.1758 4.11732 17.7557C4.29386 18.3357 4.66389 18.838 5.16512 19.1791C5.65813 19.507 6.0227 19.9951 6.19815 20.5608C6.37361 21.1265 6.34901 21.7354 6.12819 22.2852C5.89371 22.8439 5.8642 23.467 6.04511 24.0452C6.21838 24.6224 6.58405 25.1231 7.08088 25.4636C7.57335 25.7921 7.93683 26.2808 8.11064 26.847C8.28446 27.4133 8.25713 28.0216 8.03303 28.5698C7.80838 29.1311 7.78269 29.7526 7.95979 30.3309C8.13688 30.9092 8.50582 31.4093 9.0065 31.7488C9.49951 32.0773 9.86408 32.5653 10.0395 33.1305C10.215 33.6962 10.1904 34.3051 9.96957 34.855C9.73508 35.4168 9.70612 36.0438 9.88649 36.6253C10.0598 37.2025 10.4249 37.7031 10.9223 38.0437C11.4175 38.3695 11.7842 38.8581 11.958 39.4255C12.1318 39.9923 12.1023 40.6023 11.8744 41.1499C11.6437 41.7134 11.6181 42.3404 11.8023 42.9208C11.987 43.6467 12.468 44.2626 13.1272 44.6185C13.7098 44.9394 14.3969 45.0104 15.0325 44.8153C15.6447 44.6294 16.1585 44.2086 16.4613 43.6456C16.769 43.0799 17.2845 42.6557 17.8988 42.4628C18.5126 42.2698 19.1778 42.3223 19.7539 42.6098C20.36 42.9274 21.0662 42.9946 21.7211 42.7962C22.3223 42.6082 22.8367 42.2119 23.1706 41.6779C23.4909 41.1444 23.9943 40.746 24.5862 40.5552C25.1787 40.365 25.8198 40.3962 26.3909 40.6427C26.9687 40.8968 27.6186 40.9373 28.2237 40.7564C28.8255 40.5886 29.3475 40.2103 29.694 39.69C30.016 39.156 30.521 38.7564 31.1145 38.5662C31.7087 38.376 32.3515 38.4071 32.9243 38.6547C33.4988 38.91 34.147 38.9472 34.7466 38.7581C35.4336 38.552 36.0064 38.0732 36.3305 37.4331C36.6705 36.7701 36.7377 36.0011 36.5169 35.2895C36.3447 34.6981 35.9802 34.181 35.4817 33.8191C35.0269 33.4912 34.6941 33.0211 34.535 32.4838C34.376 31.946 34.3995 31.3705 34.6017 30.848C34.8001 30.2888 34.8056 29.6794 34.6181 29.1164C34.4306 28.554 34.06 28.0697 33.5659 27.7418C33.0735 27.4132 32.7083 26.9252 32.5334 26.3594C32.358 25.7937 32.3826 25.1848 32.6034 24.6356C32.839 24.0677 32.8679 23.4347 32.6843 22.8483C32.5006 22.2613 32.1164 21.7579 31.5988 21.4255C31.1047 21.0987 30.7395 20.6101 30.5657 20.0432C30.3925 19.477 30.4209 18.8675 30.6461 18.3194C30.8724 17.7586 30.8975 17.1371 30.7188 16.5594C30.5488 15.9806 30.1826 15.4793 29.6836 15.141C29.1911 14.8125 28.8271 14.3238 28.6532 13.7576C28.48 13.1913 28.5073 12.583 28.7309 12.0348C28.9561 11.4718 28.9828 10.8487 28.8057 10.2688C28.6286 9.68891 28.2586 9.18658 27.7574 8.8455C27.2649 8.51754 26.8998 8.02946 26.7244 7.46374C26.5495 6.89802 26.5741 6.28914 26.7949 5.7393C27.0288 5.18069 27.0583 4.5576 26.8774 3.97933C26.6752 3.31961 26.2264 2.76373 25.6246 2.42644C25.0425 2.10505 24.3549 2.03399 23.7193 2.22968C23.1077 2.41551 22.5939 2.83638 22.2905 3.39937C21.9789 3.96399 21.4619 4.3865 20.8465 4.57889C20.2316 4.77183 19.5658 4.72045 18.9876 4.43515C18.3858 4.1165 17.6823 4.04981 17.0309 4.24877C16.4296 4.43624 15.9158 4.83307 15.5814 5.36653C15.2512 5.89179 14.7429 6.28041 14.1499 6.46133C13.5564 6.64171 12.9179 6.60235 12.3512 6.35038C11.7778 6.09129 11.1296 6.05085 10.529 6.23669C9.88072 6.42636 9.32922 6.85597 8.98601 7.43753C8.67445 8.00433 8.1552 8.42902 7.53751 8.62196C6.92041 8.8149 6.25194 8.76134 5.67258 8.47274C5.32714 8.26887 4.93525 8.15464 4.53406 8.14152L4.5338 8.14139Z" fill="#222222" />
    <path d="M10.5179 15.0691H10.3107L10.114 15.0068L9.93799 14.9138C9.8795 14.8772 9.82703 14.8319 9.78275 14.7794C9.68601 14.6848 9.60839 14.5722 9.55483 14.4482C9.50509 14.323 9.4805 14.1891 9.48214 14.0546C9.47941 13.9163 9.504 13.7791 9.55483 13.6507C9.60839 13.5266 9.68601 13.414 9.78275 13.3195C9.82703 13.2665 9.8795 13.2211 9.93799 13.185L10.114 13.0921L10.3107 13.0402V13.0396C10.4436 13.009 10.5819 13.009 10.7147 13.0396L10.9114 13.0915L11.0563 13.1435C11.1126 13.1823 11.1645 13.2276 11.2115 13.2779C11.3083 13.3725 11.3859 13.4851 11.4394 13.6092C11.4903 13.7376 11.5149 13.8748 11.5116 14.0131C11.5132 14.1475 11.4886 14.2815 11.4394 14.4066C11.3859 14.5307 11.3083 14.6433 11.2115 14.7378C11.1645 14.7881 11.1126 14.8335 11.0563 14.8723L10.8803 14.9652L10.6835 15.0275L10.5179 15.0691Z" fill="#222222" />
    <path d="M15.9639 13.4011C15.8251 13.3989 15.6884 13.3705 15.56 13.3186C15.4277 13.288 15.3036 13.2278 15.1976 13.1426C15.1451 13.0978 15.0998 13.0458 15.0631 12.9873L14.9702 12.8113L14.9079 12.6146C14.9024 12.549 14.9024 12.4834 14.9079 12.4178C14.9101 12.279 14.9385 12.1423 14.9904 12.0139C15.0407 11.8876 15.1183 11.7745 15.2184 11.6827C15.3157 11.5892 15.4277 11.5121 15.5496 11.4547C15.7404 11.3782 15.9491 11.3602 16.1503 11.4028L16.3471 11.4547C16.4088 11.4832 16.4678 11.5181 16.5231 11.558C16.5815 11.5908 16.634 11.6324 16.6783 11.6827C16.775 11.7772 16.8526 11.8898 16.9062 12.0139C16.9554 12.1429 16.98 12.2795 16.9784 12.4178C16.9773 12.6895 16.8696 12.9496 16.6783 13.1426C16.634 13.1951 16.5815 13.2404 16.5231 13.277C16.47 13.318 16.4105 13.3497 16.3471 13.3705C16.2847 13.4 16.2186 13.4213 16.1503 13.4323L15.9639 13.4011Z" fill="#222222" />
    <path d="M21.4094 11.7347H21.2127C21.1444 11.7254 21.0777 11.7047 21.0159 11.673C20.9525 11.6522 20.8929 11.6205 20.8399 11.5795L20.6847 11.4554C20.4868 11.2619 20.3753 10.9968 20.3742 10.7203C20.3688 10.6514 20.3688 10.582 20.3742 10.5131L20.4365 10.3267L20.5294 10.1403L20.6639 9.98511C20.7087 9.93592 20.7612 9.89383 20.8191 9.86103C20.8722 9.82004 20.9317 9.78834 20.9951 9.76757C21.0569 9.73641 21.1236 9.7151 21.1919 9.70581C21.3941 9.66645 21.6029 9.68777 21.7926 9.76757C21.9161 9.8184 22.0287 9.89219 22.1238 9.98511L22.2583 10.1403L22.3512 10.3267H22.3518C22.3561 10.389 22.3561 10.4513 22.3518 10.5131C22.3621 10.582 22.3621 10.6514 22.3518 10.7203C22.3534 10.9958 22.2452 11.2603 22.0517 11.4554C21.956 11.5483 21.8434 11.6221 21.7199 11.673C21.6199 11.7079 21.5155 11.7293 21.4094 11.7347L21.4094 11.7347Z" fill="#222222" />
    <path d="M12.733 22.3269C12.4559 22.3258 12.1914 22.2143 11.9979 22.0164C11.9482 21.9716 11.9066 21.9191 11.8733 21.8612C11.8323 21.8081 11.8011 21.7486 11.7804 21.6852C11.7487 21.6234 11.7279 21.5567 11.718 21.4884C11.7131 21.4228 11.7131 21.3572 11.718 21.2916C11.7219 21.0178 11.829 20.7549 12.0187 20.5565C12.263 20.3143 12.6122 20.2094 12.95 20.2772C13.0151 20.3045 13.0747 20.3433 13.126 20.3909C13.19 20.4116 13.2496 20.4433 13.3026 20.4843C13.3605 20.5171 13.413 20.5592 13.4578 20.6084C13.56 20.7019 13.6382 20.8194 13.6852 20.95C13.7382 21.0746 13.7666 21.208 13.7683 21.3436C13.7644 21.6163 13.6529 21.877 13.4578 22.0683C13.413 22.1208 13.3605 22.1662 13.3026 22.2028C13.2495 22.2438 13.19 22.2755 13.126 22.2963C13.0648 22.3274 12.9981 22.3487 12.9298 22.358L12.733 22.3269Z" fill="#222222" />
    <path d="M18.18 20.6605H17.9728C17.9078 20.649 17.8449 20.6282 17.7864 20.5982C17.7203 20.5752 17.658 20.544 17.6 20.5047C17.5459 20.4664 17.494 20.4254 17.4448 20.3806C17.3486 20.2833 17.2748 20.1669 17.2273 20.039C17.1163 19.7881 17.1163 19.5028 17.2273 19.2519C17.2765 19.1251 17.3502 19.0087 17.4448 18.9103L17.6 18.7862L17.7864 18.6933V18.6928C17.8449 18.6633 17.9078 18.6419 17.9728 18.631C18.3106 18.5632 18.6599 18.6682 18.9047 18.9103C19.102 19.1043 19.2141 19.3689 19.2152 19.6455C19.2152 19.9204 19.1064 20.1833 18.9118 20.3779C18.7178 20.5719 18.4543 20.6807 18.18 20.6807V20.6605Z" fill="#222222" />
    <path d="M23.6262 18.9925C23.3507 18.9942 23.0862 18.8859 22.8911 18.6919C22.697 18.4968 22.5894 18.2322 22.591 17.9568C22.5855 17.8917 22.5855 17.8256 22.591 17.76C22.6003 17.6917 22.6216 17.625 22.6528 17.5638C22.6735 17.4998 22.7052 17.4403 22.7462 17.3872C22.7818 17.3282 22.8233 17.273 22.8703 17.2216L23.0255 17.0975C23.0846 17.0604 23.1469 17.0292 23.2119 17.0046C23.2726 16.9789 23.3349 16.9582 23.3983 16.9423C23.7066 16.8795 24.0269 16.9598 24.2685 17.1615C24.5101 17.3626 24.6472 17.6632 24.6407 17.9775C24.6385 18.1164 24.6101 18.253 24.5582 18.3815C24.5079 18.5077 24.4303 18.6209 24.3302 18.7127C24.1395 18.8914 23.8875 18.9914 23.6263 18.9925L23.6262 18.9925Z" fill="#222222" />
    <path d="M14.9496 29.5849C14.814 29.5882 14.679 29.5597 14.5566 29.5018C14.433 29.4515 14.3204 29.3777 14.2248 29.2843C14.1226 29.1908 14.0444 29.0733 13.9974 28.9426C13.9444 28.818 13.916 28.6846 13.9143 28.5491C13.9094 28.4841 13.9094 28.4179 13.9143 28.3523C13.9291 28.2851 13.9499 28.2195 13.9766 28.1556C14.0012 28.0938 14.0324 28.0348 14.0696 27.9796C14.1089 27.92 14.1537 27.8648 14.2046 27.814C14.2997 27.721 14.4123 27.6473 14.5358 27.597C14.7905 27.4904 15.078 27.4904 15.3327 27.597C15.4562 27.6473 15.5688 27.721 15.6645 27.814C15.7148 27.8621 15.7563 27.9184 15.7886 27.9796C15.8285 28.0348 15.8634 28.0938 15.8919 28.1556C15.8979 28.2212 15.8979 28.2873 15.8919 28.3523C15.9023 28.4179 15.9023 28.4841 15.8919 28.5491C15.8935 28.6841 15.8689 28.8175 15.8197 28.9426C15.7672 29.0705 15.6896 29.187 15.5918 29.2843C15.4196 29.457 15.1922 29.563 14.9496 29.5849L14.9496 29.5849Z" fill="#222222" />
    <path d="M20.3741 27.9183C20.3086 27.9282 20.2424 27.9282 20.1774 27.9183H19.9806C19.9188 27.8894 19.8598 27.8549 19.8046 27.8145C19.7445 27.785 19.6915 27.7429 19.6494 27.6904C19.5494 27.5986 19.4712 27.4855 19.4215 27.3592C19.3695 27.2307 19.3411 27.0941 19.3384 26.9553C19.3428 26.682 19.4543 26.4218 19.6494 26.2305C19.6937 26.178 19.7461 26.1327 19.8046 26.096L19.9806 26.0031V26.0026C20.044 25.9758 20.1102 25.955 20.1774 25.9408C20.5168 25.8758 20.8666 25.9845 21.1093 26.2305C21.3006 26.4234 21.4083 26.6836 21.4094 26.9553C21.4105 27.093 21.3859 27.2302 21.3367 27.3592C21.2831 27.4833 21.2061 27.5959 21.1093 27.6904C20.9027 27.8582 20.6392 27.9396 20.3742 27.9183L20.3741 27.9183Z" fill="#222222" />
    <path d="M25.8412 26.2616H25.6444L25.4477 26.1993L25.2717 26.1064L25.1061 25.9719V25.9714C25.0126 25.8763 24.9388 25.7637 24.8885 25.6402C24.7355 25.2603 24.8207 24.8263 25.1061 24.5322L25.2717 24.3978L25.4477 24.3048L25.6444 24.2425C25.9871 24.1737 26.3419 24.283 26.5867 24.5322C26.6797 24.6301 26.7567 24.7416 26.8141 24.864C26.8649 24.9919 26.8901 25.1296 26.8868 25.2674C26.8885 25.4024 26.8639 25.5358 26.8141 25.6609C26.7567 25.7828 26.6797 25.8949 26.5867 25.9921C26.3834 26.1774 26.1156 26.2742 25.8412 26.2616L25.8412 26.2616Z" fill="#222222" />
    <path d="M17.1754 36.8429C16.6037 36.8429 16.1402 36.3794 16.1402 35.8076C16.1386 35.6726 16.1632 35.5393 16.2129 35.4141C16.2665 35.2895 16.3435 35.1769 16.4403 35.0823L16.5955 34.9479L16.7715 34.855L16.9683 34.7926C17.1705 34.7533 17.3793 34.7752 17.569 34.855C17.8177 34.9659 18.0172 35.1649 18.1281 35.4141C18.1812 35.5382 18.2096 35.6721 18.2112 35.8076C18.2101 36.0842 18.0981 36.3488 17.9002 36.5422C17.8056 36.6395 17.693 36.7166 17.569 36.7702C17.4438 36.8199 17.3104 36.8445 17.1754 36.8429L17.1754 36.8429Z" fill="#222222" />
    <path d="M22.6217 35.186C22.3452 35.1849 22.0806 35.0729 21.8866 34.8755C21.7898 34.781 21.7128 34.6684 21.6592 34.5438C21.6095 34.4186 21.5849 34.2852 21.5865 34.1508C21.5849 33.8753 21.6931 33.6108 21.8866 33.4156L22.0418 33.2916L22.2178 33.1883H22.4146L22.4151 33.1877C22.7529 33.1199 23.1022 33.2249 23.3465 33.467C23.3968 33.514 23.4421 33.5659 23.4815 33.6222C23.5187 33.678 23.5498 33.7365 23.5744 33.7988C23.6045 33.8605 23.6252 33.9272 23.6367 33.995C23.6416 34.0644 23.6416 34.1333 23.6367 34.2022C23.6367 34.4771 23.5274 34.7405 23.3334 34.9346C23.1393 35.1286 22.8759 35.2379 22.6015 35.2379L22.6217 35.186Z" fill="#222222" />
    <path d="M28.0676 33.5196C27.7905 33.5185 27.5259 33.4064 27.3324 33.2091C27.1411 33.0162 27.0329 32.756 27.0318 32.4843C27.0302 32.3493 27.0548 32.216 27.1045 32.0908C27.157 31.9629 27.2341 31.8465 27.3324 31.7492C27.7358 31.3474 28.3884 31.3474 28.7924 31.7492C28.8946 31.8426 28.9728 31.9602 29.0198 32.0908C29.0728 32.2154 29.1012 32.3488 29.1029 32.4843C29.1029 32.7587 28.9936 33.0222 28.7995 33.2162C28.6055 33.4102 28.342 33.5196 28.0676 33.5196H28.0676Z" fill="#222222" />
    <path d="M36.4543 46.9902C36.0127 46.9891 35.5738 46.9268 35.1497 46.8038C34.0188 46.4578 33.0705 45.6806 32.5091 44.6399C32.4009 44.4524 32.1719 44.3731 31.9707 44.4535C30.9284 44.993 29.7205 45.1198 28.5885 44.8093C27.4565 44.4983 26.483 43.7724 25.8622 42.7761C25.8348 42.723 25.796 42.6771 25.7479 42.6416C25.6621 42.576 25.5555 42.5427 25.4479 42.5487C25.3763 42.5345 25.3019 42.5345 25.2303 42.5487L24.8368 42.7039C24.5302 42.8039 24.1946 42.7558 23.9284 42.5733C23.6622 42.3907 23.4966 42.0939 23.4807 41.772C23.4627 41.2937 23.7753 40.8652 24.2366 40.7368L24.4334 40.6537H24.4329C24.7581 40.5061 25.1117 40.4318 25.4686 40.4361C26.0081 40.4094 26.541 40.5668 26.9805 40.8816C27.2768 41.0784 27.5244 41.3407 27.7053 41.6479C28.0332 42.1781 28.5459 42.5689 29.1444 42.7449C29.7976 42.9477 30.5043 42.8843 31.1116 42.5689C31.6883 42.2869 32.3518 42.2366 32.9645 42.4295C33.5772 42.6225 34.0926 43.0428 34.4042 43.6047C34.7141 44.1666 35.2301 44.5858 35.8433 44.7744C36.4872 44.9504 37.1742 44.8651 37.7558 44.5371C38.3368 44.2097 38.7659 43.6664 38.9495 43.0247C39.1326 42.4442 39.107 41.8178 38.8768 41.2544C38.6533 40.7061 38.626 40.0973 38.7998 39.5316C38.973 38.9653 39.3371 38.4767 39.8295 38.1482C40.3236 37.8 40.6882 37.2972 40.8648 36.7194C41.0397 36.1401 41.0107 35.5191 40.7822 34.9589C40.5576 34.4101 40.5308 33.7996 40.7063 33.2333C40.8823 32.6665 41.249 32.1784 41.7453 31.8527C42.2378 31.5067 42.6007 31.006 42.7751 30.4294C42.95 29.8533 42.9259 29.2351 42.7078 28.6743C42.4832 28.1271 42.4542 27.5194 42.6259 26.9531C42.7975 26.3873 43.1593 25.8982 43.6501 25.568C44.1574 25.2373 44.5258 24.7328 44.6854 24.149C44.8696 23.5686 44.8439 22.9422 44.6132 22.3787C44.3886 21.8299 44.3618 21.2194 44.5372 20.6532C44.7132 20.0864 45.08 19.5983 45.5763 19.2725C46.0699 18.9287 46.4344 18.4291 46.6115 17.8541C46.7837 17.2742 46.7509 16.6521 46.5181 16.0941C46.2983 15.5431 46.2754 14.9337 46.4525 14.368C46.6301 13.8017 46.9969 13.3147 47.4915 12.9879C47.9922 12.6506 48.3584 12.1489 48.5267 11.5689C48.741 10.9031 48.6776 10.1789 48.3507 9.56025C48.0397 8.9847 47.5156 8.554 46.8908 8.35942C46.2824 8.17029 45.6232 8.22988 45.058 8.52503C44.4776 8.81417 43.808 8.86774 43.1888 8.67479C42.5695 8.48185 42.0486 8.05715 41.7348 7.4898C41.4134 6.89566 40.8696 6.45238 40.2229 6.2578C39.6184 6.07197 38.9669 6.1124 38.3902 6.37149C37.8245 6.61854 37.1888 6.65516 36.5984 6.47479C36.0076 6.29442 35.5015 5.90908 35.1702 5.38765C34.8357 4.8192 34.2979 4.39942 33.6649 4.21304C33.0325 4.02666 32.3526 4.08733 31.7633 4.38358C31.1829 4.66453 30.5177 4.71373 29.9022 4.52133C29.2867 4.32893 28.7675 3.9097 28.4499 3.34782C28.1471 2.78484 27.6333 2.36397 27.0211 2.17813C26.5691 2.0382 26.0859 2.0382 25.6339 2.17813C25.0851 2.33827 24.5101 2.02289 24.35 1.47413C24.1898 0.924817 24.5052 0.350369 25.054 0.190211C25.8946 -0.0634035 26.7916 -0.0634035 27.6322 0.190211C28.7609 0.538932 29.7087 1.31563 30.2722 2.35415C30.3815 2.54709 30.6176 2.62689 30.821 2.54053C31.8988 1.97209 33.1581 1.85621 34.3208 2.21968C35.4085 2.54435 36.3399 3.25491 36.9406 4.21795C37.0712 4.44041 37.3527 4.52186 37.5823 4.40433C38.6596 3.93591 39.873 3.88945 40.9831 4.27261C42.0933 4.65631 43.0192 5.44175 43.5778 6.47475C43.6964 6.65621 43.9331 6.71907 44.1265 6.62014C45.1836 6.06973 46.4161 5.96152 47.5536 6.31844C48.691 6.6759 49.6404 7.469 50.1936 8.52505C50.7861 9.62369 50.9167 10.9125 50.5559 12.1074C50.2384 13.1448 49.5776 14.0429 48.6822 14.6545C48.4614 14.7813 48.3756 15.0568 48.4854 15.2863C48.8828 16.2756 48.9342 17.3705 48.6303 18.3925C48.3089 19.4305 47.6442 20.3285 46.7456 20.9396C46.5292 21.0697 46.4478 21.344 46.5593 21.5714C46.9457 22.5635 46.9932 23.6556 46.6937 24.6776C46.38 25.7221 45.7093 26.6234 44.7993 27.2247C44.5932 27.3531 44.5139 27.6138 44.6129 27.8352C45.0294 28.8387 45.0775 29.9576 44.7473 30.9933C44.4369 32.0307 43.7788 32.9304 42.8835 33.5404C42.6633 33.6672 42.5775 33.9421 42.6868 34.1717C43.0923 35.1599 43.1432 36.2568 42.8322 37.2779C42.5108 38.3136 41.8461 39.2084 40.9475 39.8151C40.7349 39.9479 40.6513 40.2163 40.7508 40.4464C41.3416 41.8861 41.1798 43.5253 40.319 44.8223C39.4581 46.1188 38.0102 46.9037 36.4541 46.918L36.4543 46.9902Z" fill="#222222" />
    <path d="M40.2547 15.069H40.0476L39.8612 15.0067L39.6748 14.9138L39.5196 14.7793C39.4261 14.6815 39.349 14.57 39.2917 14.4481C39.2419 14.3229 39.2173 14.189 39.219 14.0545C39.2162 13.9162 39.2408 13.779 39.2917 13.6506C39.349 13.5287 39.4261 13.4167 39.5196 13.3194L39.6748 13.1849L39.8612 13.092L40.0476 13.0401V13.0395C40.2482 12.9969 40.4575 13.0149 40.6483 13.0915L40.8243 13.1844V13.1849C40.8827 13.221 40.9347 13.2664 40.9795 13.3194C41.0795 13.4112 41.1571 13.5243 41.2074 13.6506C41.2615 13.7785 41.29 13.9157 41.29 14.0545C41.2883 14.1895 41.2604 14.3235 41.2074 14.4481C41.1571 14.5738 41.0795 14.6875 40.9795 14.7793C40.9347 14.8318 40.8828 14.8771 40.8243 14.9138L40.6483 15.0067V15.0072C40.522 15.0531 40.3886 15.0739 40.2547 15.069V15.069Z" fill="#222222" />
    <path d="M34.8087 13.4012C34.2365 13.4012 33.773 12.9377 33.773 12.3659C33.7713 12.091 33.8796 11.8265 34.0736 11.6308C34.2676 11.4346 34.5327 11.3247 34.8087 11.3247C35.0848 11.3247 35.3493 11.4346 35.5439 11.6308C35.6368 11.7264 35.7106 11.8385 35.7609 11.962C35.8155 12.0899 35.8434 12.2271 35.844 12.3659C35.8423 12.5015 35.8139 12.6349 35.7609 12.7595C35.7084 12.8846 35.6352 13.0005 35.5439 13.1011C35.3455 13.2902 35.0826 13.3973 34.8087 13.4012V13.4012Z" fill="#222222" />
    <path d="M38.0383 22.327H37.8311C37.7644 22.3111 37.6983 22.2904 37.6344 22.2652C37.5726 22.2401 37.5136 22.2089 37.4584 22.1718L37.3031 22.0477C37.1053 21.8542 36.9938 21.5891 36.9927 21.3125C36.9938 21.036 37.1053 20.7709 37.3031 20.5774C37.3425 20.5058 37.395 20.4424 37.4584 20.391C37.5114 20.35 37.571 20.3183 37.6344 20.2981C37.6967 20.268 37.7628 20.2467 37.8311 20.2358C38.1394 20.1729 38.4597 20.2533 38.7013 20.455C38.9429 20.6561 39.0801 20.9567 39.0735 21.271C39.0724 21.5476 38.9604 21.8127 38.7631 22.0062C38.5734 22.2051 38.3127 22.3204 38.0383 22.327V22.327Z" fill="#222222" />
</svg>