<svg width="46" height="45" viewBox="0 0 46 45" fill="none" xmlns="http://www.w3.org/2000/svg">
    <path d="M20.3742 11.6338C20.1325 11.6338 19.8925 11.532 19.7238 11.3332C19.4178 10.9736 19.4615 10.4345 19.8207 10.1294L21.1495 8.99854C21.5083 8.69294 22.0474 8.73624 22.3533 9.09545C22.6585 9.45508 22.6148 9.99328 22.2564 10.2988L20.9268 11.4297C20.7667 11.567 20.57 11.6338 20.3741 11.6338L20.3742 11.6338Z" fill="#222222" />
    <path d="M33.5375 17.3845C33.3004 17.3845 33.0657 17.2872 32.897 17.0958L31.7406 15.7872C31.4292 15.4333 31.4627 14.8935 31.8157 14.5817C32.1695 14.2691 32.7081 14.3025 33.0212 14.6563L34.1772 15.9653C34.4893 16.3187 34.4564 16.8582 34.1025 17.1708C33.94 17.3139 33.7379 17.3844 33.5375 17.3844L33.5375 17.3845Z" fill="#222222" />
    <path d="M11.077 18.6368C10.8035 18.6368 10.535 18.5056 10.3697 18.2623C10.1053 17.8717 10.2072 17.341 10.5973 17.0758L12.0425 16.0963C12.4334 15.8311 12.9646 15.9338 13.229 16.3244C13.4933 16.715 13.3915 17.2457 13.0009 17.5105L11.5557 18.4899C11.4089 18.5889 11.2419 18.6368 11.0769 18.6368L11.077 18.6368Z" fill="#222222" />
    <path d="M28.6747 29.6149C28.4338 29.6149 28.193 29.5122 28.0243 29.3138C27.7187 28.9554 27.7624 28.4151 28.1212 28.1107L29.4513 26.9799C29.8097 26.6743 30.3491 26.7184 30.6543 27.0764C30.9603 27.436 30.9166 27.975 30.5578 28.2802L29.2278 29.411C29.0677 29.5488 28.8714 29.6148 28.6747 29.6148L28.6747 29.6149Z" fill="#222222" />
    <path d="M33.7623 24.9925C33.4798 24.9925 33.2022 24.8519 33.0402 24.5941L32.1081 23.1197C31.8557 22.7209 31.9745 22.1939 32.3741 21.9423C32.7729 21.6908 33.3008 21.8083 33.5511 22.2079L34.4836 23.6836C34.7352 24.082 34.616 24.6086 34.2184 24.861C34.0769 24.9497 33.919 24.9926 33.7623 24.9926L33.7623 24.9925Z" fill="#222222" />
    <path d="M26.2271 13.9966C25.8167 13.9966 25.4542 13.7001 25.3857 13.2823C25.3082 12.8167 25.6237 12.3775 26.0881 12.3004L27.81 12.0158C28.2756 11.9383 28.7156 12.2534 28.7915 12.719C28.8691 13.1846 28.554 13.6238 28.0896 13.701L26.367 13.9855C26.3191 13.9929 26.2733 13.9967 26.2272 13.9967L26.2271 13.9966Z" fill="#222222" />
    <path d="M13.9509 13.7263C13.7133 13.7263 13.477 13.6273 13.3079 13.4343L12.1581 12.1204C11.8475 11.7657 11.8834 11.2259 12.2385 10.9158C12.5932 10.6044 13.1326 10.6407 13.4436 10.9962L14.593 12.3101C14.9036 12.6648 14.8681 13.2046 14.5126 13.5152C14.3505 13.6566 14.1505 13.7263 13.9509 13.7263L13.9509 13.7263Z" fill="#222222" />
    <path d="M15.7859 33.5233C15.548 33.5233 15.3112 33.4239 15.143 33.2313L13.9935 31.917C13.683 31.5623 13.7189 31.0225 14.074 30.7132C14.4286 30.4018 14.9685 30.4377 15.279 30.7932L16.4285 32.1075C16.739 32.4622 16.7031 33.0021 16.348 33.3126C16.186 33.4541 15.9855 33.5234 15.7859 33.5234V33.5233Z" fill="#222222" />
    <path d="M22.1477 33.7505C22.0327 33.7505 21.9147 33.7261 21.8025 33.6766C21.3712 33.4861 21.1769 32.9813 21.3679 32.5508L22.0751 30.9543C22.2661 30.5229 22.7705 30.3262 23.2027 30.5196C23.6337 30.7101 23.8284 31.2149 23.6366 31.6455L22.9293 33.242C22.7883 33.5608 22.4752 33.7505 22.1478 33.7505L22.1477 33.7505Z" fill="#222222" />
    <path d="M13.0476 26.1868C12.914 26.2701 12.756 26.3183 12.5878 26.3163L10.8412 26.2994C10.3698 26.2944 9.99079 25.9084 9.99615 25.4374C10.0003 24.9656 10.3871 24.5866 10.8585 24.5915L12.6047 24.6089C13.0761 24.6138 13.4543 24.999 13.4497 25.4708C13.4468 25.7727 13.2868 26.0375 13.0476 26.1868H13.0476Z" fill="#222222" />
    <path d="M6.92242 17.0057C6.45145 17.0057 6.06873 16.6242 6.06832 16.1528L6.06543 13.6165C6.06502 13.1451 6.4465 12.7619 6.9183 12.7615H6.91913C7.3901 12.7615 7.77282 13.1434 7.77324 13.6144L7.77612 16.1507C7.77653 16.6221 7.39505 17.0048 6.92325 17.0057H6.92242Z" fill="#222222" />
    <path d="M24.9585 7.0759C24.4946 7.0759 24.1147 6.70472 24.1057 6.23951C24.0958 5.76813 24.4706 5.37839 24.942 5.36849L27.4792 5.31735C27.9642 5.29549 28.3408 5.68275 28.3502 6.15373C28.3593 6.62512 27.9853 7.01527 27.513 7.02475L24.9759 7.0759H24.9585H24.9585Z" fill="#222222" />
    <path d="M9.35292 33.7124C9.32199 33.7124 9.29105 33.7104 9.2593 33.7075C8.79038 33.6563 8.45137 33.2348 8.5021 32.7659L8.7747 30.2444C8.82501 29.7751 9.24568 29.4369 9.71584 29.4864C10.1843 29.5383 10.5234 29.959 10.473 30.4279L10.2 32.9495C10.1534 33.3866 9.78307 33.7124 9.35292 33.7124H9.35292Z" fill="#222222" />
    <path d="M38.1281 23.2379C37.6568 23.2379 37.2744 22.856 37.274 22.3842L37.272 19.8482C37.272 19.3768 37.6535 18.9941 38.1257 18.9941H38.1261C38.5971 18.9941 38.9806 19.3756 38.9806 19.8478L38.9823 22.3838C38.9823 22.8547 38.5995 23.2379 38.1282 23.2379C38.1286 23.2379 38.1286 23.2379 38.1282 23.2379H38.1281Z" fill="#222222" />
    <path d="M35.8086 12.2155C35.7694 12.2155 35.7294 12.2131 35.689 12.2069L33.1774 11.853C32.7097 11.7874 32.3855 11.3556 32.4507 10.8884C32.5163 10.4215 32.9473 10.0965 33.4154 10.1617L35.927 10.5156C36.3946 10.5811 36.7196 11.0129 36.6536 11.4802C36.593 11.907 36.2276 12.2155 35.8086 12.2155V12.2155Z" fill="#222222" />
    <path d="M15.132 9.03857C14.9831 9.03857 14.8314 8.99898 14.6944 8.91691C14.2895 8.67441 14.1579 8.14982 14.4004 7.7452L15.7041 5.56807C15.9466 5.16267 16.4712 5.03152 16.8758 5.2736C17.2808 5.5161 17.4119 6.04069 17.1698 6.44531L15.8662 8.62244C15.7057 8.89011 15.4228 9.03857 15.1321 9.03857H15.132Z" fill="#222222" />
    <path d="M4.38399 23.3731C3.91837 23.3731 3.53689 22.9986 3.52988 22.531C3.52287 22.0596 3.89941 21.6715 4.37079 21.6645L6.90922 21.627C7.37854 21.6303 7.7691 21.9961 7.7757 22.4679C7.78271 22.9392 7.40617 23.3273 6.93436 23.3347L4.39636 23.3727C4.39265 23.3731 4.38811 23.3731 4.38399 23.3731V23.3731Z" fill="#222222" />
    <path d="M25.8188 36.2674C25.3532 36.2674 24.9729 35.8933 24.9659 35.4265C24.9585 34.9551 25.3355 34.567 25.8073 34.5604L28.3448 34.5225C28.8232 34.541 29.2051 34.8916 29.2113 35.3634C29.2183 35.8348 28.8418 36.2228 28.37 36.2303L25.832 36.2674H25.8188H25.8188Z" fill="#222222" />
    <path d="M34.2702 33.5942C33.9539 33.5942 33.6491 33.4172 33.5007 33.1116L32.3979 30.8264C32.1925 30.4012 32.3703 29.8918 32.7955 29.6869C33.2198 29.4811 33.73 29.6584 33.9354 30.0832L35.039 32.3692C35.2444 32.7932 35.067 33.3037 34.6418 33.5087C34.5218 33.5669 34.3948 33.5941 34.2703 33.5941L34.2702 33.5942Z" fill="#222222" />
    <path d="M16.6388 38.7232C16.2738 38.7232 15.9365 38.4869 15.8235 38.1207C15.6841 37.6695 15.9369 37.1923 16.3877 37.0534L18.8123 36.3044C19.2635 36.1679 19.7406 36.4178 19.8796 36.869C20.019 37.3202 19.7662 37.7974 19.3154 37.9363L16.8908 38.6853C16.8071 38.7108 16.7221 38.7232 16.6388 38.7232L16.6388 38.7232Z" fill="#222222" />
    <path d="M21.5776 15.44C18.1937 15.44 15.4404 18.1937 15.4404 21.5776C15.4404 24.9615 18.1933 27.7139 21.5776 27.7139C24.9611 27.7139 27.7139 24.9611 27.7139 21.5776C27.7135 18.1933 24.9611 15.44 21.5776 15.44ZM21.5776 26.0074C19.1353 26.0074 17.1483 24.02 17.1483 21.578C17.1483 19.1361 19.1353 17.1487 21.5776 17.1487C24.0195 17.1487 26.0061 19.1361 26.0061 21.578C26.0057 24.02 24.0195 26.0074 21.5776 26.0074Z" fill="#222222" />
    <path d="M44.0342 24.3898V24.3852L44.0185 24.3658C43.9744 24.306 43.9249 24.2495 43.8787 24.1902L43.0864 23.1999C43.1281 22.6638 43.1561 22.124 43.1561 21.5771C43.1553 9.67944 33.4763 0 21.578 0C18.736 0 16.0236 0.557582 13.5363 1.56056C12.622 1.22114 11.6614 1.01823 10.6766 0.966678C8.10142 0.833881 5.62202 1.70986 3.70302 3.43785C1.78445 5.16586 0.654017 7.53768 0.519616 10.1157C0.45198 11.4181 0.641274 12.6958 1.08256 13.9128C1.12751 14.037 1.20422 14.1364 1.29207 14.223C0.45651 16.5193 0 18.9963 0 21.5776C0 33.4763 9.67944 43.1557 21.5781 43.1557C22.1448 43.1557 22.7053 43.1256 23.2616 43.0823L23.8344 43.5459C24.821 44.4874 26.1267 45 27.4613 45C27.7941 45 28.1294 44.9678 28.461 44.9035C29.9098 44.6193 31.1569 43.7434 31.9174 42.5049C33.3308 42.8439 34.8323 42.5849 36.0585 41.7654C37.2566 40.9653 38.0637 39.7049 38.3062 38.2973C39.7117 38.059 40.9742 37.2552 41.7771 36.06C42.6019 34.8355 42.8642 33.3344 42.5256 31.9206C43.7657 31.1626 44.6446 29.9175 44.9316 28.4695C45.2162 27.0388 44.8805 25.5607 44.0351 24.3898L44.0342 24.3898ZM4.84658 4.70675C6.42614 3.28387 8.46676 2.56013 10.5874 2.67225C10.7619 2.68133 10.9343 2.69989 11.1071 2.72009C7.34002 4.82016 4.26673 8.01507 2.31554 11.8721C2.22893 11.3252 2.19635 10.768 2.22604 10.2047C2.33657 8.08159 3.26698 6.12912 4.8465 4.70677L4.84658 4.70675ZM30.7038 41.1398C30.2444 42.2207 29.2826 43.0023 28.1312 43.2278C27.2622 43.3969 26.3669 43.2249 25.6192 42.7696C27.4045 42.4298 29.1132 41.871 30.7146 41.1183C30.7125 41.1261 30.7076 41.1323 30.7039 41.1397L30.7038 41.1398ZM40.3593 35.1078C39.723 36.0559 38.6552 36.6383 37.5063 36.6634C37.0514 36.6737 36.6839 37.0395 36.6724 37.4952C36.6422 38.6458 36.0579 39.7111 35.1085 40.3458C34.134 40.9975 32.9009 41.1245 31.81 40.682C31.7647 40.6634 31.7177 40.6514 31.6711 40.6411C35.4896 38.6116 38.6282 35.4691 40.6539 31.6471C40.6642 31.7028 40.6799 31.7585 40.7017 31.8121C41.143 32.9029 41.0152 34.1344 40.3594 35.1077L40.3593 35.1078ZM21.5779 41.4479C10.621 41.4479 1.70805 32.5339 1.70805 21.578C1.70805 10.6221 10.6216 1.70811 21.5779 1.70811C32.5349 1.70811 41.4489 10.6221 41.4489 21.578C41.4485 32.5339 32.5349 41.4479 21.5779 41.4479ZM43.2564 28.1376C43.0279 29.289 42.2443 30.2479 41.1625 30.7053C41.1444 30.7131 41.1296 30.7238 41.1114 30.7329C41.8736 29.115 42.4369 27.3882 42.7775 25.5814C43.2518 26.3369 43.4329 27.2501 43.2564 28.1376L43.2564 28.1376Z" fill="#222222" />
</svg>