<svg width="50" height="33" viewBox="0 0 50 33" fill="none" xmlns="http://www.w3.org/2000/svg">
    <path d="M20.9475 22.8436C20.5339 22.4241 20.1818 21.9482 19.9025 21.4301C19.6754 21.0057 19.8347 20.4772 20.259 20.2501C20.6831 20.0227 21.2116 20.182 21.439 20.6067C21.8935 21.492 22.6588 22.1795 23.5881 22.5371C24.5176 22.8943 25.5457 22.8972 26.4769 22.5442C27.408 22.1919 28.1766 21.5083 28.6357 20.6248C28.7372 20.4467 28.8219 20.2595 28.8878 20.0658L33.6507 6.46539C33.6718 6.44169 33.6945 6.41899 33.7182 6.39789L33.9885 5.6235C34.1221 5.2646 34.1078 4.86749 33.9489 4.51979C33.7896 4.17159 33.4989 3.90109 33.1404 3.76709C27.9066 1.86329 22.1726 1.84579 16.9275 3.71819C16.1729 3.99909 15.782 4.83249 16.0489 5.59269L16.3747 6.49589C16.4954 6.93589 16.2559 7.39399 15.8261 7.54609C15.3962 7.69759 14.9219 7.49189 14.7399 7.07369L14.4141 6.17049C14.1293 5.37179 14.1727 4.49249 14.5358 3.72599C14.8988 2.95999 15.5516 2.36889 16.3501 2.08369C21.9576 0.0617948 28.0965 0.0682945 33.6994 2.10109C34.4868 2.39209 35.1279 2.98189 35.4835 3.74239C35.8391 4.50289 35.8802 5.37269 35.5987 6.16369L35.3096 7.00559L35.2668 7.11009L30.4976 20.6312L30.4979 20.6309C30.3983 20.9057 30.2792 21.1727 30.1414 21.43C29.5195 22.604 28.5143 23.5294 27.2934 24.0527C26.0723 24.5763 24.7087 24.6656 23.4298 24.3061C22.4896 24.042 21.634 23.5381 20.9473 22.8436H20.9475Z" fill="#222222" />
    <path d="M31.2358 24.0972L28.7775 21.639C28.4381 21.2996 28.4381 20.7494 28.7778 20.4097C29.1172 20.0703 29.6674 20.0703 30.0068 20.4097L32.465 22.8679C32.9121 23.3163 33.597 23.4257 34.1612 23.1385C34.2007 23.1126 34.2445 23.0941 34.2903 23.0834L46.9013 14.9339C47.2604 14.7085 47.5047 14.3389 47.5712 13.9201C47.6361 13.5126 47.5141 13.0973 47.2393 12.7894C44.5199 9.68781 40.9755 7.42231 37.0187 6.25621C36.3757 6.07001 35.6898 6.35291 35.3654 6.93821L35.1869 7.22701L35.1872 7.22731C35.073 7.43431 34.8794 7.58581 34.6513 7.64711C34.4229 7.70811 34.1795 7.67371 33.9771 7.55171C33.775 7.42941 33.6309 7.23021 33.5784 6.99981C33.5261 6.76921 33.5699 6.52751 33.7 6.32991L33.8661 6.05351L33.8658 6.05321C34.2243 5.42411 34.7875 4.93621 35.4617 4.67141C36.1362 4.40631 36.8808 4.38001 37.5718 4.59681C39.9428 5.29951 42.1872 6.37401 44.2217 7.78051C45.8335 8.89131 47.3028 10.1959 48.5973 11.6643C49.1972 12.3556 49.4681 13.2722 49.3409 14.1779C49.2079 15.1 48.6865 15.9212 47.9092 16.4337L35.2428 24.5277C35.1383 24.5964 35.027 24.6539 34.9105 24.6996C34.3126 24.9997 33.6352 25.1028 32.9753 24.9945C32.3151 24.8865 31.7064 24.5724 31.2354 24.0975L31.2358 24.0972Z" fill="#222222" />
    <path d="M40.2091 31.9026L34.6287 26.3222C33.9756 25.6743 33.6327 24.7766 33.6885 23.8579C33.707 23.3709 34.1171 22.9913 34.604 23.0098C35.0913 23.0287 35.4709 23.4387 35.4524 23.9257C35.4183 24.3484 35.5734 24.765 35.8761 25.0625L41.4565 30.6429C41.7546 30.941 42.1663 31.0977 42.5874 31.0731C42.9865 31.0393 43.354 30.8411 43.6012 30.5258C46.2187 27.1862 47.1797 22.8395 46.2132 18.7079C46.1019 18.2294 45.7544 17.8397 45.2915 17.6752C44.8733 17.4932 44.6676 17.0189 44.8191 16.5891C44.9712 16.1592 45.4293 15.9198 45.8689 16.0408C46.8951 16.3967 47.6659 17.2558 47.9093 18.3147C48.9964 22.9608 47.9183 27.8496 44.9778 31.6077C44.4197 32.328 43.5769 32.7717 42.6672 32.8243C41.754 32.8798 40.8602 32.5447 40.209 31.9026H40.2091Z" fill="#222222" />
    <path d="M1.60686 15.9786C1.11216 15.4832 0.792863 14.8402 0.696863 14.1472C0.563863 13.2401 0.833363 12.3197 1.43426 11.6274C2.72326 10.1729 4.18456 8.88101 5.78556 7.78031C7.81876 6.37191 10.0639 5.29751 12.4355 4.59661C13.1233 4.39351 13.8591 4.42791 14.5248 4.69461C15.1905 4.96071 15.7472 5.44411 16.1045 6.06541L16.2706 6.35411L16.3381 6.50791L21.0709 19.8694C21.154 20.103 21.2568 20.3291 21.3779 20.5455C21.58 20.8956 21.5138 21.3388 21.2182 21.6148L18.7292 24.1039C18.2581 24.5789 17.6495 24.8929 16.9892 25.001C16.3293 25.1093 15.6519 25.0062 15.054 24.706C14.9411 24.66 14.8321 24.6042 14.7279 24.5403L2.13566 16.422C1.94586 16.2919 1.76866 16.1433 1.60746 15.9794L1.60686 15.9786ZM14.366 6.61191L14.3657 6.61221C13.9945 6.23581 13.4469 6.09441 12.9397 6.24331C8.98476 7.40601 5.44236 9.66961 2.72576 12.7698C2.46036 13.0897 2.35426 13.5124 2.43666 13.9193C2.49346 14.3485 2.73606 14.7307 3.10046 14.964L15.7236 23.0763L15.8284 23.1811C16.3926 23.4682 17.0775 23.3588 17.5246 22.9105L19.6019 20.8331L19.4605 20.4704L14.7527 7.15861L14.6177 6.93731C14.5564 6.81631 14.4775 6.70441 14.3841 6.60571L14.366 6.61191Z" fill="#222222" />
    <path d="M5.30626 31.9448L5.02956 31.6681C2.06366 27.9054 0.977162 22.9946 2.07986 18.3323C2.32316 17.2734 3.09396 16.4143 4.12016 16.0584C4.34146 15.9617 4.59256 15.9617 4.81386 16.0577C5.03506 16.1537 5.20676 16.3377 5.28686 16.5651C5.36726 16.7929 5.34976 17.0433 5.23786 17.2571C5.12626 17.4712 4.93026 17.6289 4.69766 17.6928C4.24646 17.8593 3.90776 18.2395 3.79446 18.707C2.81506 22.8386 3.77726 27.1911 6.40636 30.5248C6.66236 30.8534 7.04746 31.0549 7.46336 31.0783C7.88446 31.1029 8.29616 30.9462 8.59436 30.6481L14.1502 25.0923C14.4545 24.7841 14.6037 24.3552 14.5554 23.9247C14.5282 23.4426 14.8974 23.0299 15.3791 23.003C15.8609 22.9754 16.2739 23.3443 16.3008 23.826C16.3566 24.7448 16.014 25.6428 15.3607 26.2904L9.78026 31.8708C9.12816 32.5209 8.22916 32.8606 7.31006 32.8051C6.56126 32.7649 5.85116 32.4596 5.30646 31.9447L5.30626 31.9448Z" fill="#222222" />
</svg>