<svg viewBox="0 0 23 23" fill="none" xmlns="http://www.w3.org/2000/svg">
    <path d="M10.228 21.8256C10.2173 21.8256 10.2067 21.8256 10.194 21.8236C7.69589 21.6509 5.63186 20.6362 4.05901 18.8071C1.49494 15.8217 0.367724 10.7916 0.88223 4.64378C0.903564 4.38066 1.11613 4.1631 1.39383 4.2C4.85009 4.402 8.63737 6.41755 11.2795 9.46021C13.6845 12.2282 14.8649 15.4688 14.6087 18.5906C14.5864 18.8557 14.3622 19.0479 14.0844 19.0344C13.8175 19.0121 13.6184 18.7761 13.6397 18.5111C13.8746 15.6537 12.7756 12.6654 10.5455 10.0965C8.19209 7.38483 4.88629 5.54492 1.81116 5.20917C1.42369 10.7985 2.50058 15.5052 4.79271 18.1754C6.18882 19.8006 8.02874 20.7036 10.2576 20.855C10.5246 20.8744 10.7265 21.1054 10.7091 21.3724C10.6954 21.6288 10.4819 21.8258 10.2274 21.8258L10.228 21.8256Z" fill="#222222" />
    <path d="M12.7727 22.6856C12.5503 22.6856 12.3504 22.5322 12.2999 22.306C11.129 17.0931 5.53655 10.3155 3.16599 8.02609C2.97284 7.84158 2.96688 7.53483 3.15235 7.3407C3.33878 7.14851 3.64742 7.1437 3.83867 7.32706C6.2755 9.68339 12.0274 16.6671 13.2456 22.0921C13.3048 22.3552 13.1397 22.6116 12.8787 22.6747C12.8437 22.6824 12.8078 22.6854 12.7728 22.6854L12.7727 22.6856Z" fill="#222222" />
    <path d="M14.1727 17.5361C13.9474 17.5361 13.7464 17.3789 13.698 17.1496C13.6426 16.8874 13.8115 16.6301 14.0737 16.5747C21.3861 15.0446 21.4358 5.07865 21.1844 1.32502C16.9611 1.78322 12.5573 5.0202 10.57 9.18506C10.4545 9.4278 10.1631 9.52871 9.92251 9.41415C9.68073 9.29864 9.57791 9.00939 9.69342 8.76759C11.8983 4.1453 16.9069 0.59069 21.6033 0.316142C21.8616 0.290964 22.0945 0.498726 22.1149 0.75992C22.8954 10.067 19.9634 16.3339 14.2721 17.526C14.238 17.5318 14.2059 17.5358 14.1731 17.5358L14.1727 17.5361Z" fill="#222222" />
    <path d="M12.7717 12.9982C12.6883 12.9982 12.6038 12.9778 12.5271 12.9321C12.2961 12.7952 12.2184 12.5 12.3543 12.2661C14.5874 8.45547 17.6662 4.8804 19.1914 3.40483C19.3855 3.22128 19.6925 3.2232 19.8777 3.41847C20.0632 3.60875 20.0594 3.91955 19.866 4.10479C18.3796 5.54071 15.3757 9.03091 13.1913 12.7599C13.1 12.9104 12.9379 12.9979 12.7719 12.9979L12.7717 12.9982Z" fill="#222222" />
</svg>