<svg version="1.2" xmlns="http://www.w3.org/2000/svg" viewBox="0 0 512 512" width="555" height="555">
	<title>New Project</title>
	<style>
		.s0 { fill: #000000 } 
	</style>
	<path id="Layer" fill-rule="evenodd" class="s0" d="m499.6 394.6c3.2 4 5.8 8.5 7.5 13.3 2.8 5.9 1.9 13-2.5 18-2.8 2.6-6.4 4.1-10.2 3.9-2.7 0-5.3-0.5-7.9-1.4-4.8-1.7-9.3-4.2-13.3-7.5-80.3 11.2-161.7 11.8-242.1 1.6-24.5 8.6-50.1 16.6-78.4 24.3-2.4 4.5-5.6 8.6-9.4 12-3.4 3.4-7.9 5.4-12.7 5.6-1.7 0-3.4-0.3-4.9-1-6-2.9-9.6-9.1-9.3-15.7-0.2-5.1 0.4-10.2 1.9-15.1-43.3-73.6-76.2-152.9-97.6-235.6-4.5-2.4-8.6-5.6-12-9.4-5.3-4.2-7.2-11.4-4.6-17.6 2.6-6.3 9-10 15.7-9.2 5.1-0.3 10.3 0.3 15.2 1.8 73.6-43.3 152.8-76.2 235.5-97.6 2.4-4.5 5.6-8.6 9.4-12 4.2-5.3 11.4-7.2 17.7-4.6 6.2 2.6 10 9 9.2 15.7 0.2 5.1-0.4 10.3-1.9 15.2 5 8.7 9.7 17.2 14.3 25.6 51.5-1.4 103 1.4 154 8.4 4-3.3 8.5-5.8 13.3-7.5 5.9-3.3 13.3-2.3 18.1 2.5 4.8 4.8 5.8 12.1 2.5 18-1.7 4.9-4.3 9.3-7.5 13.3 11.8 84.6 11.8 170.4 0 255zm-114.8-56.3c1.4-0.7 3-0.9 4.5-0.4 4.3 1.5 8.8 2.2 13.3 2 3.7-0.2 5.8-1.3 6.2-2.3 0.4-1-0.3-3.2-2.7-6-3.1-3.3-6.8-6-10.9-8-1.4-0.7-2.5-2-2.9-3.5-21.4-83.4-54.5-163.3-98.3-237.4-0.8-1.3-0.9-3-0.4-4.5 1.5-4.3 2.2-8.8 2-13.3-0.2-3.7-1.3-5.7-2.3-6.1-0.9-0.4-3.2 0.2-6 2.7-3.4 3-6 6.7-8 10.8-0.7 1.4-2 2.5-3.5 2.9-83.4 21.4-163.3 54.5-237.4 98.3-1.3 0.8-3 1-4.5 0.5-3.8-1.3-7.7-2.1-11.7-2.1q-0.8 0-1.6 0c-3.7 0.3-5.7 1.4-6.1 2.4-0.5 0.9 0.2 3.2 2.6 6 3.1 3.3 6.8 6 10.9 7.9 1.4 0.7 2.5 2 2.9 3.5 21.4 83.4 54.5 163.3 98.3 237.4 0.8 1.4 1 3 0.5 4.5-1.6 4.3-2.3 8.8-2.1 13.3 0.3 3.7 1.4 5.8 2.4 6.2 0.9 0.4 3.1-0.3 6-2.7 3.3-3.1 6-6.8 7.9-10.9 0.7-1.4 2-2.4 3.5-2.8 83.4-21.4 163.3-54.5 237.4-98.4zm103.4-199.7c-0.2-1.5 0.3-3.1 1.3-4.3 3-3.4 5.4-7.3 7-11.5 1.2-3.5 0.9-5.9 0.2-6.6-0.8-0.8-3.1-1-6.6 0.2-4.3 1.6-8.1 3.9-11.5 7-1.2 1-2.8 1.5-4.4 1.3-49.4-6.9-99.3-9.8-149.2-8.8 33.6 63 59.6 129.8 77.5 198.9 4.5 2.5 8.6 5.6 12 9.4 5.3 4.2 7.2 11.4 4.6 17.7-2.6 6.2-9 10-15.7 9.2-5.1 0.2-10.2-0.4-15.1-1.9-42.8 25-87.4 46.6-133.5 64.6 73 7.5 146.7 6 219.4-4.3 1.6-0.2 3.2 0.3 4.4 1.3 3.4 3.1 7.2 5.4 11.5 7 3.5 1.2 5.8 1 6.6 0.2 0.7-0.7 1-3.1-0.2-6.6-1.6-4.2-4-8.1-7-11.5-1-1.2-1.5-2.8-1.3-4.3 12.1-85.3 12.1-171.8 0-257z"/>
</svg>