<svg version="1.2" xmlns="http://www.w3.org/2000/svg" viewBox="0 0 512 512" width="555" height="555">
	<title>New Project</title>
	<style>
		.s0 { fill: #000000 } 
	</style>
	<path id="Layer" fill-rule="evenodd" class="s0" d="m302.2 0.8q0.6 0 1.2 0.3l46.4 19.5c1.4 0.6 2.1 2 1.8 3.4-13.8 60.4 1.8 97.2 24.1 117.1 0.6 0.5 1 1.3 1 2.2l1 179.4c0 1.7-1.3 3-3 3h-1.7c8.8 47.2 16.3 110.8 22.6 182.2 0.2 1.7-1.2 3.3-3 3.3h-273.2c-1.8 0-3.2-1.5-3-3.3 6.3-71.4 13.8-135 22.6-182.2h-1.7c-1.7 0-3-1.3-3-3l1-179.4c0-0.9 0.3-1.7 1-2.2 22.3-19.9 37.8-56.7 24.1-117.1-0.4-1.4 0.4-2.8 1.7-3.4l46.5-19.5q0.5-0.3 1.1-0.3zm-76.6 56.3c6.8 15.2 16.7 27 30.4 33.5 13.7-6.5 23.5-18.3 30.3-33.5 6.7-14.8 10.4-32.5 12.5-50.2h-85.6c2 17.7 5.8 35.4 12.4 50.2zm-59-31.8c12.8 59.2-2.2 97.7-25.3 119l-1 175.4h231.3l-1-175.4c-23-21.3-38-59.8-25.2-119l-40.8-17.2c-2.1 17.9-5.8 36-12.8 51.4-7.4 16.6-18.5 30.4-34.6 37.5-0.8 0.3-1.7 0.3-2.4 0-16.2-7.1-27.2-20.8-34.7-37.5-6.9-15.4-10.6-33.5-12.7-51.4zm-43.8 479.9h127.9l2.3-92.2v-0.1c0-4 6-4 6 0v0.1l2.3 92.2h128c-6.3-70.4-13.7-133.2-22.4-179.4h-221.8c-8.7 46.2-16.1 109-22.3 179.4z"/>
</svg>