<svg version="1.2" xmlns="http://www.w3.org/2000/svg" viewBox="0 0 512 512" width="555" height="555">
	<title>New Project</title>
	<style>
		.s0 {
			fill: #000000
		}
	</style>
	<g id="Layer">
		<path id="Layer" fill-rule="evenodd" class="s0"
			d="m256 444.2c-18.3 0-36.4-2.2-54-6.5-1.3-0.4-2.3-1.5-2.3-2.9l-5.3-156.5h-21.8l-4.9 143.2c-0.1 1-0.6 2-1.5 2.5-0.9 0.6-1.9 0.7-2.9 0.2-79.9-36.3-131.5-116.4-131.5-204.1 0-123.7 100.6-224.2 224.2-224.2 123.6 0 224.2 100.5 224.2 224.2 0 91.9-55.1 173.5-140.3 207.9-0.9 0.3-2 0.2-2.8-0.3-0.9-0.6-1.4-1.5-1.5-2.5l-4.5-116.5c0-1.3 0.8-2.5 2-3 21.8-8.1 37.1-35.6 37.1-66.8 0-38.2-22.5-69.2-50.2-69.2-27.6 0-50.1 31-50.1 69.2 0 31.2 15.2 58.7 37.1 66.8 1.2 0.5 2 1.7 2 3l-5 128c0 1.4-1.1 2.6-2.5 2.9-14.7 3.1-30 4.6-45.5 4.6zm-50.2-12c30 7.1 62.2 7.7 92.1 1.8l4.8-123.3c-23.1-9.9-39-39-39-71.8 0-41.6 25.3-75.4 56.3-75.4 31.1 0 56.4 33.8 56.4 75.4 0 32.7-16 61.8-39 71.8l4.2 109.8c80.6-34.3 132.4-112.5 132.4-200.4 0-120.2-97.8-218-218-218-120.2 0-218 97.8-218 218 0 83.7 48.4 160.4 123.7 196.5l4.8-141.5c0.1-1.6 1.5-2.9 3.1-2.9h27.8c1.7 0 3 1.3 3.1 2.9z" />
		<path id="Layer" fill-rule="evenodd" class="s0"
			d="m256 384.8c-19.4 0-38.4-3.3-56.4-9.9-1.2-0.4-2-1.6-2-2.8l-3.2-93.8h-21.8l-2.6 76.7c-0.1 1.1-0.7 2.1-1.7 2.6-1 0.5-2.2 0.5-3.1-0.1-46.3-30.7-74-82.1-74-137.4 0-90.9 73.9-164.8 164.8-164.8 90.8 0 164.8 73.9 164.8 164.8 0 58.8-31.9 113.6-83.1 143-0.9 0.5-2 0.5-3 0-0.9-0.5-1.5-1.5-1.6-2.6l-2-51.8c-0.1-1.3 0.8-2.5 2-3 21.8-8.1 37.1-35.6 37.1-66.8 0-38.2-22.5-69.2-50.2-69.2-27.6 0-50.1 31-50.1 69.2 0 31.3 15.2 58.7 37.1 66.8 1.2 0.5 2 1.7 2 3l-2.6 66.1c0 1.3-0.9 2.4-2.2 2.8-15.5 4.8-31.7 7.2-48.2 7.2zm-52.3-15c30.8 10.8 65.3 11.7 96.6 2.5l2.4-61.6c-23.1-9.9-39-39-39-71.8 0-41.6 25.3-75.4 56.3-75.4 31.1 0 56.4 33.8 56.4 75.4 0 32.7-16 61.9-39 71.8l1.7 44.4c46.7-28.9 75.5-80.1 75.5-135 0-87.5-71.2-158.7-158.6-158.7-87.5 0-158.6 71.2-158.6 158.7 0 51.4 24.8 99.2 66.6 129l2.5-74c0.1-1.6 1.5-2.9 3.1-2.9h27.8c1.6 0 3 1.3 3.1 2.9z" />
		<path id="Layer" fill-rule="evenodd" class="s0"
			d="m320 516.1c-6.7 0-12.9-2.7-17.5-7.5-4.7-4.9-7.1-11.3-6.8-18l7-179.9c-23.1-9.9-39-39-39-71.8 0-41.6 25.3-75.4 56.3-75.4 31.1 0 56.4 33.8 56.4 75.4 0 32.7-16 61.8-39 71.8l7 179.9c0.3 6.7-2.1 13.1-6.8 18-4.6 4.8-10.9 7.5-17.6 7.5zm0-346.4c-27.6 0-50.1 31-50.1 69.2 0 31.2 15.2 58.7 37.1 66.8 1.2 0.5 2 1.7 2 3l-7.1 182.1c-0.3 5.1 1.5 9.9 5 13.5 7 7.3 19.4 7.2 26.3 0 3.4-3.6 5.2-8.4 5-13.4l-7.1-182.2c-0.1-1.3 0.8-2.5 2-3 21.8-8.1 37.1-35.6 37.1-66.8 0-38.2-22.5-69.2-50.2-69.2z" />
		<path id="Layer" fill-rule="evenodd" class="s0"
			d="m183.5 516.1c-6.8 0-13-2.7-17.7-7.5-4.6-4.9-7-11.3-6.6-18l7.3-215.5c0.1-1.6 1.5-2.9 3.1-2.9h27.8c1.6 0 3 1.3 3.1 2.9l7.3 215.5c0.3 6.7-2.1 13.1-6.7 18-4.6 4.8-10.9 7.5-17.6 7.5zm-10.9-237.8l-7.3 212.5c-0.2 5.1 1.6 9.9 5 13.5 6.9 7.3 19.4 7.3 26.3 0 3.5-3.6 5.3-8.4 5-13.4q0-0.1 0-0.1l-7.2-212.5z" />
		<path id="Layer" class="s0"
			d="m169.6 278.3h-9.2c-13.7 0-24.8-11.1-24.8-24.7v-81.5c0-1.7 1.4-3.1 3.1-3.1 1.7 0 3.1 1.4 3.1 3.1v81.5c0 10.2 8.3 18.6 18.6 18.6h9.2c1.7 0 3.1 1.3 3.1 3.1 0 1.7-1.4 3-3.1 3z" />
		<path id="Layer" class="s0"
			d="m206.6 278.3h-9.2c-1.7 0-3.1-1.3-3.1-3 0-1.8 1.4-3.1 3.1-3.1h9.2c10.2 0 18.5-8.4 18.5-18.6v-81.5c0-1.7 1.4-3.1 3.1-3.1 1.7 0 3.1 1.4 3.1 3.1v81.5c0 13.6-11 24.7-24.7 24.7z" />
		<path id="Layer" class="s0"
			d="m183.5 278.3c-1.7 0-3.1-1.3-3.1-3v-103.2c0-1.7 1.4-3.1 3.1-3.1 1.7 0 3.1 1.4 3.1 3.1v103.2c0 1.7-1.4 3-3.1 3z" />
	</g>
</svg>