<svg width="299" height="230" viewBox="0 0 299 230" fill="none" xmlns="http://www.w3.org/2000/svg">
<path fill-rule="evenodd" clip-rule="evenodd" d="M149.13 142.657L150.677 142.657L154.137 142.669C180.584 142.843 241.02 145.514 241.02 186.478C241.02 227.173 182.69 229.827 154.549 230L144.123 230C117.676 229.826 57.227 227.158 57.227 186.245C57.227 145.499 117.676 142.842 144.123 142.669L147.584 142.657C148.12 142.657 148.636 142.657 149.13 142.657ZM149.13 163.204C116.583 163.204 77.7748 167.204 77.7748 186.245C77.7748 204.855 114.266 209.206 146.156 209.453L149.13 209.464C181.678 209.464 220.472 205.478 220.472 186.478C220.472 167.245 181.678 163.204 149.13 163.204ZM258.083 137.098C291.275 142.07 298.247 157.659 298.247 169.865C298.247 177.317 295.316 190.919 275.727 198.385C274.521 198.837 273.288 199.056 272.069 199.056C267.932 199.056 264.028 196.536 262.467 192.44C260.439 187.138 263.11 181.193 268.412 179.18C277.699 175.645 277.699 171.741 277.699 169.865C277.699 163.865 270.069 159.673 255.028 157.426C249.426 156.577 245.549 151.358 246.385 145.728C247.22 140.111 252.426 136.372 258.083 137.098ZM51.8626 145.728C52.6983 151.358 48.8216 156.577 43.2189 157.426C28.1779 159.673 20.5478 163.865 20.5478 169.865C20.5478 171.741 20.5478 175.632 29.8491 179.18C35.1504 181.193 37.8217 187.138 35.7943 192.44C34.2326 196.536 30.3286 199.056 26.1916 199.056C24.9724 199.056 23.7396 198.837 22.5341 198.385C2.93149 190.905 0 177.303 0 169.865C0 157.673 6.97255 142.07 40.1778 137.098C45.8353 136.385 51.0133 140.111 51.8626 145.728ZM149.13 0C183.651 0 211.719 28.082 211.719 62.5886C211.719 97.0952 183.651 125.177 149.13 125.177H148.761C132.048 125.122 116.391 118.574 104.665 106.739C92.9117 94.9171 86.4871 79.2186 86.555 62.5475C86.555 28.082 114.624 0 149.13 0ZM149.13 20.5478C125.953 20.5478 107.103 39.4107 107.103 62.5886C107.062 73.8214 111.364 84.3282 119.24 92.2596C127.117 100.191 137.61 104.588 148.788 104.629L149.13 114.903V104.629C172.308 104.629 191.171 85.7802 191.171 62.5886C191.171 39.4107 172.308 20.5478 149.13 20.5478ZM233.911 13.4177C257.993 17.3766 275.486 37.9792 275.486 62.4037C275.431 86.9925 257.061 108.088 232.746 111.499C232.267 111.568 231.787 111.595 231.322 111.595C226.281 111.595 221.883 107.883 221.157 102.746C220.377 97.1158 224.281 91.924 229.911 91.1432C244.157 89.1432 254.911 76.7871 254.938 62.3763C254.938 48.0887 244.691 36.0066 230.568 33.6915C224.979 32.7737 221.185 27.4861 222.103 21.8834C223.034 16.2807 228.281 12.5273 233.911 13.4177ZM76.1584 21.8834C77.0762 27.4861 73.2817 32.7737 67.6927 33.6915C53.5695 36.0066 43.323 48.0887 43.323 62.4037C43.3504 76.7871 54.1037 89.1569 68.3365 91.1432C73.9666 91.924 77.8707 97.1158 77.0899 102.746C76.3638 107.883 71.9666 111.595 66.9256 111.595C66.4598 111.595 65.9804 111.568 65.5009 111.499C41.186 108.088 22.83 86.9925 22.7752 62.4311C22.7752 37.9792 40.2682 17.3766 64.3502 13.4177C70.1173 12.5136 75.2269 16.3081 76.1584 21.8834Z" fill="#0DA487"/>
</svg>
