<svg width="35" height="34" viewBox="0 0 35 34" fill="none" xmlns="http://www.w3.org/2000/svg">
<path d="M29.096 6.07295C29.1129 6.45535 29.1357 6.83676 29.1466 7.21916C29.1565 7.54721 29.3122 7.75274 29.6306 7.83278C30.1941 7.97408 30.7605 8.1055 31.3219 8.25569C31.6076 8.33177 31.8943 8.41873 32.1651 8.53631C33.1838 8.97602 33.5895 9.80209 33.2582 10.8525C33.0886 11.39 32.8406 11.9058 32.5966 12.4166C31.9945 13.6725 31.9994 13.6992 33.1045 14.5747C33.5211 14.9047 33.9427 15.2367 34.3067 15.6201C35.1548 16.5134 35.1618 17.4955 34.3008 18.3799C33.8206 18.874 33.2562 19.287 32.7265 19.7326C32.0837 20.2721 32.057 20.371 32.4022 21.1476C32.668 21.7444 32.9765 22.3254 33.1957 22.9391C33.6461 24.1999 33.2175 25.0991 31.9518 25.5408C31.3239 25.7601 30.6613 25.8807 30.0155 26.0457C29.218 26.2492 29.1615 26.3075 29.1257 27.1158C29.097 27.7571 29.1208 28.4014 29.0742 29.0407C28.9809 30.3203 28.1834 31.0594 27.0109 30.9704C26.6538 30.9438 26.2987 30.8776 25.9465 30.8114C25.4843 30.7244 25.024 30.6256 24.5667 30.5179C24.1551 30.4211 23.8684 30.5574 23.6839 30.9339C23.4567 31.3993 23.2385 31.8706 22.9856 32.3222C22.7822 32.6868 22.569 33.0564 22.2981 33.3716C21.7526 34.0049 21.0096 34.168 20.2478 33.8192C19.8589 33.6413 19.5018 33.3844 19.1497 33.1364C18.7956 32.8884 18.4712 32.5979 18.122 32.3419C17.5507 31.923 17.3999 31.922 16.8375 32.334C16.4883 32.59 16.1629 32.8795 15.8108 33.1295C15.4686 33.3726 15.1244 33.6245 14.7474 33.8014C13.9469 34.1779 13.1623 34.0109 12.6098 33.3231C12.2963 32.9328 12.0652 32.4744 11.8182 32.0346C11.6129 31.669 11.4343 31.2886 11.2508 30.9121C11.0722 30.5456 10.7875 30.427 10.3947 30.5139C9.80254 30.6454 9.21134 30.7827 8.61418 30.8855C8.27593 30.9438 7.9218 30.9793 7.58156 30.9507C6.69278 30.8756 6.10256 30.3677 5.95675 29.4883C5.85656 28.8845 5.84763 28.261 5.84466 27.6454C5.83672 26.2532 5.84664 26.2581 4.47676 25.936C3.95995 25.8145 3.43719 25.6969 2.93923 25.518C1.76179 25.0951 1.31739 24.2019 1.72509 23.0201C1.94927 22.3699 2.2776 21.7563 2.55733 21.1249C2.88864 20.3769 2.86087 20.2672 2.23296 19.7395C1.71219 19.3028 1.15769 18.8977 0.682545 18.4155C-0.22509 17.4946 -0.224098 16.4975 0.686513 15.5766C1.17059 15.0865 1.736 14.6755 2.2657 14.2288C2.84996 13.7368 2.88368 13.6014 2.57221 12.8988C2.3024 12.2902 1.98498 11.6993 1.7598 11.0748C1.29954 9.79319 1.72707 8.895 3.01363 8.44936C3.64253 8.23198 4.30416 8.11142 4.95091 7.94641C5.72562 7.7478 5.78712 7.68456 5.82184 6.89901C5.85061 6.25772 5.82879 5.61347 5.87342 4.97416C5.97064 3.59081 6.79495 2.90999 8.17773 3.05031C8.46043 3.07896 8.74115 3.13232 9.01989 3.18765C9.48115 3.27856 9.94141 3.3754 10.3997 3.48014C10.7955 3.57104 11.0752 3.4416 11.2538 3.07896C11.4333 2.71336 11.6129 2.34776 11.8043 1.98907C12.0076 1.60865 12.1961 1.21538 12.4451 0.865587C13.0958 -0.0464414 14.0124 -0.249993 14.9835 0.313232C15.4299 0.572118 15.8445 0.894243 16.2492 1.21736C17.4614 2.1867 17.4872 2.18768 18.6904 1.22625C19.0951 0.903136 19.5078 0.579035 19.9542 0.318173C20.9342 -0.254933 21.8666 -0.0464415 22.5184 0.884362C22.7792 1.25589 22.9757 1.67386 23.1909 2.07603C23.3774 2.42384 23.55 2.77858 23.7285 3.13133C23.8912 3.45247 24.1531 3.56116 24.4993 3.48903C25.1054 3.36156 25.7085 3.2252 26.3175 3.11256C26.6082 3.05821 26.9087 3.0177 27.2033 3.02659C28.3094 3.06118 28.969 3.73507 29.0752 4.92575C29.1089 5.30617 29.1119 5.68956 29.1287 6.07196C29.1168 6.07196 29.1069 6.07295 29.096 6.07295ZM7.44765 27.8352C7.44765 28.2146 7.43971 28.5851 7.44963 28.9547C7.45856 29.2847 7.61628 29.4567 7.9714 29.3845C8.50507 29.2758 9.03973 29.177 9.57241 29.0654C11.3936 28.684 12.1316 29.0426 12.9341 30.7066C13.1107 31.0732 13.2833 31.4428 13.4728 31.8024C13.8517 32.5218 13.9509 32.5445 14.5917 32.0653C14.9389 31.8064 15.2741 31.5327 15.6144 31.2639C17.0011 30.1681 17.9246 30.1641 19.3114 31.2491C19.7211 31.5692 20.1228 31.8993 20.5464 32.1997C20.9858 32.5109 21.081 32.4912 21.3449 32.0129C21.6603 31.4408 21.9242 30.84 22.2406 30.2679C22.8874 29.095 23.6264 28.7472 24.9467 28.9873C25.5557 29.098 26.1549 29.2561 26.7639 29.3628C27.3769 29.4705 27.489 29.3746 27.5089 28.7561C27.5277 28.1761 27.5069 27.595 27.5287 27.015C27.5833 25.5833 28.103 24.9291 29.4848 24.5546C30.0225 24.4094 30.57 24.3046 31.1087 24.1643C31.8536 23.9697 31.9032 23.8669 31.5967 23.1723C31.3378 22.5853 31.0462 22.0132 30.7972 21.4223C30.3756 20.4204 30.5651 19.5399 31.3844 18.8078C31.5322 18.6753 31.679 18.5429 31.8318 18.4174C32.2048 18.1111 32.5896 17.8187 32.9537 17.5025C33.4506 17.0697 33.4497 16.9224 32.9438 16.4857C32.541 16.1379 32.1165 15.8157 31.7058 15.4788C30.5095 14.4986 30.3062 13.6666 30.9291 12.2536C31.1632 11.723 31.432 11.2082 31.6592 10.6746C31.8814 10.1529 31.8258 10.0382 31.2733 9.88509C30.6176 9.70328 29.951 9.56296 29.2954 9.3851C28.2489 9.10151 27.6368 8.43849 27.5664 7.33576C27.5376 6.89308 27.5356 6.44843 27.5228 6.00477C27.5128 5.68363 27.5108 5.36249 27.496 5.04234C27.4811 4.7133 27.3303 4.53939 26.9742 4.61153C26.4405 4.72022 25.9049 4.81607 25.3732 4.93069C23.5698 5.32099 22.8179 4.9544 22.0115 3.28943C21.8022 2.85664 21.5949 2.42088 21.3608 2.00093C21.083 1.50391 20.9719 1.48118 20.5047 1.82011C20.0841 2.12444 19.6854 2.45941 19.2737 2.7766C17.9197 3.82005 17.0081 3.81708 15.665 2.76869C15.6164 2.73016 15.5697 2.68965 15.5211 2.6521C15.1482 2.36554 14.7841 2.06713 14.3992 1.79738C13.9578 1.48711 13.8636 1.5049 13.6007 1.98216C13.2853 2.55526 13.0214 3.15505 12.706 3.72716C12.0602 4.90006 11.3262 5.2459 9.99994 5.00776C9.39088 4.89907 8.79174 4.73998 8.18269 4.63327C7.56768 4.52556 7.45757 4.62042 7.43773 5.23997C7.41988 5.81999 7.44071 6.401 7.41789 6.98102C7.36135 8.41873 6.84752 9.06298 5.46176 9.44143C4.96083 9.57779 4.44997 9.68055 3.94606 9.80703C3.06224 10.0294 3.03049 10.1015 3.39454 10.9256C3.6832 11.5787 3.99665 12.224 4.24365 12.8929C4.53727 13.6874 4.32499 14.3998 3.74371 15.0025C3.54631 15.2071 3.33205 15.3958 3.11481 15.5786C2.75473 15.881 2.3768 16.1626 2.02267 16.4709C1.48801 16.9363 1.48801 17.0657 2.03358 17.5351C2.51071 17.9471 3.02454 18.3186 3.49076 18.7425C4.42418 19.5933 4.58885 20.3304 4.11668 21.5033C3.90043 22.0399 3.62963 22.5557 3.39156 23.0843C3.03049 23.8867 3.07116 23.9667 3.92424 24.1861C4.5948 24.358 5.27528 24.4993 5.93294 24.7117C6.79495 24.9894 7.27108 25.6159 7.36334 26.5141C7.40599 26.9557 7.41988 27.3994 7.44765 27.8352Z" fill="#4A5568"/>
<path d="M11.9174 23.434C11.6555 23.2354 11.3947 23.1089 11.2399 22.9034C11.0495 22.6504 11.0901 22.3382 11.2826 22.0734C11.3619 21.9647 11.4611 21.8688 11.5573 21.773C15.1254 18.2177 18.6934 14.6635 22.2625 11.1092C22.3676 11.0045 22.4728 10.8968 22.5938 10.8128C22.8983 10.6033 23.3249 10.6498 23.5838 10.9067C23.8436 11.1636 23.8922 11.5865 23.6839 11.8928C23.6016 12.0144 23.4925 12.1191 23.3883 12.2238C19.8124 15.788 16.2364 19.3521 12.6534 22.9103C12.463 23.1 12.21 23.2285 11.9174 23.434Z" fill="#4A5568"/>
<path d="M16.2821 13.056C16.2771 14.5816 15.0124 15.8247 13.4768 15.8118C11.9651 15.8 10.7162 14.5401 10.7242 13.0352C10.7321 11.5274 11.981 10.2833 13.4957 10.2754C15.0203 10.2675 16.287 11.5303 16.2821 13.056ZM12.3242 13.0412C12.3222 13.6894 12.844 14.2239 13.4907 14.2358C14.1385 14.2467 14.7078 13.6795 14.6989 13.0342C14.69 12.39 14.1533 11.8683 13.5026 11.8693C12.84 11.8702 12.3262 12.3821 12.3242 13.0412Z" fill="#4A5568"/>
<path d="M18.6646 20.956C18.6626 19.4422 19.9025 18.1952 21.4172 18.1863C22.9528 18.1774 24.2165 19.4215 24.2215 20.9471C24.2264 22.4639 22.9488 23.7326 21.4271 23.7227C19.9114 23.7119 18.6665 22.4659 18.6646 20.956ZM22.6224 20.954C22.6234 20.3058 22.0997 19.7713 21.4539 19.7624C20.8092 19.7525 20.2378 20.3236 20.2487 20.9669C20.2596 21.6101 20.7972 22.1319 21.447 22.1289C22.1036 22.1259 22.6205 21.6101 22.6224 20.954Z" fill="#4A5568"/>
</svg>
