<svg width="27" height="13" viewBox="0 0 27 13" fill="none" xmlns="http://www.w3.org/2000/svg">
<path d="M2 0H1C0.447715 0 0 0.447715 0 1V12C0 12.5523 0.447715 13 1 13H2C2.55228 13 3 12.5523 3 12V1C3 0.447715 2.55228 0 2 0Z" fill="#232323"/>
<path d="M8 0H7C6.44772 0 6 0.447715 6 1V12C6 12.5523 6.44772 13 7 13H8C8.55228 13 9 12.5523 9 12V1C9 0.447715 8.55228 0 8 0Z" fill="#232323"/>
<path d="M14 0H13C12.4477 0 12 0.447715 12 1V12C12 12.5523 12.4477 13 13 13H14C14.5523 13 15 12.5523 15 12V1C15 0.447715 14.5523 0 14 0Z" fill="#232323"/>
<path d="M20 0H19C18.4477 0 18 0.447715 18 1V12C18 12.5523 18.4477 13 19 13H20C20.5523 13 21 12.5523 21 12V1C21 0.447715 20.5523 0 20 0Z" fill="#232323"/>
<path d="M26 0H25C24.4477 0 24 0.447715 24 1V12C24 12.5523 24.4477 13 25 13H26C26.5523 13 27 12.5523 27 12V1C27 0.447715 26.5523 0 26 0Z" fill="#232323"/>
</svg>
