<svg width="109" height="33" viewBox="0 0 109 33" fill="none" xmlns="http://www.w3.org/2000/svg">
<path d="M104.611 32.9174H4.02351C1.8106 32.9174 0 31.1038 0 28.8872V4.706C0 2.48937 1.81057 0.675781 4.02351 0.675781H104.611C106.824 0.675781 108.635 2.48937 108.635 4.706V28.8872C108.635 31.1038 106.824 32.9174 104.611 32.9174" fill="black"/>
<path d="M104.611 0.675781H4.02351C1.8106 0.675781 0 2.48937 0 4.706V28.8872C0 31.1038 1.81057 32.9174 4.02351 32.9174H104.611C106.824 32.9174 108.635 31.1038 108.635 28.8872V4.706C108.635 2.48937 106.824 0.675781 104.611 0.675781H104.611ZM104.611 1.32059C106.475 1.32059 107.991 2.83953 107.991 4.706V28.8872C107.991 30.754 106.475 32.2729 104.611 32.2729H4.02351C2.16016 32.2729 0.643767 30.754 0.643767 28.8872V4.706C0.643767 2.83953 2.16013 1.32063 4.02351 1.32063H104.611" fill="#A6A6A6"/>
<path d="M38.1576 8.93214C38.1576 9.60746 37.9579 10.1452 37.5581 10.5464C37.1039 11.0234 36.5119 11.2621 35.7842 11.2621C35.0874 11.2621 34.4948 11.0203 34.0076 10.536C33.5195 10.0521 33.2759 9.45194 33.2759 8.73594C33.2759 8.01962 33.5195 7.41987 34.0076 6.93554C34.4948 6.45164 35.0874 6.20947 35.7842 6.20947C36.13 6.20947 36.4611 6.27721 36.7754 6.4123C37.0897 6.54771 37.3418 6.72746 37.5304 6.95256L37.106 7.37792C36.7864 6.99538 36.3463 6.80426 35.7842 6.80426C35.276 6.80426 34.8365 6.98314 34.4656 7.34112C34.0947 7.69946 33.9092 8.16416 33.9092 8.73594C33.9092 9.30776 34.0947 9.77243 34.4656 10.1308C34.8365 10.4888 35.276 10.6676 35.7842 10.6676C36.3234 10.6676 36.7729 10.4878 37.1328 10.1277C37.3664 9.89302 37.5014 9.56688 37.5376 9.14808H35.7842V8.56717H38.1239C38.1465 8.69349 38.1575 8.8147 38.1575 8.93214" fill="white"/>
<path d="M38.1574 8.93218H38.0769C38.0763 9.5921 37.8839 10.1047 37.501 10.4894L37.5001 10.4901L37.4998 10.4907C37.06 10.9513 36.4947 11.1805 35.784 11.1815C35.1058 11.1805 34.5381 10.9488 34.064 10.479C33.591 10.0083 33.3571 9.43368 33.3562 8.73598C33.3571 8.03795 33.591 7.46363 34.064 6.99325C34.5381 6.52315 35.1058 6.29109 35.784 6.29011C36.1195 6.29011 36.4389 6.35568 36.7434 6.48631C37.0483 6.61795 37.2892 6.79046 37.4686 7.00462L37.5302 6.9526L37.4734 6.89562L37.049 7.32127L37.1058 7.37796L37.1678 7.32638C36.8333 6.92489 36.3638 6.7225 35.7841 6.72369C35.257 6.72304 34.7933 6.9117 34.4098 7.28327C34.0226 7.65603 33.828 8.14688 33.8286 8.73598C33.828 9.32512 34.0226 9.81593 34.4098 10.1887C34.7933 10.5603 35.257 10.7489 35.784 10.7483C36.3411 10.7492 36.8158 10.56 37.1895 10.1847C37.4391 9.93399 37.5806 9.58677 37.6176 9.15504L37.6251 9.06752H35.8645V8.64781H38.1237V8.56721L38.0445 8.58137C38.0665 8.7036 38.0769 8.81973 38.0769 8.93218H38.2378C38.2378 8.80966 38.2265 8.68374 38.2029 8.55279L38.191 8.4866H35.7036V9.22872H37.5374V9.14812L37.4573 9.1412C37.4218 9.54678 37.2929 9.8522 37.0757 10.0707C36.73 10.4158 36.3056 10.5861 35.7841 10.5871C35.2947 10.5864 34.8795 10.4176 34.5214 10.0729C34.1669 9.72935 33.9905 9.29077 33.9896 8.73598C33.9905 8.18119 34.1669 7.74261 34.5214 7.39908C34.8795 7.05432 35.2947 6.88555 35.7841 6.8849C36.3282 6.8862 36.7391 7.06628 37.0443 7.42994L37.1009 7.49732L37.5872 7.00962L37.6393 6.95738L37.5919 6.90094C37.3941 6.66486 37.1307 6.47747 36.807 6.33836C36.4826 6.19882 36.1403 6.12891 35.7841 6.12891C35.0687 6.12829 34.4513 6.38017 33.9506 6.87863C33.448 7.37611 33.1946 8.00144 33.1953 8.73598C33.1946 9.4702 33.448 10.0959 33.9509 10.5937C34.4513 11.0918 35.0687 11.3434 35.7841 11.3427C36.5291 11.3434 37.1471 11.0955 37.6161 10.6021L37.5579 10.5464L37.6148 10.6034C38.0316 10.1862 38.2384 9.62264 38.2379 8.93218H38.1574H38.1574ZM41.8665 6.91199H39.6677V8.44542H41.6506V9.02655H39.6677V10.56H41.8665V11.1541H39.0479V6.31786H41.8665V6.91199Z" fill="white"/>
<path d="M41.8669 6.91253V6.83193H39.5876V8.52655H41.5705V8.94626L39.5876 8.94648V10.6411H41.7864V11.074H39.1287V6.399H41.7864V6.91253H41.8669V6.83193V6.91253H41.9473V6.23779H38.9678V11.2352H41.9473V10.4799H39.7485V9.10768H41.7314V8.36535H39.7485V6.99313H41.9473V6.91253H41.8669ZM44.4831 11.1547H43.8623V6.91249H42.5138V6.31836H45.8316V6.91249H44.4831V11.1546" fill="white"/>
<path d="M44.4829 11.1547V11.074H43.9425V6.83193H42.594V6.39903H45.7509V6.83193H44.4024V11.1546H44.4829V11.074V11.1546H44.5634V6.99313H45.9119V6.23779H42.4331V6.99309H43.7816V11.2352H44.5634V11.1546H44.4829V11.1547ZM48.232 11.1547V6.31836H48.8522V11.1546H48.232" fill="white"/>
<path d="M48.2318 11.1547H48.3123V6.399H48.7715V11.074H48.2318V11.1546H48.3123H48.2318V11.2352H48.9325V6.23779H48.1514V11.2352H48.2318V11.1546V11.1547ZM51.604 11.1547H50.9832V6.91249H49.6347V6.31836H52.9525V6.91249H51.604V11.1546" fill="white"/>
<path d="M51.6044 11.1541V11.0735H51.0641V6.83135H49.7156V6.39846H52.8725V6.83135H51.524V11.1541H51.6044V11.0735V11.1541H51.6849V6.99256H53.0334V6.23722H49.5547V6.99252H50.9031V11.2346H51.6849V11.154H51.6044V11.1541ZM56.1516 10.1242C56.509 10.4866 56.9463 10.6676 57.4634 10.6676C57.9805 10.6676 58.418 10.4866 58.7748 10.1242C59.1325 9.76181 59.3117 9.29856 59.3117 8.73594C59.3117 8.17336 59.1325 7.71011 58.7748 7.34771C58.418 6.98531 57.9805 6.80426 57.4634 6.80426C56.9463 6.80426 56.509 6.98531 56.1516 7.34771C55.7948 7.71011 55.6157 8.17333 55.6157 8.73594C55.6157 9.29856 55.7948 9.76181 56.1516 10.1242ZM59.2337 10.5291C58.759 11.018 58.1687 11.2621 57.4634 11.2621C56.7573 11.2621 56.1673 11.018 55.6937 10.5291C55.2187 10.0407 54.9823 9.44285 54.9823 8.73594C54.9823 8.02904 55.2187 7.4311 55.6937 6.94282C56.1673 6.45378 56.7573 6.20947 57.4634 6.20947C58.165 6.20947 58.7537 6.45508 59.2306 6.94597C59.7068 7.43683 59.9451 8.03346 59.9451 8.73594C59.9451 9.44285 59.7074 10.0407 59.2337 10.5291Z" fill="white"/>
<path d="M56.1512 10.1243L56.0939 10.1809C56.4646 10.5578 56.927 10.7492 57.4629 10.7483C57.9985 10.7492 58.4615 10.5578 58.8315 10.1809C59.2046 9.80366 59.3922 9.31563 59.3916 8.73598C59.3922 8.15638 59.2046 7.66831 58.8315 7.29106C58.4615 6.91417 57.9985 6.72275 57.4629 6.72369C56.927 6.72275 56.4646 6.91417 56.0939 7.29106C55.7218 7.66831 55.5338 8.15638 55.5347 8.73598C55.5338 9.31559 55.7218 9.80366 56.0939 10.1809L56.1512 10.1243L56.2084 10.0676C55.867 9.71961 55.6963 9.28194 55.6957 8.73598C55.6963 8.19007 55.867 7.75239 56.2084 7.40441C56.5528 7.05653 56.9643 6.88588 57.4629 6.88493C57.9611 6.88588 58.3735 7.05653 58.7171 7.40441C59.0591 7.75239 59.2298 8.19007 59.2304 8.73598C59.2298 9.2819 59.0591 9.71961 58.7171 10.0676C58.3735 10.4155 57.9611 10.5861 57.4629 10.587C56.9643 10.5861 56.5528 10.4155 56.2084 10.0676L56.1512 10.1243ZM59.2332 10.5291L59.1757 10.4731C58.7143 10.9466 58.15 11.1806 57.4629 11.1815C56.7754 11.1806 56.2112 10.9466 55.7506 10.4731L55.7485 10.4706L55.7506 10.4731C55.2902 9.99793 55.063 9.42492 55.0623 8.73598C55.063 8.04705 55.2902 7.47403 55.7506 6.9989C56.2112 6.52532 56.7754 6.29109 57.4629 6.29015C58.1456 6.29109 58.7085 6.5263 59.1725 7.00234C59.6346 7.47968 59.8631 8.05179 59.8641 8.73598C59.8631 9.42492 59.6352 9.99793 59.1757 10.4731L59.2332 10.5291L59.2911 10.5851C59.7789 10.0833 60.0256 9.46078 60.025 8.73598C60.0256 8.01531 59.7779 7.39408 59.2879 6.89001C58.7975 6.38394 58.1833 6.12804 57.4629 6.12891C56.7387 6.12804 56.1226 6.38274 55.6353 6.88685V6.88649C55.1466 7.38869 54.9007 8.01118 54.9014 8.73598C54.9007 9.46078 55.1466 10.0833 55.6353 10.5854L55.6375 10.5877L55.6353 10.5851C56.1226 11.0892 56.7387 11.3434 57.4629 11.3427C58.1868 11.3434 58.8029 11.0892 59.2911 10.5851L59.2332 10.5291ZM60.8152 11.1541V6.31782H61.5703L63.9168 10.0801H63.9435L63.9168 9.14808V6.31782H64.5376V11.1541H63.8901L61.4351 7.20948H61.4084L61.4351 8.14181V11.1541H60.8153" fill="white"/>
<path d="M60.8156 11.1547H60.8961V6.399H61.526L63.8725 10.1613H64.0265L63.9976 9.14745V6.39903H64.4575V11.074H63.9351L61.4801 7.12945H61.3261L61.355 8.14368V11.074H60.8156V11.1546H60.8961H60.8156V11.2352H61.5159V8.14111L61.4892 7.20787L61.4088 7.21005V7.29065H61.4355V7.21005L61.3672 7.2529L63.8458 11.2352H64.6185V6.23779H63.8367V9.14959L63.8634 10.0828L63.9439 10.0807V10.0001H63.9172V10.0807L63.9854 10.0379L61.6152 6.23779H60.7352V11.2352H60.8157V11.1546L60.8156 11.1547ZM86.0515 24.8573H87.5531V14.7809H86.0515L86.0515 24.8573ZM99.5761 18.4107L97.8549 22.7793H97.8034L96.0169 18.4106H94.3995L97.0783 24.5166L95.551 27.9131H97.1178L101.246 18.4106L99.5761 18.4107ZM91.0608 23.7129C90.5683 23.7129 89.8827 23.4666 89.8827 22.8571C89.8827 22.0793 90.7373 21.7812 91.4744 21.7812C92.1351 21.7812 92.4449 21.9238 92.8464 22.1184C92.7298 23.0516 91.9274 23.7129 91.0608 23.7129ZM91.2419 18.1902C90.1547 18.1902 89.0289 18.67 88.563 19.733L89.8956 20.2903C90.1804 19.733 90.7107 19.5513 91.2676 19.5513C92.0441 19.5513 92.8336 20.0183 92.8464 20.8479V20.9515C92.5744 20.796 91.9926 20.5627 91.2805 20.5627C89.8441 20.5627 88.3811 21.3532 88.3811 22.8312C88.3811 24.1795 89.5592 25.0481 90.8789 25.0481C91.8888 25.0481 92.4449 24.5944 92.7949 24.063H92.8464V24.8407H94.2957V20.9773C94.2957 19.1886 92.9631 18.1902 91.2419 18.1902ZM81.962 19.6372H79.8264V16.1833H81.962C83.0846 16.1833 83.7219 17.1143 83.7219 17.9102C83.7219 18.6911 83.0846 19.6372 81.962 19.6372ZM81.9234 14.7809H78.3256V24.8573H79.8263V21.0397H81.9234C83.5875 21.0397 85.2235 19.8328 85.2235 17.9102C85.2235 15.9878 83.5875 14.7809 81.9234 14.7809ZM62.304 23.7147C61.2666 23.7147 60.3981 22.8448 60.3981 21.6499C60.3981 20.4424 61.2666 19.5592 62.304 19.5592C63.3281 19.5592 64.1319 20.4424 64.1319 21.6499C64.1319 22.8448 63.3281 23.7147 62.304 23.7147H62.304ZM64.0281 18.9749H63.9763C63.6393 18.5724 62.9908 18.2088 62.1742 18.2088C60.4629 18.2088 58.8944 19.7151 58.8944 21.6499C58.8944 23.5718 60.4629 25.0652 62.1742 25.0652C62.9908 25.0652 63.6393 24.7015 63.9763 24.2862H64.0281V24.7796C64.0281 26.0913 63.3281 26.7925 62.2003 26.7925C61.2798 26.7925 60.7094 26.13 60.4758 25.5717L59.1667 26.1171C59.5426 27.0261 60.5409 28.1429 62.2003 28.1429C63.9634 28.1429 65.4543 27.1039 65.4543 24.5718V18.4166H64.0281V18.9749ZM66.4913 24.8573H67.9951V14.7805H66.4913V24.8573ZM70.212 21.5331C70.1731 20.2084 71.2362 19.5334 72.001 19.5334C72.5977 19.5334 73.1031 19.8319 73.2713 20.2608L70.212 21.5331ZM74.8791 20.3904C74.5942 19.624 73.7251 18.2088 71.9491 18.2088C70.186 18.2088 68.7212 19.5982 68.7212 21.637C68.7212 23.5589 70.1731 25.0652 72.1176 25.0652C73.6865 25.0652 74.5942 24.1042 74.97 23.5459L73.8032 22.7666C73.4145 23.3381 72.8826 23.7147 72.1176 23.7147C71.3528 23.7147 70.8084 23.364 70.4582 22.6759L75.0344 20.7799L74.8791 20.3904ZM38.4195 19.2607V20.715H41.8938C41.7901 21.5331 41.5178 22.1304 41.1029 22.5459C40.5975 23.0525 39.8066 23.6108 38.4195 23.6108C36.2803 23.6108 34.6081 21.8838 34.6081 19.7411C34.6081 17.5986 36.2803 15.8713 38.4195 15.8713C39.5734 15.8713 40.4158 16.3259 41.0381 16.9102L42.0623 15.8845C41.1938 15.0532 40.0399 14.4169 38.4195 14.4169C35.4895 14.4169 33.0264 16.8064 33.0264 19.7411C33.0264 22.6759 35.4895 25.0652 38.4195 25.0652C40.0012 25.0652 41.1938 24.546 42.1271 23.5718C43.0864 22.6108 43.3847 21.2604 43.3847 20.1697C43.3847 19.8319 43.3589 19.5205 43.3068 19.2607H38.4195ZM47.3347 23.7147C46.2974 23.7147 45.4028 22.8576 45.4028 21.637C45.4028 20.4033 46.2974 19.5592 47.3347 19.5592C48.3716 19.5592 49.2662 20.4033 49.2662 21.637C49.2662 22.8577 48.3716 23.7147 47.3347 23.7147ZM47.3347 18.2088C45.4417 18.2088 43.8989 19.6501 43.8989 21.637C43.8989 23.6108 45.4417 25.0652 47.3347 25.0652C49.2273 25.0652 50.77 23.6108 50.77 21.637C50.77 19.6501 49.2273 18.2088 47.3347 18.2088ZM54.829 23.7147C53.7921 23.7147 52.8974 22.8576 52.8974 21.637C52.8974 20.4033 53.7921 19.5592 54.829 19.5592C55.8661 19.5592 56.7606 20.4033 56.7606 21.637C56.7606 22.8577 55.8661 23.7147 54.829 23.7147H54.829ZM54.829 18.2088C52.9361 18.2088 51.3937 19.6501 51.3937 21.637C51.3937 23.6108 52.9361 25.0652 54.829 25.0652C56.7217 25.0652 58.2645 23.6108 58.2645 21.637C58.2645 19.6501 56.7217 18.2088 54.829 18.2088H54.829Z" fill="white"/>
<path d="M8.45615 6.81097C8.1861 7.05502 8.0249 7.46209 8.0249 8.00243V7.88027V25.7108V25.5934C8.0249 26.0924 8.16317 26.4777 8.39732 26.7259L8.45709 26.7832V26.7835C8.64661 26.9548 8.88963 27.0457 9.16816 27.0454C9.44031 27.0454 9.74651 26.9585 10.0697 26.775L21.7501 20.1274L25.7622 17.8437C26.2718 17.5537 26.5578 17.1797 26.6056 16.7986V16.7971C26.5578 16.4152 26.2718 16.0414 25.7622 15.7514L21.7497 13.468L10.0697 6.82039C9.74585 6.63655 9.43944 6.54932 9.16656 6.54932C8.88837 6.54932 8.64567 6.63999 8.45622 6.81097H8.45615Z" fill="#00C1FF"/>
<path d="M8.45712 26.7827L8.39732 26.7254C8.16317 26.4773 8.0249 26.0919 8.0249 25.5929V25.7103V7.8842V8.00194C8.0249 7.4616 8.1861 7.05453 8.45615 6.81048L18.4262 16.7969L8.45712 26.7827Z" fill="url(#paint0_linear_230_4513)"/>
<path d="M21.7501 20.127L18.4263 16.797L21.7498 13.4677L25.7623 15.751C26.2718 16.041 26.5578 16.4148 26.6057 16.7967V16.7982C26.5578 17.1793 26.2718 17.5534 25.7623 17.8433L21.7501 20.1269" fill="url(#paint1_linear_230_4513)"/>
<path d="M9.16852 27.0454C8.89003 27.0457 8.64701 26.9547 8.45752 26.7834V26.7831L18.4266 16.7973L21.7505 20.1273L10.07 26.775C9.74687 26.9585 9.44067 27.0454 9.16852 27.0454Z" fill="url(#paint2_linear_230_4513)"/>
<path d="M18.4262 16.7974L8.45605 6.81092C8.64558 6.63994 8.88828 6.54926 9.16644 6.54926C9.43931 6.54926 9.74576 6.63646 10.0696 6.82034L21.7497 13.468L18.4261 16.7974" fill="url(#paint3_linear_230_4513)"/>
<path d="M9.16855 27.1626C8.89007 27.1626 8.64672 27.0716 8.45719 26.9003L8.45687 26.9006C8.45609 26.8998 8.45525 26.8991 8.45437 26.8984L8.40253 26.8477C8.4009 26.8461 8.39938 26.8443 8.39746 26.8424L8.45723 26.7826C8.64675 26.9538 8.88974 27.0448 9.1683 27.0445C9.44041 27.0445 9.74661 26.9576 10.0698 26.7741L21.7502 20.1264L21.825 20.2014L21.7492 20.2445L10.0697 26.8918C9.77523 27.059 9.49511 27.1462 9.24209 27.1608C9.21759 27.1619 9.19308 27.1626 9.16855 27.1626" fill="url(#paint4_linear_230_4513)"/>
<path d="M8.39687 26.8433C8.163 26.5951 8.0249 26.21 8.0249 25.7107V25.5933C8.0249 26.0923 8.163 26.4776 8.39687 26.7258L8.45657 26.7831L8.39687 26.8433Z" fill="url(#paint5_linear_230_4513)"/>
<path d="M21.8248 20.2021L21.75 20.1271L25.7621 17.8435C26.2717 17.5536 26.5578 17.1795 26.6056 16.7984C26.6056 16.9383 26.5744 17.0781 26.5125 17.2141C26.3877 17.4884 26.1376 17.7475 25.7622 17.9612L21.8248 20.2021" fill="url(#paint6_linear_230_4513)"/>
<path d="M26.6059 16.7969C26.5581 16.415 26.272 16.0412 25.7625 15.7512L21.75 13.4678L21.8248 13.3928H21.8252L25.7625 15.6337C26.3242 15.9537 26.6056 16.3752 26.6059 16.7969Z" fill="url(#paint7_linear_230_4513)"/>
<path d="M8.0249 8.00244V7.87928C8.0249 7.83486 8.0261 7.79143 8.02838 7.74926V7.74734C8.02838 7.74676 8.02838 7.74615 8.02859 7.74549V7.74075C8.0528 7.31094 8.1859 6.97567 8.39687 6.7518L8.45563 6.81095C8.1859 7.05504 8.0249 7.4621 8.0249 8.00244Z" fill="url(#paint8_linear_230_4513)"/>
<path d="M21.7498 13.4673L10.0698 6.81956C9.74596 6.63572 9.43954 6.54852 9.16667 6.54852C8.88847 6.54852 8.64577 6.63919 8.45629 6.81018L8.39746 6.75099C8.41583 6.7315 8.43492 6.71271 8.45469 6.69465C8.45531 6.694 8.45629 6.69335 8.4569 6.69273C8.64491 6.52305 8.88503 6.43238 9.16073 6.43075H9.16667C9.43954 6.43075 9.74596 6.51798 10.0698 6.7019L21.825 13.392L21.8247 13.3923L21.7498 13.4673Z" fill="url(#paint9_linear_230_4513)"/>
<defs>
<linearGradient id="paint0_linear_230_4513" x1="14.3964" y1="7.6958" x2="5.804" y2="16.3016" gradientUnits="userSpaceOnUse">
<stop stop-color="#00A0FF"/>
<stop offset="0.00657" stop-color="#00A1FF"/>
<stop offset="0.2601" stop-color="#00BEFF"/>
<stop offset="0.5122" stop-color="#00D2FF"/>
<stop offset="0.7604" stop-color="#00DFFF"/>
<stop offset="1" stop-color="#00E3FF"/>
</linearGradient>
<linearGradient id="paint1_linear_230_4513" x1="27.2265" y1="16.7395" x2="7.75511" y2="16.7395" gradientUnits="userSpaceOnUse">
<stop stop-color="#FFE000"/>
<stop offset="0.4087" stop-color="#FFBD00"/>
<stop offset="0.7754" stop-color="#FFA500"/>
<stop offset="1" stop-color="#FF9C00"/>
</linearGradient>
<linearGradient id="paint2_linear_230_4513" x1="19.9858" y1="19.9633" x2="5.42534" y2="34.44" gradientUnits="userSpaceOnUse">
<stop stop-color="#FF3A44"/>
<stop offset="1" stop-color="#C31162"/>
</linearGradient>
<linearGradient id="paint3_linear_230_4513" x1="5.88647" y1="5.33038" x2="12.3757" y2="11.7922" gradientUnits="userSpaceOnUse">
<stop stop-color="#32A071"/>
<stop offset="0.0685" stop-color="#2DA771"/>
<stop offset="0.4762" stop-color="#15CF74"/>
<stop offset="0.8009" stop-color="#06E775"/>
<stop offset="1" stop-color="#00F076"/>
</linearGradient>
<linearGradient id="paint4_linear_230_4513" x1="19.9783" y1="22.2723" x2="8.31751" y2="33.9513" gradientUnits="userSpaceOnUse">
<stop stop-color="#CC2E36"/>
<stop offset="1" stop-color="#9C0E4E"/>
</linearGradient>
<linearGradient id="paint5_linear_230_4513" x1="9.35148" y1="7.69611" x2="1.78165" y2="15.2688" gradientUnits="userSpaceOnUse">
<stop stop-color="#008DE0"/>
<stop offset="0.00657" stop-color="#008DE0"/>
<stop offset="0.2601" stop-color="#00A7E0"/>
<stop offset="0.5122" stop-color="#00B8E0"/>
<stop offset="0.7604" stop-color="#00C4E0"/>
<stop offset="1" stop-color="#00C7E0"/>
</linearGradient>
<linearGradient id="paint6_linear_230_4513" x1="27.2264" y1="16.7977" x2="7.75501" y2="16.7977" gradientUnits="userSpaceOnUse">
<stop stop-color="#E0C500"/>
<stop offset="0.4087" stop-color="#E0A600"/>
<stop offset="0.7754" stop-color="#E09100"/>
<stop offset="1" stop-color="#E08900"/>
</linearGradient>
<linearGradient id="paint7_linear_230_4513" x1="27.2267" y1="16.7977" x2="7.75543" y2="16.7977" gradientUnits="userSpaceOnUse">
<stop stop-color="#FFE840"/>
<stop offset="0.4087" stop-color="#FFCE40"/>
<stop offset="0.7754" stop-color="#FFBC40"/>
<stop offset="1" stop-color="#FFB540"/>
</linearGradient>
<linearGradient id="paint8_linear_230_4513" x1="9.34327" y1="7.71" x2="2.05263" y2="14.6874" gradientUnits="userSpaceOnUse">
<stop stop-color="#40B8FF"/>
<stop offset="0.00657" stop-color="#40B9FF"/>
<stop offset="0.2601" stop-color="#40CEFF"/>
<stop offset="0.5122" stop-color="#40DDFF"/>
<stop offset="0.7604" stop-color="#40E7FF"/>
<stop offset="1" stop-color="#40EAFF"/>
</linearGradient>
<linearGradient id="paint9_linear_230_4513" x1="5.87214" y1="7.44158" x2="11.0792" y2="12.6568" gradientUnits="userSpaceOnUse">
<stop stop-color="#65B895"/>
<stop offset="0.0685" stop-color="#62BD95"/>
<stop offset="0.4762" stop-color="#50DB97"/>
<stop offset="0.8009" stop-color="#44ED98"/>
<stop offset="1" stop-color="#40F498"/>
</linearGradient>
</defs>
</svg>
