<?xml version="1.0" encoding="utf-8"?>
<!-- Uploaded to SVGRepo https://www.svgrepo.com -->
<!DOCTYPE svg PUBLIC "-//W3C//DTD SVG 1.1//EN" "http://www.w3.org/Graphics/SVG/1.1/DTD/svg11.dtd">
<svg width="1000px" height="1000px" viewBox="0 0 1000 1000" version="1.1" xmlns="http://www.w3.org/2000/svg" xmlns:xlink="http://www.w3.org/1999/xlink" x="0px" y="0px" enable-background="new 0 0 1000 1000" xml:space="preserve">

<g><g transform="translate(0.000000,511.000000) scale(0.100000,-0.100000)"><path d="M4172.5,4882.3c-21.4-3.9-213.8-153.6-427.6-332.4l-390.7-324.6l-497.6-171l-499.5-171.1l-143.8-149.6c-421.8-433.5-771.7-1080.7-1049.6-1935.9C946,1125.2,656.4-128.5,411.5-1456.1c-120.5-657-291.6-1706.6-305.2-1871.8c-17.5-233.2-56.4-213.8,800.8-384.8c472.3-93.3,736.7-138,771.7-130.2c79.7,21.4,112.7,89.4,130.2,270.2c15.6,151.6,15.6,141.9,19.4-141.9c1.9-208,9.7-311,27.2-334.3c33-44.7,231.3-130.2,540.4-235.2c480.1-163.3,1051.5-287.7,1601.6-351.8c351.8-40.8,1591.9-40.8,1943.7,0c721.1,83.6,1510.3,281.8,1970.9,497.6l163.3,75.8l-13.6,402.3c-7.8,221.6-9.7,398.5-5.8,394.6c5.8-5.8,42.8-128.3,81.6-272.1c81.6-295.4,128.3-369.3,233.2-369.3c54.4,0,1366.4,256.6,1451.9,283.8c19.4,5.8,48.6,35,64.1,66.1c27.2,52.5,19.4,108.8-97.2,781.4c-279.9,1599.6-445.1,2439.3-660.8,3358.7C8821.8,1891,8530.3,2664.6,8096.8,3317.6c-147.7,223.5-421.8,532.6-511.2,577.3c-27.2,13.6-256.6,93.3-507.3,176.9l-456.8,151.6l-330.4,274.1c-530.6,441.2-501.5,427.6-672.5,311c-223.5-151.6-429.6-221.6-660.9-221.6c-202.1,0-371.2,54.4-557.8,180.8C4213.3,4895.9,4219.1,4892,4172.5,4882.3z M4483.5,4295.3c279.9-136.1,664.7-112.7,1002.9,58.3c73.9,38.9,75.8,38.9,75.8,2c0-138-163.3-1183.7-272.1-1745.4c-138-697.8-365.4-1650.2-388.7-1624.9c-33,33-272.1,785.3-349.9,1094.3c-167.2,674.5-248.8,1257.6-266.3,1904.8l-11.7,437.3l46.6-35C4345.5,4367.2,4419.3,4326.4,4483.5,4295.3z M6178.4,4165.1c130.2-108.8,254.6-209.9,276-223.5c38.9-23.3,40.8-38.9,40.8-522.8v-499.5l-198.3-77.7l-200.2-75.8l-58.3,48.6c-31.1,27.2-126.3,110.8-208,186.6l-147.7,138l44.7,272.1c23.3,149.7,64.1,416,87.5,592.8c23.3,176.9,46.7,342.1,50.5,365.4C5877.1,4423.6,5848,4443,6178.4,4165.1z M3997.6,3374c17.5-149.7,36.9-279.9,42.8-289.6c11.7-19.4-62.2-101.1-192.4-211.9l-93.3-77.7L3570,2857l-184.7,62.2v503.4c0,281.8,7.8,503.4,17.5,503.4c9.7,0,134.1,97.2,276,213.8l260.5,213.8l13.6-353.8C3960.6,3803.6,3980.1,3521.7,3997.6,3374z M3074.3,3315.7v-513.1l48.6-58.3c29.2-36.9,105-77.7,213.8-120.5c91.4-35,165.2-70,165.2-75.8c0-7.8-70-81.6-157.4-167.2c-85.5-85.5-165.2-176.9-174.9-200.2c-23.3-58.3,64.2-285.7,254.6-666.7C3678.8,1002.7,3974.2,579,4343.5,200l231.3-237.1l-128.3-305.2l-128.3-307.1v-1852.4v-1852.3h-42.8c-103,0-590.9,62.2-849.4,106.9c-435.4,75.8-771.7,167.1-1125.4,305.2l-200.2,77.7l11.7,274.1c5.8,151.6,29.2,866.9,50.5,1591.9l36.9,1313.9l105,221.6c198.3,419.8,344,886.3,410.1,1327.5c87.5,569.5,46.6,1422.8-120.5,2454.9c-27.2,173-46.6,318.8-42.8,322.7c9.7,7.8,487.9,180.8,509.2,184.6C3068.5,3828.8,3074.3,3597.5,3074.3,3315.7z M7076.4,3702.5c132.2-46.6,244.9-89.4,248.8-95.2c5.8-5.8-11.7-157.5-38.9-336.3c-151.6-985.4-200.2-1939.8-124.4-2406.3C7237.7,404,7379.6-62.5,7574-493.9l106.9-233.2l31.1-1560.8c17.5-859.1,27.2-1566.6,21.4-1572.4c-29.2-29.2-542.3-194.4-810.5-260.5c-610.3-149.7-1107.9-211.9-1792.1-227.4l-501.5-11.7v1823.2v1821.2L4819.7-527C5352.3,1.7,5842.1,676.2,6265.8,1467.2c176.9,330.4,326.5,655,326.5,707.5c0,66.1-33,116.6-149.7,237.1l-106.9,108.8l198.3,83.6c283.8,120.5,272.1,87.5,272.1,695.8c0,268.2,5.8,489.8,15.5,489.8C6829.5,3790,6944.2,3751.1,7076.4,3702.5z M2355.1,3031.9c101.1-820.2,126.3-1615.2,68-2070c-56.4-429.5-215.8-952.4-427.6-1401.4l-101.1-213.8l-13.6-668.6l-15.6-666.7l-200.2-785.3c-110.8-433.4-204.1-791.1-209.9-795c-9.7-9.7-1100.1,198.2-1113.7,211.9C322-3339.5,631.1-1584.4,809.9-690.3c441.2,2204.2,773.6,3177.9,1348.9,3941.8c103,139.9,130.2,165.2,141.9,136.1C2308.5,3368.2,2331.8,3208.8,2355.1,3031.9z M7898.6,3068.8c445.1-670.6,703.6-1434.4,1082.6-3195.4c243-1133.2,612.3-3195.4,579.2-3228.5c-13.6-15.6-1102.1-229.4-1109.9-217.7c-3.9,3.9-103,355.7-221.6,783.3L8013.2-2012l-13.6,641.4l-11.7,641.4L7883-495.9c-190.5,429.6-320.7,835.8-400.4,1244c-33,173-42.8,311-48.6,738.6c-11.7,649.2,29.2,1142.9,141.9,1768.8l33,173l89.4-97.2C7746.9,3278.8,7838.3,3160.2,7898.6,3068.8z M6118.1,1891c-163.3-330.4-382.9-709.4-588.9-1026.3c-178.8-272.1-519-734.7-587-795c-38.9-35-38.9-33,9.7,106.9c27.2,79.7,60.2,192.4,75.8,250.7s75.8,260.5,136.1,447.1c139.9,439.3,258.5,901.9,359.6,1399.5c42.8,219.6,83.6,419.8,89.4,445.1c9.7,42.8,38.9,19.4,322.6-264.4l311-311L6118.1,1891z M4160.8,2415.8c122.5-588.9,291.6-1164.3,482-1638.5c105-258.5,105-264.3,83.6-363.5c-11.7-56.4-29.2-103-36.9-103c-15.6,0-248.8,252.7-392.6,427.6c-122.5,147.7-260.5,344-404.3,573.4c-136.1,217.7-414,763.9-406.2,798.9c5.8,27.2,602.5,594.8,612.3,583.1C4102.5,2689.8,4131.7,2565.4,4160.8,2415.8z"/><path d="M4866.4-641.7c-42.8-17.5-81.6-89.4-81.6-147.7c0-17.5,25.3-56.4,58.3-87.5l58.3-58.3l369.3,5.8c419.9,5.8,437.3,13.6,437.3,151.6c0,140-19.4,145.8-433.4,149.7C5074.4-626.1,4891.7-632,4866.4-641.7z"/><path d="M4866.4-1885.6c-42.8-17.5-81.6-89.4-81.6-147.7c0-17.5,25.3-56.4,58.3-87.5l58.3-58.3l369.3,5.8c419.9,5.8,437.3,13.6,437.3,151.6c0,139.9-19.4,145.8-433.4,149.7C5074.4-1870.1,4891.7-1875.9,4866.4-1885.6z"/></g></g>
</svg>