<?xml version="1.0" encoding="iso-8859-1"?>
<!-- Generator: Adobe Illustrator 19.0.0, SVG Export Plug-In . SVG Version: 6.00 Build 0)  -->
<svg version="1.1" id="Capa_1" xmlns="http://www.w3.org/2000/svg" xmlns:xlink="http://www.w3.org/1999/xlink" x="0px" y="0px"
	 viewBox="0 0 53.086 53.086" style="enable-background:new 0 0 53.086 53.086;" xml:space="preserve">
<g>
	<g>
		<path d="M37.582,3.752c-0.084-0.479-0.5-0.828-0.985-0.828H15.989c-0.489,0-0.907,0.355-0.986,0.837L7.075,51.923
			c-0.048,0.291,0.034,0.588,0.226,0.812c0.191,0.224,0.437,0.327,0.767,0.351l8.318-0.049c0.432-0.002,0.814-0.282,0.946-0.693
			l9.211-28.61l9.211,28.61c0.133,0.411,0.515,0.691,0.946,0.693l8.318,0.049c0.002,0,0.004,0,0.006,0
			c0.294,0,0.573-0.129,0.764-0.354c0.191-0.227,0.272-0.526,0.222-0.818L37.582,3.752z M37.042,12.27
			c-0.24-0.22-0.569-0.334-0.907-0.248c-1.467,0.365-2.96-0.531-3.326-1.998c-0.366-1.468,0.53-2.961,1.999-3.327
			c0.536-0.134,0.861-0.676,0.729-1.212c-0.06-0.238-0.209-0.426-0.394-0.56h0.614L37.042,12.27z M16.837,4.924h0.328
			c-0.184,0.134-0.332,0.321-0.392,0.56c-0.133,0.536,0.192,1.079,0.729,1.212c1.469,0.366,2.365,1.859,2,3.327
			c-0.367,1.468-1.86,2.363-3.327,1.999c-0.176-0.045-0.347-0.024-0.51,0.022L16.837,4.924z M37.435,51.041l-9.94-30.878
			c-0.134-0.413-0.518-0.693-0.952-0.693s-0.818,0.28-0.952,0.693L15.65,51.041l-6.409,0.038l6.134-37.266
			c0.095,0.065,0.198,0.121,0.316,0.15c0.384,0.096,0.769,0.142,1.148,0.142c2.126,0,4.066-1.442,4.604-3.597
			c0.591-2.373-0.739-4.762-2.988-5.582h15.4c-2.249,0.82-3.578,3.209-2.987,5.583c0.537,2.154,2.477,3.597,4.604,3.597
			c0.379,0,0.764-0.046,1.147-0.142c0.285-0.071,0.503-0.261,0.632-0.5l6.581,37.617L37.435,51.041z"/>
		<rect x="16.336" width="20.027" height="2"/>
		<path d="M25.336,7.74c-0.553,0-1,0.448-1,1v6.152c0,0.552,0.447,1,1,1s1-0.448,1-1V8.74C26.336,8.188,25.889,7.74,25.336,7.74z"/>
	</g>
</g>
<g>
</g>
<g>
</g>
<g>
</g>
<g>
</g>
<g>
</g>
<g>
</g>
<g>
</g>
<g>
</g>
<g>
</g>
<g>
</g>
<g>
</g>
<g>
</g>
<g>
</g>
<g>
</g>
<g>
</g>
</svg>
