<?xml version="1.0" encoding="iso-8859-1"?>
<!-- Generator: Adobe Illustrator 19.0.0, SVG Export Plug-In . SVG Version: 6.00 Build 0)  -->
<svg version="1.1" id="Layer_1" xmlns="http://www.w3.org/2000/svg" xmlns:xlink="http://www.w3.org/1999/xlink" x="0px" y="0px"
	 viewBox="0 0 512.001 512.001" style="enable-background:new 0 0 512.001 512.001;" xml:space="preserve">
<g>
	<g>
		<path d="M402.042,72.213c-17.707-18.133-73.067-50.667-82.453-56.107L307.002,3.2c-2.027-2.027-4.8-3.2-7.68-3.2h-86.72
			c-2.987,0-5.76,1.173-7.787,3.413l-9.6,10.347l-0.107,0.107l-2.667,2.88c-9.92,5.653-64.747,37.44-82.453,55.467
			c-68.373,69.867-87.787,321.6-88.64,332.373c-0.427,5.867,3.947,10.987,9.813,11.413c0.32,0,0.533,0,0.853,0h57.173
			c5.12,0,9.387-3.52,10.453-8.533l41.92-208.213l20.8,57.067l-46.08,242.987c-1.067,5.76,2.667,11.413,8.533,12.48
			c0.64,0.107,1.28,0.213,2.027,0.213h258.347c5.867,0,10.667-4.8,10.667-10.667c0-0.64-0.107-1.387-0.213-2.027l-46.08-242.453
			l20.907-57.493l41.92,208.107c1.067,5.013,5.333,8.533,10.453,8.533h57.173c5.867,0,10.667-4.693,10.667-10.667
			c0-0.32,0-0.533,0-0.853C489.829,393.813,470.415,142.08,402.042,72.213z M317.775,39.467l2.347,1.387
			c0,0.107-0.107,0.107-0.107,0.213l-8.533,76.267l-32-26.667C299.002,81.6,312.762,61.44,317.775,39.467z M217.295,21.333h77.547
			l3.52,3.627c-1.6,26.88-19.947,49.707-40.96,49.707c-21.547,0-41.92-23.467-43.84-49.28L217.295,21.333z M194.575,40.213
			c5.547,21.973,20.48,40.853,38.933,50.027l-33.067,27.627l-8.427-76.16L194.575,40.213z M372.282,490.667H139.749l42.56-224
			h147.413L372.282,490.667z M431.589,394.773v-0.107l-47.787-236.8c-1.173-5.76-6.827-9.493-12.587-8.32
			c-3.627,0.747-6.613,3.307-7.893,6.827l-32.32,88.96h-149.76l-32.533-88.96c-2.027-5.547-8.107-8.427-13.653-6.4
			c-3.52,1.28-6.08,4.267-6.827,7.893l-47.68,236.8H43.642c4.587-50.24,26.347-251.093,81.6-307.52
			c8.213-8.427,28.16-21.76,46.613-33.28l9.6,85.973c0.64,5.867,5.973,10.027,11.733,9.387c2.027-0.213,4.053-1.067,5.653-2.453
			L256.015,99.2l57.173,47.68c4.48,3.733,11.2,3.2,15.04-1.387c1.387-1.6,2.133-3.52,2.453-5.653l9.6-86.187
			c18.453,11.733,38.293,25.173,46.613,33.6c55.147,56.32,76.907,257.173,81.6,307.52H431.589z"/>
	</g>
</g>
<g>
</g>
<g>
</g>
<g>
</g>
<g>
</g>
<g>
</g>
<g>
</g>
<g>
</g>
<g>
</g>
<g>
</g>
<g>
</g>
<g>
</g>
<g>
</g>
<g>
</g>
<g>
</g>
<g>
</g>
</svg>
