<?xml version="1.0" encoding="iso-8859-1"?>
<!-- Generator: Adobe Illustrator 19.0.0, SVG Export Plug-In . SVG Version: 6.00 Build 0)  -->
<svg version="1.1" id="Layer_1" xmlns="http://www.w3.org/2000/svg" xmlns:xlink="http://www.w3.org/1999/xlink" x="0px" y="0px"
	 viewBox="0 0 512 512" style="enable-background:new 0 0 512 512;" xml:space="preserve">
<g>
	<g>
		<path d="M480.049,497.625c-0.319-4.215-7.984-103.783-20.894-152.039c-25.139-93.967-64.685-153.242-120.706-180.88v-47.514
			c7.424-25.066,11.894-41.233,13.275-48.024c5.242-25.784,3.208-43.268-6.4-55.027c-7.657-9.37-19.509-14.119-35.228-14.119
			c-13.113,0-27.132,4.502-38.397,8.121c-5.492,1.763-13.006,4.177-15.462,4.176c-0.009,0-0.019,0-0.028,0
			c-2.36-0.019-9.58-2.344-14.852-4.041C229.905,4.59,215.654,0,201.888,0c-15.87,0-27.751,4.652-35.313,13.828
			c-9.551,11.588-11.506,28.604-6.338,55.172c1.243,6.389,5.129,21.202,11.55,44.031c-0.279,1.081-0.426,2.204-0.426,3.347v49.745
			c-54.926,28.014-93.798,86.946-118.648,179.827C39.799,394.216,32.265,493.439,31.95,497.64
			c-0.278,3.706,1.002,7.362,3.531,10.086c2.528,2.725,6.078,4.273,9.795,4.273h421.449c3.72,0,7.271-1.55,9.801-4.279
			C479.053,504.992,480.331,501.334,480.049,497.625z M187.198,30.826c2.242-2.721,7.185-4.1,14.69-4.1
			c9.568,0,21.099,3.714,31.274,6.992c9.155,2.948,16.386,5.277,22.838,5.328c0.067,0,0.135,0,0.202,0
			c6.678,0,14.558-2.531,23.667-5.456c9.985-3.206,21.299-6.841,30.226-6.841c7.31,0,12.198,1.449,14.532,4.306
			c2.264,2.77,5.392,10.716,0.903,32.792c-0.826,4.066-3.588,14.877-11.916,43.075l-24.27,11.069l-34.443,15.707l-56.832-25.919
			c-8.115-28.78-10.801-39.773-11.6-43.882C182.064,41.237,185.035,33.451,187.198,30.826z M311.722,137.16v36.071v12.21
			l-51.274-23.384c-0.401-0.183-0.811-0.338-1.225-0.48c-0.119-0.041-0.24-0.075-0.361-0.112c-0.175-0.055-0.349-0.118-0.526-0.164
			c0.18-0.048,0.358-0.111,0.539-0.167c0.112-0.035,0.226-0.067,0.338-0.106c0.417-0.142,0.831-0.299,1.236-0.484L311.722,137.16z
			 M251.469,161.302c-0.171,0.045-0.338,0.106-0.508,0.158c-0.126,0.039-0.254,0.076-0.382,0.119
			c-0.413,0.14-0.82,0.297-1.221,0.478l-51.273,23.383v-10.918v-37.361l51.273,23.384c0.406,0.186,0.822,0.342,1.24,0.485
			c0.104,0.035,0.21,0.065,0.315,0.098C251.099,161.186,251.282,161.252,251.469,161.302z M59.796,485.271
			c2.591-29.488,9.267-97.025,18.733-132.411c20.796-77.726,51.278-129.019,92.831-155.942v9.305v0.001
			c0,4.546,2.312,8.781,6.135,11.24c0.036,0.023,0.075,0.037,0.111,0.06c0.478,0.302,0.971,0.571,1.478,0.806
			c0.199,0.092,0.405,0.162,0.608,0.245c0.354,0.144,0.708,0.285,1.072,0.397c0.235,0.073,0.473,0.128,0.712,0.187
			c0.342,0.086,0.686,0.164,1.033,0.223c0.249,0.041,0.497,0.072,0.747,0.1c0.346,0.039,0.692,0.063,1.041,0.075
			c0.143,0.004,0.283,0.029,0.426,0.029c0.138,0,0.275-0.017,0.413-0.023c0.191-0.005,0.38-0.016,0.571-0.029
			c0.337-0.025,0.672-0.064,1.008-0.115c0.183-0.028,0.365-0.053,0.547-0.088c0.363-0.07,0.722-0.162,1.08-0.263
			c0.147-0.041,0.295-0.073,0.441-0.12c0.503-0.16,1.001-0.345,1.487-0.567l64.636-29.479l64.637,29.479
			c4.137,1.887,8.948,1.539,12.772-0.919c3.823-2.459,6.135-6.694,6.135-11.24v-0.001v-10.98
			c42.619,26.613,73.774,78.329,94.887,157.25v0.001c9.468,35.389,16.227,103.206,18.854,132.78H59.796z"/>
	</g>
</g>
<g>
	<g>
		<path d="M175.928,235.126c-0.628-0.615-1.31-1.176-2.031-1.657c-0.735-0.481-1.51-0.895-2.312-1.229
			c-0.802-0.334-1.644-0.588-2.499-0.762c-1.724-0.347-3.501-0.347-5.225,0c-0.855,0.174-1.697,0.428-2.499,0.762
			c-0.815,0.334-1.59,0.748-2.312,1.229c-0.735,0.481-1.416,1.042-2.031,1.657c-0.615,0.615-1.176,1.308-1.657,2.031
			c-0.481,0.736-0.895,1.51-1.229,2.312c-0.334,0.802-0.588,1.642-0.762,2.499c-0.174,0.867-0.267,1.737-0.267,2.606
			c0,0.881,0.094,1.751,0.267,2.619c0.174,0.855,0.428,1.684,0.762,2.498c0.334,0.803,0.748,1.578,1.229,2.3
			c0.481,0.735,1.042,1.417,1.657,2.031c0.615,0.629,1.296,1.176,2.031,1.67c0.722,0.481,1.497,0.895,2.312,1.229
			c0.802,0.334,1.644,0.588,2.499,0.762s1.737,0.254,2.606,0.254c0.882,0,1.751-0.082,2.619-0.254
			c0.855-0.174,1.697-0.428,2.499-0.762c0.802-0.334,1.577-0.748,2.312-1.229c0.722-0.494,1.403-1.041,2.031-1.67
			c0.615-0.615,1.163-1.296,1.657-2.031c0.481-0.722,0.895-1.497,1.229-2.3c0.334-0.814,0.588-1.642,0.762-2.498
			c0.174-0.869,0.254-1.739,0.254-2.619C179.83,241.058,178.413,237.625,175.928,235.126z"/>
	</g>
</g>
<g>
	<g>
		<path d="M146.589,270.93c-6.523-3.452-14.61-0.961-18.062,5.562c-1.193,2.256-2.388,4.594-3.548,6.949
			c-10.342,20.976-19.454,46.075-27.086,74.599c-6.261,23.401-11.368,63.153-14.551,92.379c-0.799,7.336,4.502,13.932,11.838,14.73
			c0.492,0.053,0.979,0.08,1.463,0.08c6.731,0,12.523-5.073,13.268-11.919c3.082-28.298,7.976-66.598,13.799-88.362
			c7.18-26.836,15.672-50.283,25.239-69.69c1.049-2.127,2.125-4.236,3.202-6.267C155.603,282.468,153.112,274.38,146.589,270.93z"/>
	</g>
</g>
<g>
</g>
<g>
</g>
<g>
</g>
<g>
</g>
<g>
</g>
<g>
</g>
<g>
</g>
<g>
</g>
<g>
</g>
<g>
</g>
<g>
</g>
<g>
</g>
<g>
</g>
<g>
</g>
<g>
</g>
</svg>
