<?xml version="1.0" encoding="iso-8859-1"?>
<!-- Generator: Adobe Illustrator 19.0.0, SVG Export Plug-In . SVG Version: 6.00 Build 0)  -->
<svg version="1.1" id="Layer_1" xmlns="http://www.w3.org/2000/svg" xmlns:xlink="http://www.w3.org/1999/xlink" x="0px" y="0px"
	 viewBox="0 0 496 496" style="enable-background:new 0 0 496 496;" xml:space="preserve">
<g>
	<g>
		<path d="M348.328,41.272L274.072,0h-52.144l-74.256,41.272l-118.96,76.48L110.304,235.6L144,208.648V496h208V208.648
			l33.696,26.952l81.592-117.848L348.328,41.272z M260,16l-11.768,28.24L236.128,16H260z M220.144,19.296l19.512,45.536
			l-10.528,25.264l-26.304-61.184L220.144,19.296z M113.704,212.4l-62.416-90.152l20.176-12.976l61,88.112L113.704,212.4z
			 M84.928,100.624l70.952-45.632l32.88-18.264l31.792,73.944L184,198.4V224h-24v-48.648l-15.016,12.016L84.928,100.624z M224,480
			h-24v-96h-16v96h-24V240h24v128h16V240h24V480z M224,224h-24v-22.4l75.944-182.264l20.016,11.12L224,198.36V224z M336,480h-96V240
			h40v88h16v-88h40V480z M351.016,187.368L336,175.352V224h-96v-22.36l70.016-163.368l29.872,16.6l71.176,45.752L351.016,187.368z
			 M382.304,212.4l-18.768-15.016l61-88.104l20.176,12.968L382.304,212.4z"/>
	</g>
</g>
<g>
</g>
<g>
</g>
<g>
</g>
<g>
</g>
<g>
</g>
<g>
</g>
<g>
</g>
<g>
</g>
<g>
</g>
<g>
</g>
<g>
</g>
<g>
</g>
<g>
</g>
<g>
</g>
<g>
</g>
</svg>
