<svg width="44" height="35" viewBox="0 0 44 35" fill="none" xmlns="http://www.w3.org/2000/svg">
<path d="M43.4715 20.4856C43.4693 16.7266 43.501 8.90207 43.4341 8.75436C43.3741 8.11201 43.0001 7.65207 42.5378 7.24137C40.6421 5.55941 38.7475 3.87633 36.8518 2.19437C36.2829 1.69079 35.7368 1.16147 35.0965 0.740703C34.0246 0.0368087 32.8609 -0.18141 31.6167 0.154311C30.7816 0.380363 30.0915 0.871634 29.4558 1.43676C27.287 3.3638 25.1261 5.29755 22.9471 7.21116C22.2525 7.82105 21.9329 8.55292 21.9397 9.46385C21.9544 11.646 21.9454 13.8271 21.9465 16.0093C21.9465 16.7624 21.9465 16.7624 21.1737 16.7624H17.576C17.6474 16.599 17.6995 16.4871 17.746 16.3741C18.4089 14.7235 18.7533 13.0236 18.4372 11.251C18.163 9.71564 17.3154 8.62231 15.7743 8.12656C15.1114 7.91394 14.7794 8.10306 14.6276 8.76331C14.5063 9.29375 14.3681 9.82195 14.2718 10.3569C13.9228 12.2906 13.176 13.9524 11.303 14.9316C10.1007 15.5605 9.19194 16.5117 8.49393 17.6621C8.38515 17.8412 8.25711 18.0102 8.12453 18.1724C7.80725 18.563 7.38233 18.7622 6.88602 18.8305C6.66505 18.8607 6.54947 18.8484 6.52455 18.5552C6.45656 17.7517 5.83447 17.1798 5.03674 17.1686C3.86168 17.1518 2.68662 17.1518 1.51156 17.1686C0.661707 17.1809 0.00562189 17.8311 0.00448875 18.6715C-0.00231005 23.6078 -0.00231005 28.5451 0.00448875 33.4813C0.00562189 34.3094 0.624313 34.9574 1.46623 34.9775C2.66849 35.0066 3.87301 35.0077 5.0764 34.9775C5.91719 34.9562 6.51435 34.3116 6.54041 33.4791C6.54721 33.2631 6.54154 33.0482 6.54154 32.7987C6.75684 32.8725 6.92001 32.9173 7.07525 32.9811C9.55002 34.014 12.1256 34.4392 14.8146 34.3598C17.0638 34.2926 19.3165 34.3463 21.568 34.3452C22.1754 34.3452 22.7884 34.3844 23.3697 34.1527C23.4581 34.1169 23.5295 34.1415 23.6111 34.1718C24.0428 34.3318 24.4938 34.3475 24.9493 34.3475C29.6224 34.3419 34.2954 34.3407 38.9685 34.3385C39.5917 34.3385 40.2138 34.3452 40.837 34.3363C42.1775 34.3184 43.067 33.6413 43.4443 32.3656C43.4545 32.3298 43.5135 20.9377 43.5135 20.9377C43.4307 20.7933 43.4715 20.6366 43.4715 20.4856ZM5.18858 33.2497C5.18971 33.5742 5.07187 33.657 4.76819 33.6525C3.79143 33.6391 2.81353 33.6346 1.83677 33.6548C1.4753 33.6626 1.34952 33.5686 1.35179 33.1881C1.36992 30.8112 1.36085 28.4332 1.36085 26.0563C1.36085 23.6928 1.36878 21.3293 1.35292 18.9659C1.34952 18.5898 1.4685 18.4903 1.83677 18.4992C2.81353 18.5216 3.79029 18.516 4.76705 18.5014C5.07527 18.4958 5.18858 18.582 5.18858 18.9021C5.17951 23.685 5.17951 28.4679 5.18858 33.2497ZM18.7828 30.2707C19.9023 30.2808 21.0207 30.2729 22.1391 30.2763C22.308 30.2774 22.4802 30.2841 22.6457 30.3166C23.3085 30.4453 23.7709 31.007 23.7607 31.655C23.7505 32.2917 23.2983 32.8322 22.6536 32.9576C22.4746 32.9923 22.2876 33.0001 22.1051 33.0012C19.5556 33.0035 17.006 32.9598 14.4576 33.0158C12.1415 33.0661 9.92848 32.6823 7.79252 31.8128C7.39026 31.6494 6.81236 31.6158 6.6186 31.3249C6.40783 31.0093 6.54381 30.4632 6.54381 30.0178C6.54154 26.871 6.54608 23.7241 6.53701 20.5773C6.53588 20.2931 6.57214 20.18 6.90981 20.1599C7.87411 20.104 8.73416 19.7268 9.2452 18.9077C10.137 17.4775 11.3381 16.411 12.7738 15.5426C14.4157 14.5489 15.0933 12.9397 15.4684 11.1648C15.576 10.659 15.7052 10.1588 15.8366 9.60373C16.7794 10.1375 17.1024 10.9869 17.1601 11.937C17.2712 13.77 16.8803 15.4889 15.8163 17.0254C15.6474 17.2682 15.6168 17.5167 15.7607 17.7729C15.9182 18.0516 16.1834 18.1075 16.4859 18.1075C18.9641 18.1031 21.4423 18.1087 23.9216 18.1031C24.5165 18.1019 25.0082 18.2832 25.3165 18.8103C25.8502 19.7268 25.1714 20.8179 24.0473 20.828C22.4474 20.8437 20.8462 20.8325 19.2463 20.8325C19.1046 20.8325 18.963 20.8291 18.8213 20.8347C18.3669 20.8515 18.1006 21.0899 18.0927 21.4815C18.0837 21.8866 18.3613 22.1552 18.8293 22.172C19.1975 22.1854 19.5658 22.1753 19.9341 22.1753C21.7052 22.1765 23.4751 22.1686 25.2451 22.1809C25.9737 22.1854 26.5402 22.7024 26.6037 23.3705C26.6694 24.0677 26.2388 24.6821 25.5555 24.8432C25.3935 24.8813 25.219 24.8801 25.0502 24.8813C22.9969 24.8835 20.9426 24.8813 18.8893 24.8835C18.3975 24.8846 18.1165 25.1129 18.0939 25.5102C18.0689 25.9511 18.3624 26.223 18.8859 26.2241C20.7556 26.2275 22.6253 26.2185 24.4949 26.2275C25.5114 26.2331 26.1765 27.1798 25.8162 28.0818C25.602 28.6167 25.1057 28.9289 24.4337 28.93C22.6638 28.9345 20.8927 28.9323 19.1227 28.9323C18.9947 28.9323 18.8666 28.9233 18.7409 28.9379C18.3329 28.9838 18.0825 29.2557 18.0927 29.6306C18.1029 30.0055 18.3635 30.2662 18.7828 30.2707ZM40.8767 32.9923C40.3679 33.0091 39.858 32.9956 39.3481 32.9956C34.632 32.9979 29.917 32.9979 25.202 33.0068C24.8791 33.0079 24.7431 32.9979 24.9142 32.6174C25.2621 31.8419 25.1623 31.063 24.7578 30.2875C27.0184 29.9741 27.9215 27.6252 26.7748 26.0462C26.6411 25.8638 26.7147 25.8078 26.8575 25.6948C28.4722 24.4045 28.3306 22.2503 26.5584 21.1704C26.3805 21.063 26.3782 21.0059 26.4711 20.8302C27.5057 18.8719 26.2479 16.8016 24.0077 16.7624C23.3063 16.7501 23.3063 16.7501 23.3063 16.0529C23.3051 13.8853 23.3153 11.7176 23.2972 9.55113C23.2915 8.97705 23.4706 8.54509 23.9125 8.15789C26.1482 6.20064 28.3476 4.20422 30.5912 2.25592C32.0178 1.01711 33.3538 1.03502 34.8257 2.21564C34.9243 2.29509 35.024 2.37342 35.1181 2.45735C37.2982 4.39222 39.475 6.32933 41.6585 8.25973C41.9996 8.56188 42.1514 8.91662 42.1514 9.36649C42.1492 16.8061 42.1526 24.2456 42.1526 31.6852C42.1526 32.4932 41.6925 32.9654 40.8767 32.9923Z" fill="#4A5568"/>
<path d="M35.4649 24.3184C35.4536 23.4567 35.0094 22.9565 34.3261 22.6241C33.7357 22.3365 33.0933 22.2291 32.4542 22.1094C31.8411 21.9952 31.2462 21.8296 30.6887 21.542C28.5596 20.4453 28.3862 17.7495 30.3601 16.3887C30.7952 16.0888 31.2723 15.884 31.7913 15.7844C31.9975 15.7452 32.07 15.6579 32.0519 15.452C32.0338 15.2439 32.0349 15.0313 32.0542 14.8231C32.0916 14.4292 32.385 14.1774 32.7635 14.1931C33.1238 14.2087 33.4389 14.4706 33.3913 14.841C33.3063 15.508 33.5488 15.7676 34.2162 15.9433C35.2609 16.2175 35.9839 16.9594 36.4417 17.9319C36.6468 18.3661 36.5244 18.7566 36.1459 18.9256C35.7788 19.0901 35.4105 18.9547 35.219 18.516C34.5947 17.0915 32.8054 16.6237 31.3867 17.341C30.7159 17.6801 30.3295 18.2117 30.3465 18.9816C30.3624 19.728 30.8372 20.1353 31.4604 20.4252C32.0961 20.7206 32.7907 20.7922 33.4661 20.9332C34.2049 21.0877 34.9074 21.3316 35.5261 21.7725C37.4354 23.1367 37.2235 25.7766 35.1238 26.8274C34.6649 27.0568 34.1822 27.2101 33.6779 27.2851C33.4661 27.3164 33.3867 27.3847 33.406 27.5962C33.423 27.7909 33.4173 27.9878 33.406 28.1837C33.3845 28.5686 33.134 28.8215 32.7726 28.8394C32.3907 28.8585 32.0111 28.5966 32.0723 28.2228C32.2015 27.4384 31.7901 27.2649 31.1397 27.0724C29.8831 26.702 29.0446 25.8415 28.6729 24.578C28.5607 24.1953 28.7465 23.8327 29.0808 23.7186C29.4502 23.5933 29.8581 23.7589 29.9533 24.164C30.2309 25.3446 31.4411 26.072 32.9335 26.0127C33.5918 25.9869 34.2219 25.8403 34.7794 25.4699C35.2145 25.1823 35.4887 24.7963 35.4649 24.3184Z" fill="#4A5568"/>
<path d="M32.7397 4.22876C31.3868 4.22653 30.316 5.27845 30.3148 6.61014C30.3148 7.93624 31.4038 9.01502 32.7352 9.00719C34.0655 9.00047 35.1601 7.90602 35.1465 6.59336C35.1341 5.28516 34.0621 4.231 32.7397 4.22876ZM32.7307 7.66319C32.1448 7.66654 31.6655 7.17751 31.6768 6.58552C31.6882 6.0092 32.1562 5.56493 32.7431 5.57276C33.3244 5.5806 33.7901 6.04837 33.7856 6.61797C33.78 7.18199 33.2984 7.65983 32.7307 7.66319Z" fill="#4A5568"/>
</svg>
