<svg width="42" height="38" viewBox="0 0 42 38" fill="none" xmlns="http://www.w3.org/2000/svg">
    <path d="M41.9988 12.4259C41.9982 12.408 41.9976 12.3901 41.996 12.3722C41.9948 12.3584 41.9929 12.3449 41.991 12.3313C41.9891 12.3171 41.9871 12.3029 41.9846 12.2889C41.9817 12.2731 41.978 12.2575 41.9742 12.242C41.9714 12.2303 41.9686 12.2187 41.9652 12.2071C41.9605 12.1908 41.9552 12.1748 41.9496 12.159C41.9458 12.148 41.942 12.1372 41.9377 12.1264C41.9318 12.1111 41.9252 12.0964 41.9183 12.0816C41.913 12.07 41.9076 12.0587 41.9018 12.0474C41.8951 12.0344 41.8879 12.0217 41.8806 12.009C41.8733 11.9964 41.8659 11.984 41.858 11.9717C41.851 11.9611 41.8437 11.9506 41.8363 11.9403C41.8269 11.9271 41.8174 11.9141 41.8072 11.9014C41.7998 11.8923 41.7923 11.8835 41.7846 11.8747C41.7736 11.862 41.7625 11.8495 41.7507 11.8374C41.7423 11.8287 41.7335 11.8205 41.7247 11.8121C41.7131 11.8011 41.7015 11.7902 41.6892 11.7798C41.6782 11.7705 41.6669 11.7618 41.6555 11.7531C41.6447 11.7447 41.6339 11.7364 41.6226 11.7284C41.6079 11.7181 41.5926 11.7087 41.5771 11.6993C41.5702 11.6951 41.5638 11.6902 41.5566 11.6862L24.8469 2.12796C24.5486 1.9573 24.1784 1.97579 23.8985 2.17524L20.9899 4.24838C20.5749 1.97403 18.5803 0.244049 16.1879 0.244049H15.2754C14.789 0.244049 14.3948 0.638284 14.3948 1.12463C14.3948 1.61097 14.789 2.0052 15.2754 2.0052H16.1879C17.6388 2.0052 18.8616 3.00025 19.2099 4.34384C17.2443 4.73983 15.6972 6.30259 15.3227 8.27579L0.370107 18.9126C0.35998 18.9199 0.350646 18.9278 0.340959 18.9354C0.332506 18.942 0.323876 18.9482 0.315687 18.9551C0.299044 18.969 0.283194 18.9836 0.267783 18.9986C0.264261 19.002 0.260387 19.0052 0.256864 19.0087C0.23758 19.028 0.219352 19.0481 0.20218 19.0689C0.199187 19.0725 0.196633 19.0764 0.193727 19.08C0.180166 19.097 0.167045 19.1143 0.154805 19.1321C0.149082 19.1404 0.143974 19.149 0.138515 19.1574C0.129885 19.171 0.121344 19.1846 0.113506 19.1986C0.107518 19.2091 0.101971 19.22 0.0964232 19.2309C0.090083 19.2433 0.084007 19.2558 0.0782833 19.2685C0.0728237 19.2805 0.0677164 19.2926 0.0627851 19.3048C0.0578539 19.3173 0.053363 19.3299 0.0490481 19.3424C0.0447333 19.3549 0.0403304 19.3674 0.0365439 19.3801C0.0321411 19.3951 0.0285307 19.4103 0.0249203 19.4255C0.0223667 19.436 0.0193727 19.4464 0.0172593 19.4571C0.0120639 19.4829 0.00818937 19.509 0.00528346 19.5353C0.00449094 19.5427 0.00431483 19.5502 0.00369842 19.5576C0.00193727 19.5783 0.000792519 19.599 0.000528346 19.6197C0.000528346 19.6233 0 19.6266 0 19.6301V36.8753C0 37.1331 0.11289 37.3779 0.308994 37.5452C0.469524 37.6821 0.672497 37.7559 0.880577 37.7559C0.926543 37.7559 0.972949 37.7523 1.019 37.7449L41.2578 31.3378C41.6854 31.2698 42 30.9012 42 30.4683V12.4505C42 12.4422 41.9989 12.4341 41.9988 12.4259ZM20.19 6.00725C21.9512 6.00725 23.3841 7.44012 23.3841 9.20137C23.3841 10.9626 21.9512 12.3955 20.19 12.3955C18.4287 12.3955 16.9958 10.9626 16.9958 9.20137C16.9958 7.44012 18.4287 6.00725 20.19 6.00725ZM1.76115 33.2836L34.5308 27.4971C35.0097 27.4126 35.3294 26.9557 35.2448 26.4769C35.1603 25.9979 34.7035 25.6783 34.2246 25.7628L1.76115 31.4952V28.5121L34.5308 22.7256C35.0097 22.6411 35.3294 22.1842 35.2448 21.7054C35.1603 21.2264 34.7035 20.9067 34.2246 20.9913L1.76115 26.7236V23.892L36.8097 17.6384V30.2628L1.76115 35.8435V33.2836ZM38.5709 29.9825V16.5869C38.5709 16.3263 38.4554 16.079 38.2556 15.9117C38.0558 15.7444 37.792 15.6741 37.5356 15.7199L1.76115 22.1031V20.3723L35.1784 14.631C35.6577 14.5487 35.9795 14.0934 35.8972 13.614C35.8148 13.1347 35.3597 12.8126 34.8802 12.8953L4.53929 18.1081L15.381 10.3955C15.917 12.5528 17.8693 14.1566 20.19 14.1566C22.9223 14.1566 25.1452 11.9337 25.1452 9.20137C25.1452 7.46681 24.2486 5.93848 22.8954 5.05288L24.4616 3.93648L40.2388 12.9613V29.7169L38.5709 29.9825Z" fill="#222222" />
</svg>