<svg width="55" height="27" viewBox="0 0 55 27" fill="none" xmlns="http://www.w3.org/2000/svg">
    <path d="M46.6765 4.5714C41.535 1.79432 34.7247 0.265137 27.5 0.265137C20.2753 0.265137 13.4649 1.7945 8.3235 4.5714C2.95601 7.47034 0 11.4053 0 15.6514C0 17.5518 1.16046 19.2461 2.96263 20.3396L4.90803 25.9547C5.06983 26.4217 5.50961 26.7348 6.00387 26.7348H48.9959C49.49 26.7348 49.93 26.4217 50.0918 25.9547L52.0372 20.3396C53.8392 19.2461 54.9998 17.5518 54.9998 15.6514C55 11.4053 52.044 7.47034 46.6765 4.5714ZM48.1705 24.4156H6.82948L5.79494 21.4292C6.38603 21.5463 7.10082 21.618 7.74475 21.618C10.5073 21.618 12.956 20.5281 14.3298 18.8158C15.7036 20.5281 18.1523 21.618 20.9148 21.618C23.6775 21.618 26.126 20.5281 27.4998 18.8159C28.8736 20.5281 31.3223 21.618 34.0848 21.618C36.8474 21.618 39.296 20.5281 40.6699 18.8159C42.0437 20.5281 44.4923 21.618 47.2549 21.618C47.9275 21.618 48.6659 21.5359 49.2047 21.4292L48.1705 24.4156ZM47.2552 19.2986C45.3209 19.2986 42.9017 18.4573 42.0785 16.7222L42.0783 16.722C41.9211 16.3903 41.8298 16.0263 41.8298 15.6514C41.8298 15.0108 41.3107 14.4916 40.67 14.4916C40.0294 14.4916 39.5103 15.0108 39.5103 15.6514C39.5103 16.0263 39.4181 16.3917 39.2618 16.722L39.2616 16.7222C38.5437 18.2357 36.4024 19.2986 34.0848 19.2986C31.5929 19.2986 28.6595 17.9077 28.6595 15.6514C28.6595 15.0108 28.1404 14.4916 27.4998 14.4916C26.8594 14.4916 26.3401 15.0108 26.3401 15.6514C26.3401 17.8368 23.5435 19.2986 20.9148 19.2986C18.4151 19.2986 15.4895 17.8939 15.4895 15.6514C15.4895 15.0108 14.9702 14.4916 14.3298 14.4916C13.6893 14.4916 13.17 15.0108 13.17 15.6514C13.17 17.6735 10.5991 19.2986 7.74475 19.2986C4.85519 19.2986 2.31945 17.6584 2.31945 15.6514C2.31945 12.2974 4.84323 9.08714 9.42579 6.61196C14.2344 4.01473 20.6534 2.5844 27.5 2.5844C34.3466 2.5844 40.7656 4.01473 45.5742 6.61196C50.1568 9.08714 52.6805 12.2974 52.6805 15.6514C52.6805 17.6523 50.1557 19.2986 47.2552 19.2986Z" fill="#222222" />
    <path d="M27.5001 5.89734C26.8596 5.89734 26.3403 6.41645 26.3403 7.05706V9.63423C26.3403 10.2748 26.8596 10.794 27.5001 10.794C28.1407 10.794 28.6598 10.2748 28.6598 9.63423V7.05706C28.6598 6.41645 28.1405 5.89734 27.5001 5.89734Z" fill="#222222" />
    <path d="M17.3248 6.16612L14.2322 8.74329C13.7402 9.15342 13.6737 9.8846 14.0839 10.3767C14.4942 10.8689 15.2252 10.9348 15.7172 10.525L18.8098 7.94786C19.3019 7.53773 19.3683 6.80655 18.9582 6.31449C18.5482 5.82262 17.8169 5.75617 17.3248 6.16612Z" fill="#222222" />
    <path d="M40.7677 8.74332L37.6751 6.16615C37.1832 5.75657 36.4521 5.82266 36.0417 6.31453C35.6318 6.80676 35.6982 7.53776 36.1901 7.94789L39.2827 10.5251C39.774 10.9345 40.5056 10.8691 40.9161 10.3767C41.326 9.88463 41.2596 9.15346 40.7677 8.74332Z" fill="#222222" />
</svg>