<svg width="181" height="95" viewBox="0 0 181 95" fill="none" xmlns="http://www.w3.org/2000/svg">
<path d="M9.32869 36.8734L9.53133 38.2295C7.63624 38.5424 5.60535 39.0454 3.49144 39.7525L3.04217 38.4718C5.24945 37.7331 7.34731 37.1915 9.32869 36.8734ZM19.3476 37.2939C20.2982 37.5486 21.2346 37.8561 22.1762 38.2499L21.6447 39.4942C20.7823 39.1217 19.8987 38.8283 19.0009 38.5877C17.9447 38.3047 16.8145 38.0868 15.7088 37.9886L15.8442 36.6382C17.0292 36.7576 18.2122 36.9897 19.3476 37.2939ZM27.7843 41.5072C29.2973 42.6202 30.8471 43.9127 32.701 45.6547L31.7824 46.6538C29.9742 44.9524 28.4508 43.6669 26.9764 42.6209L27.7843 41.5072ZM37.2881 50.0818C38.7233 51.4852 40.2693 53.0031 41.87 54.4226L40.9778 55.4287C39.3577 53.9758 37.7853 52.4508 36.3237 51.0403L37.2881 50.0818ZM46.757 58.364C48.5392 59.634 50.2918 60.6979 52.0868 61.6034L51.4761 62.8264C49.6019 61.8997 47.8036 60.7953 45.9492 59.4777L46.757 58.364ZM57.8704 63.8889C58.24 63.9879 58.6026 64.1134 58.9723 64.2124C60.583 64.644 62.2484 64.9771 63.9421 65.2045L63.7538 66.5408C62.0073 66.2992 60.2556 65.9713 58.5921 65.5256C58.1961 65.4195 57.8 65.3133 57.4374 65.1879L57.8704 63.8889ZM76.2763 64.3775L76.6586 65.6969C74.5395 66.3177 72.3785 66.6726 70.2741 66.8162L70.1841 65.462C72.1758 65.3165 74.2242 64.9597 76.2763 64.3775ZM87.4873 58.9762L88.2572 60.1165C86.4191 61.3786 84.5442 62.461 82.6924 63.3516L82.0899 62.1147C83.8554 61.2293 85.6897 60.1926 87.4873 58.9762ZM97.0727 50.8753L98.0312 51.8397C96.4798 53.405 94.8967 54.877 93.3227 56.2098L92.4382 55.1804C94.0051 53.8739 95.5547 52.4213 97.0727 50.8753ZM103.988 43.0212C104.374 42.5304 104.761 42.0396 105.154 41.5224L105.323 41.313L106.404 42.1402L106.234 42.3495C105.841 42.8667 105.455 43.3576 105.068 43.8484C104.174 44.9672 103.287 46.0597 102.388 47.0923L101.355 46.193C102.241 45.2132 103.121 44.1472 103.988 43.0212ZM114.259 32.0474L115.028 33.1876C113.546 34.1772 112.052 35.5313 110.417 37.3008L109.418 36.3822C111.1 34.5405 112.702 33.102 114.259 32.0474ZM122.536 29.5674C123.457 29.616 124.436 29.7651 125.386 30.0198C125.888 30.1543 126.435 30.3292 126.949 30.5235L126.464 31.8084C125.976 31.6212 125.481 31.4603 125.033 31.3401C124.161 31.1066 123.295 30.9594 122.453 30.932C121.811 30.9013 121.18 30.9305 120.569 30.9931L120.393 29.6441C121.124 29.5569 121.84 29.5225 122.536 29.5674ZM132.7 33.5644C133.179 33.8908 133.664 34.1907 134.117 34.51C135.408 35.3937 136.692 36.3039 137.943 37.2334L137.143 38.3206C135.911 37.4246 134.627 36.5145 133.362 35.6378C132.909 35.3185 132.424 35.0186 131.972 34.6993L132.7 33.5644ZM143.01 41.138C144.665 42.4589 146.3 43.859 147.881 45.2449L146.982 46.2775C145.4 44.8916 143.785 43.5249 142.156 42.2111L143.01 41.138ZM152.583 49.5612C154.116 51.0193 155.629 52.5566 157.089 54.0798L156.098 55.0312C154.638 53.5081 153.145 52.0042 151.638 50.5532L152.583 49.5612ZM161.365 58.8199C162.445 60.0714 163.518 61.3494 164.564 62.6202L163.515 63.4712C162.469 62.2004 161.423 60.9295 160.336 59.7044L161.365 58.8199Z" fill="#4A5568"/>
<path d="M172.649 73.9558L160.271 68.2903L165.662 65.9143L169.31 60.7505L172.649 73.9558Z" fill="#4A5568"/>
</svg>
