<svg version="1.2" xmlns="http://www.w3.org/2000/svg" viewBox="0 0 512 512" width="555" height="555">
	<title>New Project</title>
	<style>
		.s0 { fill: #000000 } 
	</style>
	<path id="Layer" fill-rule="evenodd" class="s0" d="m510.5 194.4c0 16.7-13.6 30.3-30.3 30.3h-146.7c-7.2 0-13.7-2.7-18.9-6.9q-2.3 0.5-4.6 0.5h-29.9v114.2c0 22.1-18.1 40.1-40.2 40.1h-198.2c-22.1 0-40.1-18-40.1-40.1v-186.9c0-3.4 2.7-6.2 6.1-6.2h266.2c3.4 0 6.1 2.8 6.1 6.2v25h30q2.3 0 4.6 0.4c5.2-4.2 11.7-6.8 18.9-6.8h146.7c16.7 0 30.3 13.6 30.3 30.2zm-242.8-42.6h-253.8v180.7c0 15.3 12.5 27.8 27.8 27.8h198.2c15.3 0 27.8-12.5 27.8-27.8zm12.4 54.1h25.5c-1.5-3.5-2.3-7.4-2.3-11.5 0-4.1 0.8-7.9 2.3-11.5h-25.5zm218-11.5c0-9.9-8-17.9-17.9-17.9h-146.7c-9.9 0-17.9 8-17.9 17.9 0 9.8 8 17.9 17.9 17.9h146.7c9.9 0 17.9-8.1 17.9-17.9z"/>
</svg>