<svg viewBox="0 0 17 31" fill="none" xmlns="http://www.w3.org/2000/svg">
    <path d="M8.39741 29.4594C8.39741 29.7363 8.17288 29.9609 7.8959 29.9609H1.82251C0.955039 29.9609 0.249268 29.2551 0.249268 28.3876V13.1705C0.249268 10.7893 1.68975 8.63856 3.8689 7.71112V2.7556C3.68312 2.58079 3.57129 2.3339 3.57129 2.06824V0.94378C3.57129 0.542928 3.82598 0.184705 4.20513 0.0523769C4.30579 0.0175576 4.40967 7.62939e-05 4.51499 7.62939e-05H7.84568C7.951 7.62939e-05 8.05488 0.0175576 8.15447 0.0520903C8.53468 0.184848 8.78938 0.543071 8.78938 0.943851V2.06831C8.78938 2.33397 8.67754 2.58079 8.49177 2.75567V7.71119C9.69905 8.22531 10.7075 9.12768 11.3559 10.2822C11.4915 10.5237 11.4057 10.8295 11.1642 10.9651C10.9226 11.1006 10.617 11.0148 10.4813 10.7734C9.89285 9.72541 8.94836 8.92722 7.82189 8.52586C7.62207 8.45472 7.48874 8.26551 7.48874 8.05344V3.01202H7.37476C7.09778 3.01202 6.87325 2.78748 6.87325 2.51051C6.87325 2.23353 7.09778 2.00899 7.37476 2.00899H7.78636V1.00303H4.57431V2.00899H4.98598C5.26296 2.00899 5.48749 2.23353 5.48749 2.51051C5.48749 2.78748 5.26296 3.01202 4.98598 3.01202H4.87192V8.05337C4.87192 8.26543 4.73852 8.45458 4.53877 8.52579C2.57299 9.22633 1.25222 11.093 1.25222 13.1705V28.3876C1.25222 28.702 1.50799 28.9578 1.82244 28.9578H7.89583C8.17288 28.9578 8.39741 29.1823 8.39741 29.4594ZM4.12209 10.1175C3.04312 10.7324 2.37281 11.8811 2.37281 13.1152V26.7589C2.37281 27.0359 2.59735 27.2604 2.87433 27.2604C3.15131 27.2604 3.37584 27.0359 3.37584 26.7589V13.1152C3.37584 12.2406 3.85206 11.4259 4.61873 10.9889C4.85939 10.8517 4.94321 10.5455 4.80608 10.3049C4.66895 10.0642 4.36267 9.98025 4.12209 10.1175ZM14.3851 19.0553C14.1101 19.0881 13.9138 19.3377 13.9466 19.6127C14.0005 20.0647 13.8476 20.5193 13.516 20.8928C13.104 21.3569 12.4857 21.634 11.8621 21.634C11.5852 21.634 11.3606 21.8586 11.3606 22.1356C11.3606 22.4125 11.5852 22.6371 11.8621 22.6371C12.768 22.6371 13.6667 22.2339 14.2661 21.5587C14.7907 20.9677 15.0309 20.2345 14.9425 19.4939C14.9098 19.2188 14.6603 19.0222 14.3851 19.0553ZM15.6652 22.9196C14.8279 23.8628 13.6212 24.4704 12.3637 24.5996V29.9969H13.9604C14.2374 29.9969 14.4619 30.2214 14.4619 30.4984C14.4619 30.7754 14.2374 30.9999 13.9604 30.9999H11.8707C11.8678 31 11.865 31 11.8621 31C11.8593 31 11.8565 31 11.8536 30.9999H9.76389C9.48691 30.9999 9.26238 30.7754 9.26238 30.4984C9.26238 30.2214 9.48691 29.9969 9.76389 29.9969H11.3607V24.5996C10.1031 24.4704 8.89642 23.8628 8.05904 22.9195C7.23942 21.996 6.86372 20.8532 7.00135 19.7015L7.36716 16.6384C7.36781 16.6317 7.36867 16.6251 7.36953 16.6185L7.78292 13.157C7.81301 12.9049 8.02694 12.715 8.28092 12.715H15.4435C15.6975 12.715 15.9114 12.9049 15.9415 13.157L16.7232 19.7016C16.8606 20.8533 16.4849 21.9962 15.6652 22.9196ZM15.7271 19.8204L14.9982 13.718H8.72605L8.40049 16.4437C9.74992 17.2599 11.9988 17.216 13.891 16.3072C14.1405 16.1872 14.4403 16.2924 14.5602 16.542C14.6801 16.7917 14.575 17.0913 14.3253 17.2113C12.2795 18.194 9.91957 18.2878 8.27304 17.5113L7.99728 19.8204C7.89418 20.6835 8.18248 21.5475 8.80915 22.2536C9.56995 23.1106 10.7112 23.6223 11.8621 23.6223C13.013 23.6223 14.1543 23.1106 14.9151 22.2536C15.5417 21.5477 15.8302 20.6835 15.7271 19.8204Z" fill="#222222" />
</svg>