<svg width="933" height="799" viewBox="0 0 933 799" fill="none" xmlns="http://www.w3.org/2000/svg">
<g clip-path="url(#clip0_8_2)">
<path d="M928 774.6H5.5C2.7 774.6 0.5 772.3 0.5 769.6V769.2C0.5 766.4 2.7 764.2 5.5 764.2H928C930.8 764.2 933 766.4 933 769.2V769.6C933 772.3 930.8 774.6 928 774.6Z" fill="#CDDEF2"/>
<path d="M518.3 799H79.5C76.7 799 74.5 796.8 74.5 794V793.6C74.5 790.9 76.7 788.6 79.5 788.6H518.3C521 788.6 523.3 790.9 523.3 793.6V794C523.3 796.8 521 799 518.3 799Z" fill="#CDDEF2"/>
<path d="M819.9 799H552.9C550.2 799 547.9 796.8 547.9 794V793.6C547.9 790.9 550.2 788.6 552.9 788.6H819.9C822.6 788.6 824.9 790.9 824.9 793.6V794C824.9 796.8 822.6 799 819.9 799Z" fill="#CDDEF2"/>
<path d="M677.7 432.6H849.8C855.9 432.6 860.7 436.8 860.7 441.9V764.2H677.7V432.6Z" fill="#0DA487"/>
<path d="M845.1 503.8V764.2H691.8V448.3H798C795.7 453.3 794.4 458.9 794.4 464.8C794.4 487.1 812.5 505.1 834.7 505.1C838.3 505.1 841.8 504.6 845.1 503.8V503.8Z" fill="#AED9AB"/>
<path d="M805.4 588.2C805.4 609.3 788.3 626.3 767.2 626.3C746.1 626.3 729 609.3 729 588.2C729 567.1 746.1 550 767.2 550C788.3 550 805.4 567.1 805.4 588.2Z" fill="#FEFEFE"/>
<path d="M642.7 764.2H314.4C295 764.2 279.4 748.5 279.4 729.2V35.1001C279.4 15.7001 295 0.100098 314.4 0.100098H642.7C662 0.100098 677.7 15.7001 677.7 35.1001V729.2C677.7 748.5 662 764.2 642.7 764.2Z" fill="#204B9E"/>
<path d="M625 747.7H332.1C312.7 747.7 297.1 732 297.1 712.7V76.5C297.1 57.2 312.7 41.5 332.1 41.5H625C644.3 41.5 660 57.2 660 76.5V712.7C660 732 644.3 747.7 625 747.7Z" fill="#F4FAFD"/>
<path d="M515.9 26.9999H439.4C437.7 26.9999 436.3 25.5999 436.3 23.8999C436.3 22.1999 437.7 20.8999 439.4 20.8999H515.9C517.6 20.8999 518.9 22.1999 518.9 23.8999C518.9 25.5999 517.6 26.9999 515.9 26.9999Z" fill="#CDDEF2"/>
<path d="M378.5 110.5H357.8C354.5 110.5 351.8 107.8 351.8 104.5V83.8003C351.8 80.5003 354.5 77.8003 357.8 77.8003H378.5C381.8 77.8003 384.5 80.5003 384.5 83.8003V104.5C384.5 107.8 381.8 110.5 378.5 110.5Z" fill="#91B1DC"/>
<path d="M511.8 99.3999H410.8C407.9 99.3999 405.6 97.0999 405.6 94.1999C405.6 91.2999 407.9 88.8999 410.8 88.8999H511.8C514.7 88.8999 517 91.2999 517 94.1999C517 97.0999 514.7 99.3999 511.8 99.3999Z" fill="#91B1DC"/>
<path d="M548.1 146.1C548.1 146.1 555.5 60.5 578.4 72.5C601.3 84.6 620.2 95.8 623.6 225.7C627.1 355.6 574.2 470.5 553.3 444C532.5 417.5 541.1 337.9 541.1 337.9L548.1 146.1Z" fill="#EAF0F8"/>
<path d="M556.8 146.3C556.8 146.3 566 120.3 572.1 131C578.2 141.7 590.4 147 585.5 160C580.5 173 578.6 187.2 586.6 195.2C594.6 203.2 598.8 231.4 590.4 240.1C582 248.7 572.5 265.2 577.6 269.4C582.8 273.6 582 264.5 584.3 263.3C586.6 262.1 592.3 270.5 587.4 275.9C582.4 281.2 576.3 283.1 577.6 289.3C579 295.4 582.4 309.9 575.9 317.9C569.4 326 574.4 330.2 572.8 338.6C571.3 347 569 358.1 566.7 355.2C564.4 352.4 560.2 361.1 556.8 370.7C553.3 380.3 553.3 335.9 553.3 335.9L556.8 146.3Z" fill="#91B1DC"/>
<path d="M359.9 143.2L568.8 146.5C568.8 146.5 583.7 167.1 575.1 175.7C566.5 184.3 569.4 194.6 577.4 205C585.5 215.3 579.1 240.5 573.1 249.7C567 258.8 561.9 267.5 566.5 278.4C571.1 289.3 578.6 300.7 566.5 312.8C554.5 324.8 566.5 338.6 566.5 338.6L349.5 333C344.6 332.9 340.8 328.8 341.1 323.9L351.2 151.3C351.4 146.7 355.3 143.2 359.9 143.2V143.2Z" fill="#204B9E"/>
<path d="M403 200.1C400 202.4 396.2 203.8 392.1 203.8C382.2 203.8 374.2 195.8 374.2 185.9C374.2 176 382.2 168 392.1 168C396.2 168 400 169.4 403 171.7C398.7 174.9 396 180.1 396 185.9C396 191.7 398.7 196.8 403 200.1V200.1Z" fill="#FDD38D"/>
<g opacity="0.6">
<path d="M410 185.9C410 191.7 407.3 196.8 403 200.1C398.7 196.8 396 191.7 396 185.9C396 180.1 398.7 174.9 403 171.7C407.3 174.9 410 180.1 410 185.9Z" fill="#62C38E"/>
</g>
<path d="M431.8 185.9C431.8 195.8 423.8 203.8 413.9 203.8C409.8 203.8 406 202.4 403 200.1C407.3 196.8 410 191.7 410 185.9C410 180.1 407.3 174.9 403 171.7C406 169.3 409.8 168 413.9 168C423.8 168 431.8 176 431.8 185.9V185.9Z" fill="#0DA487"/>
<path d="M376.4 231.3L464.1 234.1C465.1 234.2 465.8 234.9 465.8 235.9L465.6 242C465.6 242.9 464.8 243.7 463.8 243.6L376.1 240.8C375.1 240.8 374.4 240 374.4 239.1L374.6 233C374.6 232 375.4 231.3 376.4 231.3V231.3Z" fill="#91B1DC"/>
<path d="M480.6 234.6L523.1 236C523.6 236 523.9 236.8 523.9 237.7L523.7 243.8C523.7 244.8 523.3 245.5 522.8 245.5L480.3 244.2C479.8 244.2 479.5 243.4 479.5 242.4L479.7 236.3C479.7 235.4 480.1 234.6 480.6 234.6V234.6Z" fill="#91B1DC"/>
<path d="M376 250.2L489 253.8C490.2 253.8 491.2 254.6 491.2 255.6L491 261.7C490.9 262.6 489.9 263.4 488.7 263.3L375.7 259.7C374.5 259.7 373.5 258.9 373.5 257.9L373.7 251.9C373.7 250.9 374.8 250.2 376 250.2Z" fill="#91B1DC"/>
<path d="M379.6 297L544.9 302.5C546.7 302.5 548.1 303.3 548.1 304.3L547.9 310.4C547.8 311.3 546.3 312 544.6 312L379.3 306.6C377.5 306.5 376.1 305.7 376.1 304.7L376.3 298.6C376.3 297.7 377.8 297 379.6 297V297Z" fill="#91B1DC"/>
<path d="M599.4 258.9C597.9 260.8 592.1 261.4 590.8 258.9C589.5 256.4 594.4 252.1 595 251.6C600.8 247 600.9 257 599.4 258.9Z" fill="#91B1DC"/>
<path d="M578.4 124.5C578.4 129.4 575.9 129.1 574.2 126.6C572.5 124.1 572.8 118.4 572.8 118.4C574.9 111.9 578.4 119.5 578.4 124.5V124.5Z" fill="#91B1DC"/>
<path d="M570.5 366.2C573.2 373.6 568.2 374.1 565.6 372.1C562.9 370 565.6 360.4 565.6 360.4C566.1 358 567.9 358.9 570.5 366.2Z" fill="#91B1DC"/>
<path d="M590.6 290C590.6 290 583.5 293.3 585.1 297C586.6 300.7 598.4 295 590.6 290Z" fill="#91B1DC"/>
<path d="M600.2 244.2C600.067 244.2 599.933 244.167 599.8 244.1C599.6 243.8 599.6 243.5 599.8 243.2C599.9 243.2 603.2 239.4 603.6 223.1C603.9 211.4 600.3 203.5 596.7 195.9C595.2 192.6 593.8 189.4 592.7 186.1C591.1 181.2 591.8 174.7 592.6 167.8C593.7 158.6 594.8 149.1 590.1 143.6C586.3 139 586 135.3 585.7 131.1C585.4 126 584.9 119.7 577.9 109.5C575.4 105.8 572.9 104.1 570.5 104.6C563.8 106.1 559.1 124.8 558.5 128.5C558.5 128.8 558.2 129 557.9 129C557.6 129 557.4 128.7 557.4 128.4C557.4 128.2 561.8 106.1 569.8 103.6C572.8 102.7 575.9 104.5 578.9 108.9C586 119.3 586.5 125.8 586.9 131C587.2 135.2 587.4 138.6 591 142.9C596 148.8 594.8 158.5 593.8 167.9C593 174.7 592.2 181.1 593.8 185.7C594.9 189 596.3 192.1 597.8 195.4C601.3 203.2 605 211.2 604.8 223.1C604.4 240 600.8 243.9 600.6 244C600.533 244.133 600.4 244.2 600.2 244.2Z" fill="#91B1DC"/>
<path d="M551.5 391.6C550.7 391.6 550 391.367 549.4 390.9C545.2 388.1 545.4 376.2 545.6 365.7C545.6 361.7 545.7 358.1 545.5 355.2C545.5 354.9 545.7 354.7 546 354.6C546.3 354.6 546.6 354.9 546.6 355.2C546.8 358 546.8 361.7 546.7 365.7C546.6 375.4 546.4 387.5 550 390C550.867 390.533 551.9 390.567 553.1 390.1C555.2 389.2 556.9 387.8 558.5 386.4C561.5 383.9 564.4 381.6 568.2 384C568.3 384.1 568.8 384.4 569.6 383.6C574.5 379.4 581.2 351.1 577.1 342.3C574.1 335.8 577.2 330.8 580.2 325.9C582.2 322.7 584.1 319.7 584.3 316.4C584.6 311.2 586.9 309.7 589.4 308.1C591.3 306.9 593.3 305.6 594.9 302.4C598.7 294.9 597.5 292 592.7 283.4C591.433 281.133 591.233 279.033 592.1 277.1C594.2 272.5 601.5 270.7 601.8 270.6C602.1 270.6 602.4 270.8 602.5 271.1C602.5 271.4 602.3 271.7 602 271.8C602 271.8 595 273.5 593.2 277.5C592.467 279.1 592.633 280.9 593.7 282.9C598.5 291.5 599.9 294.9 595.9 302.9C594.2 306.4 591.9 307.8 590 309.1C587.6 310.6 585.7 311.8 585.4 316.4C585.2 320.1 583.2 323.4 581.2 326.5C578.2 331.3 575.4 335.9 578.1 341.8C580.1 345.9 580 354.6 577.9 364.8C576.3 372.7 573.4 381.9 570.3 384.5C569.1 385.6 568.1 385.3 567.5 384.9C564.5 383 562.2 384.9 559.3 387.3C557.6 388.7 555.8 390.2 553.6 391.1C552.867 391.433 552.167 391.6 551.5 391.6V391.6Z" fill="#91B1DC"/>
<path d="M257.9 332.8V764.2H63.9C57.6 764.2 52.5 759 52.5 752.7V361.5C52.5 345.6 65.3 332.8 81.1 332.8H257.9Z" fill="#EAF0F8"/>
<path d="M257.9 332.8V428.8H52.5V364.6C52.5 347 65.3 332.8 81.1 332.8H257.9Z" fill="#91B1DC"/>
<path d="M257.9 332.8V419.5H97.8999C96.1999 419.5 95.4999 417.3 96.7999 416.3C104.4 410.9 117.5 397.4 117.5 369.6C117.5 336.5 91.2999 333.1 83.3999 332.8H257.9Z" fill="#FEFEFE"/>
<path d="M126.6 469.3H84.1001C82.5001 469.3 81.1001 468 81.1001 466.3V461.1C81.1001 459.4 82.5001 458.1 84.1001 458.1H126.6C128.3 458.1 129.6 459.4 129.6 461.1V466.3C129.6 468 128.3 469.3 126.6 469.3Z" fill="#91B1DC"/>
<path d="M185.2 469.3H142.8C141.1 469.3 139.8 468 139.8 466.3V461.1C139.8 459.4 141.1 458.1 142.8 458.1H185.2C186.9 458.1 188.2 459.4 188.2 461.1V466.3C188.2 468 186.9 469.3 185.2 469.3Z" fill="#91B1DC"/>
<path d="M155.8 497.4H84.3999C82.7999 497.4 81.3999 496 81.3999 494.4V489.1C81.3999 487.4 82.7999 486.1 84.3999 486.1H155.8C157.5 486.1 158.8 487.4 158.8 489.1V494.4C158.8 496 157.5 497.4 155.8 497.4Z" fill="#91B1DC"/>
<path d="M155.8 732H84.3999C82.7999 732 81.3999 730.7 81.3999 729V723.7C81.3999 722.1 82.7999 720.7 84.3999 720.7H155.8C157.5 720.7 158.8 722.1 158.8 723.7V729C158.8 730.7 157.5 732 155.8 732Z" fill="#91B1DC"/>
<path d="M126.6 531.9H84.3999C82.7999 531.9 81.3999 530.5 81.3999 528.9V523.8C81.3999 522.2 82.7999 520.8 84.3999 520.8H126.6C128.3 520.8 129.6 522.2 129.6 523.8V528.9C129.6 530.5 128.3 531.9 126.6 531.9Z" fill="#91B1DC"/>
<path d="M126.6 699.7H84.3999C82.7999 699.7 81.3999 698.3 81.3999 696.7V691.6C81.3999 690 82.7999 688.6 84.3999 688.6H126.6C128.3 688.6 129.6 690 129.6 691.6V696.7C129.6 698.3 128.3 699.7 126.6 699.7Z" fill="#91B1DC"/>
<path d="M378.1 257.7C378.1 257.7 392.3 246.3 392.1 251.1C391.9 256 386.4 258 391.9 256C397.3 254 400.5 246 405.9 251.7C411.4 257.4 407.7 264.3 405.9 266C404.2 267.8 385.6 271.2 385.6 271.2L378.1 257.7Z" fill="#F69E85"/>
<path d="M304.1 457.1L356.6 278.1C357.4 275.5 359.9 274 362.6 274.5L364.7 274.8C367.6 275.4 369.5 278.4 368.7 281.3L319.9 458.1L304.1 457.1Z" fill="#91B1DC"/>
<path d="M293.6 308.4L344.3 320L340.6 332.8L290.8 320.6L293.6 308.4Z" fill="#91B1DC"/>
<path d="M280 354L330.8 365.6L327 378.4L277.3 366.2L280 354Z" fill="#91B1DC"/>
<path d="M247.1 440.3V453.6L197 450.5C197 450.5 198.5 437.6 194 421.6C189.5 405.5 203 358.5 203 358.5L247.1 440.3Z" fill="#1B355B"/>
<path d="M278.8 382.7C278.8 382.7 312.5 419.3 317.8 425C323.2 430.7 321.6 473.9 321.6 473.9L256.3 465.1C256.3 465.1 255.5 446 247.1 440.3C238.7 434.6 205.8 425 197 397.5C188.2 369.9 201.6 358.1 201.6 358.1L278.8 382.7Z" fill="#317490"/>
<path d="M290.8 217.3C279.3 222.6 282.2 233.2 275.1 237.8C267.9 242.4 261.7 233.2 261.7 233.2C261.7 233.2 259.7 234.6 253.1 232.5C246.5 230.3 246.3 221.2 246.3 221.2C246.3 221.2 241.2 218.3 237.4 214.4C233.7 210.5 235.8 201.9 235.8 201.9C235.8 201.9 233.5 199.4 231.9 190.7C230.3 181.9 242.9 175.3 242.9 175.3C242.9 175.3 242.6 173.4 245.8 165C249 156.6 259.4 159.8 259.4 159.8C259.4 159.8 257.4 154.3 260.6 149.1C263.8 143.9 270.6 147.7 270.6 147.7C270.6 147.7 279.7 135.7 286.7 137.7C293.6 139.6 295.1 146.1 295.1 146.1C295.1 146.1 295.1 146.1 298.5 143.7C301.9 141.4 311 144.4 313.5 148C316 151.6 314.5 158.5 314.5 158.5C314.5 158.5 316.1 159.3 318.1 163.7C320.1 168.2 312.2 177.3 312.2 177.3C312.2 177.3 302.4 211.9 290.8 217.3V217.3Z" fill="#C63952"/>
<path d="M316.1 456.9L407.8 358C410.8 354.8 415.7 354.3 419.3 356.9L577 470C581 472.9 581.9 478.6 579 482.7L516.2 570.7C513.6 574.4 508.8 575.5 504.9 573.4L318.3 471.1C313.2 468.3 312.1 461.2 316.1 456.9V456.9Z" fill="#2CA190"/>
<path d="M313 454.8L404.7 355.9C407.7 352.7 412.6 352.2 416.2 354.7L573.9 467.9C577.9 470.8 578.8 476.5 575.9 480.6L513.1 568.6C510.5 572.3 505.7 573.4 501.8 571.3L315.2 469C310.1 466.1 309 459.1 313 454.8V454.8Z" fill="#0DA487"/>
<path d="M415.9 390.4L434.8 405.1C438.4 407.9 438.7 413.3 435.4 416.4L408.3 442C405.6 444.5 401.5 444.7 398.6 442.4L380.3 428C376.8 425.2 376.5 419.9 379.7 416.8L406.1 390.9C408.7 388.3 412.9 388.1 415.9 390.4V390.4Z" fill="#FDD38D"/>
<path d="M433.1 404L427.3 409.5C425.9 410.8 424.1 411.5 422.4 411.5C420.8 411.5 419.3 411 418 409.9L415.8 408.3L400.7 422.4L402.8 424C404.3 425.1 405.3 426.9 405.4 428.8C405.6 430.7 404.9 432.6 403.5 433.9L396.5 440.9L395.3 439.7L402.3 432.7C403.3 431.7 403.8 430.3 403.7 428.9C403.6 427.5 402.9 426.2 401.8 425.4L394.5 419.9C392.6 418.5 390 418.7 388.3 420.3L380 427.8L378.9 426.6L387.1 419C389.5 416.8 393 416.7 395.5 418.6L399.3 421.4L414.4 407.2L413 406.1C411.5 404.9 410.5 403.2 410.3 401.3C410.1 399.3 410.6 397.4 411.8 395.9L416.2 390.6L417.5 391.7L413.2 397C412.2 398.2 411.8 399.6 412 401.1C412.2 402.5 412.9 403.8 414.1 404.8L419 408.6C421.2 410.2 424.1 410.1 426.1 408.2L431.9 402.7L433.1 404Z" fill="#0DA487"/>
<path d="M319.9 458.1C319.9 458.1 532.3 458.4 541.1 464.8C549.9 471.2 541.3 526.2 541.3 526.2C541.3 526.2 503.3 551.1 437.7 536.1C372.1 521.1 319.9 458.1 319.9 458.1V458.1Z" fill="#2CA190"/>
<path d="M537.6 517V749.8C537.6 757.7 531.2 764.2 523.3 764.2H179.5C171.6 764.2 165.1 757.7 165.1 749.8V517C165.1 509.1 171.6 502.7 179.5 502.7H523.3C531.2 502.7 537.6 509.1 537.6 517Z" fill="#D86048"/>
<path d="M541.1 517V749.8C541.1 757.7 534.7 764.2 526.8 764.2H523.3C531.2 764.2 537.6 757.7 537.6 749.8V517C537.6 509.1 531.2 502.7 523.3 502.7H526.8C534.7 502.7 541.1 509.1 541.1 517Z" fill="#F59681"/>
<path d="M534.2 485.7L524 602.4L520.7 602.2L168.5 580L173 502.7L178.2 462.6C179 455.9 184.4 450.8 190.8 450.2C191.6 450.067 192.433 450.034 193.3 450.1L520.8 470.2C528.9 470.7 534.9 477.7 534.2 485.7V485.7Z" fill="#1B355B"/>
<path d="M530.9 485.7L520.7 602.2L168.5 580L173 502.7L178.2 462.6C179 455.9 184.4 450.8 190.8 450.2L517.5 470.2C525.5 470.7 531.6 477.7 530.9 485.7V485.7Z" fill="#204B9E"/>
<path d="M222.6 502.7C222.6 507.2 224.3 511.4 227.1 514.6C223.9 517.4 219.7 519 215.2 519C205.1 519 197 510.9 197 500.9C197 490.9 205.1 482.7 215.2 482.7C220.6 482.7 225.5 485.1 228.9 489C225 492.3 222.6 497.2 222.6 502.7V502.7Z" fill="#FEFEFE"/>
<path opacity="0.5" d="M233.3 500.9C233.3 506.4 230.9 511.3 227.1 514.6C224.3 511.4 222.6 507.2 222.6 502.7C222.6 497.2 225 492.3 228.9 489C231.6 492.2 233.3 496.3 233.3 500.9V500.9Z" fill="#91B1DC"/>
<path d="M258.9 502.7C258.9 512.7 250.8 520.8 240.8 520.8C235.3 520.8 230.4 518.4 227.1 514.6C230.9 511.3 233.3 506.4 233.3 500.9C233.3 496.3 231.6 492.2 228.9 489C232 486.2 236.2 484.5 240.8 484.5C250.8 484.5 258.9 492.6 258.9 502.7V502.7Z" fill="#91B1DC"/>
<path d="M512.4 508L512.3 510.9C512.1 514.2 509.3 516.8 506 516.6L300.7 507.7C297.3 507.5 294.8 504.7 294.9 501.4L295 498.5C295.2 495.2 298 492.6 301.3 492.8L506.7 501.7C510 501.9 512.5 504.7 512.4 508V508Z" fill="#91B1DC"/>
<path d="M533.6 526.2H544.2C547.2 526.2 549.5 528.8 549.3 531.8L544 602.4H526.9L533.6 526.2Z" fill="#204B9E"/>
<path d="M530.7 526.2H541.3C544.3 526.2 546.6 528.8 546.4 531.8L541.1 602.4H524L530.7 526.2Z" fill="#1B355B"/>
<path d="M505.8 517V749.8C505.8 757.7 499.4 764.2 491.5 764.2H201.4C201.4 764.2 201.4 764.2 198.5 764.2H164.1C161.2 764.2 161.2 764.2 161.2 764.2H152.4C144.5 764.2 138 757.7 138 749.8V517C138 509.1 144.5 502.7 152.4 502.7H491.5C499.2 502.7 505.6 508.9 505.8 516.6C505.8 516.733 505.8 516.867 505.8 517Z" fill="#FDD38D"/>
<path d="M209.8 515.8C209.8 516.4 209.3 516.9 208.6 516.9H191.6C190.9 516.9 190.4 516.4 190.4 515.8C190.4 515.2 190.9 514.7 191.6 514.7H208.6C209.3 514.7 209.8 515.2 209.8 515.8ZM243.9 515.8C243.9 516.4 243.4 516.9 242.8 516.9H225.7C225.3 516.9 224.9 516.7 224.7 516.3C224.633 516.167 224.566 516 224.5 515.8C224.5 515.2 225.1 514.7 225.7 514.7H242.8C243.4 514.7 243.9 515.2 243.9 515.8ZM278 515.8C278 516.4 277.5 516.9 276.9 516.9H259.8C259.2 516.9 258.7 516.4 258.7 515.8C258.7 515.2 259.2 514.7 259.8 514.7H276.9C277.5 514.7 278 515.2 278 515.8ZM312.2 515.8C312.2 516.4 311.6 516.9 311 516.9H293.9C293.3 516.9 292.8 516.4 292.8 515.8C292.8 515.2 293.3 514.7 293.9 514.7H311C311.6 514.7 312.2 515.2 312.2 515.8ZM346.3 515.8C346.3 516.4 345.8 516.9 345.1 516.9H328.1C327.4 516.9 326.9 516.4 326.9 515.8C326.9 515.2 327.4 514.7 328.1 514.7H345.1C345.8 514.7 346.3 515.2 346.3 515.8ZM380.4 515.8C380.4 516.4 379.9 516.9 379.3 516.9H362.2C361.6 516.9 361 516.4 361 515.8C361 515.2 361.6 514.7 362.2 514.7H379.3C379.9 514.7 380.4 515.2 380.4 515.8ZM414.5 515.8C414.5 516.4 414 516.9 413.4 516.9H396.3C395.7 516.9 395.2 516.4 395.2 515.8C395.2 515.2 395.7 514.7 396.3 514.7H413.4C414 514.7 414.5 515.2 414.5 515.8ZM448.7 515.8C448.7 516.4 448.1 516.9 447.5 516.9H430.4C429.8 516.9 429.3 516.4 429.3 515.8C429.3 515.2 429.8 514.7 430.4 514.7H447.5C448.1 514.7 448.7 515.2 448.7 515.8ZM482.7 516.5C482.6 517 482.1 517.4 481.6 517.4C481.533 517.4 481.433 517.367 481.3 517.3C480.3 517.034 479.266 516.9 478.2 516.9H464.6C463.9 516.9 463.4 516.4 463.4 515.8C463.4 515.4 463.7 515 464 514.8C464.133 514.734 464.333 514.7 464.6 514.7H478.2C479.466 514.7 480.7 514.833 481.9 515.1C482.2 515.2 482.4 515.4 482.6 515.6C482.7 515.9 482.8 516.2 482.7 516.5V516.5ZM175.6 515.8C175.6 516.4 175.1 516.9 174.5 516.9H165.6C165.466 516.9 165.3 516.934 165.1 517C162.8 517 160.5 517.8 158.6 519.1C158.4 519.233 158.166 519.3 157.9 519.3C157.6 519.3 157.2 519.2 157 518.8C156.6 518.3 156.8 517.6 157.3 517.2C159.6 515.6 162.4 514.7 165.3 514.7C165.433 514.7 165.533 514.7 165.6 514.7H174.5C175.1 514.7 175.6 515.2 175.6 515.8V515.8ZM491.5 528.6L492.6 528.7V545.8C492.6 546.4 492.1 546.9 491.5 546.9C490.8 546.9 490.3 546.4 490.3 545.8V528.7C490.3 528.1 490.8 527.5 491.5 527.5C492.1 527.5 492.6 528 492.6 528.6H491.5ZM153.6 533.4V550.5C153.6 551.1 153.1 551.6 152.4 551.6C151.8 551.6 151.3 551.1 151.3 550.5V533.4C151.3 532.8 151.8 532.3 152.4 532.3C153.1 532.3 153.6 532.8 153.6 533.4ZM492.6 562.8V579.9C492.6 580.5 492.1 581 491.5 581C490.9 581 490.4 580.5 490.4 579.9V562.8C490.4 562.2 490.9 561.7 491.5 561.7C492.1 561.7 492.6 562.2 492.6 562.8ZM153.6 567.5V584.6C153.6 585.2 153.1 585.7 152.4 585.7C151.8 585.7 151.3 585.2 151.3 584.6V567.5C151.3 566.9 151.8 566.4 152.4 566.4C153.1 566.4 153.6 566.9 153.6 567.5ZM492.6 596.9V614C492.6 614.6 492.1 615.2 491.5 615.2C490.9 615.2 490.4 614.6 490.4 614V596.9C490.4 596.3 490.9 595.8 491.5 595.8C492.1 595.8 492.6 596.3 492.6 596.9ZM153.6 601.7V618.7C153.6 619.3 153.1 619.9 152.4 619.9C151.8 619.9 151.3 619.3 151.3 618.7V601.7C151.3 601 151.8 600.5 152.4 600.5C153.1 600.5 153.6 601 153.6 601.7ZM492.6 631.1V648.1C492.6 648.8 492.1 649.3 491.5 649.3C490.9 649.3 490.4 648.8 490.4 648.1V631.1C490.4 630.4 490.9 629.9 491.5 629.9C492.1 629.9 492.6 630.4 492.6 631.1ZM153.6 635.8V652.8C153.6 653.5 153.1 654 152.4 654C151.8 654 151.3 653.5 151.3 652.8V635.8C151.3 635.1 151.8 634.6 152.4 634.6C153.1 634.6 153.6 635.1 153.6 635.8ZM492.6 665.2V682.3C492.6 682.9 492.1 683.4 491.5 683.4C490.9 683.4 490.4 682.9 490.4 682.3V665.2C490.4 664.6 490.9 664.1 491.5 664.1C492.1 664.1 492.6 664.6 492.6 665.2ZM153.6 669.9V687C153.6 687.6 153.1 688.1 152.4 688.1C151.8 688.1 151.3 687.6 151.3 687V669.9C151.3 669.3 151.8 668.8 152.4 668.8C153.1 668.8 153.6 669.3 153.6 669.9ZM492.6 699.3V716.4C492.6 717 492.1 717.5 491.5 717.5C490.9 717.5 490.4 717 490.4 716.4V699.3C490.4 698.7 490.9 698.2 491.5 698.2C492.1 698.2 492.6 698.7 492.6 699.3ZM153.6 704V721.1C153.6 721.7 153.1 722.2 152.4 722.2C151.8 722.2 151.3 721.7 151.3 721.1V704C151.3 703.4 151.8 702.9 152.4 702.9C153.1 702.9 153.6 703.4 153.6 704ZM492.6 733.4V738.1C492.6 742.7 490.4 747 486.6 749.6C486.4 749.733 486.166 749.8 485.9 749.8C485.6 749.8 485.2 749.6 485 749.3C484.6 748.8 484.7 748.1 485.3 747.7C488.5 745.5 490.4 741.9 490.4 738.1V733.4C490.4 732.8 490.9 732.3 491.5 732.3C492.1 732.3 492.6 732.8 492.6 733.4V733.4ZM163.4 750.9C163.2 751.4 162.8 751.7 162.3 751.7C162.166 751.7 162.066 751.7 162 751.7C155.7 750.1 151.3 744.5 151.3 738.2C151.3 737.5 151.8 737 152.4 737C152.7 737 153 737.1 153.2 737.3C153.4 737.5 153.6 737.8 153.6 738.2C153.6 743.5 157.3 748.1 162.5 749.5C163.2 749.6 163.5 750.3 163.4 750.9V750.9ZM197.5 751C197.5 751.7 197 752.2 196.3 752.2H179.3C178.6 752.2 178.1 751.7 178.1 751C178.1 750.4 178.6 749.9 179.3 749.9H196.3C197 749.9 197.5 750.4 197.5 751ZM231.6 751C231.6 751.7 231.1 752.2 230.5 752.2H213.4C212.8 752.2 212.3 751.7 212.3 751C212.3 750.4 212.8 749.9 213.4 749.9H230.5C231.1 749.9 231.6 750.4 231.6 751ZM265.7 751C265.7 751.7 265.2 752.2 264.6 752.2H247.5C246.9 752.2 246.4 751.7 246.4 751C246.4 750.4 246.9 749.9 247.5 749.9H264.6C265.2 749.9 265.7 750.4 265.7 751ZM299.9 751C299.9 751.7 299.4 752.2 298.7 752.2H281.7C281 752.2 280.5 751.7 280.5 751C280.5 750.4 281 749.9 281.7 749.9H298.7C299.4 749.9 299.9 750.4 299.9 751ZM334 751C334 751.7 333.5 752.2 332.8 752.2H315.8C315.2 752.2 314.6 751.7 314.6 751C314.6 750.4 315.2 749.9 315.8 749.9H332.8C333.5 749.9 334 750.4 334 751ZM368.1 751C368.1 751.7 367.6 752.2 367 752.2H349.9C349.3 752.2 348.8 751.7 348.8 751C348.8 750.4 349.3 749.9 349.9 749.9H367C367.6 749.9 368.1 750.4 368.1 751ZM402.2 751C402.2 751.7 401.7 752.2 401.1 752.2H384C383.4 752.2 382.9 751.7 382.9 751C382.9 750.4 383.4 749.9 384 749.9H401.1C401.7 749.9 402.2 750.4 402.2 751ZM436.4 751C436.4 751.7 435.9 752.2 435.2 752.2H418.2C417.5 752.2 417 751.7 417 751C417 750.4 417.5 749.9 418.2 749.9H435.2C435.9 749.9 436.4 750.4 436.4 751ZM470.5 751C470.5 751.7 470 752.2 469.3 752.2H452.3C451.7 752.2 451.1 751.7 451.1 751C451.1 750.4 451.7 749.9 452.3 749.9H469.3C470 749.9 470.5 750.4 470.5 751Z" fill="#F59681"/>
<path d="M510.5 517V749.8C510.5 757.7 504.1 764.2 496.2 764.2H491.5C499.4 764.2 505.8 757.7 505.8 749.8V517C505.8 509.1 499.4 502.7 491.5 502.7H496.2C504.1 502.7 510.5 509.1 510.5 517Z" fill="#F59681"/>
<path d="M543 669.5H414.8C396.3 669.5 381.3 654.5 381.3 636C381.3 617.4 396.3 602.4 414.8 602.4H543C546.5 602.4 549.3 605.2 549.3 608.7V663.2C549.3 666.7 546.5 669.5 543 669.5V669.5Z" fill="#D86048"/>
<path d="M414.5 637.7C414.5 641.5 411.5 644.6 407.7 644.6C403.9 644.6 400.8 641.5 400.8 637.7C400.8 633.9 403.9 630.8 407.7 630.8C411.5 630.8 414.5 633.9 414.5 637.7Z" fill="#FDD38D"/>
<path d="M532 655.9H523.5C520.8 655.9 518.5 653.7 518.5 650.9V617.4C518.5 614.6 520.8 612.4 523.5 612.4H532C534.7 612.4 537 614.6 537 617.4V650.9C537 653.7 534.7 655.9 532 655.9Z" fill="#F59681"/>
<path d="M310.6 311.1C310.6 311.1 285.3 380.6 281.1 382.2C276.9 383.7 270.8 382.2 252.1 378C233.3 373.8 210 368 205 363.4C200.1 358.8 201.6 357.3 202.7 349.3C203.9 341.3 230.3 272.1 241 259.1C251.7 246.1 273.2 243.2 273.2 243.2C273.2 243.2 278.4 251.8 283.8 253.7C289.1 255.6 300.6 260.2 304.4 256.4C308.3 252.6 308.3 244.1 308.3 244.1L346.6 230L345.1 260.2L344.9 264.7C344.9 264.7 345.167 264.567 345.7 264.3C350.4 262.4 373.8 252.6 378.6 252.9C384 253.3 388.6 259.8 392 272.1C395.4 284.3 310.6 311.1 310.6 311.1V311.1Z" fill="#62C38E"/>
<path d="M345.7 264.3V264.8C345.7 264.8 302.9 280.5 291.4 278.2C280.1 275.9 269.6 265.1 269.3 264.8C269.7 265.1 288.9 277.4 307.5 274.4C324.4 271.6 341.8 262.1 345.1 260.2L344.9 264.7C344.9 264.7 345.166 264.567 345.7 264.3V264.3Z" fill="#0DA487"/>
<path d="M291.4 361.1C291.4 361.1 281.5 349.7 269.3 331.3C257 313 247.1 283.9 247.1 283.9C247.1 283.9 260.5 307.6 273.1 311.1C285.7 314.5 310.6 311.1 310.6 311.1L291.4 361.1Z" fill="#0DA487"/>
<path d="M317 226.2C313.3 230.7 306.5 230.8 306.5 230.8C306.5 230.8 306.5 230.8 306 233.7C305.4 236.6 307.8 243.2 307.8 243.2C307.8 243.2 312.9 253.5 307.8 259.4C302.6 265.3 302.9 259.8 293.1 257.8C283.3 255.8 269.4 250.3 272.2 245.7C275.1 241 272.8 233.2 272.8 231.2C272.8 229.2 270.6 227.8 272.6 225.3C274.5 222.8 274 219.2 273.5 216.9C272.9 214.6 272 215.3 267.4 212.6C262.8 210 258.7 202.1 264.9 196.2C271.2 190.3 276.9 199.1 276.9 199.1C276.9 199.1 279.4 201.2 281.5 204.6C283.7 208 283.3 203.9 283.3 202.3C283.3 200.7 286.7 200.7 283.5 195.1C280.3 189.6 289 179.6 294 180.2C299 180.7 308.8 172.5 308.8 172.5C308.8 172.5 316.1 182.5 316.9 185.9C317.6 189.3 315.6 190.7 318.1 195.9C320.6 201 320.8 221.7 317 226.2V226.2Z" fill="#F69E85"/>
<path d="M307.8 243.2C307.8 243.2 297.8 241.4 291.9 235.8C286.1 230.4 279.6 216.5 279.4 216C279.6 216.4 286.9 227.8 289.9 229.6C292.9 231.4 306.5 230.8 306.5 230.8C306.5 230.8 306.5 230.8 306 233.7C305.4 236.6 307.8 243.2 307.8 243.2V243.2Z" fill="#C63952"/>
<path d="M300.3 195.2C300.7 196.7 300.2 198.1 299.4 198.3C298.5 198.5 297.5 197.5 297.1 196C296.8 194.5 297.2 193.1 298 192.9C298.9 192.7 299.9 193.7 300.3 195.2Z" fill="#C63952"/>
<path d="M315.3 191.1C315.6 192.4 315.2 193.6 314.5 193.7C313.8 193.9 312.9 193 312.6 191.8C312.3 190.5 312.6 189.3 313.4 189.1C314.1 188.9 315 189.8 315.3 191.1Z" fill="#C63952"/>
<path d="M313.4 208.5C313.267 208.5 313.133 208.467 313 208.4C312.8 208.2 312.8 207.9 313 207.6C313.9 206.5 315.2 204.6 315.1 203.8C315 203.4 313.8 203 312.9 202.7C311.8 202.3 310.5 201.9 309.6 201.1C307.7 199.3 309.4 195.5 309.5 195.4C309.6 195.1 309.9 195 310.2 195.1C310.5 195.2 310.6 195.6 310.5 195.8C310 196.7 309.2 199.3 310.3 200.3C311 200.9 312.2 201.3 313.2 201.7C314.7 202.2 315.9 202.6 316.1 203.6C316.4 205.1 314.2 207.8 313.8 208.3C313.667 208.433 313.533 208.5 313.4 208.5V208.5Z" fill="#C63952"/>
<path d="M311.4 218.4C308.4 218.4 305.7 217.2 305.6 217.1C305.3 217 305.2 216.7 305.3 216.4C305.4 216.2 305.7 216 306 216.2C306 216.2 308.6 217.4 311.4 217.4C314.1 217.4 316.1 214.8 316.1 214.8C316.3 214.6 316.6 214.5 316.8 214.7C317.1 214.9 317.1 215.2 316.9 215.5C316.8 215.6 314.6 218.4 311.4 218.4V218.4Z" fill="#C63952"/>
<path d="M293 191.4C293.6 189.2 295.3 187.5 297.5 187C298.5 186.8 299 188.4 298 188.6C296.3 188.9 295 190.1 294.5 191.8C294.3 192.8 292.7 192.4 293 191.4V191.4Z" fill="#C63952"/>
<path d="M311.6 183.8C312.7 183.5 314 183.9 314.7 184.8C314.9 185.1 315 185.6 314.7 185.9C314.4 186.2 313.8 186.2 313.5 185.9C313.2 185.4 312.6 185.2 312.1 185.4C311.1 185.7 310.6 184.1 311.6 183.8V183.8Z" fill="#C63952"/>
<path d="M672.8 725.7V744C672.8 744.9 672.2 745.6 671.4 745.6H546.4C545.6 745.6 544.9 744.9 544.9 744V725.7C544.9 724.9 545.6 724.2 546.4 724.2H671.4C672.2 724.2 672.8 724.9 672.8 725.7Z" fill="#FDD38D"/>
<path d="M583 724.2V745.6H579.1V724.2H583Z" fill="#F59681"/>
<path d="M560.6 724.2V745.6H556.7V724.2H560.6Z" fill="#F59681"/>
<path d="M609.1 724.2V745.6H605.2V724.2H609.1Z" fill="#F59681"/>
<path d="M635.2 724.2V745.6H631.3V724.2H635.2Z" fill="#F59681"/>
<path d="M661.3 724.2V745.6H657.4V724.2H661.3Z" fill="#F59681"/>
<path d="M672.8 744.3V762.6C672.8 763.5 672.2 764.2 671.4 764.2H546.4C545.6 764.2 544.9 763.5 544.9 762.6V744.3C544.9 743.4 545.6 742.7 546.4 742.7H671.4C672.2 742.7 672.8 743.4 672.8 744.3Z" fill="#F59681"/>
<path d="M571.9 742.7V764.2H568V742.7H571.9Z" fill="#D86048"/>
<path d="M598 742.7V764.2H594.1V742.7H598Z" fill="#D86048"/>
<path d="M624.1 742.7V764.2H620.2V742.7H624.1Z" fill="#D86048"/>
<path d="M650.2 742.7V764.2H646.3V742.7H650.2Z" fill="#D86048"/>
<path d="M672.8 646.1V664.4C672.8 665.3 672.2 666 671.4 666H546.4C545.6 666 544.9 665.3 544.9 664.4V646.1C544.9 645.3 545.6 644.6 546.4 644.6H671.4C672.2 644.6 672.8 645.3 672.8 646.1Z" fill="#FDD38D"/>
<path d="M583 644.6V666H579.1V644.6H583Z" fill="#F59681"/>
<path d="M560.6 644.6V666H556.7V644.6H560.6Z" fill="#F59681"/>
<path d="M609.1 644.6V666H605.2V644.6H609.1Z" fill="#F59681"/>
<path d="M635.2 644.6V666H631.3V644.6H635.2Z" fill="#F59681"/>
<path d="M661.3 644.6V666H657.4V644.6H661.3Z" fill="#F59681"/>
<path d="M672.8 664.7V683C672.8 683.9 672.2 684.6 671.4 684.6H546.4C545.6 684.6 544.9 683.9 544.9 683V664.7C544.9 663.8 545.6 663.1 546.4 663.1H671.4C672.2 663.1 672.8 663.8 672.8 664.7Z" fill="#F59681"/>
<path d="M571.9 663.1V684.6H568V663.1H571.9Z" fill="#D86048"/>
<path d="M598 663.1V684.6H594.1V663.1H598Z" fill="#D86048"/>
<path d="M624.1 663.1V684.6H620.2V663.1H624.1Z" fill="#D86048"/>
<path d="M650.2 663.1V684.6H646.3V663.1H650.2Z" fill="#D86048"/>
<path d="M672.8 685.7V704C672.8 704.9 672.2 705.6 671.4 705.6H546.4C545.6 705.6 544.9 704.9 544.9 704V685.7C544.9 684.8 545.6 684.1 546.4 684.1H671.4C672.2 684.1 672.8 684.8 672.8 685.7Z" fill="#FDD38D"/>
<path d="M583 684.1V705.6H579.1V684.1H583Z" fill="#F59681"/>
<path d="M560.6 684.1V705.6H556.7V684.1H560.6Z" fill="#F59681"/>
<path d="M609.1 684.1V705.6H605.2V684.1H609.1Z" fill="#F59681"/>
<path d="M635.2 684.1V705.6H631.3V684.1H635.2Z" fill="#F59681"/>
<path d="M661.3 684.1V705.6H657.4V684.1H661.3Z" fill="#F59681"/>
<path d="M672.8 704.3V722.6C672.8 723.4 672.2 724.2 671.4 724.2H546.4C545.6 724.2 544.9 723.4 544.9 722.6V704.3C544.9 703.4 545.6 702.7 546.4 702.7H671.4C672.2 702.7 672.8 703.4 672.8 704.3Z" fill="#F59681"/>
<path d="M571.9 702.7V724.2H568V702.7H571.9Z" fill="#D86048"/>
<path d="M598 702.7V724.2H594.1V702.7H598Z" fill="#D86048"/>
<path d="M624.1 702.7V724.2H620.2V702.7H624.1Z" fill="#D86048"/>
<path d="M650.2 702.7V724.2H646.3V702.7H650.2Z" fill="#D86048"/>
<path d="M760.9 643.8C760.9 643.8 742.8 662 734.7 661.7C726.6 661.4 697.1 623.2 697.1 623.2L715.8 609.5C715.8 609.5 732.6 629.9 735 627.8C737.3 625.8 747.3 578 754.8 568.1C762.3 558.2 772.3 552.9 772.3 552.9L760.9 643.8Z" fill="#F59681"/>
<path d="M546.8 757.6C546.8 757.6 541.9 760.1 542.6 763.4C543.2 766.6 541.2 770 538.5 771.6C535.7 773.1 515.1 770 507.2 771.6C499.4 773.1 473.1 776.3 469.5 773.3C465.9 770.2 469.3 766.5 471.2 766.1C473.1 765.6 480.9 765.2 483.6 763.5C486.4 761.8 501.4 756.2 507.4 755.2C513.4 754.1 524.8 751.4 528.2 748.3C531.6 745.3 535.4 740.9 535.4 740.9L546.8 757.6Z" fill="#752236"/>
<path d="M548.5 771.6C548.5 771.6 543.5 774.2 544.2 777.4C544.9 780.7 542.9 784.1 540.1 785.6C537.4 787.2 516.7 784.1 508.9 785.6C501 787.2 474.7 790.4 471.1 787.3C467.5 784.3 471 780.6 472.8 780.1C474.7 779.7 482.6 779.3 485.3 777.6C488 775.9 503 770.3 509 769.2C515 768.2 526.5 765.5 529.9 762.4C533.3 759.3 537 754.9 537 754.9L548.5 771.6Z" fill="#C63952"/>
<path d="M814.5 736.8C814.5 736.8 757.5 746 727.1 736.9C696.7 727.7 680.3 692.1 678.3 689C676.2 685.9 672.8 686.9 631.8 716C590.8 745 548.1 758.6 544.7 758.6C541.3 758.6 531.4 746.4 531.8 740.5C532.1 734.7 681.3 646.3 685.7 643.9C690.1 641.5 748.2 668.9 748.2 668.9C760.9 670.6 814.5 736.8 814.5 736.8Z" fill="#1B355B"/>
<path d="M814.5 736.8C814.5 736.8 776.6 772 742.5 760.4C708.3 748.7 677.2 699.2 674.2 698.5C671.1 697.9 655.7 717 615.8 740.9C575.8 764.8 549.5 772.3 548.5 771.6C547.5 770.9 535.2 756.3 537.2 753.5C539.3 750.8 675.2 634.3 687.1 641.2C699.1 648 758.8 679.7 758.8 679.7C758.8 679.7 823.4 714.6 814.5 736.8V736.8Z" fill="#204B9E"/>
<path d="M792.2 445.5C801.4 445.2 823.4 455.2 826 467.2C828.5 479.3 833.9 477.7 845.2 482.1C856.5 486.5 868.2 501.3 861.3 516.4C854.4 531.5 856.7 527.7 873.8 535.6C890.8 543.6 880 562.5 872.3 573.5C864.7 584.6 878 587.9 872.3 606.6C866.7 625.3 854.4 621.2 840.6 621.7C826.7 622.2 821.6 609.4 827.5 590.5C833.4 571.7 806.5 556.9 792.9 561.5C779.4 566.1 771.4 555.6 771.4 548.4C771.4 541.3 761.9 537.9 755.8 530.5C749.6 523.1 744.3 506.2 747.7 500.5C751.1 494.9 749.9 478.3 753.7 467C757.6 455.7 771.4 451.6 771.4 451.6C771.4 451.6 782.9 445.7 792.2 445.5V445.5Z" fill="#0C1F3E"/>
<path d="M687.9 577.1L711.4 573.5L719.2 618.5L697.1 623.2L685.8 580.2C685.4 578.8 686.4 577.3 687.9 577.1Z" fill="#0C1F3E"/>
<path d="M842.2 608.4C839.1 614.5 834.7 616.6 832.3 619.6C832.3 619.667 832.3 619.7 832.3 619.7C830 623.1 835.7 664.2 834.3 690.3C833 716.6 819 735.1 814.5 736.8C810.1 738.5 801.6 714.3 784.8 701.3C768.1 688.3 750.3 672.2 750.3 672.2C747.6 669.8 747.4 666 748.2 661.7C749 657.5 750.7 652.9 751.7 648.7C753.4 641.6 751.4 625.8 749.3 613.4C748.8 610.7 748.4 608.2 747.9 606C745.5 593.4 759.9 569.8 763 561.6C766 553.4 778 551 778 551C778 551 778 553.4 779.4 558.2C780.7 563 789.3 561.9 793 557.2C796.8 552.4 809.8 542.1 812.8 542.1C815.9 542.1 838.1 544.2 844.6 554.4C851.1 564.7 845.3 602.2 842.2 608.4V608.4Z" fill="#FDD38D"/>
<path d="M832.3 619.6C832.3 619.667 832.3 619.7 832.3 619.7C831.6 620.5 820.8 633.8 803.4 644.2C785.5 655 748.2 661.7 748.2 661.7C749 657.5 750.7 652.9 751.7 648.7C753.4 641.6 751.4 625.8 749.3 613.4L832.3 619.6Z" fill="#F59681"/>
<path d="M785 599.2C755.7 607 749.7 591.7 749.7 591.7L751.2 587.6C751.2 587.6 782.1 592.9 797.6 584.8C813.1 576.8 822 563.6 822 563.6C832.2 575.9 814.2 591.3 785 599.2Z" fill="#F59681"/>
<path d="M832.3 619.6C832.3 619.6 827.2 626.5 806.7 628.9C786.2 631.3 731.9 621 727.1 619C722.3 616.9 725.7 599.8 728.8 594C731.9 588.2 788.9 595.4 802.6 592C812 589.6 817.8 575.3 820.6 566.6C822 561.9 826.4 558.6 831.4 558.7C862 559.1 832.3 619.6 832.3 619.6V619.6Z" fill="#FDD38D"/>
<path d="M720.8 593.2C722.4 595.3 723.1 595.3 725.7 595.8C727.3 596.1 729.8 596.3 730.9 597.8C732.2 599.7 726.4 611.6 726.4 611.6C726.4 611.6 717.5 607.9 712.8 610.3C708 612.6 695.5 612.8 693.5 611.8C691.4 610.8 689 600.5 689.9 597.8C690.7 595.1 696.9 597.8 699.9 597.8C703 597.8 702.3 594.9 700.1 592C698.8 590.3 707.1 590.5 707.8 590.6C710 590.7 713.6 590.5 716.6 591.1C718.3 591.5 719.9 592.1 720.8 593.2V593.2Z" fill="#C63952"/>
<path d="M778.2 490.4C779.2 490.2 772.5 485.3 770.6 483.4C768.8 481.5 778 489.4 785.7 492.6C793.4 495.8 805.8 492.9 806.8 493.3C807.9 493.6 808 492.3 811.3 490.9C814.5 489.5 818.8 496.7 817.8 501.3C816.8 505.9 812.8 509.7 811.7 510.5C810.6 511.4 813.2 517.4 811.7 520.8C810.2 524.2 808.6 526.9 807.7 527.8C806.8 528.8 805.5 532.4 807.5 537C809.6 541.6 811.7 542.4 811.7 542.4C811.7 542.4 805.3 556.5 799.8 563.6C794.4 570.7 782.1 571 776.5 568.4C770.8 565.9 774.1 553.9 778 551C781.9 548.1 780 541.4 780 541.4C780 541.4 776.1 541.8 774.2 541.4C772.4 541.1 767.1 533.4 765.2 528.8C763.3 524.2 760.6 519.4 762.3 515.8C764 512.2 762.3 509.7 759.9 504.4C757.5 499.1 763.1 485.8 763.1 485.8C767.1 488.8 777.1 490.6 778.2 490.4V490.4Z" fill="#C63952"/>
<path d="M780 541.4C780 541.4 788.4 540.8 793.7 537.9C799 535.1 804.3 529.2 804.3 529.2C804.3 529.2 785.5 554.5 783.5 552.9C781.4 551.3 780 541.4 780 541.4V541.4Z" fill="#752236"/>
<path d="M770.4 522.6C770.267 522.6 770.133 522.534 770 522.4C770 522.3 768.3 520 767.8 519C767.2 517.8 768.9 516.5 770.7 515.2C771.167 514.8 771.6 514.434 772 514.1C772.9 513.4 771.1 510.2 769.6 508.3C769.4 508.1 769.5 507.8 769.7 507.6C769.9 507.4 770.2 507.5 770.4 507.7C771.1 508.6 774.6 513.3 772.6 514.9C772.2 515.234 771.767 515.6 771.3 516C770.5 516.6 768.5 518.1 768.7 518.5C769.2 519.5 770.8 521.7 770.9 521.8C771 522 771 522.3 770.7 522.5C770.633 522.567 770.533 522.6 770.4 522.6V522.6Z" fill="#752236"/>
<path d="M773.7 531.5C771.3 531.5 769.1 529.7 769 529.6C768.8 529.4 768.8 529.1 769 528.9C769.2 528.7 769.5 528.7 769.7 528.8C769.7 528.9 772.5 531.1 774.7 530.3C777.2 529.4 779.7 527.4 779.7 527.4C779.9 527.2 780.3 527.3 780.4 527.5C780.6 527.7 780.6 528.1 780.4 528.2C780.2 528.3 777.7 530.3 775 531.3C774.6 531.433 774.167 531.5 773.7 531.5V531.5Z" fill="#752236"/>
<path d="M782.1 507.1C782.1 509.2 781.2 510.8 780 510.8C778.9 510.8 778 509.2 778 507.1C778 505.1 778.9 503.5 780 503.5C781.2 503.5 782.1 505.1 782.1 507.1Z" fill="#0C1F3E"/>
<path d="M767.5 508C767.5 509.8 766.7 511.3 765.8 511.3C764.9 511.3 764.2 509.8 764.2 508C764.2 506.2 764.9 504.8 765.8 504.8C766.7 504.8 767.5 506.2 767.5 508Z" fill="#0C1F3E"/>
<path d="M777.4 498.5C778.1 497.8 779.2 496.9 780.3 497.3C781.3 497.7 782.2 498.8 783 499.5C783.7 500.1 782.6 501.2 781.9 500.6C781.434 500.134 780.934 499.7 780.4 499.3C780 499 779.9 498.7 779.3 498.9C779 499 778.7 499.3 778.5 499.5C777.7 500.2 776.6 499.1 777.4 498.5V498.5Z" fill="#0C1F3E"/>
<path d="M760.9 500.8C761.6 499 763.7 497.9 765.6 498.6C766.5 499 766.1 500.5 765.2 500.1C764.1 499.7 762.8 500.1 762.4 501.3C762.1 502.2 760.6 501.8 760.9 500.8V500.8Z" fill="#0C1F3E"/>
<path d="M677.7 764.2C677.7 764.2 766.8 766.4 766.8 711.9C766.8 657.5 766.8 657.5 766.8 657.5H933V716.6C933 742.9 911.7 764.2 885.4 764.2H677.7Z" fill="#0DA487"/>
<path d="M913.5 716.2C912.4 742.9 890.5 764.2 863.6 764.2H749.9C749.9 764.2 792.3 756.1 792.3 724.7V716.2C804 713.2 812.6 702.6 812.6 690C812.6 685.1 811.3 680.5 809.1 676.6H896.8C894.5 680.5 893.2 685.1 893.2 690C893.2 702.6 901.8 713.2 913.5 716.2V716.2Z" fill="#AED9AB"/>
<path fill-rule="evenodd" clip-rule="evenodd" d="M168.7 667.4C168.7 667.4 160.3 650.2 157.4 643.1C154.5 635.9 154.8 635.6 156.9 635C159 634.3 160.9 634 160.9 634C160.9 634 152.1 627.9 151.5 620.1C150.8 612.2 151.6 611.9 153.5 611.5C155.4 611.2 159.5 610 159.5 610C159.5 610 153.6 608.1 153.5 604.1C153.5 600 173.2 562.7 179.5 567C185.9 571.3 194.1 584.6 196.6 598.8C199.1 613.1 199 612 197.6 613C196.2 614 190.2 615.8 191.1 616.2C191.9 616.6 197.1 617.9 197.7 620.9C198.3 623.9 192.3 634.8 190.6 637.5C189 640.3 186.8 642.8 186.8 642.8C186.8 642.8 183 641.1 183.2 641.8C183.3 642.4 185.5 648.3 184.9 650.1C184.3 651.8 168.7 667.4 168.7 667.4V667.4ZM176.2 616.2C178.7 614.5 175.1 605.7 173.4 602.7C173.2 602.367 173.034 602.134 172.9 602C170.4 598.7 164.3 593.5 161.2 599.7C157 608.1 174.3 617.4 176.2 616.2ZM172.3 628.2C174.8 625.7 163.3 618 163.3 618C163.3 618 159.6 613.7 158.5 619.8C157.4 626 169.8 630.7 172.3 628.2V628.2ZM172.3 637.8C172.3 637.8 165 632.5 164.7 637.6C164.5 642.7 173.2 640.2 172.3 637.8ZM193 604C194.5 600.2 191.1 593.6 187.9 597.6C187.9 597.6 180.9 607.8 182 612.8C183.1 617.7 191.4 607.8 193 604V604ZM190.9 626.4C191.5 625.1 192.3 623.2 191.7 621.8C190.9 619.5 189.3 619.5 187.7 620.7C184.2 623.2 180.7 630.9 184 632.2C186.6 633.2 189.8 628.5 190.9 626.4V626.4Z" fill="#317490"/>
<path d="M213 701.4C212 718.7 206.7 761.2 179.4 764V764.2C179.4 764.2 179.4 764.2 176.5 764.2C172.6 764.2 163.5 764.2 142.1 764.2C139.2 764.2 139.2 764.2 139.2 764.2V764C111.9 761.2 106.7 718.7 105.7 701.4C105.4 697.5 108.3 694.2 112 694.2H139.2H179.4H206.7C210.3 694.2 213.2 697.5 213 701.4Z" fill="#204B9E"/>
<path fill-rule="evenodd" clip-rule="evenodd" d="M164 676.6C164 676.6 164 659.7 165.3 649.6C166.5 639.5 167.1 639.3 169.9 639.9C172.8 640.5 175.2 641.4 175.2 641.4C175.2 641.4 168.9 628.6 173.3 619.2C177.6 609.8 178.7 609.8 181.1 610.7C183.5 611.5 189 612.7 189 612.7C189 612.7 183.4 606.8 186 602.1C188.5 597.3 235.3 567.1 239.9 576.1C244.4 585.1 245.3 605.8 239 623.8C232.8 641.9 233.3 640.6 231 640.8C228.8 641.1 220.8 639.3 221.4 640.3C222 641.3 227.3 646.2 226 650C224.7 653.9 210.9 662.5 207.2 664.6C203.5 666.7 199.3 668.1 199.3 668.1C199.3 668.1 196.1 663.8 195.8 664.7C195.6 665.5 194.3 673.7 192.5 675.3C190.7 677 164 676.6 164 676.6ZM204.3 630.6C208.3 630.4 209.8 617.9 209.7 613.3C209.7 612.834 209.667 612.467 209.6 612.2C208.8 606.8 205.2 596.8 197.6 602C187.4 609 201.4 630.9 204.3 630.6ZM192.1 642.1C196.6 640.8 188.3 624.5 188.3 624.5C188.3 624.5 186.7 617.1 181.5 623.5C176.3 629.9 187.6 643.4 192.1 642.1V642.1ZM185.8 653.1C185.8 653.1 180.8 642.3 177.3 648C173.7 653.7 185.3 656.5 185.8 653.1ZM231.5 627.4C235.7 624 236.1 614.2 229.8 616.8C229.8 616.8 215.1 624.1 213.2 630.5C211.3 636.9 227.3 630.8 231.5 627.4V627.4ZM214.6 651.9C216.2 650.8 218.3 649.2 218.6 647.2C219.1 643.9 217.2 643 214.6 643.3C209 643.9 200 650.5 202.9 654.1C205.3 657 212.1 653.7 214.6 651.9V651.9Z" fill="#0DA487"/>
<path fill-rule="evenodd" clip-rule="evenodd" d="M158.8 678.7C158.8 678.7 133.2 675 123 672.9C112.8 670.7 112.7 670.1 113.5 667.2C114.4 664.4 115.5 662.1 115.5 662.1C115.5 662.1 102 667.3 92.7002 662.1C83.5002 656.8 83.6002 655.7 84.7002 653.3C85.7002 651 87.5002 645.4 87.5002 645.4C87.5002 645.4 80.9002 650.6 76.3002 647.6C71.7002 644.6 44.9002 594.2 54.5002 590.4C64.1002 586.5 85.3002 587.4 103.1 595.4C121 603.3 119.7 602.7 119.8 605C119.8 607.3 117.3 615.3 118.4 614.8C119.5 614.2 124.9 609.3 128.7 610.9C132.6 612.5 140.1 627.5 142 631.4C143.8 635.4 144.9 639.7 144.9 639.7C144.9 639.7 140.2 642.7 141 643C141.9 643.3 150.1 645.3 151.7 647.3C153.2 649.3 158.8 678.7 158.8 678.7V678.7ZM107.1 631.4C107.1 627.3 94.6002 624.7 89.9002 624.4C89.3669 624.333 88.9669 624.3 88.7002 624.3C83.1002 624.7 72.7002 627.5 77.3002 635.7C83.5002 646.7 107.1 634.4 107.1 631.4V631.4ZM117.7 644.9C116.8 640.2 99.4002 647.2 99.4002 647.2C99.4002 647.2 91.7002 648.1 97.8002 654C103.9 659.8 118.6 649.6 117.7 644.9V644.9ZM128.4 652.2C128.4 652.2 116.9 656.4 122.4 660.5C127.9 664.6 131.8 653 128.4 652.2ZM106.1 603.3C103.1 598.8 93.1002 597.5 95.2002 604.2C95.2002 604.2 101.3 619.8 107.7 622.3C114.1 624.8 109.2 607.9 106.1 603.3ZM129.7 622.7C128.7 621 127.2 618.7 125.2 618.2C121.9 617.5 120.8 619.3 120.9 622C121 627.7 127 637.5 130.9 634.8C134.1 632.7 131.2 625.5 129.7 622.7V622.7Z" fill="#317490"/>
<path fill-rule="evenodd" clip-rule="evenodd" d="M156.7 667.4C156.7 667.4 129.2 665.8 118 657.5C106.9 649.1 107.1 648.4 110 645.7C112.9 643.1 115.8 641.1 115.8 641.1C115.8 641.1 95.7 639.1 87.7 627.9C79.6 616.7 80.5 615.6 83.3 613.6C86.2 611.6 92 606.4 92 606.4C92 606.4 80.5 608.4 76.8 602.4C73 596.4 72.5 524.9 86.8 526.2C101.1 527.6 126.6 540.7 143.6 560C160.5 579.2 159.3 577.7 157.9 580.3C156.5 582.9 148.2 590.4 149.9 590.4C151.6 590.4 161.5 588.1 165.1 592.1C168.8 596.1 168.5 617 168.2 622.5C167.9 627.9 166.5 633.4 166.5 633.4C166.5 633.4 158.8 633.9 159.6 634.8C160.5 635.7 169.4 642.6 169.9 645.7C170.5 648.9 156.7 667.4 156.7 667.4V667.4ZM125.2 602.2C127.9 597.7 114 587.5 108.5 584.5C107.9 584.167 107.4 583.9 107 583.7C100 580.9 85.2 577.9 85.6 589.8C86.2 605.6 123.2 605.6 125.2 602.2ZM129.6 623.3C131.5 617.6 105.5 615.3 105.5 615.3C105.5 615.3 95.4 611.9 99.1 621.9C102.8 631.9 127.7 629.1 129.6 623.3ZM138 637.7C138 637.7 121.2 635.7 125.4 643.4C129.5 651.1 141.7 640.5 138 637.7ZM142.1 570.6C141.3 563.7 129.8 556.5 128.1 565.1C128.1 565.1 125.6 586 131.8 592.5C138 599 143 577.5 142.1 570.6ZM158.7 605.8C158.6 603.2 158.2 599.8 156 598.1C152.5 595.4 149.9 596.7 148.3 599.8C144.8 606.3 145.9 620.6 152.4 619.9C157.7 619.3 158.8 609.7 158.7 605.8V605.8Z" fill="#62C38E"/>
<path d="M206.9 630.8C206.8 630.9 198.4 645.1 185.5 657.6C172.8 670.1 159.8 682.1 159.7 682.3V682.2C161.1 689.3 161.9 694 161.9 694.1L160.8 694.3C160.7 694 156.7 671.4 151.3 648.4C146 625.5 129.8 598.1 129.6 597.8L130.6 597.2C130.7 597.5 147 625.1 152.4 648.2C155.3 660.2 157.7 672.2 159.4 680.9C161.9 678.6 173.4 667.8 184.7 656.8C197.4 644.3 205.8 630.4 205.9 630.2L206.9 630.8Z" fill="#204B9E"/>
</g>
<defs>
<clipPath id="clip0_8_2">
<rect width="933" height="799" fill="white"/>
</clipPath>
</defs>
</svg>
