<svg width="109" height="33" viewBox="0 0 109 33" fill="none" xmlns="http://www.w3.org/2000/svg">
<path d="M104.976 32.9999H4.38874C2.17584 32.9999 0.365234 31.1864 0.365234 28.9698V4.78852C0.365234 2.57189 2.1758 0.758301 4.38874 0.758301H104.976C107.189 0.758301 109 2.57189 109 4.78852V28.9697C109 31.1864 107.189 32.9999 104.976 32.9999" fill="black"/>
<path d="M104.976 0.758301H4.38874C2.17584 0.758301 0.365234 2.57189 0.365234 4.78852V28.9697C0.365234 31.1864 2.1758 32.9999 4.38874 32.9999H104.976C107.189 32.9999 109 31.1864 109 28.9698V4.78852C109 2.57189 107.189 0.758301 104.976 0.758301H104.976ZM104.976 1.40311C106.84 1.40311 108.356 2.92205 108.356 4.78852V28.9697C108.356 30.8366 106.84 32.3555 104.976 32.3555H4.38874C2.5254 32.3555 1.009 30.8365 1.009 28.9698V4.78852C1.009 2.92205 2.52536 1.40315 4.38874 1.40315H104.976" fill="#A6A6A6"/>
<path d="M22.1808 16.7562C22.1902 16.0185 22.3847 15.2952 22.7461 14.6536C23.1075 14.012 23.624 13.4729 24.2477 13.0865C23.8515 12.5163 23.3288 12.047 22.7211 11.716C22.1135 11.3849 21.4376 11.2012 20.7471 11.1794C19.2743 11.0236 17.8464 12.0676 17.0958 12.0676C16.3308 12.0676 15.1752 11.1949 13.9308 11.2207C13.1259 11.247 12.3415 11.4828 11.654 11.9053C10.9665 12.3279 10.3993 12.9226 10.0077 13.6317C8.31134 16.5912 9.57668 20.9405 11.2016 23.3328C12.0145 24.5041 12.9646 25.8126 14.2079 25.7662C15.4245 25.7153 15.8789 24.9844 17.3473 24.9844C18.8023 24.9844 19.2286 25.7662 20.497 25.7367C21.8025 25.7153 22.625 24.5601 23.4094 23.3776C23.9936 22.5429 24.4431 21.6204 24.7412 20.6443C23.9828 20.321 23.3356 19.78 22.8803 19.0886C22.425 18.3972 22.1817 17.586 22.1808 16.7562ZM19.7849 9.60622C20.4967 8.74516 20.8474 7.6384 20.7624 6.521C19.675 6.63611 18.6705 7.15986 17.9491 7.98788C17.5964 8.39238 17.3263 8.86296 17.1541 9.37273C16.982 9.8825 16.9112 10.4215 16.9459 10.9588C17.4899 10.9644 18.028 10.8456 18.5198 10.6113C19.0115 10.377 19.4441 10.0333 19.785 9.60614L19.7849 9.60622ZM36.7767 22.9184H32.7843L31.8256 25.7711H30.1345L33.9161 15.2167H35.673L39.4545 25.7711H37.7347L36.7767 22.9184ZM33.1978 21.602H36.3624L34.8024 16.9723H34.7587L33.1978 21.602ZM47.6212 21.9241C47.6212 24.3153 46.3511 25.8516 44.4344 25.8516C43.9489 25.8772 43.466 25.7645 43.0411 25.5264C42.6162 25.2883 42.2664 24.9344 42.0318 24.5053H41.9955V28.3167H40.428V18.0761H41.9452V19.356H41.9741C42.2195 18.929 42.5752 18.5769 43.0033 18.3374C43.4315 18.0979 43.9161 17.9797 44.4056 17.9957C46.3436 17.9957 47.6212 19.5395 47.6212 21.924V21.9241ZM46.0101 21.9241C46.0101 20.3662 45.2111 19.3419 43.9921 19.3419C42.7944 19.3419 41.9889 20.3877 41.9889 21.924C41.9889 23.4745 42.7944 24.5129 43.9921 24.5129C45.2111 24.5129 46.0101 23.4961 46.0101 21.924V21.9241ZM56.0264 21.9241C56.0264 24.3153 54.7559 25.8516 52.8392 25.8516C52.3537 25.8772 51.8708 25.7645 51.4459 25.5264C51.021 25.2883 50.6712 24.9344 50.4365 24.5053H50.4003V28.3167H48.8328V18.0761H50.35V19.356H50.3789C50.6243 18.929 50.98 18.5769 51.4081 18.3374C51.8363 18.0979 52.3209 17.9797 52.8103 17.9957C54.7485 17.9957 56.0264 19.5395 56.0264 21.924V21.9241ZM54.4149 21.9241C54.4149 20.3662 53.6159 19.3419 52.3969 19.3419C51.1992 19.3419 50.3937 20.3877 50.3937 21.924C50.3937 23.4745 51.1992 24.5129 52.3969 24.5129C53.6159 24.5129 54.4149 23.4961 54.4149 21.924V21.9241ZM61.5805 22.8304C61.6966 23.877 62.7056 24.5643 64.0844 24.5643C65.4056 24.5643 66.3561 23.877 66.3561 22.9333C66.3561 22.114 65.7829 21.6236 64.4255 21.2874L63.0681 20.9579C61.1448 20.4898 60.2519 19.5834 60.2519 18.1126C60.2519 16.2916 61.8268 15.0408 64.0622 15.0408C66.2763 15.0408 67.7935 16.2916 67.8446 18.1126H66.2623C66.1676 17.0594 65.3034 16.4235 64.0408 16.4235C62.7781 16.4235 61.9141 17.0669 61.9141 18.003C61.9141 18.7493 62.4659 19.1883 63.8159 19.5244L64.9699 19.81C67.1189 20.3221 68.0109 21.192 68.0109 22.7357C68.0109 24.7103 66.4509 25.947 63.9683 25.947C61.6454 25.947 60.0772 24.7393 59.9759 22.8304L61.5805 22.8304ZM71.3954 16.2552V18.0761H72.8476V19.327H71.3954V23.5691C71.3954 24.2281 71.6861 24.5352 72.3245 24.5352C72.4969 24.5322 72.669 24.52 72.8401 24.4987V25.7421C72.5531 25.7961 72.2614 25.8205 71.9695 25.815C70.4235 25.815 69.8205 25.2299 69.8205 23.7376V19.327H68.7102V18.0761H69.8205V16.2552H71.3954ZM73.6877 21.9241C73.6877 19.5029 75.1028 17.9815 77.3095 17.9815C79.5235 17.9815 80.932 19.5029 80.932 21.9241C80.932 24.3518 79.5309 25.8665 77.3094 25.8665C75.0888 25.8665 73.6877 24.3518 73.6877 21.9241ZM79.3348 21.9241C79.3348 20.2632 78.5795 19.2829 77.3094 19.2829C76.0393 19.2829 75.284 20.2706 75.284 21.9241C75.284 23.5916 76.0393 24.5643 77.3094 24.5643C78.5795 24.5643 79.3348 23.5916 79.3348 21.9241ZM82.2242 18.0761H83.7192V19.3859H83.7555C83.8567 18.9768 84.0945 18.6153 84.429 18.3621C84.7635 18.109 85.1743 17.9795 85.5924 17.9957C85.773 17.995 85.9531 18.0148 86.1294 18.0546V19.532C85.9013 19.4618 85.6635 19.4295 85.4251 19.4365C85.1974 19.4272 84.9704 19.4677 84.7596 19.5551C84.5489 19.6426 84.3595 19.7749 84.2043 19.9431C84.0491 20.1113 83.9319 20.3113 83.8607 20.5295C83.7895 20.7477 83.766 20.9787 83.7918 21.2069V25.7711H82.2242V18.0761ZM93.3563 23.511C93.1454 24.9079 91.7954 25.8665 90.0682 25.8665C87.8467 25.8665 86.4678 24.3668 86.4678 21.9605C86.4678 19.5469 87.8541 17.9815 90.0023 17.9815C92.115 17.9815 93.4436 19.444 93.4436 21.7771V22.3183H88.0502V22.4137C88.0253 22.6969 88.0604 22.9822 88.1534 23.2507C88.2463 23.5191 88.3948 23.7646 88.5891 23.9707C88.7834 24.1769 89.019 24.339 89.2803 24.4464C89.5416 24.5537 89.8225 24.6038 90.1044 24.5934C90.4749 24.6283 90.8466 24.5419 91.1643 24.3469C91.482 24.1518 91.7288 23.8587 91.8679 23.511H93.3563ZM88.0576 21.2144H91.8754C91.8894 20.9598 91.8511 20.7049 91.7628 20.4659C91.6745 20.2269 91.5382 20.0089 91.3623 19.8255C91.1864 19.6421 90.9748 19.4973 90.7408 19.4002C90.5068 19.3032 90.2553 19.2559 90.0023 19.2614C89.747 19.2598 89.494 19.3092 89.2578 19.4068C89.0216 19.5043 88.8069 19.648 88.6261 19.8296C88.4453 20.0111 88.302 20.227 88.2044 20.4647C88.1068 20.7024 88.0569 20.9572 88.0576 21.2144ZM33.0018 7.27241C33.3304 7.24865 33.6602 7.29867 33.9673 7.41888C34.2744 7.53909 34.5512 7.72649 34.7777 7.96755C35.0043 8.20862 35.1749 8.49735 35.2773 8.81291C35.3797 9.12847 35.4113 9.46299 35.3698 9.79235C35.3698 11.4125 34.5008 12.3438 33.0018 12.3438H31.1839V7.27233L33.0018 7.27241ZM31.9656 11.6266H32.9145C33.1493 11.6407 33.3843 11.6019 33.6023 11.513C33.8204 11.4241 34.016 11.2873 34.175 11.1126C34.334 10.9378 34.4523 10.7296 34.5213 10.503C34.5904 10.2764 34.6084 10.0371 34.5741 9.80264C34.6059 9.56906 34.5861 9.33127 34.516 9.10633C34.4459 8.88139 34.3273 8.67486 34.1686 8.50154C34.01 8.32821 33.8153 8.19238 33.5985 8.10379C33.3817 8.01519 33.1481 7.97601 32.9145 7.98907H31.9656V11.6266ZM36.2528 10.4285C36.2289 10.177 36.2575 9.92325 36.3366 9.68351C36.4158 9.44377 36.5438 9.22335 36.7124 9.03638C36.8811 8.84941 37.0866 8.70002 37.3159 8.59779C37.5452 8.49557 37.7932 8.44276 38.0439 8.44276C38.2946 8.44276 38.5426 8.49557 38.7719 8.59779C39.0012 8.70002 39.2067 8.84941 39.3754 9.03638C39.544 9.22335 39.672 9.44377 39.7511 9.68351C39.8303 9.92325 39.8588 10.177 39.8349 10.4285C39.8593 10.6803 39.8312 10.9345 39.7523 11.1747C39.6734 11.4148 39.5455 11.6357 39.3768 11.8231C39.2081 12.0105 39.0024 12.1603 38.7728 12.2627C38.5433 12.3652 38.295 12.4182 38.0439 12.4182C37.7928 12.4182 37.5445 12.3652 37.315 12.2627C37.0854 12.1603 36.8797 12.0105 36.711 11.8231C36.5423 11.6357 36.4144 11.4148 36.3355 11.1747C36.2566 10.9345 36.2284 10.6803 36.2528 10.4285ZM39.064 10.4285C39.064 9.59891 38.6942 9.11377 38.0452 9.11377C37.3936 9.11377 37.0271 9.59891 37.0271 10.4285C37.0271 11.2648 37.3937 11.7462 38.0452 11.7462C38.6942 11.7462 39.064 11.2614 39.064 10.4285ZM44.5967 12.3437H43.819L43.0341 9.52505H42.9748L42.1932 12.3437H41.4231L40.3762 8.51653H41.1364L41.8168 11.4369H41.8728L42.6537 8.51653H43.3727L44.1536 11.4369H44.2128L44.8899 8.51653H45.6395L44.5967 12.3437ZM46.5199 8.51662H47.2415V9.12457H47.2975C47.3925 8.90619 47.5528 8.72313 47.7559 8.60089C47.9591 8.47866 48.1951 8.42335 48.4309 8.44267C48.6157 8.42868 48.8013 8.45676 48.9738 8.52484C49.1464 8.59291 49.3016 8.69924 49.4278 8.83595C49.5541 8.97265 49.6482 9.13622 49.7032 9.31455C49.7582 9.49288 49.7726 9.6814 49.7455 9.86613V12.3437H48.9959V10.0558C48.9959 9.44082 48.7307 9.13494 48.1764 9.13494C48.0509 9.12906 47.9257 9.15058 47.8092 9.19804C47.6928 9.24549 47.5879 9.31775 47.5018 9.40987C47.4156 9.50198 47.3503 9.61178 47.3102 9.73172C47.2701 9.85167 47.2562 9.97893 47.2695 10.1048V12.3437H46.5199V8.51662ZM50.9398 7.02254H51.6893V12.3437H50.9398V7.02254ZM52.7313 10.4285C52.7074 10.177 52.736 9.92318 52.8151 9.68341C52.8943 9.44364 53.0223 9.22319 53.191 9.03619C53.3596 8.8492 53.5652 8.69979 53.7945 8.59755C54.0239 8.49531 54.2718 8.44249 54.5226 8.44249C54.7734 8.44249 55.0214 8.49531 55.2507 8.59755C55.48 8.69979 55.6856 8.8492 55.8543 9.03619C56.0229 9.22319 56.1509 9.44364 56.2301 9.68341C56.3093 9.92318 56.3378 10.177 56.3139 10.4285C56.3382 10.6803 56.3099 10.9344 56.231 11.1745C56.152 11.4146 56.024 11.6354 55.8553 11.8227C55.6866 12.01 55.4809 12.1597 55.2514 12.2621C55.0219 12.3645 54.7736 12.4175 54.5226 12.4175C54.2716 12.4175 54.0233 12.3645 53.7938 12.2621C53.5643 12.1597 53.3586 12.01 53.1899 11.8227C53.0212 11.6354 52.8932 11.4146 52.8143 11.1745C52.7353 10.9344 52.707 10.6803 52.7313 10.4285ZM55.5425 10.4285C55.5425 9.59891 55.1727 9.11377 54.5236 9.11377C53.8721 9.11377 53.5056 9.59891 53.5056 10.4285C53.5056 11.2648 53.8722 11.7462 54.5236 11.7462C55.1727 11.7462 55.5425 11.2614 55.5425 10.4285ZM57.103 11.2614C57.103 10.5725 57.612 10.1753 58.5156 10.1189L59.5443 10.0591V9.72878C59.5443 9.32456 59.2791 9.09635 58.7668 9.09635C58.3484 9.09635 58.0584 9.25112 57.9753 9.52174H57.2496C57.3261 8.86432 57.9398 8.44276 58.8014 8.44276C59.7536 8.44276 60.2906 8.92042 60.2906 9.72878V12.3437H59.569V11.8059H59.5097C59.3894 11.9988 59.2203 12.1561 59.0199 12.2617C58.8195 12.3672 58.5949 12.4173 58.369 12.4068C58.2095 12.4235 58.0484 12.4064 57.8959 12.3565C57.7435 12.3066 57.6031 12.2251 57.4838 12.1172C57.3645 12.0092 57.269 11.8773 57.2034 11.73C57.1378 11.5826 57.1036 11.423 57.103 11.2614ZM59.5443 10.9344V10.6144L58.6169 10.6741C58.0938 10.7094 57.8566 10.8888 57.8566 11.2261C57.8566 11.5706 58.1531 11.7711 58.5609 11.7711C58.6803 11.7833 58.801 11.7711 58.9157 11.7353C59.0305 11.6995 59.1369 11.6409 59.2286 11.5628C59.3204 11.4848 59.3956 11.3889 59.4498 11.2809C59.5041 11.173 59.5362 11.0551 59.5443 10.9344ZM61.2757 10.4285C61.2757 9.21917 61.8926 8.45313 62.8522 8.45313C63.0896 8.4421 63.3252 8.49939 63.5314 8.61829C63.7377 8.73719 63.9061 8.91279 64.0169 9.12457H64.0729V7.02245H64.8224V12.3437H64.1042V11.7389H64.0449C63.9255 11.9493 63.7513 12.1227 63.541 12.2404C63.3308 12.3581 63.0926 12.4156 62.8523 12.4067C61.8861 12.4067 61.2757 11.6406 61.2757 10.4284V10.4285ZM62.05 10.4285C62.05 11.2402 62.4297 11.7287 63.0647 11.7287C63.6964 11.7287 64.0869 11.2332 64.0869 10.4318C64.0869 9.63418 63.6924 9.13162 63.0647 9.13162C62.4338 9.13162 62.05 9.62339 62.05 10.4285ZM67.9236 10.4285C67.8997 10.177 67.9283 9.92325 68.0074 9.68351C68.0866 9.44377 68.2146 9.22335 68.3832 9.03638C68.5518 8.84941 68.7574 8.70002 68.9867 8.59779C69.216 8.49557 69.4639 8.44276 69.7147 8.44276C69.9654 8.44276 70.2134 8.49557 70.4426 8.59779C70.6719 8.70002 70.8775 8.84941 71.0461 9.03638C71.2148 9.22335 71.3428 9.44377 71.4219 9.68351C71.5011 9.92325 71.5296 10.177 71.5057 10.4285C71.5301 10.6803 71.502 10.9345 71.4231 11.1747C71.3441 11.4148 71.2162 11.6357 71.0476 11.8231C70.8789 12.0105 70.6731 12.1603 70.4436 12.2627C70.214 12.3652 69.9657 12.4182 69.7147 12.4182C69.4636 12.4182 69.2153 12.3652 68.9857 12.2627C68.7562 12.1603 68.5505 12.0105 68.3818 11.8231C68.2131 11.6357 68.0852 11.4148 68.0063 11.1747C67.9274 10.9345 67.8992 10.6803 67.9236 10.4285ZM70.7348 10.4285C70.7348 9.59891 70.365 9.11377 69.7159 9.11377C69.0644 9.11377 68.6979 9.59891 68.6979 10.4285C68.6979 11.2648 69.0645 11.7462 69.7159 11.7462C70.365 11.7462 70.7348 11.2614 70.7348 10.4285ZM72.5114 8.51662H73.233V9.12457H73.289C73.384 8.90619 73.5443 8.72313 73.7475 8.60089C73.9506 8.47866 74.1866 8.42335 74.4224 8.44267C74.6072 8.42868 74.7928 8.45676 74.9654 8.52484C75.1379 8.59291 75.2931 8.69924 75.4193 8.83595C75.5456 8.97265 75.6397 9.13622 75.6947 9.31455C75.7497 9.49288 75.7641 9.6814 75.737 9.86613V12.3437H74.9875V10.0558C74.9875 9.44082 74.7222 9.13494 74.1679 9.13494C74.0424 9.12906 73.9172 9.15058 73.8007 9.19804C73.6843 9.24549 73.5794 9.31775 73.4933 9.40987C73.4072 9.50198 73.3418 9.61178 73.3017 9.73172C73.2616 9.85167 73.2477 9.97893 73.261 10.1048V12.3437H72.5115L72.5114 8.51662ZM79.9724 7.56377V8.53404H80.7953V9.17021H79.9724V11.1381C79.9724 11.539 80.1363 11.7146 80.5094 11.7146C80.6049 11.7143 80.7003 11.7084 80.7952 11.6971V12.3263C80.6606 12.3506 80.5242 12.3635 80.3875 12.3649C79.554 12.3649 79.222 12.0694 79.222 11.3316V9.17021H78.6191V8.53396H79.222V7.56385L79.9724 7.56377ZM81.819 7.02254H82.562V9.13162H82.6213C82.7209 8.91121 82.8856 8.72711 83.0928 8.60442C83.3001 8.48173 83.5398 8.4264 83.7794 8.44599C83.9632 8.43591 84.147 8.46683 84.3176 8.53657C84.4882 8.6063 84.6415 8.71312 84.7664 8.8494C84.8913 8.98569 84.9849 9.14808 85.0404 9.32499C85.0959 9.50189 85.1119 9.68896 85.0874 9.87284V12.3437H84.3371V10.0591C84.3371 9.44779 84.0545 9.13825 83.5249 9.13825C83.3961 9.12761 83.2665 9.14546 83.1452 9.19056C83.024 9.23565 82.9139 9.3069 82.8229 9.39932C82.7318 9.49173 82.6618 9.60309 82.6179 9.72559C82.574 9.84809 82.5572 9.97879 82.5686 10.1085V12.3437H81.819V7.02254ZM89.4579 11.3103C89.356 11.6601 89.1354 11.9627 88.8345 12.1651C88.5337 12.3675 88.1718 12.4569 87.8121 12.4176C87.5619 12.4243 87.3132 12.376 87.0834 12.2761C86.8536 12.1762 86.648 12.0271 86.4811 11.8391C86.3142 11.6512 86.1898 11.4289 86.1167 11.1877C86.0436 10.9464 86.0235 10.6921 86.0577 10.4422C86.0243 10.1916 86.0448 9.93664 86.1178 9.69468C86.1907 9.45272 86.3144 9.22937 86.4805 9.03977C86.6465 8.85017 86.8511 8.69873 87.0802 8.59571C87.3094 8.4927 87.5579 8.44051 87.8088 8.44267C88.8656 8.44267 89.5032 9.17021 89.5032 10.372V10.6356H86.8213V10.6779C86.8095 10.8183 86.827 10.9597 86.8727 11.0929C86.9183 11.2261 86.9911 11.3483 87.0863 11.4515C87.1816 11.5547 87.2971 11.6368 87.4257 11.6924C87.5542 11.7479 87.6929 11.7759 87.8327 11.7743C88.012 11.796 88.1937 11.7635 88.3546 11.6808C88.5155 11.5982 88.6483 11.4692 88.7363 11.3103H89.4579ZM86.8213 10.077H88.7396C88.749 9.94855 88.7317 9.81953 88.6887 9.69823C88.6457 9.57693 88.5781 9.46604 88.49 9.37267C88.402 9.2793 88.2955 9.20552 88.1775 9.15608C88.0595 9.10663 87.9325 9.08261 87.8047 9.08556C87.6751 9.08391 87.5464 9.10844 87.4263 9.15768C87.3063 9.20693 87.1972 9.27991 87.1055 9.3723C87.0139 9.4647 86.9415 9.57466 86.8927 9.69568C86.8438 9.81671 86.8196 9.94636 86.8213 10.077Z" fill="white"/>
</svg>
