<?xml version="1.0" encoding="iso-8859-1"?>
<!-- Generator: Adobe Illustrator 19.0.0, SVG Export Plug-In . SVG Version: 6.00 Build 0)  -->
<svg version="1.1" id="Layer_1" xmlns="http://www.w3.org/2000/svg" xmlns:xlink="http://www.w3.org/1999/xlink" x="0px" y="0px"
	 viewBox="0 0 512.001 512.001" style="enable-background:new 0 0 512.001 512.001;" xml:space="preserve">
<g>
	<g>
		<path d="M256,229.498c-6.096,0-11.043,4.947-11.043,11.043c0,6.107,4.947,11.043,11.043,11.043s11.043-4.936,11.043-11.043
			C267.042,234.445,262.095,229.498,256,229.498z"/>
	</g>
</g>
<g>
	<g>
		<path d="M146.469,0c-6.095,0-11.043,4.947-11.043,11.043c0,6.107,4.947,11.043,11.043,11.043c6.096,0,11.043-4.936,11.043-11.043
			C157.511,4.947,152.564,0,146.469,0z"/>
	</g>
</g>
<g>
	<g>
		<path d="M256,266.314c-6.096,0-11.043,4.947-11.043,11.043c0,6.096,4.947,11.043,11.043,11.043s11.043-4.947,11.043-11.043
			C267.042,271.261,262.095,266.314,256,266.314z"/>
	</g>
</g>
<g>
	<g>
		<path d="M384.814,184.615c0.208-0.453,0.383-0.915,0.526-1.385c2.701-5.949,4.439-12.241,5.168-18.73
			c2.934-26.049-1.768-50.512-13.932-72.775V11.043C376.575,4.945,371.631,0,365.532,0S354.49,4.945,354.49,11.043v72.391
			c-9.784,0.473-24.39,2.435-39.959,8.961c-19.396,8.131-43.211,24.714-58.53,58.496c-15.319-33.781-39.134-50.364-58.53-58.496
			c-15.568-6.526-30.175-8.486-39.959-8.959V44.35c0-6.098-4.944-11.043-11.043-11.043s-11.043,4.945-11.043,11.043v47.375
			c-12.166,22.263-16.866,46.726-13.934,72.773c0.73,6.492,2.467,12.784,5.168,18.733c0.142,0.469,0.318,0.932,0.526,1.385
			c38.038,83.048,18.651,128.083,4.493,160.966c-5.634,13.087-10.498,24.386-10.498,35.675v32.885
			c0,5.444,3.983,10.077,9.363,10.914c0.829,0.128,83.265,13.668,104.353,79.281c1.469,4.567,5.716,7.664,10.514,7.664h21.18
			c4.797,0,9.045-3.097,10.514-7.664c21.088-65.613,103.524-79.153,104.337-79.279c5.394-0.822,9.378-5.459,9.378-10.917v-32.885
			c0-11.289-4.865-22.589-10.498-35.675C366.163,312.698,346.775,267.663,384.814,184.615z M358.806,105.342
			c8.753,17.4,12.034,36.44,9.754,56.689c-0.515,4.578-1.808,9.004-3.844,13.156c-0.152,0.31-0.287,0.627-0.409,0.946
			c-0.005,0.014-0.012,0.028-0.018,0.042c-6.008,16.037-28.981,28.728-53.436,29.52c-9.646,0.293-32.435-1.158-43.215-20.342
			C284.939,111.731,340.792,105.414,358.806,105.342z M147.71,176.175c-0.005-0.014-0.012-0.028-0.018-0.041
			c-0.121-0.319-0.255-0.636-0.409-0.946c-2.036-4.152-3.329-8.579-3.844-13.158c-2.278-20.224,0.993-39.243,9.725-56.627
			c7.349,0.092,21.123,1.222,35.768,7.362c28.282,11.854,46.917,36.266,55.429,72.587c-10.779,19.187-33.568,20.647-43.216,20.344
			C176.691,204.903,153.718,192.213,147.71,176.175z M327.097,420.223c-33.077,16.385-56.521,40.369-68.26,69.691h-5.676
			c-11.738-29.322-35.183-53.306-68.26-69.691c-16.728-8.286-32.208-12.815-41.636-15.072v-23.896
			c0-6.737,4.031-16.099,8.698-26.941c12.35-28.689,29.927-69.532,11.611-135.023c11.399,5.092,24.216,8.068,36.855,8.477
			c1.029,0.033,2.051,0.05,3.067,0.05c21.723,0,40.236-7.588,52.502-21.083c12.265,13.494,30.777,21.083,52.502,21.083
			c1.014,0,2.04-0.017,3.067-0.05c12.638-0.41,25.456-3.385,36.855-8.477c-18.314,65.491-0.739,106.334,11.611,135.023
			c4.668,10.842,8.698,20.205,8.698,26.941v23.896h0.002C359.305,407.408,343.826,411.938,327.097,420.223z"/>
	</g>
</g>
<g>
</g>
<g>
</g>
<g>
</g>
<g>
</g>
<g>
</g>
<g>
</g>
<g>
</g>
<g>
</g>
<g>
</g>
<g>
</g>
<g>
</g>
<g>
</g>
<g>
</g>
<g>
</g>
<g>
</g>
</svg>
