<?xml version="1.0" encoding="iso-8859-1"?>
<!-- Generator: Adobe Illustrator 19.0.0, SVG Export Plug-In . SVG Version: 6.00 Build 0)  -->
<svg version="1.1" id="Layer_1" xmlns="http://www.w3.org/2000/svg" xmlns:xlink="http://www.w3.org/1999/xlink" x="0px" y="0px"
	 viewBox="0 0 511.961 511.961" style="enable-background:new 0 0 511.961 511.961;" xml:space="preserve">
<g>
	<g>
		<path d="M511.02,165.58c-2.453-5.44-61.653-133.653-180.373-133.653c-4.8,0-9.067,3.2-10.24,7.893
			c-0.64,2.24-16.107,56.107-64.427,56.107S192.193,42.06,191.553,39.82c-1.28-4.693-5.44-7.893-10.24-7.893
			C62.594,31.927,3.394,160.14,0.94,165.58c-1.92,4.267-0.853,9.387,2.773,12.48L78.38,242.7c4.48,3.84,11.2,3.413,15.04-1.067
			c0.213-0.213,0.32-0.427,0.427-0.533l12.8-17.067v245.333c0,5.867,4.8,10.667,10.667,10.667h277.333
			c5.867,0,10.667-4.8,10.667-10.667v-245.44l12.8,17.067c3.52,4.693,10.24,5.653,14.933,2.133c0.213-0.107,0.427-0.32,0.533-0.427
			l74.667-64.64C511.874,174.967,512.94,169.954,511.02,165.58z M428.354,219.02l-25.173-33.493
			c-3.84-5.12-11.307-5.76-16.107-1.173c-2.133,2.027-3.093,4.907-3.093,7.893v266.347h-256V192.14c0-4.48-2.667-8.747-6.933-10.24
			c-4.587-1.707-9.493,0-12.267,3.627L83.607,219.02l-59.733-51.627c13.44-25.173,64.427-109.12,149.76-113.92
			c9.707,25.707,35.733,63.787,82.347,63.787s72.64-38.08,82.347-63.787c85.333,4.8,136.32,88.853,149.76,113.92L428.354,219.02z"/>
	</g>
</g>
<g>
</g>
<g>
</g>
<g>
</g>
<g>
</g>
<g>
</g>
<g>
</g>
<g>
</g>
<g>
</g>
<g>
</g>
<g>
</g>
<g>
</g>
<g>
</g>
<g>
</g>
<g>
</g>
<g>
</g>
</svg>
