<svg version="1.2" xmlns="http://www.w3.org/2000/svg" viewBox="0 0 512 512" width="512" height="512">
	<title>New Project</title>
	<style>
		.s0 {
			fill: #000000
		}
	</style>
	<path id="Layer" fill-rule="evenodd" class="s0"
		d="m510 477.4c1.3 1.2 2 2.8 2 4.5 0 1.7-0.7 3.3-2 4.4-1.3 1.1-3 1.7-4.6 1.5h-500.9c-3-0.4-5.2-2.9-5.2-5.9 0-3 2.2-5.5 5.2-5.9h31.7v-445c0-3.2 2.6-5.8 5.8-5.8h25.1c1.6 0 3.1 0.6 4.2 1.8 1.1 1.1 1.7 2.7 1.6 4.3v44.5h25.9v-3.7c0-5.7 2.3-11.3 6.4-15.3 4.2-4 9.8-6.3 15.5-6.2h18.8c5.7 0.1 11.2 2.3 15.2 6.4 4 4 6.3 9.4 6.3 15.1v3.1h275.9v-44.2c0-3.2 2.7-5.8 5.9-5.8h25c1.6 0 3.1 0.6 4.2 1.8 1.1 1.1 1.8 2.7 1.7 4.3v444.7h31.6c1.7-0.2 3.4 0.3 4.7 1.4zm-437.1-264.9v88.7h25.9v-3.6c0-5.8 2.3-11.3 6.4-15.4 4.2-4 9.8-6.2 15.5-6.1h18.8c5.7 0 11.2 2.3 15.2 6.3 4 4 6.3 9.5 6.3 15.2v2.9h138.2v-18.8q-0.1-0.3 0-0.6v-68.6zm238.4 0v13.3h88v-13.3zm99.7 0v88.4h25.8v-88.4zm-338.1 213.6h125.7v-113.4h-125.7zm75.2-128.6c0-2.5-1-4.9-2.8-6.6-1.8-1.8-4.1-2.8-6.6-2.8h-18.8c-5.2 0-9.4 4.2-9.4 9.4v3.4h38.4zm62.6 128.6h226.2v-113.5h-226.2zm100.6-150.4h88.4v-13.2h-88.4zm88.4-38.2h-88.4v13h88zm-88.3 63.4h88.3v-13.4h-88.3zm-238.4 175.1h363.9v-38.3h-363.5zm137.7-275.3h226.2v-113.4h-226.2zm-100.2-124.9h37.6v-3.7c0-2.5-1-4.9-2.8-6.6-1.7-1.8-4.1-2.8-6.6-2.8h-18.8c-5.2 0-9.4 4.2-9.4 9.4zm-37.5 11.5v113.4h125.6v-113.4zm-24.6 388.7h13.3v-438.8h-13.3zm400.7 0h12.6v-438.8h-12.6z" />
</svg>