<svg version="1.2" xmlns="http://www.w3.org/2000/svg" viewBox="0 0 512 512" width="512" height="512">
	<title>New Project</title>
	<style>
		.s0 { fill: #000000 } 
	</style>
	<g id="Layer">
		<path id="Layer" fill-rule="evenodd" class="s0" d="m332.3 120c75.8 30.1 129.5 103.6 129.5 189.3 0 112.4-92.3 203.9-205.8 203.9-113.5 0-205.8-91.5-205.8-203.9 0-85.7 53.7-159.2 129.5-189.3v-36.3c0-13.5 9.5-24.9 22.3-27.7-0.1-1.2-0.2-2.4-0.2-3.5 0-29.6 24.3-53.7 54.2-53.7 29.8 0 54.1 24.1 54.1 53.7 0 1.1 0 2.3-0.1 3.5 12.8 2.8 22.3 14.2 22.3 27.7v36.3zm-117.6-67.5c0 0.9 0.2 1.8 0.2 2.7h82.1c0.1-0.9 0.3-1.8 0.3-2.7 0-22.5-18.6-40.8-41.3-40.8-22.8 0-41.3 18.3-41.3 40.8zm-22.2 62.8c20-6.4 41.3-9.9 63.5-9.9 22.1 0 43.5 3.5 63.5 9.9v-31.6c0-8.6-7.2-15.6-15.9-15.6h-95.2c-8.8 0-15.9 7-15.9 15.6zm-123.7 240.3c2.3 0.3 4.5 0.5 6.8 0.5 25.9 0 46.9-21 46.9-46.9 0-25.8-21-46.8-46.9-46.8-2.2 0-4.5 0.2-6.8 0.5-3.7 14.9-5.7 30.4-5.7 46.3 0 16 2 31.5 5.7 46.4zm370.4 13.2c-0.9 0.1-1.9 0.2-2.9 0.2-32.9 0-59.7-26.8-59.7-59.8 0-32.9 26.8-59.7 59.7-59.7 1 0 2 0.1 2.9 0.2-25.3-76.3-97.9-131.5-183.2-131.5-85.4 0-157.9 55.2-183.3 131.5 1-0.1 2-0.2 2.9-0.2 33 0 59.8 26.8 59.8 59.7 0 33-26.8 59.8-59.8 59.8-0.9 0-1.9-0.1-2.9-0.2 25.4 76.3 97.9 131.5 183.3 131.5 85.4 0 157.9-55.2 183.2-131.5zm3.9-105.9c-2.2-0.3-4.5-0.5-6.8-0.5-25.8 0-46.8 21-46.8 46.8 0 25.9 21 46.9 46.8 46.9 2.3 0 4.6-0.2 6.8-0.6 3.8-14.8 5.8-30.3 5.8-46.3 0-15.9-2-31.4-5.8-46.3z"/>
		<path id="Layer" fill-rule="evenodd" class="s0" d="m255.8 369c-33 0-59.7-26.7-59.7-59.7 0-33 26.7-59.7 59.7-59.7 33 0 59.7 26.7 59.7 59.7 0 33-26.7 59.7-59.7 59.7zm46.9-59.7c0-25.9-21-46.9-46.9-46.9-25.9 0-46.9 21-46.9 46.9 0 25.9 21 46.8 46.9 46.8 25.9 0 46.9-20.9 46.9-46.8z"/>
	</g>
</svg>