<svg version="1.2" xmlns="http://www.w3.org/2000/svg" viewBox="0 0 474 512" width="474" height="512">
	<title>gift-box-svg</title>
	<style>
		.s0 { fill: #000000 } 
	</style>
	<g id="Layer">
		<path id="Layer" fill-rule="evenodd" class="s0" d="m110.5 0.4c14.3 0.7 25.4 5.5 39.1 16.7 23.3 19 46.2 56.3 63.3 102.8 6.8 18.4 5.6 20.4-13.4 22.2-16.5 1.6-45.8 0.6-60.5-2-30.3-5.3-51.4-15.3-68.1-32.1-19.1-19.2-25.9-43.6-18.7-66.9 5.9-19.1 21.4-33.5 42-39.1 5.6-1.6 9.4-1.9 16.3-1.6zm-12.2 16.1c-20.8 5.6-33.7 22.1-33.5 42.7 0.1 4.3 0.6 9.7 1.3 12 7.2 27 34.5 46.7 74.5 53.9 9.7 1.8 16 2.2 34.6 2.3 12.4 0.1 23-0.2 23.3-0.6 1.8-1.7-15.4-39.7-26.1-57.8-19.4-32.8-38-49.7-58-53-7.5-1.3-9.7-1.2-16.1 0.5z"/>
		<path id="Layer" fill-rule="evenodd" class="s0" d="m145.2 60.4c4.9 7.1 13.2 24.4 15 30.8 1.1 4.4 1 5-0.9 7.5-1.5 2.2-3.2 3-7.4 3.6-7.2 1.1-23.9 0.2-31.2-1.8-18.6-4.9-30.1-16.4-31.4-31.5-1.2-13 6.7-24 19.7-27.7 12.3-3.5 25.7 3.5 36.2 19.1zm-33.2-4.3c-11.9 4.8-9.6 20 4 26.9 4.3 2.2 17.2 5 23 5h4l-3.6-7.3c-4.2-8.3-10.1-17.2-13.6-20.4-1.3-1.2-4-2.9-6-3.8-4.3-1.7-4.4-1.7-7.8-0.4z"/>
		<path id="Layer" fill-rule="evenodd" class="s0" d="m412.4 31.4c4.8 9.5 6.6 17.2 6.6 28.1 0 11.1-1.8 18.5-7 29-12.9 26.3-42.1 44.6-81.8 51.6-20.6 3.6-68.4 3.5-75.2-0.1-2.2-1.2-3.5-4.5-3.1-8 0.4-3.2 7.8-22.8 13.6-36 24.4-55.5 55.9-90.2 86.5-95.3 22.9-3.8 50 10 60.4 30.7zm-89.1 1.9c-17 16.2-35.4 46.6-49.6 82.2l-4.4 11 5.6 0.8c8 1.2 39.9 0.1 50.6-1.7 27-4.6 44.5-12.3 59.4-26.2 13.5-12.7 19.7-26.5 18.9-42.2-1.1-18.8-11.2-32.7-28.4-39.2-17.1-6.4-34.7-1.2-52.1 15.3z"/>
		<path id="Layer" fill-rule="evenodd" class="s0" d="m376.6 55.5c7 14.8-0.7 32.4-17.8 40.8-11.4 5.6-31 8.2-43.6 5.8-8.6-1.7-9.3-5.5-3.7-19.5 8.8-22 21.1-37 33.5-41.1 12-4 26.1 2.2 31.6 14zm-23.5-0.4c-4.9 0.8-10.6 4.8-15.5 11.1-4.3 5.4-12.1 20.6-11.1 21.6 0.3 0.3 4.7 0.1 9.7-0.6 11.7-1.4 20.6-5.6 24.9-11.4 5.1-7.1 3.3-16.3-3.7-19.3-2-0.8-3.9-1.5-4.3-1.4z"/>
		<path id="Layer" fill-rule="evenodd" class="s0" d="m106.3 163c105 0 103.3-0.1 105.1 4.5 0.3 0.9 0.6 17.7 0.6 37.3 0 35.1 0 35.6-2.2 37.9l-2.1 2.3h-203.1l-2.3-2.2-2.3-2.1v-35.8c0-19.7 0.3-36.5 0.6-37.4 0.4-1 2.1-2.3 3.8-3.1 2.5-1.1 21.2-1.3 101.9-1.4zm90.7 15h-182v52h182z"/>
		<path id="Layer" fill-rule="evenodd" class="s0" d="m367.8 163c105.5 0 103.8-0.1 105.6 4.5 0.3 0.9 0.6 17.7 0.6 37.3 0 35.1 0 35.6-2.2 37.9l-2.1 2.3h-203.1l-2.3-2.2-2.3-2.1v-36.2c0-37.9 0-37.9 4.5-40.3 1.4-0.8 31.4-1.1 101.3-1.2zm91.2 15h-182v52h182z"/>
		<path id="Layer" fill-rule="evenodd" class="s0" d="m29.3 264h178.1l2.3 2.2 2.3 2.1v238.8l-2.5 2.4-2.4 2.5h-177.2l-2.4-2.5-2.5-2.4v-238.5l2.2-2.3zm167.7 15h-157v218h157z"/>
		<path id="Layer" fill-rule="evenodd" class="s0" d="m266.3 264h178.1l2.3 2.2 2.3 2.1v238.8l-2.5 2.4-2.4 2.5h-177.2l-2.4-2.5-2.5-2.4v-238.5l2.2-2.3zm167.7 15h-157v218h157z"/>
	</g>
</svg>