<svg version="1.2" xmlns="http://www.w3.org/2000/svg" viewBox="0 0 512 512" width="512" height="512">
	<title>New Project</title>
	<style>
		.s0 { fill: none;stroke: #000000;stroke-linecap: round;stroke-linejoin: round;stroke-width: 11 } 
	</style>
	<g id="Layer">
	</g>
	<path id="Layer" class="s0" d="m465.5 319.1h-442.2c-11.7 1.1-22.1-8.2-23.3-19.8 1.2-11.6 11.6-21 23.3-19.8h459.6c14-1.2 26.8 9.3 29.1 23.3v34.9c-1.2 11.6-11.6 20.9-23.3 19.8h-465.4c-11.7 1.1-22.1-8.2-23.3-19.8 1.2-11.6 11.6-21 23.3-19.8zm-37.3-69.8h-353.7c-9.3 0-17.5-7-18.6-16.3 1.1-9.3 9.3-16.3 18.6-15.1h367.7c11.6-1.2 22.1 7 23.3 18.6v27.9c-1.2 9.3-9.3 16.3-18.6 15.1h-372.4c-9.3 1.2-17.5-5.8-18.6-15.1 1.1-9.3 9.3-16.3 18.6-15.1zm-159.4-94.3c89.6 0 162.9 14 162.9 31.5 0 17.4-73.3 31.4-162.9 31.4-89.6 0-162.9-14-162.9-31.4 0-17.5 72.1-31.5 162.9-31.5z"/>
</svg>