<svg version="1.2" xmlns="http://www.w3.org/2000/svg" viewBox="0 0 512 512" width="512" height="512">
	<title>New Project</title>
	<style>
		.s0 { fill: #000000 } 
	</style>
	<g id="Layer">
		<path id="Layer" fill-rule="evenodd" class="s0" d="m92 510.2c-1.6-1.7-2.5-3.9-2.5-6.1v-445.9c0-15.8 6.3-31 17.5-42.1 11.2-11.2 26.3-17.5 42.1-17.5h114.4c15.8 0 31 6.3 42.2 17.5 11.1 11.1 17.4 26.3 17.4 42.1v43.8c27.1 2.2 52.3 14.5 70.7 34.4 18.4 19.9 28.6 46 28.7 73.1 0 2.3-0.9 4.5-2.6 6.1-1.6 1.6-3.8 2.5-6 2.5h-198.7c-2.3 0-4.5-0.9-6.1-2.5-1.6-1.6-2.5-3.8-2.5-6.1 0-27.1 10.2-53.2 28.6-73.1 18.4-19.9 43.7-32.2 70.7-34.4v-43.8c0-11.2-4.5-22-12.4-30-8-7.9-18.7-12.4-30-12.4h-114.4c-11.2 0-22 4.5-29.9 12.4-8 8-12.4 18.8-12.5 30v445.9c0.1 2.2-0.9 4.4-2.5 6.1-1.6 1.6-3.8 2.5-6.1 2.5-2.2 0-4.4-0.9-6.1-2.5zm265.4-380.6c-26.8-14.4-59-14.4-85.7 0-26.8 14.3-44.6 41.1-47.5 71.3h180.6c-2.8-30.2-20.7-57-47.4-71.3z"/>
		<path id="Layer" class="s0" d="m252.3 284.8c0 4.7-3.9 8.6-8.6 8.6-4.8 0-8.6-3.9-8.6-8.6v-37.6c0-4.7 3.8-8.6 8.6-8.6 4.7 0 8.6 3.9 8.6 8.6z"/>
		<path id="Layer" class="s0" d="m299.5 284.8c0 4.7-3.8 8.6-8.6 8.6-4.8 0-8.6-3.9-8.6-8.6v-37.6c0-4.7 3.8-8.6 8.6-8.6 4.8 0 8.6 3.9 8.6 8.6z"/>
		<path id="Layer" class="s0" d="m346.7 284.8c0 4.7-3.8 8.6-8.6 8.6-4.7 0-8.6-3.9-8.6-8.6v-37.6c0-4.7 3.9-8.6 8.6-8.6 4.8 0 8.6 3.9 8.6 8.6z"/>
		<path id="Layer" class="s0" d="m394 284.8c0 4.7-3.9 8.6-8.6 8.6-4.8 0-8.7-3.9-8.7-8.6v-37.6c0-4.7 3.9-8.6 8.7-8.6 4.7 0 8.6 3.9 8.6 8.6z"/>
		<path id="Layer" class="s0" d="m252.3 354.8c0 4.7-3.9 8.6-8.6 8.6-4.8 0-8.6-3.9-8.6-8.6v-37.6c0-4.7 3.8-8.6 8.6-8.6 4.7 0 8.6 3.9 8.6 8.6z"/>
		<path id="Layer" class="s0" d="m299.5 354.8c0 4.7-3.8 8.6-8.6 8.6-4.8 0-8.6-3.9-8.6-8.6v-37.6c0-4.7 3.8-8.6 8.6-8.6 4.8 0 8.6 3.9 8.6 8.6z"/>
		<path id="Layer" class="s0" d="m346.7 354.8c0 4.7-3.8 8.6-8.6 8.6-4.7 0-8.6-3.9-8.6-8.6v-37.6c0-4.7 3.9-8.6 8.6-8.6 4.8 0 8.6 3.9 8.6 8.6z"/>
		<path id="Layer" class="s0" d="m394 354.8c0 4.7-3.9 8.6-8.6 8.6-4.8 0-8.7-3.9-8.7-8.6v-37.6c0-4.7 3.9-8.6 8.7-8.6 4.7 0 8.6 3.9 8.6 8.6z"/>
		<path id="Layer" class="s0" d="m249.8 381.1c1.6 1.6 2.5 3.8 2.5 6.1v37.6c0 4.7-3.9 8.6-8.6 8.6-4.8 0-8.6-3.9-8.6-8.6v-37.6c0-2.3 0.9-4.5 2.5-6.1 1.6-1.6 3.8-2.5 6.1-2.5 2.3 0 4.5 0.9 6.1 2.5z"/>
		<path id="Layer" class="s0" d="m297 381.1c1.6 1.6 2.5 3.8 2.5 6.1v37.6c0 4.7-3.8 8.6-8.6 8.6-4.7 0-8.6-3.9-8.6-8.6v-37.6c0-2.3 0.9-4.5 2.5-6.1 1.6-1.6 3.8-2.5 6.1-2.5 2.3 0 4.5 0.9 6.1 2.5z"/>
		<path id="Layer" class="s0" d="m344.2 381.1c1.6 1.6 2.5 3.8 2.5 6.1v37.6c0 4.7-3.8 8.6-8.6 8.6-4.7 0-8.6-3.9-8.6-8.6v-37.6c0-2.3 0.9-4.5 2.5-6.1 1.7-1.6 3.8-2.5 6.1-2.5 2.3 0 4.5 0.9 6.1 2.5z"/>
		<path id="Layer" class="s0" d="m391.4 381.1c1.7 1.6 2.6 3.8 2.6 6.1v37.6c0 4.7-3.9 8.6-8.7 8.6-4.7 0-8.6-3.9-8.6-8.6v-37.6c0-2.3 0.9-4.5 2.6-6.1 1.6-1.6 3.8-2.5 6-2.5 2.3 0 4.5 0.9 6.1 2.5z"/>
	</g>
</svg>