<svg viewBox="0 0 20 21" fill="none" xmlns="http://www.w3.org/2000/svg">
    <path d="M15.5351 20.6753H3.58203C2.51767 20.6753 1.64064 19.8216 1.61715 18.7572L0.494444 12.8273V12.722C0.167067 11.763 0.00317383 10.7689 0.00317383 9.73953C0.00317383 4.55844 4.28379 0.336487 9.55869 0.336487C14.8216 0.336487 19.1142 4.55855 19.1142 9.73953C19.1142 10.7571 18.9505 11.763 18.6229 12.722V12.8273L17.5002 18.7572C17.4652 19.8216 16.5998 20.6753 15.5354 20.6753H15.5351ZM1.43029 12.7456L2.55299 18.6635V18.7103C2.55299 19.2835 3.00921 19.7395 3.58213 19.7395H15.5352C16.1083 19.7395 16.5644 19.2833 16.5644 18.7103V18.6635L17.6871 12.7456V12.7106L17.6753 12.6052L17.7104 12.5116C18.0262 11.6344 18.1781 10.6989 18.1781 9.75138C18.1781 5.08487 14.3187 1.28392 9.55871 1.28392C4.81031 1.28392 0.9393 5.08502 0.9393 9.75138C0.9393 10.6987 1.09144 11.6227 1.40707 12.5116L1.44211 12.6052L1.43036 12.7106V12.7456H1.43029Z" fill="#222222" />
    <path d="M5.69908 8.18438C4.75178 8.18438 3.97976 7.41252 3.97976 6.46506C3.97976 5.51775 4.75162 4.74574 5.69908 4.74574C6.64639 4.74574 7.4184 5.5176 7.4184 6.46506C7.4184 7.41236 6.64654 8.18438 5.69908 8.18438ZM5.69908 5.6932V5.6934C5.41911 5.6934 5.1604 5.84271 5.02042 6.0852C4.88044 6.3275 4.88044 6.62633 5.02042 6.86878C5.16041 7.11107 5.41911 7.26058 5.69908 7.26058C5.97885 7.26058 6.23756 7.11107 6.37754 6.86878C6.51752 6.62629 6.51752 6.32745 6.37754 6.0852C6.23755 5.84271 5.97885 5.6934 5.69908 5.6934V5.6932ZM10.0613 10.6873C9.46492 10.6873 8.97363 10.1961 8.97363 9.59963C8.97363 9.00321 9.4649 8.51194 10.0613 8.51194C10.3186 8.51194 10.5291 8.72242 10.5291 8.9797C10.5291 9.23698 10.3186 9.44747 10.0613 9.44747C9.97948 9.44747 9.90918 9.51757 9.90918 9.59961C9.90918 9.68146 9.97928 9.75175 10.0613 9.75175C10.3186 9.75175 10.5291 9.96224 10.5291 10.2195C10.5291 10.4768 10.3186 10.6873 10.0613 10.6873V10.6873ZM10.4357 2.32515C9.8393 2.32515 9.34801 1.83388 9.34801 1.23745C9.34801 0.98017 9.5585 0.769684 9.81578 0.769684C10.0731 0.769684 10.2835 0.98017 10.2835 1.23745C10.2835 1.31929 10.3536 1.38959 10.4357 1.38959C10.693 1.38959 10.9035 1.60008 10.9035 1.85736C10.9035 2.11464 10.693 2.32513 10.4357 2.32513L10.4357 2.32515ZM17.9209 15.2252C16.845 15.2252 16.2951 14.4649 15.8625 13.8568C15.4297 13.2486 15.1374 12.8744 14.5643 12.8744C13.9912 12.8744 13.6988 13.2486 13.2662 13.8568C12.8334 14.4649 12.2838 15.2252 11.2077 15.2252C10.1318 15.2252 9.58196 14.4649 9.14927 13.8568C8.71655 13.2486 8.42425 12.8744 7.85113 12.8744C7.278 12.8744 6.98566 13.2486 6.55298 13.8568C6.12025 14.4649 5.57066 15.2252 4.49453 15.2252C3.41861 15.2252 2.86877 14.4649 2.43609 13.8568C2.00337 13.2486 1.71106 12.8744 1.13794 12.8744V11.9387C2.21386 11.9387 2.7637 12.699 3.19638 13.3072C3.62906 13.9154 3.92141 14.2895 4.49453 14.2895C5.06766 14.2895 5.36 13.9153 5.79268 13.3072C6.22537 12.699 6.775 11.9387 7.85113 11.9387C8.92705 11.9387 9.47689 12.699 9.90957 13.3072C10.3422 13.9154 10.6346 14.2895 11.2077 14.2895C11.7808 14.2895 12.0732 13.9153 12.5059 13.3072C12.9386 12.699 13.4882 11.9387 14.5643 11.9387C15.6402 11.9387 16.1901 12.699 16.6228 13.3072C17.0554 13.9154 17.3478 14.2895 17.9209 14.2895V15.2252Z" fill="#222222" />
</svg>