<svg width="40" height="25" viewBox="0 0 40 25" fill="none" xmlns="http://www.w3.org/2000/svg">
<path d="M39.6552 20.6064C39.4683 20.9553 39.1698 21.0603 38.7866 21.049C38.2092 21.0304 37.6308 21.0438 37.0225 21.0438C36.9605 22.3344 36.4813 23.3934 35.4732 24.1777C34.7234 24.7612 33.862 25.0298 32.9118 24.9969C31.2819 24.9413 29.2813 23.73 29.1109 21.0726C24.4724 21.0726 19.8328 21.0726 15.1592 21.0726C15.0982 22.3828 14.587 23.4645 13.518 24.2477C12.7619 24.8014 11.9067 25.0443 10.972 24.9928C9.44235 24.9084 7.43966 23.7876 7.24962 21.0438C7.11741 21.0438 6.98108 21.0438 6.84474 21.0438C5.91518 21.0438 4.98562 21.049 4.05605 21.0428C3.15954 21.0366 2.64415 20.5169 2.63692 19.6225C2.63382 19.2273 2.63589 18.8321 2.63589 18.3936C2.05439 18.3936 1.51525 18.3947 0.9761 18.3926C0.821172 18.3926 0.66418 18.3988 0.512351 18.3772C0.203529 18.3319 0.0279452 18.1312 0.00212395 17.8327C-0.0257629 17.5127 0.135361 17.2873 0.449347 17.1988C0.571223 17.1638 0.704461 17.1607 0.832534 17.1607C2.67823 17.1586 4.52497 17.1586 6.37066 17.1596C6.46052 17.1596 6.55245 17.1586 6.64127 17.173C6.98418 17.2286 7.2083 17.491 7.19281 17.8091C7.17732 18.1302 6.9377 18.3792 6.58446 18.3854C5.83565 18.3998 5.08683 18.3916 4.33802 18.3926C4.19962 18.3926 4.06122 18.3926 3.90009 18.3926C3.90009 18.8722 3.90009 19.3034 3.90009 19.7686C3.99511 19.781 4.0922 19.8057 4.19032 19.8057C5.19735 19.8088 6.20438 19.8005 7.2114 19.8129C7.4314 19.815 7.51506 19.7275 7.60389 19.5391C8.31552 18.0242 9.52085 17.1792 11.1982 17.1751C12.891 17.172 14.1098 18.0128 14.8214 19.5505C14.9113 19.745 15.0135 19.8119 15.2253 19.8119C19.3174 19.8057 23.4106 19.8077 27.5027 19.8067C27.5905 19.8067 27.6783 19.7923 27.8085 19.782C27.8085 19.6287 27.8085 19.4918 27.8085 19.3539C27.8085 18.055 27.8085 16.7552 27.8085 15.4563C27.8085 15.3534 27.8033 15.2495 27.8116 15.1476C27.8415 14.7853 28.0987 14.527 28.4251 14.5218C28.7721 14.5167 29.0427 14.7812 29.0448 15.1702C29.053 16.5596 29.0489 17.949 29.0489 19.3384C29.0489 19.428 29.0324 19.5227 29.0551 19.6071C29.0747 19.6781 29.1346 19.7841 29.1852 19.7903C29.2534 19.7975 29.3371 19.7306 29.399 19.6781C29.4331 19.6493 29.4352 19.5844 29.4579 19.5381C30.1778 18.0262 31.38 17.1813 33.0564 17.1761C34.7502 17.171 35.9669 18.017 36.6817 19.5505C36.7725 19.746 36.8696 19.8211 37.0824 19.8129C37.5059 19.7985 37.9304 19.8088 38.3838 19.8088C38.3838 18.899 38.3838 18.019 38.3838 17.0732C38.1679 17.0732 37.9417 17.0783 37.7155 17.0722C36.5773 17.0413 35.7862 16.2406 35.7696 15.1044C35.7635 14.7061 35.7635 14.3067 35.7696 13.9084C35.7779 13.4278 35.9989 13.2076 36.4885 13.2014C37.069 13.1942 37.6494 13.1993 38.2815 13.1993C38.1875 12.7907 37.9841 12.4686 37.6701 12.2834C37.3148 12.0734 36.9027 11.8346 36.5112 11.8285C34.0851 11.7873 31.6568 11.8068 29.2297 11.8068C29.1811 11.8068 29.1326 11.8223 29.0468 11.8367C29.0468 12.0621 29.0551 12.2772 29.0448 12.4923C29.0262 12.8628 28.7814 13.1108 28.4426 13.117C28.108 13.1232 27.8477 12.8772 27.8126 12.5129C27.8012 12.3976 27.8074 12.2813 27.8074 12.166C27.8074 8.69252 27.8074 5.21901 27.8074 1.7455C27.8074 1.59318 27.8074 1.43983 27.8074 1.26178C19.8328 1.26178 11.8861 1.26178 3.87634 1.26178C3.87634 1.40793 3.87634 1.55613 3.87634 1.70433C3.87634 5.19019 3.87634 8.67708 3.87634 12.1629C3.87634 12.2916 3.88253 12.4213 3.86911 12.5489C3.83399 12.8937 3.62845 13.0902 3.29071 13.1119C2.96743 13.1324 2.75053 12.9534 2.66687 12.6446C2.63072 12.5108 2.63589 12.3647 2.63589 12.2237C2.63485 8.64724 2.63382 5.07081 2.63485 1.49438C2.63795 0.495039 3.13475 0 4.13661 0C11.947 0 19.7584 0 27.5688 0C28.5573 0 29.0479 0.485777 29.051 1.46248C29.052 1.83401 29.051 2.20452 29.051 2.61414C29.2142 2.62134 29.3505 2.63369 29.4868 2.63369C30.8161 2.63472 32.1474 2.66148 33.4757 2.62752C35.1458 2.58532 36.6042 3.73286 36.3129 5.99193C36.2861 6.19777 36.0671 6.37788 35.8874 6.64649C36.1818 7.82183 36.4988 9.10522 36.8314 10.3835C36.8572 10.4823 36.9719 10.6068 37.0679 10.6315C38.454 10.9876 39.2948 11.8583 39.6005 13.2487C39.6087 13.2848 39.6366 13.3156 39.6542 13.3496C39.6552 15.7692 39.6552 18.1878 39.6552 20.6064ZM35.562 10.5492C35.5404 10.4288 35.5269 10.3289 35.5032 10.2312C35.2284 9.12272 34.9434 8.01634 34.68 6.90482C34.6129 6.62179 34.5013 6.51373 34.1925 6.51785C32.6195 6.53534 31.0454 6.52505 29.4713 6.52711C29.3453 6.52711 29.2204 6.53843 29.0851 6.54461C29.0851 7.89902 29.0851 9.22461 29.0851 10.5502C31.2582 10.5492 33.3962 10.5492 35.562 10.5492ZM33.0853 23.765C34.553 23.7588 35.7676 22.5423 35.7666 21.0788C35.7655 19.6143 34.5519 18.407 33.078 18.4019C31.5928 18.3967 30.3586 19.6318 30.3771 21.1045C30.3957 22.5732 31.6166 23.7722 33.0853 23.765ZM11.2147 23.765C12.6865 23.7639 13.8939 22.5619 13.9022 21.0891C13.9115 19.6256 12.7082 18.4173 11.2281 18.4019C9.74601 18.3864 8.51279 19.6122 8.51899 21.0942C8.52622 22.5588 9.74498 23.766 11.2147 23.765ZM29.0747 3.87592C29.0747 4.37199 29.0747 4.80322 29.0747 5.25195C31.0877 5.25195 33.078 5.25195 35.0673 5.25195C35.09 4.45227 34.5075 3.88724 33.6606 3.87798C32.732 3.86872 31.8035 3.87592 30.876 3.87592C30.2842 3.87592 29.6944 3.87592 29.0747 3.87592ZM38.3931 14.4621C37.9283 14.4621 37.4852 14.4621 37.0462 14.4621C36.8934 15.6488 37.2167 15.9678 38.3931 15.7949C38.3931 15.3668 38.3931 14.9345 38.3931 14.4621Z" fill="#4A5568"/>
<path d="M15.2016 11.6236C16.7509 10.0757 18.2733 8.55555 19.7957 7.03544C20.087 6.74418 20.3741 6.44675 20.6737 6.16372C20.968 5.88481 21.3151 5.87349 21.5722 6.11535C21.8356 6.36338 21.8387 6.74521 21.5443 7.03956C19.5861 8.99913 17.6237 10.9556 15.6561 12.9059C15.3442 13.2157 15.0219 13.2054 14.7028 12.8905C13.6296 11.8315 12.5627 10.7663 11.4978 9.69795C11.1921 9.39023 11.1776 9.03721 11.4359 8.77477C11.7065 8.49998 12.0607 8.51747 12.3902 8.84167C13.2248 9.66502 14.0531 10.4956 14.8845 11.323C14.9734 11.4116 15.0684 11.497 15.2016 11.6236Z" fill="#4A5568"/>
<path d="M21.1403 18.3937C19.6943 18.3937 18.2493 18.3937 16.8033 18.3926C16.6742 18.3926 16.5441 18.3967 16.4171 18.3782C16.0876 18.3298 15.911 18.1127 15.8975 17.8008C15.8841 17.5044 16.0401 17.2801 16.3406 17.1998C16.4749 17.1638 16.6216 17.1597 16.762 17.1597C19.6922 17.1576 22.6214 17.1576 25.5516 17.1586C25.6414 17.1586 25.7334 17.1566 25.8222 17.1679C26.1857 17.2173 26.4243 17.488 26.4026 17.8173C26.382 18.1374 26.1413 18.3741 25.786 18.3865C25.3223 18.4019 24.8565 18.3926 24.3927 18.3926C23.3082 18.3947 22.2248 18.3937 21.1403 18.3937Z" fill="#4A5568"/>
<path d="M5.91736 15.7539C4.64076 15.7539 3.36312 15.7549 2.08652 15.7529C1.59902 15.7518 1.31602 15.5203 1.31912 15.1364C1.32222 14.7597 1.61658 14.5209 2.09788 14.5199C4.65212 14.5178 7.20635 14.5199 9.76058 14.5178C10.0539 14.5178 10.3317 14.5888 10.4268 14.8739C10.4877 15.0561 10.4846 15.3484 10.3751 15.4739C10.2398 15.6304 9.96509 15.7384 9.74819 15.7426C8.47159 15.7662 7.19396 15.7539 5.91736 15.7539Z" fill="#4A5568"/>
<path d="M33.0759 19.813C33.7896 19.8151 34.3587 20.3821 34.3546 21.0871C34.3515 21.7849 33.7638 22.3674 33.0676 22.3654C32.3684 22.3633 31.79 21.7798 31.791 21.0799C31.7931 20.3708 32.3612 19.8109 33.0759 19.813Z" fill="#4A5568"/>
<path d="M11.2002 19.8128C11.919 19.8066 12.4819 20.3583 12.4871 21.0725C12.4922 21.7816 11.9283 22.358 11.2239 22.3652C10.5309 22.3724 9.93595 21.7888 9.92665 21.0941C9.91632 20.3953 10.4896 19.8179 11.2002 19.8128Z" fill="#4A5568"/>
</svg>
