<svg width="32" height="32" viewBox="0 0 32 32" fill="none" xmlns="http://www.w3.org/2000/svg">
<path d="M30.9896 19.4217C30.37 18.0058 29.7547 16.5875 29.1325 15.1725C28.9611 14.7817 28.8388 14.3642 28.5825 14.015C28.456 13.8425 28.4068 13.6708 28.4076 13.465C28.4119 12.4867 28.4178 11.5075 28.4076 10.5283C28.3941 9.08333 28.0087 7.73333 27.3042 6.46667C26.9427 5.8175 26.6031 5.1575 26.2322 4.51417C26.1448 4.36417 26.1321 4.2275 26.2509 4.08333C26.3892 3.91417 26.4351 3.7125 26.4351 3.4975C26.4368 2.58083 26.4359 1.66417 26.4351 0.748333C26.4351 0.3725 26.2789 0.109167 25.897 0H20.6133C20.2033 0.105833 20.0837 0.2475 20.0803 0.684167C20.0726 1.6425 20.0769 2.6 20.0786 3.55833C20.0786 3.7275 20.0921 3.89917 20.2042 4.03333C20.3714 4.23083 20.3171 4.41083 20.2042 4.60583C19.7883 5.32 19.4097 6.05417 19.0184 6.78167C18.8945 7.01167 18.7757 7.06417 18.5202 6.98833C16.366 6.35083 14.4868 6.85 12.8529 8.33583C12.7774 8.40417 12.7154 8.53167 12.6008 8.49583C12.4871 8.46083 12.5057 8.32167 12.4845 8.22417C12.2503 7.155 12.0109 6.0875 11.786 5.01667C11.3497 2.94167 9.17852 1.20333 6.70093 1.53583C4.50938 1.82917 2.77363 3.7175 2.75665 5.88417C2.75071 6.6675 2.9629 7.40917 3.12332 8.16083C3.49933 9.92417 3.89317 11.6833 4.27257 13.4458C4.33878 13.755 4.31671 13.7808 3.98144 13.7858C3.71662 13.7892 3.45095 13.79 3.18613 13.7858C2.82625 13.78 2.57756 13.9367 2.43751 14.2592C1.66003 16.04 0.888485 17.8217 0.103363 19.5983C-0.236998 20.3692 0.321499 20.7767 0.904612 20.775C1.23394 20.7742 1.56242 20.775 1.89089 20.7758C2.37894 20.7775 2.37979 20.7775 2.37979 21.2658C2.38064 24.1292 2.37979 26.9933 2.38064 29.8567C2.38064 30.0542 2.3747 30.2525 2.43581 30.445C2.54021 30.7767 2.7575 30.98 3.11569 31.0142C4.34896 31.1325 5.58479 31.2267 6.81891 31.3367C7.90535 31.4342 8.99264 31.5167 10.0799 31.6117C11.2504 31.7133 12.42 31.8242 13.593 31.9083C14.0446 31.9408 14.5004 31.9125 14.9477 32H16.0935C16.3728 31.9325 16.6605 31.9525 16.9423 31.9442C18.3207 31.9058 19.6873 31.7275 21.0606 31.6292C22.1377 31.5517 23.2131 31.4408 24.2894 31.345C25.5243 31.2358 26.761 31.1525 27.9943 31.0233C28.4577 30.975 28.6945 30.7458 28.7718 30.2933C28.7998 30.1283 28.7913 29.9608 28.7913 29.7942C28.7921 26.9925 28.7921 24.1908 28.7921 21.3892C28.7921 21.285 28.7964 21.1808 28.7921 21.0767C28.7828 20.865 28.8821 20.7758 29.0969 20.7792C29.4253 20.7833 29.7547 20.7817 30.0831 20.7792C31.0847 20.7733 31.3835 20.3233 30.9896 19.4217ZM21.4222 1.45833C21.4188 1.30167 21.4553 1.245 21.6293 1.24583C22.7098 1.25417 23.7911 1.2525 24.8725 1.24667C25.0219 1.24667 25.0728 1.285 25.0694 1.4375C25.0601 1.895 25.0567 2.35333 25.0702 2.81083C25.0753 2.99167 24.9956 3.00917 24.8462 3.0075C24.3055 3.00083 23.7648 3.005 23.225 3.005C22.6945 3.005 22.1649 2.99833 21.6352 3.00833C21.4689 3.01167 21.4179 2.96667 21.4222 2.80083C21.4332 2.35333 21.4324 1.90583 21.4222 1.45833ZM19.4615 10.0717C19.5345 9.05083 19.8426 8.09667 20.3332 7.19667C20.8272 6.29083 21.3237 5.385 21.8101 4.475C21.8924 4.32 21.9781 4.24583 22.17 4.24917C22.8914 4.2625 23.6129 4.25583 24.3344 4.25417C24.4506 4.25417 24.5533 4.24583 24.6229 4.38C25.2264 5.535 25.9131 6.6475 26.4572 7.83167C26.8569 8.70333 27.0462 9.63 27.0488 10.5892C27.0513 11.5892 27.042 12.5892 27.0572 13.5892C27.0606 13.8267 26.9681 13.8533 26.7636 13.8517C25.5855 13.8433 24.4082 13.8475 23.2301 13.8475C22.0639 13.8475 20.8968 13.8392 19.7297 13.8542C19.47 13.8575 19.4114 13.7792 19.4182 13.5392C19.4471 12.3833 19.3792 11.2267 19.4615 10.0717ZM4.18006 6.5375C3.83545 4.86333 4.92019 3.30083 6.63982 2.91C8.27288 2.53917 9.99845 3.52917 10.4016 5.14667C10.8286 6.86083 11.1715 8.595 11.5551 10.32C11.5772 10.4217 11.5424 10.5033 11.5135 10.5908C11.1833 11.5842 11.1375 12.5917 11.3904 13.605C11.4516 13.8517 11.3556 13.8517 11.1689 13.85C10.3099 13.8442 9.45098 13.8475 8.59202 13.8475C7.7339 13.8475 6.87493 13.8458 6.01597 13.8492C5.85725 13.85 5.752 13.8467 5.70786 13.64C5.20453 11.2717 4.66811 8.90917 4.18006 6.5375ZM1.94946 19.4258C1.72963 19.4258 1.67191 19.3958 1.77037 19.175C2.3399 17.8917 2.90264 16.605 3.45265 15.3142C3.53753 15.1142 3.65806 15.0942 3.84139 15.095C5.5797 15.1 7.318 15.0975 9.0563 15.0975C10.8048 15.0975 12.5541 15.1025 14.3026 15.0933C14.5589 15.0917 14.6124 15.1333 14.5038 15.3792C13.941 16.6425 13.391 17.9117 12.8453 19.1825C12.7697 19.36 12.678 19.4275 12.4743 19.4267C8.96548 19.42 5.45747 19.42 1.94946 19.4258ZM14.6285 30.6767C12.2537 30.46 9.87707 30.26 7.50049 30.055C6.32832 29.9533 5.157 29.8442 3.98399 29.7567C3.75821 29.7392 3.76415 29.6317 3.76415 29.475C3.7667 27.965 3.76585 26.455 3.76585 24.945C3.76585 23.6225 3.77179 22.2992 3.75991 20.9767C3.75736 20.7333 3.81932 20.665 4.07311 20.6658C7.02177 20.675 9.97129 20.6658 12.92 20.6783C13.3885 20.68 13.666 20.5133 13.84 20.0833C14.1702 19.2667 14.5377 18.4642 14.89 17.6558C14.9095 17.6592 14.9282 17.6617 14.9477 17.665V18.91C14.9477 22.7325 14.9451 26.5542 14.9536 30.3767C14.9545 30.6367 14.9036 30.7025 14.6285 30.6767ZM15.4451 13.8475C14.6498 13.8475 13.8545 13.8425 13.06 13.8517C12.8648 13.8542 12.7706 13.8117 12.7018 13.6083C11.8225 11.0033 13.8409 8.14833 16.6317 8.0575C17.1995 8.03833 17.7504 8.10083 18.2808 8.31083C18.4022 8.35833 18.4812 8.40083 18.4362 8.555C18.1374 9.57833 18.1416 10.6292 18.1493 11.6808C18.1535 12.3058 18.14 12.93 18.1552 13.5542C18.1612 13.7808 18.1102 13.8592 17.8616 13.8542C17.0569 13.8375 16.2506 13.8475 15.4451 13.8475ZM29.2114 19.4275C28.4696 19.4117 27.7269 19.4192 26.9842 19.4233C26.5208 19.425 26.2305 19.67 26.2322 20.0458C26.2331 20.42 26.5285 20.6633 26.9893 20.6717C27.4027 20.6792 27.4027 20.6792 27.4027 21.0908C27.4027 23.8608 27.3993 26.6317 27.4095 29.4017C27.4103 29.665 27.3518 29.7433 27.0691 29.7667C23.7945 30.0383 20.5216 30.3275 17.2487 30.6117C16.9949 30.6333 16.7403 30.645 16.4882 30.6783C16.2972 30.7033 16.2149 30.68 16.2149 30.4508C16.2226 26.1917 16.2209 21.9325 16.2209 17.6725C16.2387 17.6658 16.2565 17.6592 16.2752 17.6517C16.6359 18.4758 17.0102 19.295 17.3514 20.1267C17.5144 20.5233 17.7767 20.6825 18.2028 20.6758C19.1466 20.6625 20.0905 20.6775 21.0343 20.6692C21.5818 20.6642 21.906 20.2042 21.6828 19.7683C21.5478 19.505 21.3144 19.4183 21.025 19.42C20.2509 19.425 19.4759 19.415 18.7018 19.4267C18.5041 19.43 18.4031 19.3733 18.325 19.19C17.7801 17.9175 17.2284 16.6483 16.6673 15.3825C16.5655 15.1517 16.5884 15.0917 16.8617 15.0925C20.3621 15.1008 23.8624 15.0992 27.3637 15.0942C27.5487 15.0933 27.6429 15.1442 27.7167 15.3183C28.2659 16.6 28.8244 17.8775 29.3888 19.1525C29.4805 19.3608 29.4763 19.4333 29.2114 19.4275Z" fill="#4A5568"/>
<path d="M24.0187 19.4276C24.3718 19.4343 24.6307 19.6943 24.6315 20.0426C24.6315 20.3926 24.337 20.6793 23.9881 20.6701C23.6563 20.6609 23.3651 20.3684 23.366 20.0434C23.3668 19.6951 23.6571 19.4209 24.0187 19.4276Z" fill="#4A5568"/>
<path d="M7.05591 9.07582C6.62049 9.07665 6.36416 8.87498 6.30219 8.57665C6.24278 8.28748 6.4049 7.95915 6.70706 7.88498C7.36147 7.72582 8.02267 7.58748 8.68727 7.47248C8.98519 7.42081 9.27038 7.66665 9.33574 7.95665C9.40025 8.24332 9.24407 8.58582 8.94954 8.65998C8.28665 8.82665 7.61356 8.95582 7.05591 9.07582Z" fill="#4A5568"/>
<path d="M9.37993 10.5549C9.70077 10.5566 9.94607 10.7574 10.0046 11.0624C10.0624 11.3649 9.91212 11.6699 9.59892 11.7466C8.94536 11.9074 8.28416 12.0458 7.62126 12.1624C7.33692 12.2124 7.05427 11.9733 6.98977 11.7016C6.91762 11.3958 7.05682 11.1083 7.34031 10.9791C7.45829 10.9258 9.24413 10.5541 9.37993 10.5549Z" fill="#4A5568"/>
</svg>
