<svg width="55" height="27" viewBox="0 0 55 27" fill="none" xmlns="http://www.w3.org/2000/svg">
    <path d="M55 15.3488C55 13.562 53.2049 12.1015 50.3782 11.4905V8.41601C50.3782 8.35685 50.3735 8.29861 50.3661 8.23483L50.3671 8.21172C50.3726 8.12576 50.3782 8.04071 50.3782 7.95475C50.3782 3.62223 46.8535 0.0976044 42.521 0.0976044C42.2733 0.0976044 42.0265 0.111469 41.7806 0.135503C41.6595 0.146595 41.5412 0.166932 41.4219 0.184495C41.3055 0.201134 41.1881 0.215923 41.0725 0.238108C40.92 0.266764 40.7712 0.302814 40.6214 0.340713C40.5447 0.360125 40.468 0.378613 40.3922 0.399873C40.2249 0.447016 40.0613 0.500629 39.8995 0.55794C39.845 0.577352 39.7904 0.596764 39.7368 0.618024C39.5649 0.683655 39.3957 0.753907 39.2293 0.831554C39.1868 0.850966 39.1452 0.872226 39.1036 0.892562C38.9317 0.975755 38.7634 1.06357 38.5989 1.15878C38.5638 1.17912 38.5296 1.2013 38.4954 1.22164C38.3281 1.32239 38.1635 1.42592 38.0045 1.53777C37.974 1.55903 37.9454 1.58214 37.9158 1.60433C37.755 1.72172 37.596 1.84189 37.4444 1.97038C37.4425 1.97223 37.4397 1.97408 37.4379 1.97592C36.0236 0.774244 34.2165 0.099453 32.3539 0.099453C32.1061 0.099453 31.8593 0.113318 31.6134 0.137352C31.4924 0.148444 31.374 0.168781 31.2548 0.186344C31.1383 0.202982 31.0209 0.217772 30.9054 0.239957C30.7529 0.268612 30.604 0.304663 30.4543 0.342562C30.3776 0.361974 30.3008 0.380461 30.225 0.401722C30.0577 0.448865 29.8941 0.502478 29.7324 0.559789C29.6778 0.579201 29.6233 0.598612 29.5697 0.619873C29.3977 0.685503 29.2286 0.755756 29.0622 0.833403C29.0197 0.852815 28.9781 0.874076 28.9365 0.894412C28.7645 0.977605 28.5963 1.06542 28.4318 1.16063C28.3966 1.18096 28.3624 1.20315 28.3282 1.22349C28.1609 1.32424 27.9964 1.42777 27.8374 1.53962C27.8069 1.56088 27.7782 1.58399 27.7487 1.60618C27.5878 1.72357 27.4288 1.84374 27.2772 1.97223C27.2754 1.97407 27.2726 1.97592 27.2708 1.97777C26.0081 0.904579 24.4311 0.255672 22.782 0.128109C22.7367 0.121638 22.6961 0.101302 22.6489 0.101302C22.575 0.101302 22.5038 0.110545 22.4308 0.112394C22.3476 0.104999 22.2671 0.0966797 22.1849 0.0966797C20.3223 0.0966797 18.5151 0.77147 17.1008 1.97315C15.6866 0.77147 13.8794 0.0966797 12.0168 0.0966797C7.68429 0.0966797 4.15966 3.6213 4.15966 7.95382C4.15966 8.04071 4.16521 8.12576 4.17076 8.2108L4.17168 8.23298C4.16429 8.29307 4.15966 8.35408 4.15966 8.41601V11.6032C1.61303 12.2753 0 13.6932 0 15.3488C0 17.0589 1.65924 18.4621 4.16336 19.1137C4.19941 23.4148 7.70739 26.9034 12.0168 26.9034H42.521C46.7925 26.9034 50.2728 23.4749 50.3689 19.2256C53.1337 18.634 55 17.1642 55 15.3488ZM6.0084 7.95382C6.0084 4.64088 8.70387 1.94542 12.0168 1.94542C13.5633 1.94542 15.0025 2.5287 16.121 3.58525C15.2808 4.835 14.7899 6.33802 14.7899 7.95382C14.7899 8.465 15.2031 8.87819 15.7143 8.87819C16.2255 8.87819 16.6387 8.465 16.6387 7.95382C16.6387 4.71945 19.2103 2.08038 22.415 1.95744C23.7489 2.00735 24.994 2.4871 26.0099 3.3366C25.0624 4.63441 24.4958 6.22802 24.4958 7.95382C24.4958 8.465 24.909 8.87819 25.4202 8.87819C25.9313 8.87819 26.3445 8.465 26.3445 7.95382C26.3445 6.37408 26.962 4.93853 27.9631 3.86441C28.0907 3.7276 28.2238 3.59912 28.3606 3.47618C28.3818 3.45769 28.4013 3.43828 28.4225 3.41979C28.5427 3.31441 28.6684 3.21735 28.795 3.12307C28.8385 3.09071 28.881 3.05651 28.9254 3.02601C29.0261 2.95483 29.1306 2.89197 29.235 2.82819C29.3081 2.78382 29.3802 2.73576 29.456 2.69416C29.5299 2.65349 29.6066 2.61836 29.6815 2.58046C29.7878 2.52777 29.8932 2.47231 30.0032 2.42517C30.0485 2.40575 30.0966 2.39097 30.1428 2.37248C30.2824 2.31702 30.4219 2.26248 30.5661 2.21718C30.5874 2.21071 30.6096 2.20609 30.6318 2.19962C30.8 2.14878 30.9701 2.10349 31.1448 2.06744C31.1596 2.06466 31.1744 2.06374 31.1892 2.06004C31.3703 2.02399 31.5534 1.99534 31.7392 1.97592C31.9425 1.95559 32.1477 1.9445 32.3548 1.9445C33.7755 1.9445 35.1057 2.43626 36.1798 3.33567C35.2324 4.63349 34.6657 6.2271 34.6657 7.9529C34.6657 8.46408 35.0789 8.87727 35.5901 8.87727C36.1013 8.87727 36.5145 8.46408 36.5145 7.9529C36.5145 6.37315 37.1319 4.93761 38.133 3.86349C38.2606 3.72668 38.3937 3.59819 38.5305 3.47525C38.5518 3.45676 38.5712 3.43735 38.5924 3.41886C38.7126 3.31349 38.8383 3.21643 38.965 3.12214C39.0084 3.08979 39.0509 3.05559 39.0953 3.02508C39.196 2.95391 39.3005 2.89105 39.405 2.82727C39.478 2.7829 39.5501 2.73483 39.6259 2.69323C39.6998 2.65256 39.7766 2.61744 39.8514 2.57954C39.9577 2.52685 40.0631 2.47139 40.1731 2.42424C40.2184 2.40483 40.2665 2.39004 40.3127 2.37155C40.4523 2.31609 40.5918 2.26155 40.7361 2.21626C40.7573 2.20979 40.7795 2.20517 40.8017 2.1987C40.9699 2.14786 41.14 2.10256 41.3147 2.06651C41.3295 2.06374 41.3443 2.06281 41.3591 2.05912C41.5403 2.02307 41.7233 1.99441 41.9091 1.975C42.1124 1.95466 42.3176 1.94357 42.5247 1.94357C45.8376 1.94357 48.5331 4.63903 48.5331 7.95197V12.0303L48.5202 12.1597C48.5192 12.1791 48.5109 12.1967 48.5091 12.2161C48.4971 12.3215 48.473 12.4241 48.4287 12.5156C48.4277 12.5174 48.4268 12.5184 48.4259 12.5193C48.376 12.62 48.3094 12.7106 48.229 12.7864C48.2197 12.7947 48.2087 12.7984 48.1994 12.8068C48.1245 12.8724 48.0423 12.9297 47.9498 12.9676C47.8435 13.0101 47.728 13.0369 47.6069 13.0369H45.0612H42.4988H34.8931H32.3141H23.8007H21.2235H13.6308H11.0518H6.93277C6.81261 13.0369 6.69798 13.0101 6.59261 12.9685C6.53067 12.9436 6.47891 12.902 6.42437 12.8641C6.38832 12.8391 6.34857 12.8206 6.31622 12.7911C6.25429 12.7337 6.20437 12.6635 6.16 12.5895C6.14706 12.5692 6.13042 12.5507 6.11933 12.5295C6.07958 12.4509 6.05647 12.3631 6.03983 12.2725C6.03244 12.2309 6.01672 12.1921 6.01487 12.1486L6.0084 12.0876V8.44281L6.02597 8.2829L6.0084 7.95382ZM44.2801 15.6963C44.2736 15.7102 44.2708 15.7241 44.2634 15.7379C44.2117 15.8378 44.1303 15.9395 44.0425 16.0411C43.9926 16.0975 43.9371 16.1539 43.8761 16.2094C43.8114 16.2695 43.7393 16.3286 43.6626 16.3868C43.5415 16.4784 43.4066 16.568 43.2587 16.654C43.2143 16.6799 43.1699 16.7058 43.1237 16.7307C43.0303 16.7816 42.9342 16.8305 42.8325 16.8786C42.2908 17.13 41.6641 17.3251 40.9856 17.4573C40.9829 17.4573 40.981 17.4582 40.9782 17.4582C40.6501 17.522 40.3099 17.57 39.9614 17.6033C39.6 17.6366 39.2238 17.6588 38.8254 17.6588C38.5462 17.6588 38.2698 17.6458 37.9971 17.6264C37.9223 17.6209 37.8483 17.6144 37.7734 17.607C37.5581 17.5876 37.3464 17.5626 37.1375 17.5312C37.0783 17.522 37.0173 17.5155 36.9582 17.5053C36.6993 17.4628 36.447 17.412 36.2039 17.3519C36.1586 17.3408 36.117 17.3279 36.0726 17.3158C35.8748 17.2641 35.6834 17.2068 35.4986 17.1439C35.4644 17.1319 35.4302 17.1199 35.3969 17.1079C35.6067 16.8416 35.7713 16.5606 35.8813 16.2648C35.8822 16.263 35.8831 16.2602 35.884 16.2584C35.9349 16.1216 35.9737 15.982 36.0005 15.8396C36.0033 15.8276 36.007 15.8165 36.0097 15.8045C36.0347 15.6566 36.0504 15.5041 36.0504 15.3488C36.0504 15.1926 36.0356 15.0391 36.007 14.8866H44.2024C44.2163 14.9088 44.2403 14.9328 44.2524 14.9541C44.2644 14.9772 44.2745 14.9994 44.2847 15.0216C44.3355 15.1334 44.3697 15.2434 44.3697 15.3488C44.3697 15.4606 44.3346 15.5771 44.2801 15.6963ZM27.6155 17.6089C27.5361 17.6015 27.4575 17.595 27.3789 17.5858C27.048 17.5497 26.7245 17.5035 26.4148 17.4406C26.3787 17.4332 26.3445 17.4231 26.3085 17.4157C26.0284 17.3556 25.7603 17.2835 25.5043 17.2031C25.4405 17.1827 25.3749 17.1633 25.3129 17.1421C25.0421 17.0496 24.7861 16.947 24.5522 16.8324C24.5383 16.8259 24.5272 16.8185 24.5134 16.8111C24.5198 16.8019 24.5235 16.7917 24.5291 16.7825C24.5855 16.691 24.6372 16.5985 24.6834 16.5033C24.7038 16.4617 24.7204 16.4183 24.7389 16.3767C24.7722 16.299 24.8045 16.2205 24.8295 16.14C24.8517 16.0726 24.8655 16.0032 24.8822 15.9348C24.896 15.8747 24.9136 15.8156 24.9229 15.7546C24.945 15.6205 24.958 15.4856 24.958 15.3488C24.958 15.1935 24.9432 15.04 24.9136 14.8866H34.0233C34.0455 14.9208 34.0843 14.9578 34.1018 14.9911C34.1028 14.9929 34.1037 14.9947 34.1046 14.9966C34.1684 15.1195 34.2017 15.2379 34.2017 15.3488C34.2017 15.4569 34.1666 15.5706 34.1148 15.6862C34.0926 15.7342 34.0575 15.7842 34.0261 15.8331C33.9863 15.896 33.9419 15.9589 33.8874 16.0226C33.831 16.0883 33.7691 16.153 33.6988 16.2168C33.6535 16.2584 33.6008 16.3 33.5491 16.3416C33.4539 16.4174 33.3577 16.4941 33.244 16.5662C32.9945 16.7252 32.7079 16.8666 32.3964 16.9942C32.3492 17.0136 32.3003 17.033 32.2513 17.0515C31.9555 17.1652 31.6375 17.2632 31.3019 17.3473C31.2696 17.3556 31.24 17.3648 31.2067 17.3722C31.045 17.4101 30.8786 17.4434 30.7103 17.4739C30.4755 17.5164 30.238 17.5562 29.9829 17.5848C29.8904 17.595 29.7943 17.6005 29.7 17.6089C29.3645 17.6375 29.0215 17.6597 28.6555 17.6597C28.3024 17.6597 27.9566 17.6384 27.6155 17.6089ZM16.7348 17.6274C16.6599 17.6218 16.586 17.6153 16.5111 17.6079C16.2957 17.5885 16.084 17.5636 15.8751 17.5321C15.816 17.5229 15.755 17.5164 15.6958 17.5063C15.437 17.4637 15.1846 17.4129 14.9415 17.3528C14.8962 17.3417 14.8546 17.3288 14.8103 17.3168C14.6124 17.265 14.4211 17.2077 14.2362 17.1448C14.202 17.1328 14.1678 17.1208 14.1345 17.1088C14.3444 16.8426 14.5089 16.5616 14.6189 16.2658C14.6198 16.2639 14.6208 16.2611 14.6217 16.2593C14.6725 16.1225 14.7113 15.9829 14.7382 15.8405C14.7409 15.8285 14.7446 15.8174 14.7474 15.8054C14.7742 15.6566 14.7899 15.5041 14.7899 15.3488C14.7899 15.1926 14.7751 15.0391 14.7465 14.8866H22.9355C22.9539 14.9162 22.9863 14.9467 23.002 14.9753C23.0076 14.9864 23.0122 14.9975 23.0177 15.0077C23.075 15.126 23.1092 15.2406 23.1092 15.3488C23.1092 15.456 23.0741 15.5697 23.0224 15.6843C23.0057 15.7204 22.9854 15.7546 22.965 15.7897C22.9179 15.8711 22.8569 15.9533 22.7857 16.0356C22.7293 16.0994 22.6729 16.1567 22.6129 16.2112C22.562 16.2584 22.5029 16.3046 22.4446 16.3508C22.3411 16.4321 22.2348 16.5116 22.1146 16.5865C22.085 16.605 22.049 16.6235 22.0176 16.642C21.7634 16.7926 21.4768 16.9285 21.1644 17.0487C21.1154 17.0681 21.0701 17.0884 21.0192 17.1069C20.8649 17.1624 20.7013 17.2123 20.5358 17.2604C20.4415 17.2881 20.3426 17.3131 20.2437 17.338C20.0477 17.387 19.8481 17.4323 19.6401 17.4711C19.4173 17.5118 19.189 17.5488 18.9477 17.5765C18.8322 17.5904 18.7148 17.5996 18.5983 17.6098C18.2655 17.6375 17.9263 17.6606 17.563 17.6606C17.2839 17.6597 17.0075 17.6468 16.7348 17.6274ZM1.84874 15.3488C1.84874 14.7267 2.76941 13.8966 4.49336 13.4159C4.50815 13.4437 4.52664 13.4677 4.54235 13.4945C4.58857 13.574 4.63387 13.6535 4.68748 13.7274C4.76235 13.8319 4.8437 13.9308 4.93151 14.0232C4.9805 14.0741 5.03319 14.1194 5.08588 14.1665C5.15244 14.2266 5.22176 14.2839 5.29387 14.3384C5.34471 14.3763 5.39462 14.4142 5.44916 14.4484C5.5721 14.527 5.69966 14.5991 5.83462 14.6583C5.86605 14.6721 5.89933 14.6805 5.93168 14.6934C6.05185 14.7405 6.17571 14.7794 6.30328 14.8089C6.34857 14.82 6.39387 14.8302 6.44101 14.8385C6.6 14.8663 6.76361 14.8866 6.93277 14.8866H12.7628C12.785 14.9208 12.8238 14.9578 12.8413 14.9911C12.8423 14.9929 12.8432 14.9947 12.8441 14.9966C12.9079 15.1195 12.9412 15.2379 12.9412 15.3488C12.9412 15.4569 12.9061 15.5706 12.8543 15.6862C12.8321 15.7342 12.797 15.7842 12.7655 15.8331C12.7258 15.896 12.6814 15.9589 12.6269 16.0226C12.5705 16.0883 12.5086 16.153 12.4383 16.2168C12.393 16.2584 12.3403 16.3 12.2886 16.3416C12.1934 16.4174 12.0972 16.4941 11.9835 16.5662C11.0564 17.155 9.64025 17.5275 8.13261 17.6246C8.05588 17.6292 7.97916 17.6329 7.90059 17.6357C7.65471 17.6468 7.4079 17.6532 7.16017 17.6486C7.04 17.6468 6.92815 17.6375 6.81076 17.632C6.28571 17.6079 5.76252 17.5571 5.25782 17.46L4.9463 17.4C2.99034 16.9627 1.84874 16.0559 1.84874 15.3488ZM48.5137 19.4779C48.2919 22.5903 45.6879 25.0547 42.521 25.0547H12.0168C8.83605 25.0547 6.22378 22.57 6.02134 19.4391C6.27832 19.4641 6.54176 19.4816 6.80891 19.4927C6.89672 19.4964 6.98454 19.4974 7.07328 19.5001C7.1805 19.502 7.28588 19.5084 7.39496 19.5084C7.47908 19.5084 7.5595 19.5029 7.64269 19.502C7.72866 19.5001 7.81462 19.4983 7.90059 19.4955C8.15387 19.4863 8.40344 19.4715 8.64748 19.4502C8.6484 19.4502 8.64933 19.4502 8.65025 19.4502C10.1431 19.3171 11.4576 18.952 12.4845 18.4149C12.4892 18.4177 12.4947 18.4186 12.4993 18.4214C12.8025 18.5776 13.1334 18.7153 13.4792 18.8401C13.5337 18.8595 13.5864 18.8808 13.6418 18.8993C13.9839 19.0158 14.3434 19.1156 14.7178 19.1997C14.7834 19.2145 14.8491 19.2284 14.9147 19.2413C15.2955 19.3199 15.6875 19.3846 16.0914 19.428C16.1469 19.4345 16.2033 19.4373 16.2587 19.4428C16.6858 19.4835 17.1193 19.5103 17.5612 19.5103C19.8222 19.5103 21.7782 18.9926 23.112 18.1505C23.2876 18.2605 23.4753 18.365 23.6713 18.463C23.7239 18.4898 23.7822 18.512 23.8367 18.5379C23.9957 18.6127 24.1575 18.6858 24.3266 18.7523C24.4098 18.7847 24.4967 18.8142 24.5818 18.8447C24.7315 18.8984 24.8831 18.9511 25.0403 18.9991C25.1364 19.0287 25.2344 19.0546 25.3333 19.0814C25.4886 19.1239 25.6457 19.1637 25.8066 19.1997C25.9101 19.2228 26.0136 19.245 26.119 19.2663C26.2854 19.2995 26.4545 19.3273 26.6255 19.3541C26.7291 19.3698 26.8317 19.3864 26.9361 19.4003C27.1247 19.4243 27.3161 19.4419 27.5092 19.4585C27.6008 19.4659 27.6913 19.477 27.7838 19.4826C28.0703 19.5011 28.3606 19.5112 28.6536 19.5112C30.666 19.5112 32.4371 19.0999 33.7441 18.4158C33.7487 18.4186 33.7543 18.4195 33.7589 18.4223C34.0621 18.5785 34.393 18.7163 34.7387 18.8411C34.7933 18.8605 34.846 18.8817 34.9014 18.9002C35.2434 19.0167 35.603 19.1165 35.9774 19.2006C36.043 19.2154 36.1087 19.2293 36.1743 19.2422C36.5551 19.3208 36.9471 19.3855 37.351 19.429C37.4065 19.4354 37.4629 19.4382 37.5183 19.4437C37.9454 19.4844 38.3789 19.5112 38.8208 19.5112C39.2053 19.5112 39.5778 19.4918 39.9439 19.4622C39.979 19.4595 40.0132 19.4567 40.0483 19.4539C41.2398 19.3504 42.3186 19.0999 43.2291 18.7301C43.3206 18.7671 43.4269 18.7911 43.5221 18.8253C43.7384 18.9039 43.9566 18.9769 44.1858 19.0426C44.354 19.0906 44.5241 19.1332 44.6988 19.1738C44.9392 19.2302 45.1823 19.2783 45.4328 19.3199C45.6158 19.3504 45.7979 19.3781 45.9855 19.4012C46.2351 19.4317 46.4856 19.4521 46.7408 19.4687C46.9404 19.4816 47.1373 19.4937 47.3388 19.4974C47.4276 19.4992 47.5135 19.5103 47.6032 19.5103C47.9092 19.5103 48.2087 19.4983 48.5035 19.4798C48.5082 19.4779 48.5109 19.4779 48.5137 19.4779ZM49.1044 17.558C48.9611 17.5765 48.8178 17.5941 48.6736 17.607C48.3593 17.6347 48.0349 17.6523 47.6929 17.6551C47.6023 17.656 47.5126 17.6514 47.422 17.6505C47.1549 17.6468 46.8914 17.632 46.6308 17.6107C46.5272 17.6015 46.4228 17.5959 46.3211 17.5848C46.0179 17.5516 45.7221 17.5035 45.4346 17.4471C45.3884 17.4379 45.344 17.4268 45.2978 17.4166C45.2987 17.4157 45.2987 17.4157 45.2997 17.4147C45.4392 17.2715 45.5659 17.1236 45.675 16.9692C45.6999 16.935 45.7175 16.8989 45.7406 16.8638C45.8155 16.7501 45.8829 16.6337 45.9403 16.5153C45.968 16.459 45.9911 16.4016 46.0142 16.3443C46.0586 16.2362 46.0937 16.1253 46.1233 16.0134C46.1371 15.9598 46.1538 15.9071 46.1649 15.8526C46.1972 15.688 46.2185 15.5207 46.2185 15.3488C46.2185 15.1935 46.2037 15.0391 46.175 14.8866H47.605C47.7724 14.8866 47.936 14.8663 48.0959 14.8367C48.1504 14.8274 48.2031 14.8136 48.2567 14.8006C48.3603 14.7747 48.461 14.7433 48.5599 14.7063C48.6191 14.6851 48.6782 14.6657 48.7346 14.6398C48.8585 14.5834 48.9777 14.5196 49.0914 14.4457C49.17 14.3958 49.2412 14.3375 49.3133 14.2802C49.3558 14.2469 49.3974 14.2137 49.4381 14.1776C49.5139 14.1101 49.585 14.0408 49.6534 13.9659C49.6747 13.9428 49.6932 13.9179 49.7135 13.8938C49.8596 13.721 49.9844 13.5333 50.0851 13.329C50.0888 13.3226 50.0934 13.3161 50.0962 13.3096C52.0245 13.7524 53.1513 14.6444 53.1513 15.3488C53.1513 16.1632 51.6371 17.2391 49.1044 17.558Z" fill="#222222" />
    <path d="M11.0923 22.2815C11.6029 22.2815 12.0167 21.8677 12.0167 21.3572C12.0167 20.8467 11.6029 20.4328 11.0923 20.4328C10.5818 20.4328 10.168 20.8467 10.168 21.3572C10.168 21.8677 10.5818 22.2815 11.0923 22.2815Z" fill="#222222" />
    <path d="M15.7144 24.1303C16.2249 24.1303 16.6388 23.7164 16.6388 23.2059C16.6388 22.6954 16.2249 22.2816 15.7144 22.2816C15.2039 22.2816 14.79 22.6954 14.79 23.2059C14.79 23.7164 15.2039 24.1303 15.7144 24.1303Z" fill="#222222" />
    <path d="M19.4117 22.2815C19.9222 22.2815 20.336 21.8677 20.336 21.3572C20.336 20.8467 19.9222 20.4328 19.4117 20.4328C18.9012 20.4328 18.4873 20.8467 18.4873 21.3572C18.4873 21.8677 18.9012 22.2815 19.4117 22.2815Z" fill="#222222" />
    <path d="M22.1851 24.1303C22.6956 24.1303 23.1095 23.7164 23.1095 23.2059C23.1095 22.6954 22.6956 22.2816 22.1851 22.2816C21.6746 22.2816 21.2607 22.6954 21.2607 23.2059C21.2607 23.7164 21.6746 24.1303 22.1851 24.1303Z" fill="#222222" />
    <path d="M25.8824 22.2815C26.3929 22.2815 26.8067 21.8677 26.8067 21.3572C26.8067 20.8467 26.3929 20.4328 25.8824 20.4328C25.3719 20.4328 24.958 20.8467 24.958 21.3572C24.958 21.8677 25.3719 22.2815 25.8824 22.2815Z" fill="#222222" />
    <path d="M29.5796 24.1303C30.0902 24.1303 30.504 23.7164 30.504 23.2059C30.504 22.6954 30.0902 22.2816 29.5796 22.2816C29.0691 22.2816 28.6553 22.6954 28.6553 23.2059C28.6553 23.7164 29.0691 24.1303 29.5796 24.1303Z" fill="#222222" />
    <path d="M33.2774 21.3572C33.7879 21.3572 34.2018 20.9433 34.2018 20.4328C34.2018 19.9223 33.7879 19.5084 33.2774 19.5084C32.7669 19.5084 32.353 19.9223 32.353 20.4328C32.353 20.9433 32.7669 21.3572 33.2774 21.3572Z" fill="#222222" />
    <path d="M36.0503 24.1303C36.5609 24.1303 36.9747 23.7164 36.9747 23.2059C36.9747 22.6954 36.5609 22.2816 36.0503 22.2816C35.5398 22.2816 35.126 22.6954 35.126 23.2059C35.126 23.7164 35.5398 24.1303 36.0503 24.1303Z" fill="#222222" />
    <path d="M40.6724 22.2815C41.1829 22.2815 41.5968 21.8677 41.5968 21.3572C41.5968 20.8467 41.1829 20.4328 40.6724 20.4328C40.1619 20.4328 39.748 20.8467 39.748 21.3572C39.748 21.8677 40.1619 22.2815 40.6724 22.2815Z" fill="#222222" />
    <path d="M44.3697 23.2059C44.8802 23.2059 45.2941 22.7921 45.2941 22.2815C45.2941 21.771 44.8802 21.3572 44.3697 21.3572C43.8592 21.3572 43.4453 21.771 43.4453 22.2815C43.4453 22.7921 43.8592 23.2059 44.3697 23.2059Z" fill="#222222" />
</svg>