<svg width="54" height="23" viewBox="0 0 54 23" fill="none" xmlns="http://www.w3.org/2000/svg">
    <path d="M37.5609 0.932373H16.3122C7.31758 0.932373 0 8.24996 0 17.2446V20.0169C0 21.6245 1.3079 22.9324 2.91546 22.9324H50.9577C52.5652 22.9324 53.8732 21.6244 53.8732 20.0169V17.2446C53.8731 8.24996 46.5555 0.932373 37.5609 0.932373ZM51.7268 20.0168C51.7268 20.441 51.3818 20.786 50.9576 20.786H2.91546C2.49131 20.786 2.14629 20.441 2.14629 20.0168V17.2444C2.14629 9.43338 8.50111 3.07856 16.3121 3.07856H17.1706V5.86881C17.1706 6.46141 17.651 6.94196 18.2437 6.94196C18.8364 6.94196 19.3169 6.46141 19.3169 5.86881V3.07856H25.8632V10.0542C25.8632 10.6468 26.3436 11.1273 26.9363 11.1273C27.529 11.1273 28.0095 10.6468 28.0095 10.0542V3.07856H34.5558V10.0542C34.5558 10.6468 35.0362 11.1273 35.6289 11.1273C36.2216 11.1273 36.7021 10.6468 36.7021 10.0542V3.07856H37.5606C45.3716 3.07856 51.7265 9.43338 51.7265 17.2444V20.0168H51.7268Z" fill="#222222" />
    <path d="M18.244 8.2298C17.6513 8.2298 17.1709 8.71034 17.1709 9.30294V10.0541C17.1709 10.6467 17.6513 11.1273 18.244 11.1273C18.8368 11.1273 19.3172 10.6467 19.3172 10.0541V9.30294C19.3173 8.71034 18.8368 8.2298 18.244 8.2298Z" fill="#222222" />
</svg>