<svg width="37" height="45" viewBox="0 0 37 45" fill="none" xmlns="http://www.w3.org/2000/svg">
    <path d="M36.6966 24.2187C36.5425 21.113 34.0321 19.6754 32.311 19.2214C32.0812 13.871 28.7814 9.14634 23.869 7.07879C24.8749 5.46362 24.8767 4.10392 24.7659 3.37772C24.5111 1.7069 23.2951 0.376309 21.7403 0.0667757C20.5413 -0.171703 19.3835 0.236157 18.5002 1.16904C17.6166 0.236157 16.4587 -0.171581 15.2595 0.0667757C13.7048 0.376431 12.489 1.70702 12.234 3.37772C12.1232 4.10404 12.1252 5.46435 13.1319 7.07989C8.21891 9.14732 4.9186 13.8709 4.68856 19.2214C2.9676 19.6754 0.457091 21.113 0.303242 24.2186C0.302508 24.2296 0.323298 24.4434 0.324521 24.4481L5.45304 44.4484C5.5362 44.773 5.82874 45 6.16383 45H30.8361C31.1712 45 31.4636 44.7731 31.547 44.4484L36.6754 24.4481C36.6763 24.4439 36.6972 24.2292 36.6966 24.2187ZM13.6846 3.5992C13.8468 2.53668 14.5949 1.69565 15.5461 1.50621C16.4363 1.32888 17.2838 1.78395 17.8714 2.75425L17.8731 2.75327C17.9325 2.85197 18.0156 2.93806 18.1208 3.00178C18.4676 3.21152 18.9187 3.10084 19.1285 2.75413C19.7162 1.78382 20.5642 1.32876 21.4536 1.50621C22.405 1.69565 23.1531 2.53668 23.3152 3.5992C23.6279 5.6478 21.8337 7.98098 18.5 9.88734C15.1663 7.98098 13.3721 5.6478 13.6846 3.5992ZM2.0335 25.2048C2.5606 25.4463 2.9495 25.8783 3.39919 26.3802C4.05617 27.1136 4.8555 28.0043 6.25555 28.2062L9.15668 43.5324H6.733L2.0335 25.2048ZM12.0221 25.082L13.4927 43.5324H10.6505L7.7395 28.1545C8.96688 27.8815 9.70188 27.0628 10.3135 26.3802C10.855 25.7757 11.3086 25.2722 12.0221 25.082ZM14.9648 43.5324L13.4982 25.133C14.1189 25.3528 14.543 25.8235 15.0416 26.3802C15.6773 27.09 16.4477 27.9453 17.7652 28.183L17.766 43.5324H14.9648ZM19.2327 28.183C20.55 27.9453 21.3203 27.0899 21.9562 26.3802C22.4554 25.8229 22.8799 25.3518 23.5015 25.1324L22.0347 43.5324H19.2337L19.2327 28.183ZM23.5069 43.5324L24.9776 25.0825C25.69 25.2729 26.1434 25.7762 26.6846 26.3802C27.2964 27.0631 28.0319 27.8819 29.2601 28.1547L26.3492 43.5324H23.5069ZM30.2665 43.5324H27.8428L30.744 28.2061C32.1436 28.004 32.9432 27.1136 33.6 26.3802C34.0498 25.8781 34.439 25.446 34.9663 25.2047L30.2665 43.5324ZM32.5069 25.4009C31.816 26.1723 31.2702 26.7814 30.1423 26.7814C29.0145 26.7814 28.4687 26.1722 27.7777 25.4009C27.0318 24.5682 26.1035 23.5321 24.3203 23.5321C22.5371 23.5321 21.6088 24.5684 20.8631 25.4009C20.1721 26.1723 19.6265 26.7814 18.4988 26.7814C17.3714 26.7814 16.8257 26.1722 16.1348 25.4009C15.3889 24.5682 14.4607 23.5321 12.6776 23.5321C10.8945 23.5321 9.96629 24.5684 9.22027 25.4009C8.52954 26.1723 7.98373 26.7814 6.85628 26.7814C5.72882 26.7814 5.18313 26.1722 4.49228 25.4009C3.8715 24.7078 3.12231 23.8757 1.86045 23.6155C2.43219 21.0463 5.3815 20.5666 5.51505 20.5462C5.87582 20.4938 6.14341 20.1846 6.14341 19.8201C6.14341 14.6928 9.30026 10.1201 14.0494 8.28892C14.946 9.28588 16.2533 10.3381 18.1478 11.3715C18.2594 11.4323 18.3798 11.4612 18.4984 11.4612L18.5002 11.4551L18.5016 11.4612C18.6204 11.4612 18.7408 11.4323 18.8525 11.3715C20.7468 10.3381 22.0542 9.28588 22.9507 8.28892C27.6997 10.1201 30.8566 14.6928 30.8566 19.8201C30.8566 20.1845 31.1241 20.4938 31.4848 20.5462C31.4938 20.5476 32.4156 20.693 33.3364 21.2364C34.3168 21.8148 34.9213 22.6133 35.1418 23.615C33.8783 23.8747 33.1282 24.7074 32.5069 25.4009Z" fill="#222222" />
</svg>