<svg width="68" height="68" viewBox="0 0 68 68" fill="none" xmlns="http://www.w3.org/2000/svg">
<path d="M67.715 33.6747L64.2023 36.8665L66.9818 40.7147L62.8818 43.1061L64.7946 47.4504L60.2849 48.931L61.2497 53.5783L56.5307 54.0897L56.5124 58.8363L51.7899 58.3608L50.7896 63.0004L46.2689 61.5544L44.3225 65.8834L40.2049 63.5233L37.3958 67.3494L33.8576 64.1842L30.3196 67.3494L27.5104 63.5234L23.3921 65.8833L21.4453 61.5541L16.9245 62.9997L15.924 58.3598L11.2014 58.8351L11.1834 54.0885L6.46443 53.577L7.42958 48.9299L2.92005 47.4495L4.83308 43.1057L0.733355 40.715L3.51283 36.8668L0 33.6747L3.51283 30.4827L0.733219 26.6348L4.83321 24.2431L2.92044 19.899L7.4301 18.4183L6.46534 13.771L11.1843 13.2595L11.2026 8.51305L15.9251 8.98855L16.9256 4.3488L21.446 5.79496L23.3925 1.46592L27.5101 3.82591L30.3193 0L33.8576 3.16507L37.3954 0L40.2045 3.82578L44.3229 1.46605L46.2697 5.79535L50.7905 4.34946L51.7911 8.98934L56.5137 8.51423L56.5318 13.2607L61.2506 13.7723L60.2854 18.4192L64.795 19.8998L62.8819 24.2435L66.9817 26.6344L64.2022 30.4824L67.715 33.6747Z" fill="#FE4852"/>
</svg>
