<svg width="40" height="26" viewBox="0 0 40 26" fill="none" xmlns="http://www.w3.org/2000/svg">
<path d="M40 20.7851C39.8115 21.137 39.5104 21.2429 39.1239 21.2315C38.5415 21.2127 37.958 21.2263 37.3445 21.2263C37.2819 22.528 36.7986 23.5962 35.7817 24.3873C35.0254 24.9759 34.1566 25.2468 33.1981 25.2136C31.5541 25.1575 29.5362 23.9357 29.3643 21.2553C24.6856 21.2553 20.0057 21.2553 15.2916 21.2553C15.2301 22.5769 14.7145 23.6679 13.6362 24.4579C12.8735 25.0164 12.0109 25.2614 11.0681 25.2095C9.5252 25.1244 7.50515 23.9938 7.31346 21.2263C7.1801 21.2263 7.04259 21.2263 6.90507 21.2263C5.96745 21.2263 5.02983 21.2315 4.0922 21.2252C3.18792 21.219 2.66806 20.6948 2.66077 19.7926C2.65764 19.394 2.65973 18.9954 2.65973 18.5531C2.07319 18.5531 1.52937 18.5542 0.985548 18.5521C0.829277 18.5521 0.670924 18.5583 0.517778 18.5365C0.206279 18.4908 0.0291725 18.2884 0.00312739 17.9873C-0.0250012 17.6645 0.13752 17.4372 0.454228 17.3479C0.577161 17.3126 0.711554 17.3095 0.840737 17.3095C2.70244 17.3074 4.56519 17.3074 6.42688 17.3084C6.51752 17.3084 6.61025 17.3074 6.69984 17.3219C7.04572 17.378 7.27178 17.6426 7.25616 17.9635C7.24053 18.2874 6.99884 18.5386 6.64253 18.5448C5.88723 18.5593 5.13192 18.5511 4.37662 18.5521C4.23702 18.5521 4.09742 18.5521 3.93489 18.5521C3.93489 19.0358 3.93489 19.4708 3.93489 19.94C4.03073 19.9525 4.12866 19.9774 4.22764 19.9774C5.2434 19.9805 6.25916 19.9722 7.27491 19.9847C7.49682 19.9868 7.5812 19.8985 7.6708 19.7085C8.3886 18.1805 9.60438 17.3281 11.2963 17.324C13.0038 17.3209 14.2331 18.169 14.9509 19.72C15.0416 19.9162 15.1447 19.9837 15.3583 19.9837C19.4859 19.9774 23.6146 19.9794 27.7421 19.9784C27.8307 19.9784 27.9193 19.9639 28.0506 19.9535C28.0506 19.7989 28.0506 19.6608 28.0506 19.5217C28.0506 18.2115 28.0506 16.9005 28.0506 15.5903C28.0506 15.4865 28.0453 15.3817 28.0537 15.2789C28.0839 14.9135 28.3433 14.653 28.6725 14.6477C29.0225 14.6426 29.2955 14.9094 29.2976 15.3017C29.3059 16.7032 29.3017 18.1046 29.3017 19.5061C29.3017 19.5964 29.2851 19.692 29.308 19.7771C29.3278 19.8487 29.3882 19.9556 29.4392 19.9619C29.508 19.9691 29.5924 19.9017 29.6549 19.8487C29.6893 19.8197 29.6914 19.7542 29.7143 19.7075C30.4404 18.1825 31.6531 17.3303 33.344 17.325C35.0525 17.3199 36.2797 18.1732 37.0007 19.72C37.0923 19.9172 37.1902 19.993 37.4049 19.9847C37.8321 19.9702 38.2602 19.9805 38.7176 19.9805C38.7176 19.0629 38.7176 18.1752 38.7176 17.2212C38.4998 17.2212 38.2716 17.2264 38.0435 17.2202C36.8954 17.1891 36.0975 16.3814 36.0807 15.2354C36.0746 14.8336 36.0746 14.4307 36.0807 14.029C36.0891 13.5442 36.312 13.3221 36.8058 13.3159C37.3914 13.3086 37.9768 13.3137 38.6144 13.3137C38.5196 12.9016 38.3144 12.5767 37.9977 12.3899C37.6393 12.1781 37.2236 11.9372 36.8287 11.9311C34.3816 11.8895 31.9323 11.9092 29.4841 11.9092C29.4351 11.9092 29.3862 11.9248 29.2996 11.9393C29.2996 12.1667 29.308 12.3836 29.2976 12.6006C29.2788 12.9743 29.0319 13.2245 28.6902 13.2307C28.3527 13.237 28.0901 12.9888 28.0547 12.6214C28.0432 12.5051 28.0495 12.3878 28.0495 12.2715C28.0495 8.76789 28.0495 5.26426 28.0495 1.76063C28.0495 1.60699 28.0495 1.45231 28.0495 1.27272C20.0057 1.27272 11.9901 1.27272 3.91093 1.27272C3.91093 1.42014 3.91093 1.56962 3.91093 1.71911C3.91093 5.23519 3.91093 8.75231 3.91093 12.2684C3.91093 12.3982 3.91718 12.529 3.90364 12.6577C3.86822 13.0055 3.66089 13.2037 3.32023 13.2256C2.99414 13.2463 2.77536 13.0657 2.69098 12.7542C2.65451 12.6193 2.65973 12.4719 2.65973 12.3297C2.65868 8.72221 2.65764 5.11477 2.65868 1.50734C2.66181 0.499331 3.16291 0 4.17346 0C12.0516 0 19.9307 0 27.8088 0C28.8059 0 29.3007 0.489989 29.3039 1.47516C29.3049 1.84991 29.3039 2.22363 29.3039 2.6368C29.4685 2.64407 29.606 2.65652 29.7434 2.65652C31.0843 2.65756 32.4271 2.68456 33.7669 2.6503C35.4515 2.60774 36.9225 3.76522 36.6287 6.04388C36.6017 6.25151 36.3808 6.43318 36.1995 6.70412C36.4965 7.88965 36.8162 9.18416 37.1517 10.4735C37.1777 10.5732 37.2934 10.6988 37.3903 10.7237C38.7884 11.0829 39.6365 11.9611 39.9448 13.3636C39.9531 13.4 39.9812 13.431 39.999 13.4653C40 15.9059 40 18.3455 40 20.7851ZM35.8713 10.6407C35.8495 10.5192 35.8359 10.4185 35.812 10.3199C35.5348 9.20182 35.2473 8.08584 34.9817 6.96469C34.914 6.6792 34.8014 6.5702 34.4899 6.57436C32.9033 6.592 31.3156 6.58162 29.7278 6.5837C29.6007 6.5837 29.4747 6.59512 29.3383 6.60135C29.3383 7.96751 29.3383 9.30459 29.3383 10.6417C31.5302 10.6407 33.6867 10.6407 35.8713 10.6407ZM33.3731 23.971C34.8536 23.9648 36.0787 22.7377 36.0777 21.2616C36.0766 19.7844 34.8525 18.5666 33.3658 18.5614C31.8677 18.5562 30.6228 19.802 30.6415 21.2875C30.6602 22.7689 31.8917 23.9783 33.3731 23.971ZM11.3129 23.971C12.7975 23.9699 14.0153 22.7575 14.0237 21.2719C14.0331 19.7958 12.8194 18.577 11.3264 18.5614C9.83149 18.5458 8.58758 19.7822 8.59384 21.2771C8.60113 22.7544 9.83045 23.9721 11.3129 23.971ZM29.3278 3.90952C29.3278 4.4099 29.3278 4.84486 29.3278 5.29748C31.3582 5.29748 33.3658 5.29748 35.3723 5.29748C35.3952 4.49087 34.8077 3.92094 33.9534 3.9116C33.0168 3.90226 32.0802 3.90952 31.1447 3.90952C30.5478 3.90952 29.9528 3.90952 29.3278 3.90952ZM38.727 14.5875C38.2581 14.5875 37.8112 14.5875 37.3684 14.5875C37.2143 15.7845 37.5404 16.1062 38.727 15.9318C38.727 15.5 38.727 15.064 38.727 14.5875Z" fill="#0da487"/>
<path d="M15.3345 11.7244C16.8972 10.163 18.4328 8.62971 19.9684 7.09642C20.2622 6.80263 20.5518 6.50263 20.854 6.21714C21.1509 5.93581 21.501 5.92439 21.7603 6.16835C22.026 6.41853 22.0291 6.80367 21.7322 7.10057C19.757 9.07713 17.7776 11.0506 15.7929 13.0178C15.4783 13.3303 15.1532 13.3199 14.8313 13.0022C13.7488 11.9341 12.6727 10.8596 11.5986 9.78201C11.2902 9.47163 11.2756 9.11554 11.5361 8.85083C11.8091 8.57366 12.1663 8.5913 12.4987 8.91831C13.3405 9.7488 14.176 10.5866 15.0146 11.4212C15.1043 11.5105 15.2001 11.5967 15.3345 11.7244Z" fill="#0da487"/>
<path d="M21.3242 18.5531C19.8657 18.5531 18.4082 18.5531 16.9496 18.552C16.8194 18.552 16.6882 18.5561 16.5601 18.5375C16.2277 18.4887 16.0496 18.2697 16.036 17.9551C16.0224 17.6561 16.1798 17.4299 16.4829 17.3489C16.6184 17.3125 16.7663 17.3084 16.908 17.3084C19.8636 17.3063 22.8182 17.3063 25.7738 17.3073C25.8643 17.3073 25.9571 17.3053 26.0467 17.3167C26.4134 17.3665 26.654 17.6396 26.6321 17.9717C26.6114 18.2946 26.3686 18.5333 26.0102 18.5458C25.5425 18.5614 25.0726 18.552 24.6048 18.552C23.5109 18.5541 22.4181 18.5531 21.3242 18.5531Z" fill="#0da487"/>
<path d="M5.96968 15.8906C4.68201 15.8906 3.39329 15.8916 2.10562 15.8896C1.6139 15.8885 1.32844 15.655 1.33157 15.2678C1.3347 14.8878 1.63161 14.6469 2.11708 14.6459C4.69347 14.6438 7.26984 14.6459 9.84622 14.6438C10.1421 14.6438 10.4223 14.7154 10.5182 15.003C10.5796 15.1868 10.5765 15.4816 10.4661 15.6082C10.3296 15.766 10.0525 15.875 9.83372 15.8792C8.54605 15.903 7.25734 15.8906 5.96968 15.8906Z" fill="#0da487"/>
<path d="M33.3639 19.9849C34.0838 19.987 34.6578 20.5589 34.6537 21.27C34.6506 21.9739 34.0578 22.5614 33.3555 22.5594C32.6503 22.5573 32.0669 21.9687 32.0679 21.2628C32.07 20.5475 32.643 19.9828 33.3639 19.9849Z" fill="#0da487"/>
<path d="M11.2979 19.9847C12.0229 19.9784 12.5907 20.5349 12.596 21.2553C12.6011 21.9705 12.0323 22.5519 11.3218 22.5592C10.6228 22.5665 10.0227 21.9778 10.0133 21.2771C10.0029 20.5722 10.5812 19.9898 11.2979 19.9847Z" fill="#0da487"/>
</svg>
