<svg width="640" height="91" viewBox="0 0 640 91" fill="none" xmlns="http://www.w3.org/2000/svg">
<path d="M238 90.5H296.7L319 60.3H260.3L238 90.5ZM0 72.2V78.6H81.8L86.5 72.2H0ZM172.9 60.3C164.2 60.3 166.9 56.7 168.3 54.8C171.1 51 175.9 44.4 178.7 40.7C181.5 37 181.5 34.8 175.9 34.8H124.9L83.8 90.6H183.9C217 90.6 235.4 68.1 241.1 60.3H172.9V60.3ZM490.4 53.4L529.7 0H467.5L428.2 53.4H490.4V53.4ZM95.3 60.3H0V66.7H90.6L95.3 60.3ZM206.3 33.7C203.5 37.5 198.8 44.1 196 47.9C194.6 49.9 191.9 53.4 200.6 53.4H246.2C246.2 53.4 253.5 43.4 259.7 35C268.1 23.6 260.4 0 230.5 0H112.6L92.2 27.8H203.6C209.2 27.8 209.1 30 206.3 33.7V33.7ZM0 90.5H73.1L77.8 84.1H0V90.5ZM323 90.5H381.7L404 60.3H345.3C345.2 60.3 323 90.5 323 90.5ZM545 90.6H640V84.2H549.7L545 90.6ZM567.3 60.3L562.6 66.7H640V60.3H567.3ZM553.8 78.6H640V72.2H558.5L553.8 78.6ZM389.6 0L367.1 30.6H340.9L363.4 0H304.7L265.4 53.4H409L448.3 0H389.6V0ZM423.1 60.3C423.1 60.3 418.8 66.2 416.7 69C409.3 79 415.8 90.6 439.9 90.6H534.2L556.5 60.3H423.1V60.3Z" fill="#5D5D5D"/>
</svg>
