<svg version="1.2" xmlns="http://www.w3.org/2000/svg" viewBox="0 0 501 500" width="501" height="500">
	<title>noun-discount-offer-4142797-svg</title>
	<style>
		.s0 { fill: #000000 } 
	</style>
	<g id="Layer">
		<path id="Layer" fill-rule="evenodd" class="s0" d="m250 499.4c-15.8 0-28.9-11.4-39.4-21-5.2-5.3-11.4-10.5-18.4-13.1q-11.8-1.4-23.6 2.6c-14 2.6-29.7 6.1-43.7-1.8-14-7.8-18.4-23.6-22.8-37.6-1.7-7.9-5.2-14.9-9.6-21-6.1-4.4-14-7.9-21-9.6-14-4.4-29.8-9.6-37.6-22.8-7.9-13.1-4.4-29.7-1.8-43.7q4-11.8 2.7-23.6-5.3-10.5-13.2-18.4c-9.6-10.5-21-23.6-21-39.4 0-15.7 11.4-28.9 21-39.4 5.3-5.2 10.5-11.3 13.2-18.3q1.3-11.9-2.7-23.7c-2.6-14-6.1-29.7 1.8-43.7 7.9-14 23.6-18.4 37.6-22.8 7.9-1.7 14.9-5.2 21-9.6 4.4-6.1 7.9-14 9.6-21 4.4-14 9.7-29.7 22.8-37.6 13.1-7.9 29.7-4.4 43.7-1.8q11.8 4 23.6 2.7 10.5-5.3 18.4-13.2c10.5-9.6 23.6-21 39.4-21 15.8 0 28.9 11.4 39.4 21 5.2 5.3 11.4 10.5 18.4 13.2q11.8 1.3 23.6-2.7c14-2.6 29.7-6.1 43.7 1.8 14 7.9 18.4 23.6 23.6 37.6 1.8 7.9 5.3 14.9 9.7 21 6.1 4.4 14 7.9 21 9.6 14 4.4 29.7 9.7 37.6 22.8 7.9 13.1 4.4 29.7 1.7 43.7q-3.9 11.8-2.6 23.7 5.3 10.5 13.1 18.3c9.7 10.5 21 23.7 21 39.4 0 15.8-11.3 28.9-21 39.4-5.2 5.2-10.5 11.4-13.1 18.4q-1.3 11.8 2.6 23.6c2.7 14 6.2 29.7-1.7 43.7-7.9 14-23.6 18.4-37.6 23.7-7.9 1.7-14.9 5.2-21 9.6-4.4 6.1-7.9 14-9.7 21-4.3 14-9.6 29.7-22.7 37.6-13.1 7.9-29.8 4.4-43.8 1.8q-11.8-4-23.6-2.7-10.5 5.3-18.4 13.2c-11.3 9.6-24.5 20.1-40.2 20.1zm-62.1-61.3c3.5 0 7.8 0.9 11.3 1.8 11.4 4.4 21 10.5 28.9 19.2 7.9 7 15.8 14 21.9 14 6.1 0 14-7 21.9-14 7.9-8.7 18.4-14.8 28.9-19.2 12.2-1.8 24.5-1.8 35.8 1.7 9.7 1.8 20.2 4.4 25.4 1.8 5.3-2.6 8.8-13.1 11.4-22.8 2.6-11.3 7.9-22.7 15.7-31.5 8.8-7.8 20.2-13.1 31.5-15.7 9.7-2.6 20.2-6.1 22.8-11.4 2.6-4.4 0.9-15.7-1.8-25.4-3.5-11.3-4.3-23.6-1.7-35.8 4.4-11.4 10.5-21 19.2-28.9 7-7.9 14-15.8 14-21.9 0-6.1-7-14-14-21.9-8.7-7.8-14.8-18.3-19.2-28.8-1.8-12.3-1.8-24.5 1.7-35.9 1.8-9.6 4.4-20.1 1.8-25.4-2.6-5.2-13.1-8.7-22.8-11.4-11.3-2.6-22.7-7.8-31.5-15.7-7.8-8.8-13.1-20.1-15.7-31.5-2.6-9.6-6.1-20.1-11.4-22.8-4.4-2.6-15.7-0.8-25.4 1.8-11.3 3.5-23.6 4.4-35.8 1.7-11.4-4.3-21-10.5-28.9-19.2-7.9-7-15.8-14-21.9-14-6.1 0-14 7-21.9 14-7.9 8.7-18.4 14.9-28.9 19.2-12.2 1.8-24.5 1.8-35.8-1.7-9.7-1.8-20.2-4.4-25.4-1.8-5.3 2.7-8.8 13.2-11.4 22.8-2.6 11.4-7.9 22.7-15.7 31.5-8.8 7.9-20.2 13.1-31.5 15.7-9.7 2.7-20.2 6.2-22.8 11.4-2.6 4.4-0.9 15.8 1.8 25.4 3.5 11.4 4.3 23.6 1.7 35.9-4.4 11.3-10.5 21-19.2 28.8-7 7.9-14 15.8-14 21.9 0 6.1 7 14 14 21.9 8.7 7.9 14.8 18.4 19.2 28.9 1.8 12.2 1.8 24.5-1.7 35.8-1.8 9.7-4.4 20.2-1.8 25.4 2.6 5.3 13.1 8.8 22.8 11.4 11.3 2.6 22.7 7.9 31.5 15.7 7.8 8.8 13.1 20.2 15.7 31.5 2.6 9.7 6.1 20.2 11.4 22.8 4.4 2.6 15.7 0.9 25.4-1.8 7.8-1.7 15.7-2.6 24.5-3.5z"/>
		<path id="Layer" class="s0" d="m158.1 363.8c-7-0.1-13.1-6.2-13.1-13.2 0-3.5 0.9-6.1 3.5-8.7l183.7-201.3c5.3-5.2 13.2-5.2 18.4-0.9 5.3 5.3 5.3 13.2 0.9 18.4l-183.8 201.3c-2.6 2.6-6.1 4.3-9.6 4.3z"/>
		<path id="Layer" fill-rule="evenodd" class="s0" d="m193.1 232.5c-26.2 0-48.1-21.9-48.1-48.1 0-26.3 21.9-48.1 48.1-48.1 26.3 0 48.1 21.8 48.1 48.1 0 26.2-21.8 48.1-48.1 48.1zm0-70c-12.2 0-21.9 9.6-21.9 21.9 0 12.2 9.7 21.9 21.9 21.9 12.3 0 21.9-9.7 21.9-21.9 0-12.3-9.6-21.9-21.9-21.9z"/>
		<path id="Layer" fill-rule="evenodd" class="s0" d="m306.9 363.8c-26.3-0.1-48.1-21.9-48.1-48.2 0-26.2 21.8-48.1 48.1-48.1 26.2 0 48.1 21.9 48.1 48.1 0 26.3-21.9 48.1-48.1 48.1zm0-70c-12.3 0-21.9 9.7-21.9 21.9 0 12.3 9.6 21.9 21.9 21.9 12.2 0 21.9-9.6 21.9-21.9 0-12.2-9.7-21.9-21.9-21.9z"/>
	</g>
</svg>